<svg width="1080" height="1080" viewBox="0 0 1080 1080" fill="none" xmlns="http://www.w3.org/2000/svg">
<path d="M544.688 898.053C752.536 898.053 921.031 729.558 921.031 521.709C921.031 313.86 752.536 145.366 544.688 145.366C336.839 145.366 168.344 313.86 168.344 521.709C168.344 729.558 336.839 898.053 544.688 898.053Z" fill="#6CEFE6"/>
<path d="M428.534 524.872L428.094 525.437C420.266 535.472 405.794 537.247 395.759 529.419L380.966 517.866C390.334 524.678 418.544 488.569 409.819 481.044L424.556 492.537C434.584 500.384 436.366 514.838 428.537 524.872H428.534Z" fill="#FF5722"/>
<g opacity="0.3">
<path d="M431.409 520.097C430.659 521.759 429.712 523.375 428.531 524.872L428.091 525.437C420.262 535.472 405.791 537.247 395.756 529.419L380.962 517.866C384.256 520.266 389.894 517.344 395.419 512.219L404.319 519.166C412.391 525.466 423.359 525.55 431.412 520.097H431.409Z" fill="#102770"/>
</g>
<g opacity="0.51">
<path d="M428.534 524.872L428.094 525.437C426.472 527.503 424.575 529.244 422.481 530.591C427.894 520.847 425.562 508.375 416.503 501.278L408.491 495.034C411.584 488.978 412.666 483.506 409.819 481.044L424.556 492.537C434.584 500.384 436.366 514.838 428.537 524.872H428.534Z" fill="white"/>
</g>
<path d="M380.962 517.866L380.825 517.763L368.837 508.388C368.825 508.383 368.814 508.379 368.803 508.375L368.784 508.369L287.087 444.581C286.891 444.419 286.694 444.256 286.522 444.081C285.366 443.038 284.447 441.744 283.853 440.287L267.362 399.506L310.947 405.6C312.534 405.822 314.041 406.406 315.372 407.334C315.547 407.45 315.719 407.566 315.887 407.7L397.584 471.487L397.603 471.494L409.628 480.878L409.662 480.891C409.725 480.931 409.766 480.984 409.825 481.041C418.55 488.566 390.341 524.678 380.972 517.862L380.962 517.866Z" fill="#F7C714"/>
<path d="M286.522 444.084C285.366 443.041 284.447 441.747 283.853 440.291L267.362 399.509L310.947 405.603C312.534 405.825 314.041 406.409 315.372 407.338C323.019 415.372 296.056 449.834 286.525 444.084H286.522Z" fill="#F8BF71"/>
<path d="M380.962 517.866C380.909 517.847 380.881 517.819 380.834 517.784L380.822 517.763L368.797 508.378C368.809 508.382 368.821 508.386 368.831 508.391C378.125 515.547 406.694 478.994 397.678 471.584L409.616 480.884L409.65 480.897C409.712 480.937 409.753 480.991 409.812 481.047C418.538 488.572 390.328 524.684 380.959 517.869L380.962 517.866Z" fill="#FCF8D0"/>
<g opacity="0.3">
<path d="M399.669 507.847C392.975 515.478 385.112 520.881 380.962 517.866L380.825 517.763L368.837 508.388C368.825 508.383 368.814 508.379 368.803 508.375L368.784 508.369L287.087 444.581C286.891 444.419 286.694 444.256 286.522 444.081C285.366 443.038 284.447 441.744 283.853 440.287L267.362 399.506L283.831 401.803L295.472 430.6C296.066 432.056 296.984 433.35 298.141 434.394C298.316 434.569 298.509 434.731 298.706 434.894L380.403 498.681L380.422 498.688C380.434 498.692 380.446 498.696 380.456 498.7L392.444 508.075L392.581 508.178C394.387 509.478 396.872 509.212 399.669 507.85V507.847Z" fill="#102770"/>
</g>
<g opacity="0.51">
<path d="M397.3 510.416C402.587 502.428 405.5 494.147 401.816 490.959C401.756 490.9 401.719 490.85 401.653 490.809L401.619 490.797L389.594 481.412L389.575 481.406L307.878 417.619C307.709 417.484 307.537 417.369 307.362 417.253C306.031 416.325 304.525 415.741 302.937 415.519L272.091 411.203L267.356 399.506L310.941 405.6C312.528 405.822 314.034 406.406 315.366 407.334C315.541 407.45 315.712 407.566 315.881 407.7L397.578 471.487L397.597 471.494L409.622 480.878L409.656 480.891C409.719 480.931 409.759 480.984 409.819 481.041C415.125 485.622 406.759 500.772 397.303 510.413L397.3 510.416Z" fill="white"/>
</g>
<path d="M409.884 538.991C403.737 538.991 397.8 536.959 392.872 533.116L284.2 448.278C283.841 447.984 283.553 447.741 283.3 447.494C281.656 445.988 280.347 444.113 279.509 442.066L263.009 401.269C262.381 399.716 262.628 397.947 263.659 396.628C264.691 395.306 266.347 394.638 268.003 394.869L311.591 400.963C313.941 401.291 316.112 402.144 318.05 403.497C318.253 403.631 318.534 403.825 318.809 404.047L427.438 488.847C439.475 498.269 441.622 515.722 432.228 527.759L431.791 528.322C427.231 534.166 420.672 537.878 413.322 538.784C412.172 538.925 411.025 538.994 409.884 538.994V538.991ZM274.747 405.275L288.197 438.534C288.512 439.306 289.022 440.028 289.663 440.609C289.722 440.663 289.778 440.716 289.834 440.772C289.9 440.834 289.981 440.897 290.062 440.966L398.641 525.728C402.506 528.744 407.322 530.078 412.178 529.478C417.041 528.881 421.381 526.422 424.394 522.559L424.831 521.997C424.831 521.997 424.831 521.997 424.834 521.994C431.053 514.025 429.628 502.469 421.662 496.234L312.766 411.241C311.969 410.684 311.163 410.369 310.291 410.247L274.744 405.278L274.747 405.275Z" fill="#102770"/>
<path d="M275.237 418.966L267.369 399.5L288.159 402.413C285.019 408.256 280.144 414.5 275.237 418.966Z" fill="#102770"/>
<path d="M383.712 522.319C381.491 522.319 379.831 521.538 378.641 520.609C378.194 520.259 377.834 519.809 377.597 519.297C376.763 517.503 377.537 515.366 379.331 514.531C380.631 513.928 382.103 514.166 383.134 515.025C383.594 515.275 384.559 515.147 385.762 514.663C394.006 511.328 406.575 495.231 407.809 486.425C407.997 485.094 407.875 484.1 407.484 483.747C406.431 482.947 405.859 481.597 406.128 480.216C406.503 478.275 408.369 477 410.312 477.378H410.337C410.891 477.491 411.412 477.728 411.859 478.075C419.078 483.709 413.072 496.706 405.044 506.988C401.038 512.119 396.603 516.416 392.553 519.094C388.941 521.481 386.028 522.325 383.722 522.325L383.712 522.319Z" fill="#102770"/>
<path d="M371.681 512.909C369.391 512.909 367.725 512.087 366.6 511.209C366.181 510.881 365.841 510.466 365.6 509.988C364.716 508.219 365.428 506.059 367.194 505.175C368.509 504.522 370.028 504.741 371.087 505.622C371.55 505.875 372.516 505.747 373.716 505.259C381.959 501.925 394.528 485.828 395.762 477.022C395.947 475.713 395.822 474.694 395.434 474.344C394.381 473.544 393.809 472.194 394.078 470.813C394.453 468.872 396.319 467.603 398.262 467.975H398.287C398.841 468.087 399.362 468.325 399.809 468.672C401.6 470.069 403.581 472.825 402.853 478.016C401.275 489.269 386.937 507.634 376.4 511.894C374.597 512.622 373.031 512.909 371.681 512.909Z" fill="#102770"/>
<path d="M288.962 448.325C286.672 448.325 285.006 447.503 283.881 446.625C283.462 446.297 283.122 445.881 282.881 445.403C281.997 443.634 282.709 441.475 284.475 440.591C285.791 439.934 287.309 440.156 288.369 441.038C288.831 441.291 289.797 441.162 290.997 440.675C299.241 437.341 311.809 421.244 313.044 412.437C313.228 411.125 313.103 410.106 312.716 409.759C311.603 408.913 311.037 407.453 311.409 406.016C311.903 404.103 313.85 402.944 315.756 403.441L315.781 403.447C316.256 403.569 316.703 403.788 317.091 404.091C318.881 405.488 320.862 408.244 320.134 413.434C318.556 424.687 304.219 443.053 293.681 447.312C291.878 448.041 290.312 448.328 288.962 448.328V448.325Z" fill="#102770"/>
<path d="M823.372 425.213L670.844 689.716C665.931 698.231 655.044 701.156 646.525 696.244L457.222 587.081C448.706 582.169 445.781 571.281 450.694 562.763L603.222 298.259C608.128 289.753 619.016 286.828 627.534 291.741L816.837 400.903C825.353 405.816 828.278 416.703 823.372 425.209V425.213Z" fill="#ACE0F5"/>
<path d="M613.603 746.853L429.916 640.928C405.672 626.947 397.353 595.962 411.331 571.719L584.237 271.875C598.219 247.631 629.203 239.312 653.447 253.291L837.134 359.216C861.378 373.197 869.697 404.181 855.719 428.425L682.812 728.269C668.831 752.512 637.847 760.831 613.603 746.853Z" fill="#DEDDE2"/>
<g opacity="0.3">
<path d="M676.522 736.909C660.869 754.3 634.694 759.012 613.606 746.853L429.916 640.928C405.669 626.947 397.359 595.962 411.341 571.716L584.241 271.881C588.722 264.112 594.95 257.981 602.153 253.691L602.159 253.681H602.175L609.094 250.875L609.1 250.866L614.975 248.487L637.15 251.975C621.134 250.678 607.259 258.097 595.262 273.134L430.775 558.378C416.794 582.625 425.103 613.609 449.35 627.591L633.041 733.516C646.812 741.456 662.769 742.2 676.519 736.913L676.522 736.909Z" fill="#102770"/>
</g>
<g opacity="0.3">
<path d="M609.969 249.891C609.672 250.209 609.384 250.537 609.1 250.862L609.094 250.872L602.175 253.672C604.666 252.175 607.272 250.916 609.969 249.887V249.891Z" fill="#5F5A57"/>
</g>
<path d="M855.716 428.428L682.816 728.262C676.369 739.444 666.3 747.244 654.934 751.016C659.897 747.397 664.206 742.697 667.478 737.025L845.503 428.306C858.069 406.513 850.591 378.659 828.8 366.094L636.234 255.05C628.769 250.747 620.606 248.8 612.581 248.972C625.722 244.722 640.544 245.85 653.453 253.294L837.144 359.219C861.391 373.2 869.7 404.184 855.719 428.431L855.716 428.428Z" fill="white"/>
<path d="M638.828 758.341C629.244 758.341 619.787 755.831 611.262 750.916L427.575 644.991C414.766 637.603 405.6 625.672 401.762 611.391C397.928 597.109 399.884 582.191 407.272 569.381L580.178 269.537C587.566 256.728 599.497 247.562 613.778 243.728C628.059 239.891 642.978 241.847 655.787 249.237L839.475 355.162C852.284 362.55 861.45 374.481 865.287 388.762C869.122 403.044 867.166 417.962 859.778 430.772L686.872 730.616C679.484 743.425 667.553 752.591 653.272 756.425C648.494 757.709 643.644 758.344 638.825 758.344L638.828 758.341ZM628.212 251.184C624.209 251.184 620.181 251.709 616.212 252.778C604.35 255.962 594.437 263.578 588.3 274.219L415.394 574.062C409.259 584.703 407.634 597.097 410.819 608.959C414.003 620.822 421.619 630.734 432.259 636.872L615.947 742.797C626.587 748.931 638.981 750.559 650.844 747.372C662.706 744.187 672.619 736.572 678.753 725.931L851.662 426.087C864.328 404.122 856.762 375.947 834.8 363.281L651.112 257.356C644.031 253.275 636.175 251.187 628.216 251.187L628.212 251.184Z" fill="#102770"/>
<g opacity="0.3">
<path d="M831.678 427.825L685.363 681.559C681.563 688.15 675.109 692.256 668.128 693.297C669.153 692.247 670.069 691.05 670.834 689.722L823.363 425.219C828.275 416.703 825.35 405.813 816.844 400.906L627.531 291.738C626.469 291.125 625.375 290.634 624.266 290.275C630.659 287.972 637.981 288.406 644.341 292.075L822.872 395.028C834.359 401.653 838.303 416.341 831.678 427.828V427.825Z" fill="#102770"/>
</g>
<path d="M816.841 400.901L627.536 291.738C619.019 286.827 608.135 289.75 603.224 298.266L450.698 562.768C445.787 571.284 448.71 582.169 457.226 587.08L646.532 696.243C655.048 701.154 665.933 698.231 670.843 689.715L823.369 425.213C828.28 416.697 825.357 405.812 816.841 400.901Z" fill="#22A7F0"/>
<g opacity="0.57">
<path d="M715.525 523.309L576.259 443C570.872 439.894 569.025 433.009 572.131 427.622L597.306 383.962C600.412 378.575 607.297 376.728 612.684 379.834L751.95 460.144C757.337 463.25 759.184 470.134 756.078 475.522L730.903 519.181C727.797 524.569 720.912 526.416 715.525 523.309Z" fill="white"/>
</g>
<path d="M674.103 438.066C666.122 433.463 655.916 436.206 651.306 444.197C646.703 452.178 649.447 462.384 657.425 466.988C665.416 471.597 675.625 468.853 680.225 460.875C684.834 452.884 682.091 442.675 674.1 438.069L674.103 438.066ZM670.694 456.822L659.903 456.828C658.797 456.822 658.091 455.616 658.65 454.647L664.034 445.309C664.594 444.341 665.991 444.347 666.544 445.309L671.944 454.653C672.503 455.606 671.803 456.819 670.694 456.822Z" fill="#102770"/>
<g opacity="0.57">
<path d="M645.769 514.691L555.397 462.578C553.978 461.759 553.491 459.947 554.309 458.528L558.259 451.678C559.078 450.259 560.891 449.772 562.309 450.591L652.681 502.703C654.1 503.522 654.588 505.334 653.769 506.753L649.819 513.603C649 515.022 647.188 515.509 645.769 514.691Z" fill="white"/>
</g>
<path opacity="0.3" d="M776.253 377.503L497.881 503.347L492.203 490.787L557.381 377.759L680.312 322.178L776.253 377.503Z" fill="url(#paint0_linear_13_482)"/>
<path opacity="0.3" d="M823.372 425.213L814.053 441.372L472.397 595.831L457.225 587.084C448.709 582.172 445.784 571.284 450.697 562.766L458.469 549.291L803.584 393.263L816.837 400.906C825.353 405.819 828.278 416.706 823.372 425.213Z" fill="url(#paint1_linear_13_482)"/>
<path opacity="0.47" d="M745.144 560.875L703.925 632.35L609.65 674.978L558.272 645.353L745.144 560.875Z" fill="url(#paint2_linear_13_482)"/>
<path d="M655.384 702.528C651.706 702.528 647.984 701.594 644.578 699.631L455.272 590.466C450.25 587.569 446.656 582.891 445.15 577.291C443.647 571.691 444.412 565.841 447.309 560.819L599.837 296.316C602.734 291.294 607.412 287.7 613.012 286.197C618.612 284.691 624.462 285.459 629.484 288.356L818.791 397.522C823.812 400.419 827.406 405.097 828.912 410.697C830.416 416.297 829.65 422.147 826.753 427.169L674.225 691.672C670.212 698.634 662.897 702.531 655.384 702.531V702.528ZM648.481 692.863C655.119 696.691 663.631 694.403 667.459 687.769L819.987 423.266C821.841 420.05 822.331 416.306 821.369 412.722C820.406 409.138 818.106 406.144 814.891 404.291L625.584 295.125C622.369 293.269 618.625 292.778 615.041 293.741C611.456 294.703 608.462 297.003 606.606 300.219L454.078 564.722C452.225 567.938 451.734 571.681 452.697 575.266C453.659 578.85 455.959 581.844 459.175 583.697L648.481 692.863Z" fill="#102770"/>
<path d="M544.948 674.115C547.619 669.172 545.778 663.001 540.836 660.33C535.894 657.659 529.722 659.5 527.051 664.442C524.38 669.384 526.221 675.556 531.163 678.227C536.106 680.898 542.277 679.057 544.948 674.115Z" fill="#102770"/>
<path d="M761.172 347.325C760.562 347.325 759.95 347.172 759.384 346.844L703.1 314.387C701.384 313.4 700.797 311.206 701.784 309.494C702.775 307.778 704.966 307.191 706.678 308.181L762.962 340.637C764.678 341.625 765.266 343.819 764.278 345.531C763.616 346.681 762.409 347.325 761.172 347.325Z" fill="#102770"/>
<g opacity="0.3">
<path d="M644.238 253.084L637.231 251.975C639.519 252.172 641.859 252.537 644.238 253.084Z" fill="#5F5A57"/>
</g>
<g opacity="0.3">
<path d="M537.475 481.034C538.925 469.822 554.844 462.638 573.031 464.991C591.219 467.341 604.788 478.338 603.338 489.55C601.888 500.763 587.259 497.963 569.072 495.613C550.884 493.263 536.025 492.25 537.475 481.038V481.034Z" fill="white"/>
</g>
<g opacity="0.3">
<path d="M816.841 400.906L627.534 291.741C620.594 287.737 612.078 288.944 606.506 294.137C608.328 294.512 610.125 295.166 611.828 296.147L801.134 405.312C809.65 410.222 812.572 421.109 807.662 429.625L655.134 694.128C654.228 695.703 653.112 697.081 651.85 698.259C659.156 699.756 666.912 696.538 670.841 689.722L823.369 425.219C828.278 416.703 825.356 405.819 816.841 400.906Z" fill="#102770"/>
</g>
<path d="M433.484 373.753C431.159 373.753 428.959 372.375 428.019 370.091L409.484 325.022C408.144 321.759 404.397 320.197 401.134 321.538L386.466 327.569C383.45 328.809 379.997 327.372 378.756 324.353C377.516 321.338 378.956 317.884 381.972 316.644L396.641 310.613C405.925 306.791 416.591 311.241 420.409 320.528L438.944 365.597C440.184 368.613 438.744 372.066 435.728 373.306C434.994 373.609 434.231 373.753 433.484 373.753Z" fill="#102770"/>
<path d="M376.881 304.256L342.397 318.437L335.306 301.197C331.391 291.675 335.934 280.781 345.456 276.866C354.978 272.95 365.872 277.494 369.788 287.016L376.878 304.256H376.881Z" fill="#22A7F0"/>
<g opacity="0.51">
<path d="M355.866 275.766C347.9 280.344 344.35 290.25 347.956 298.991L354 313.669L342.394 318.441L335.3 301.188C331.394 291.669 335.928 280.781 345.453 276.859C348.884 275.438 352.484 275.134 355.866 275.766Z" fill="white"/>
</g>
<path d="M342.397 324.419C341.616 324.419 340.831 324.266 340.094 323.959C338.631 323.35 337.469 322.181 336.866 320.716L329.775 303.472C324.613 290.916 330.625 276.497 343.184 271.331C355.741 266.169 370.159 272.184 375.322 284.741L382.413 301.984C383.669 305.041 382.209 308.534 379.156 309.791L344.672 323.972C343.944 324.272 343.172 324.422 342.397 324.422V324.419ZM352.531 281.444C350.928 281.444 349.303 281.75 347.731 282.397C341.275 285.053 338.181 292.466 340.838 298.925L345.653 310.638L369.075 301.006L364.259 289.294C362.25 284.406 357.516 281.447 352.531 281.447V281.444Z" fill="#102770"/>
<path d="M384.178 308.775L468.047 513.341C468.184 513.678 468.3 514.025 468.4 514.366L468.434 514.434C468.828 515.803 468.928 517.228 468.738 518.669L462.763 562.384L427.909 535.356C426.797 534.522 425.866 533.434 425.197 532.206C424.988 531.847 424.803 531.475 424.647 531.075L340.806 326.597C334.191 310.509 377.572 292.666 384.181 308.769L384.178 308.775Z" fill="#FF5722"/>
<path d="M468.397 514.369L468.431 514.438C468.825 515.806 468.925 517.231 468.734 518.672L462.759 562.388L427.906 535.359C426.794 534.525 425.863 533.438 425.194 532.209C420.216 520.069 463.247 502.341 468.4 514.366L468.397 514.369Z" fill="#FBE291"/>
<g opacity="0.3">
<path d="M384.178 308.775L468.047 513.341C468.184 513.678 468.3 514.025 468.4 514.366L468.434 514.434C468.828 515.803 468.928 517.228 468.738 518.669L462.763 562.384L449.588 552.159L453.916 520.469C454.109 519.025 454.006 517.6 453.613 516.231L453.578 516.162C453.481 515.822 453.366 515.472 453.225 515.137L369.356 310.572C367.9 307.012 364.653 305.112 360.55 304.494C370.597 301.15 381.181 301.447 384.181 308.772L384.178 308.775Z" fill="#102770"/>
</g>
<g opacity="0.51">
<path d="M352.234 308.209C350.381 311.203 349.775 314.4 351.069 317.519L434.891 521.991C435.597 523.694 436.725 525.175 438.153 526.272L464.869 546.962L462.759 562.391L427.906 535.362C426.453 534.278 425.331 532.781 424.644 531.081L340.803 326.603C338.053 319.925 343.931 312.925 352.234 308.209Z" fill="white"/>
</g>
<path d="M462.769 568.366C461.463 568.366 460.172 567.937 459.106 567.112L424.238 540.097C422 538.391 420.213 536.053 419.109 533.366L335.272 328.878C331.013 318.519 339.228 306.678 355.253 300.087C371.278 293.503 385.45 296.131 389.713 306.497C389.713 306.497 389.713 306.5 389.713 306.503L473.581 511.066C474.669 513.706 475.044 516.609 474.672 519.453L468.694 563.197C468.403 565.312 467.006 567.116 465.031 567.922C464.303 568.222 463.534 568.366 462.769 568.366ZM372.072 308.419C368.619 308.419 364.228 309.331 359.803 311.15C351.047 314.75 344.878 320.791 346.338 324.334L430.175 528.822C430.472 529.544 430.941 530.169 431.531 530.616L458.247 551.316L462.819 517.862C462.919 517.106 462.819 516.341 462.519 515.612L378.65 311.044C377.925 309.294 375.45 308.422 372.075 308.422L372.072 308.419Z" fill="#102770"/>
<path d="M465.616 541.519L462.775 562.372L446.134 549.488C451.775 545.966 459.125 542.959 465.619 541.519H465.616Z" fill="#102770"/>
<path d="M425.191 536.641C423.447 536.641 421.797 535.606 421.091 533.894C417.081 524.141 429.509 514.984 441.372 510.106C453.234 505.228 468.513 502.991 472.522 512.744C473.453 515.006 472.372 517.594 470.109 518.525C467.844 519.459 465.259 518.378 464.328 516.113C463.628 514.413 456.078 513.638 444.741 518.3C433.403 522.963 428.584 528.822 429.284 530.525C430.216 532.788 429.134 535.375 426.872 536.306C426.322 536.534 425.75 536.641 425.188 536.641H425.191Z" fill="#102770"/>
<path d="M352.231 359.225C350.488 359.225 348.838 358.191 348.131 356.478C344.122 346.725 356.55 337.569 368.413 332.691C380.275 327.809 395.553 325.575 399.563 335.328C400.494 337.591 399.413 340.178 397.15 341.109C394.888 342.044 392.3 340.963 391.369 338.697C390.669 336.997 383.122 336.222 371.784 340.884C360.447 345.547 355.625 351.406 356.325 353.109C357.256 355.372 356.175 357.959 353.913 358.891C353.363 359.119 352.791 359.225 352.228 359.225H352.231Z" fill="#102770"/>
<path d="M428.878 364.312L429.631 364.003L421.138 343.347L420.384 343.656C414.681 346.003 411.956 352.528 414.303 358.231C416.65 363.934 423.175 366.659 428.878 364.312Z" fill="#102770"/>
<path d="M392.272 863.553L318.819 884.038L240.225 905.959C231.741 908.334 222.944 903.366 220.569 894.881L158.928 673.866C156.553 665.381 161.522 656.584 170.006 654.209L318.163 612.881L322.053 611.803C333.381 608.631 345.147 615.272 348.303 626.6L407.084 837.303C410.241 848.631 403.616 860.381 392.272 863.553Z" fill="#3EDC81"/>
<g opacity="0.3">
<path d="M392.272 863.553L318.819 884.038L240.225 905.959C231.741 908.334 222.944 903.366 220.569 894.881L158.928 673.866C157.022 667.069 159.834 660.084 165.381 656.35L207.912 808.788C216.028 837.856 240.544 857.938 268.662 861.791C278.366 863.119 286.681 855.356 286.572 845.563C286.572 845.497 286.572 845.431 286.572 845.366V721.866C286.572 712.494 294.169 704.897 303.541 704.897H318.166V612.881L322.056 611.803C333.384 608.631 345.15 615.272 348.306 626.6L404.322 827.381L407.088 837.303C410.244 848.631 403.619 860.381 392.275 863.553H392.272Z" fill="#102770"/>
</g>
<g opacity="0.58">
<path d="M350.663 635.053C345.85 627.038 336.116 622.881 326.663 625.506L174.616 667.928C166.131 670.288 161.178 679.084 163.538 687.584L222.616 899.366C221.725 898.022 221.022 896.522 220.569 894.881L158.928 673.866C156.553 665.381 161.522 656.584 170.006 654.209L322.053 611.803C333.381 608.631 345.147 615.272 348.303 626.6L350.663 635.053Z" fill="white"/>
</g>
<path d="M235.95 911.725C226.703 911.725 218.191 905.603 215.588 896.272L153.938 675.263C152.422 669.825 153.113 664.125 155.884 659.206C158.656 654.291 163.178 650.747 168.613 649.231L320.659 606.819C327.472 604.919 334.619 605.784 340.781 609.259C346.944 612.734 351.384 618.4 353.284 625.212L412.059 835.909C413.959 842.722 413.094 849.869 409.619 856.031C406.144 862.194 400.478 866.634 393.666 868.534L241.619 910.947C239.728 911.475 237.822 911.725 235.95 911.725ZM327.8 616.184C326.344 616.184 324.881 616.381 323.441 616.784L171.394 659.197C168.619 659.972 166.313 661.778 164.897 664.288C163.481 666.797 163.128 669.706 163.903 672.481L225.553 893.491C227.15 899.219 233.106 902.572 238.838 900.978L390.884 858.566C395.034 857.406 398.488 854.703 400.603 850.947C402.719 847.191 403.247 842.838 402.091 838.688L343.316 627.991C342.156 623.838 339.453 620.388 335.697 618.272C333.244 616.891 330.538 616.188 327.797 616.188L327.8 616.184Z" fill="#102770"/>
<path d="M326.503 708.841L218.103 739.078C213.641 740.322 209.013 737.716 207.769 733.25L199.303 702.897C198.059 698.434 200.666 693.806 205.131 692.563L313.531 662.325C317.994 661.081 322.622 663.688 323.866 668.15L332.331 698.503C333.575 702.966 330.969 707.594 326.503 708.838V708.841Z" fill="#102770"/>
<path d="M234.181 715.981L229.441 698.988L233.931 697.734L239.2 702.978C240.706 704.488 242.306 706.322 243.597 708.028L243.672 708.006C242.794 705.831 242.078 703.559 241.369 701.013L239.984 696.047L243.513 695.062L248.253 712.056L244.219 713.181L238.759 707.637C237.244 706.103 235.522 704.219 234.134 702.459L234.066 702.506C234.794 704.722 235.513 707.106 236.284 709.875L237.713 714.997L234.181 715.981Z" fill="white"/>
<path d="M261.803 701.484C263.063 705.997 260.434 708.959 257.134 709.881C253.528 710.888 250.094 709.291 248.981 705.306C247.872 701.325 249.781 698.044 253.741 696.941C257.522 695.888 260.769 697.781 261.803 701.488V701.484ZM252.913 704.1C253.503 706.219 254.828 707.559 256.469 707.103C257.956 706.688 258.497 704.931 257.878 702.716C257.366 700.875 256.138 699.203 254.4 699.691C252.559 700.203 252.406 702.284 252.913 704.103V704.1Z" fill="white"/>
<path d="M265.797 690.069L266.781 693.6L269.528 692.834L270.316 695.656L267.569 696.422L268.812 700.888C269.228 702.375 269.772 702.956 270.931 702.634C271.409 702.5 271.775 702.344 272.038 702.219L272.872 705.109C272.422 705.45 271.55 705.831 270.466 706.134C269.231 706.478 268.078 706.338 267.297 705.875C266.387 705.341 265.703 704.253 265.219 702.512L263.812 697.469L262.172 697.925L261.384 695.103L263.025 694.647L262.278 691.972L265.794 690.069H265.797Z" fill="white"/>
<path d="M276.634 698.813C277.203 700.366 278.978 700.688 280.769 700.188C282.078 699.822 283.091 699.35 284.031 698.734L285.259 701.191C284.141 702.047 282.669 702.728 281.006 703.194C276.822 704.363 273.75 702.606 272.675 698.75C271.803 695.622 272.781 691.628 277.069 690.431C281.053 689.319 283.431 691.997 284.281 695.05C284.466 695.703 284.55 696.306 284.578 696.597L276.638 698.813H276.634ZM280.416 694.931C280.156 694 279.316 692.547 277.55 693.041C275.934 693.491 275.688 695.134 275.875 696.197L280.416 694.931Z" fill="white"/>
<path d="M287.422 697.516C288.247 697.747 289.85 697.844 290.984 697.528C292.144 697.203 292.509 696.669 292.334 696.038C292.159 695.406 291.694 695.209 290.125 695.131C287.338 694.984 285.969 693.872 285.584 692.4C284.944 690.106 286.425 687.819 289.478 686.966C290.916 686.566 292.294 686.531 293.153 686.7L293.213 689.541C292.572 689.391 291.4 689.281 290.344 689.578C289.409 689.838 288.987 690.366 289.162 690.997C289.325 691.578 289.888 691.747 291.547 691.853C294.116 692.006 295.431 692.919 295.966 694.725C296.606 697.019 295.259 699.219 291.731 700.2C290.119 700.65 288.581 700.697 287.509 700.453L287.425 697.516H287.422Z" fill="white"/>
<path d="M557.7 353.691C680.428 353.691 780.069 453.331 780.069 576.059V866.597C780.069 889.603 761.391 908.278 738.388 908.278H377.016C354.009 908.278 335.334 889.6 335.334 866.597V576.059C335.334 453.331 434.975 353.691 557.703 353.691H557.7Z" fill="#FDF5ED"/>
<g opacity="0.58">
<path d="M776.944 576.053V866.6C776.944 881.944 768.647 895.35 756.303 902.569C759.928 896.397 762.006 889.209 762.006 881.538V590.991C762.006 556.209 754.022 523.303 739.787 493.991C710.897 506.241 676.584 458.006 697.912 434.819C697.584 434.459 697.225 434.1 696.881 433.756C656.647 393.522 601.053 368.631 539.647 368.631C482.084 368.631 429.616 390.506 390.116 426.397C430.772 381.741 489.397 353.694 554.569 353.694C615.975 353.694 671.569 378.584 711.803 418.819C752.053 459.069 776.944 514.663 776.944 576.053Z" fill="white"/>
</g>
<path d="M738.384 914.006H377.012C350.869 914.006 329.6 892.738 329.6 866.597V576.059C329.6 450.284 431.925 347.963 557.697 347.963C683.469 347.963 785.794 450.288 785.794 576.059V866.597C785.794 892.738 764.525 914.006 738.384 914.006ZM557.697 359.422C438.241 359.422 341.056 456.606 341.056 576.059V866.597C341.056 886.422 357.184 902.547 377.009 902.547H738.381C758.206 902.547 774.334 886.419 774.334 866.597V576.059C774.334 456.603 677.15 359.422 557.697 359.422Z" fill="#102770"/>
<path d="M367.666 581.756C365.856 581.756 364.391 580.291 364.391 578.481C364.391 471.581 450.253 383.781 555.791 382.759C556.431 382.753 557.078 382.75 557.716 382.75C608.928 382.75 657.131 402.597 693.653 438.762C730.637 475.391 751.006 524.15 751.006 576.059C751.006 577.869 749.541 579.334 747.731 579.334C745.922 579.334 744.456 577.869 744.456 576.059C744.456 525.913 724.778 478.803 689.044 443.416C653.319 408.038 605.947 388.837 555.853 389.306C453.891 390.297 370.937 475.159 370.937 578.481C370.937 580.291 369.472 581.756 367.662 581.756H367.666Z" fill="#102770"/>
<path d="M676.844 694.744H438.553C415.626 694.744 397.041 713.33 397.041 736.256V810.656C397.041 833.583 415.626 852.169 438.553 852.169H676.844C699.77 852.169 718.356 833.583 718.356 810.656V736.256C718.356 713.33 699.77 694.744 676.844 694.744Z" fill="#E67E22"/>
<g opacity="0.3">
<path d="M716.194 823.881C710.694 840.319 695.147 852.163 676.85 852.163H438.553C415.631 852.163 397.037 833.584 397.037 810.663V736.256C397.037 718.069 408.741 702.6 425.037 696.991C423.631 701.147 422.866 705.616 422.866 710.241V784.631C422.866 807.569 441.459 826.147 464.381 826.147H702.678C707.412 826.147 711.959 825.35 716.194 823.881Z" fill="#102770"/>
</g>
<g opacity="0.58">
<path d="M718.366 736.256V810.663C718.366 825.116 710.975 837.834 699.772 845.272C700.678 842.303 701.178 839.163 701.178 835.897V741.678C701.178 724.225 687.022 710.084 669.569 710.084H411.459C409.584 710.084 407.725 710.256 405.944 710.569C413.537 700.928 425.319 694.741 438.553 694.741H676.85C699.772 694.741 718.366 713.334 718.366 736.256Z" fill="white"/>
</g>
<path d="M676.844 857.897H438.553C412.503 857.897 391.312 836.703 391.312 810.653V736.253C391.312 710.206 412.506 689.013 438.553 689.013H676.844C702.894 689.013 724.084 710.206 724.084 736.253V810.653C724.084 836.703 702.891 857.897 676.844 857.897ZM438.553 700.475C418.822 700.475 402.769 716.525 402.769 736.256V810.656C402.769 830.388 418.822 846.441 438.553 846.441H676.844C696.575 846.441 712.628 830.388 712.628 810.656V736.256C712.628 716.525 696.575 700.475 676.844 700.475H438.553Z" fill="#102770"/>
<path d="M597.972 504.866L561.878 468.788C559.569 466.463 555.822 466.463 553.513 468.788L517.419 504.866C515.109 507.191 515.109 510.938 517.419 513.247L553.513 549.325C555.822 551.65 559.569 551.65 561.878 549.325L597.972 513.247C600.281 510.938 600.281 507.191 597.972 504.866ZM550.372 525.097C550.372 527.322 548.556 529.141 546.328 529.141C544.1 529.141 542.284 527.325 542.284 525.097V495.338C542.284 493.094 544.1 491.294 546.328 491.294C548.556 491.294 550.372 493.094 550.372 495.338V525.097ZM573.109 525.097C573.109 527.322 571.294 529.141 569.066 529.141C566.838 529.141 565.022 527.325 565.022 525.097V495.338C565.022 493.094 566.838 491.294 569.066 491.294C571.294 491.294 573.109 493.094 573.109 495.338V525.097Z" fill="#102770"/>
<path d="M680.972 735.303H431.394C429.584 735.303 428.119 733.837 428.119 732.028C428.119 730.219 429.584 728.753 431.394 728.753H680.972C682.781 728.753 684.247 730.219 684.247 732.028C684.247 733.837 682.781 735.303 680.972 735.303Z" fill="#102770"/>
<path d="M666.15 723.944H645.269C641.734 723.944 638.869 726.809 638.869 730.344V734.047C638.869 737.581 641.734 740.447 645.269 740.447H666.15C669.685 740.447 672.55 737.581 672.55 734.047V730.344C672.55 726.809 669.685 723.944 666.15 723.944Z" fill="#102770"/>
<path d="M658.491 735.816H652.931C652.025 735.816 651.291 736.55 651.291 737.456V745.794C651.291 746.7 652.025 747.434 652.931 747.434H658.491C659.397 747.434 660.131 746.7 660.131 745.794V737.456C660.131 736.55 659.397 735.816 658.491 735.816Z" fill="#102770"/>
<path d="M663.916 744.922H647.506C646.597 744.922 645.85 745.65 645.85 746.559V771.819C645.85 772.728 646.597 773.456 647.506 773.456H663.916C664.825 773.456 665.572 772.728 665.572 771.819V746.559C665.572 745.65 664.825 744.922 663.916 744.922ZM662.441 768.991C662.441 769.556 661.997 770 661.431 770H650.316C649.769 770 649.306 769.556 649.306 768.991V764.2C649.306 763.634 649.772 763.191 650.316 763.191H661.431C661.997 763.191 662.441 763.634 662.441 764.2V768.991Z" fill="#102770"/>
<path d="M335.331 694.744H320.703C311.338 694.744 303.744 702.337 303.744 711.703V835.209C303.744 844.575 311.338 852.169 320.703 852.169H335.331V694.744Z" fill="#E67E22"/>
<path d="M335.331 857.897H320.703C308.194 857.897 298.016 847.719 298.016 835.209V711.703C298.016 699.194 308.194 689.016 320.703 689.016H335.331C338.494 689.016 341.059 691.581 341.059 694.744V852.166C341.059 855.331 338.494 857.894 335.331 857.894V857.897ZM320.703 700.475C314.512 700.475 309.475 705.512 309.475 711.703V835.209C309.475 841.4 314.512 846.438 320.703 846.438H329.603V700.472H320.703V700.475Z" fill="#102770"/>
<g opacity="0.3">
<path d="M335.331 694.744H320.703C311.338 694.744 303.744 702.337 303.744 711.703V835.209C303.744 844.575 311.338 852.169 320.703 852.169H335.331V694.744Z" fill="#102770"/>
</g>
<g opacity="0.3">
<path d="M783.697 874.922C782.688 879.659 780.881 884.1 778.428 888.106C771.784 892.478 763.819 895.031 755.288 895.031H380.844C362.391 895.031 347.416 880.075 347.416 861.603V558.834C347.416 514.259 360.369 472.716 382.731 437.781C365.934 469.287 356.428 505.266 356.428 543.463V715.203C356.428 729.034 358.15 742.469 361.366 755.306C362.609 760.259 369.15 761.384 372.05 757.194L376.606 750.619L404.053 710.947C401.269 715.138 399.2 719.841 398.056 724.909C397.394 727.891 397.028 731.006 397.028 734.203V809.491C397.028 816.231 398.619 822.594 401.45 828.241C406.369 838.113 415.081 845.781 425.684 849.309C425.684 849.309 425.7 849.344 425.719 849.325C429.894 850.734 434.381 851.494 439.038 851.494H680.169C686.894 851.494 693.256 849.903 698.903 847.087C699.319 846.887 699.731 846.672 700.128 846.459L679.953 866.387L674.9 871.372C671.819 874.403 673.972 879.638 678.297 879.638H764.3C771.291 879.638 777.9 877.931 783.697 874.916V874.922Z" fill="#102770"/>
</g>
<path d="M780.066 694.744H794.694C804.059 694.744 811.653 702.337 811.653 711.703V835.209C811.653 844.575 804.059 852.169 794.694 852.169H780.066V694.744Z" fill="#E67E22"/>
<g opacity="0.58">
<path d="M811.663 711.709V835.209C811.663 843.241 806.069 849.975 798.538 851.725C799.163 849.975 799.491 848.1 799.491 846.147V722.647C799.491 713.272 791.897 705.678 782.538 705.678H780.069V694.741H794.694C804.069 694.741 811.663 702.334 811.663 711.709Z" fill="white"/>
</g>
<path d="M794.694 857.897H780.066C776.903 857.897 774.337 855.331 774.337 852.169V694.747C774.337 691.581 776.903 689.019 780.066 689.019H794.694C807.203 689.019 817.381 699.197 817.381 711.706V835.212C817.381 847.722 807.203 857.9 794.694 857.9V857.897ZM785.794 846.437H794.694C800.884 846.437 805.925 841.4 805.925 835.209V711.703C805.925 705.512 800.887 700.475 794.694 700.475H785.794V846.441V846.437Z" fill="#102770"/>
<path d="M901.772 892.613C902.025 901.216 895.141 908.278 886.588 908.278H651.328C630.197 908.278 613.062 891.144 613.062 869.987V832.481C613.062 811.35 630.197 794.191 651.328 794.191H885.953C894.278 794.191 901.516 800.619 901.769 808.919C902.022 817.522 895.138 824.559 886.584 824.559H655.325C648.769 824.559 643.431 829.9 643.431 836.478V865.988C643.431 872.569 648.772 877.906 655.325 877.906H885.953C894.278 877.906 901.516 884.309 901.769 892.609L901.772 892.613Z" fill="#FF5722"/>
<g opacity="0.58">
<path d="M901.772 808.928C901.85 811.459 901.303 813.85 900.272 815.959C897.709 810.756 892.131 807.209 885.959 807.209H651.334C630.194 807.209 613.069 824.366 613.069 845.506V832.475C613.069 811.35 630.194 794.194 651.334 794.194H885.959C894.287 794.194 901.522 800.616 901.772 808.928Z" fill="white"/>
</g>
<g opacity="0.3">
<path d="M901.772 895.741C902.022 904.35 895.147 911.397 886.584 911.397H651.334C630.194 911.397 613.069 894.272 613.069 873.116V857.053C613.069 878.209 630.194 895.334 651.334 895.334H886.584C891.991 895.334 896.741 892.506 899.412 888.256C900.834 890.428 901.694 892.991 901.772 895.741Z" fill="#102770"/>
</g>
<path d="M886.588 914.006H651.328C627.069 914.006 607.334 894.259 607.334 869.987V832.484C607.334 808.212 627.069 788.466 651.328 788.466H885.953C897.491 788.466 907.156 797.566 907.497 808.747C907.666 814.466 905.572 819.863 901.603 823.95C897.631 828.041 892.297 830.294 886.588 830.294H655.328C651.928 830.294 649.163 833.072 649.163 836.484V865.994C649.163 869.406 651.928 872.184 655.328 872.184H885.956C897.494 872.184 907.159 881.272 907.5 892.441V892.447C907.669 898.166 905.572 903.572 901.594 907.666C897.622 911.756 892.294 914.009 886.588 914.009V914.006ZM651.328 799.922C633.387 799.922 618.791 814.528 618.791 832.481V869.984C618.791 887.941 633.387 902.544 651.328 902.544H886.588C889.166 902.544 891.575 901.525 893.372 899.678C895.172 897.825 896.119 895.378 896.044 892.781C895.888 887.738 891.362 883.634 885.953 883.634H655.325C645.606 883.634 637.7 875.716 637.7 865.984V836.475C637.7 826.744 645.606 818.825 655.325 818.825H886.584C889.172 818.825 891.584 817.806 893.381 815.959C895.175 814.116 896.119 811.672 896.044 809.084C895.891 804.034 891.362 799.919 885.953 799.919H651.328V799.922Z" fill="#102770"/>
<path d="M880.056 877.909H655.325C648.769 877.909 643.431 872.569 643.431 865.991V836.481C643.431 829.9 648.772 824.562 655.325 824.562H880.056C865.428 842.353 865.428 860.119 880.056 877.909Z" fill="white"/>
<g opacity="0.3">
<path d="M870.506 845.131H655.334C648.772 845.131 643.428 850.475 643.428 857.053V839.928C643.428 833.35 648.772 828.006 655.334 828.006H880.053C875.366 833.709 872.178 839.428 870.506 845.131Z" fill="#102770"/>
</g>
<path d="M880.056 883.638H655.325C645.606 883.638 637.7 875.719 637.7 865.988V836.478C637.7 826.747 645.606 818.828 655.325 818.828H880.056C882.272 818.828 884.291 820.106 885.237 822.109C886.184 824.112 885.891 826.484 884.484 828.197C871.563 843.912 871.563 858.553 884.484 874.269C885.891 875.981 886.184 878.353 885.237 880.356C884.291 882.359 882.275 883.638 880.056 883.638ZM655.325 830.288C651.925 830.288 649.159 833.066 649.159 836.478V865.988C649.159 869.4 651.925 872.178 655.325 872.178H869.184C861.475 858.337 861.475 844.128 869.184 830.288H655.325Z" fill="#102770"/>
<path d="M673.169 882.819C670.456 882.819 668.256 880.619 668.256 877.909V824.559C668.256 821.847 670.456 819.65 673.169 819.65C675.881 819.65 678.081 821.85 678.081 824.559V877.909C678.081 880.622 675.881 882.819 673.169 882.819Z" fill="#102770"/>
<g opacity="0.3">
<path d="M479.137 804.659C474.35 810.538 462.741 809.013 453.203 801.247C443.666 793.484 439.816 782.425 444.6 776.544C449.387 770.666 456.734 777.428 466.272 785.191C475.809 792.953 483.922 798.778 479.134 804.656L479.137 804.659Z" fill="white"/>
</g>
<g opacity="0.3">
<path d="M517.347 424.913C517.069 412.591 533.044 402.238 553.028 401.788C573.012 401.338 589.441 410.959 589.719 423.278C589.997 435.6 573.775 434.981 553.787 435.434C533.803 435.884 517.625 437.234 517.347 424.913Z" fill="white"/>
</g>
<g opacity="0.3">
<path d="M481.097 438.878C483.178 443.463 488.041 442.375 493.519 439.888C498.997 437.4 503.013 434.453 500.931 429.869C498.85 425.284 492.722 423.588 487.244 426.075C481.766 428.563 479.016 434.294 481.097 438.878Z" fill="white"/>
</g>
<path d="M991.081 651.091C990.044 651.091 989.053 650.678 988.319 649.947L973.309 634.938C972.575 634.206 972.166 633.212 972.166 632.175C972.166 631.137 972.578 630.147 973.309 629.413L988.319 614.403C989.844 612.878 992.316 612.878 993.844 614.403L1008.85 629.413C1009.58 630.144 1010 631.137 1010 632.175C1010 633.212 1009.58 634.203 1008.85 634.938L993.844 649.947C993.113 650.678 992.119 651.091 991.081 651.091ZM981.597 632.175L991.081 641.663L1000.57 632.175L991.081 622.691L981.597 632.175Z" fill="#FFCA28"/>
<path d="M1046.59 572.881C1044.43 572.881 1042.68 571.131 1042.68 568.975V543.447C1042.68 541.291 1044.43 539.541 1046.59 539.541C1048.74 539.541 1050.49 541.291 1050.49 543.447V568.975C1050.49 571.131 1048.74 572.881 1046.59 572.881Z" fill="#FF5722"/>
<path d="M1059.35 560.119H1033.82C1031.67 560.119 1029.92 558.369 1029.92 556.213C1029.92 554.056 1031.67 552.306 1033.82 552.306H1059.35C1061.51 552.306 1063.26 554.056 1063.26 556.213C1063.26 558.369 1061.51 560.119 1059.35 560.119Z" fill="#FF5722"/>
<path d="M54.7469 518.841C52.5906 518.841 50.8406 517.091 50.8406 514.934V489.406C50.8406 487.25 52.5906 485.5 54.7469 485.5C56.9031 485.5 58.6531 487.25 58.6531 489.406V514.934C58.6531 517.091 56.9031 518.841 54.7469 518.841Z" fill="#8BC34A"/>
<path d="M67.5094 506.078H41.9813C39.825 506.078 38.075 504.328 38.075 502.172C38.075 500.016 39.825 498.266 41.9813 498.266H67.5094C69.6656 498.266 71.4156 500.016 71.4156 502.172C71.4156 504.328 69.6656 506.078 67.5094 506.078Z" fill="#8BC34A"/>
<path d="M1002.02 483.875C993.584 483.875 986.722 477.012 986.722 468.575C986.722 460.137 993.584 453.278 1002.02 453.278C1010.45 453.278 1017.32 460.141 1017.32 468.575C1017.32 477.009 1010.46 483.875 1002.02 483.875ZM1002.02 461.091C997.891 461.091 994.534 464.45 994.534 468.575C994.534 472.7 997.891 476.062 1002.02 476.062C1006.15 476.062 1009.51 472.703 1009.51 468.575C1009.51 464.447 1006.15 461.091 1002.02 461.091Z" fill="#102770"/>
<path d="M98.9 601.225C88.6125 601.225 80.2438 592.856 80.2438 582.569C80.2438 572.281 88.6125 563.912 98.9 563.912C109.188 563.912 117.556 572.281 117.556 582.569C117.556 592.856 109.188 601.225 98.9 601.225ZM98.9 571.725C92.9188 571.725 88.0563 576.591 88.0563 582.569C88.0563 588.547 92.9219 593.413 98.9 593.413C104.878 593.413 109.744 588.547 109.744 582.569C109.744 576.591 104.878 571.725 98.9 571.725Z" fill="#102770"/>
<path d="M102.581 428.009C101.497 428.009 100.447 427.556 99.7 426.741L80.7406 406.016C79.8 404.984 79.4781 403.531 79.8969 402.2C80.3187 400.869 81.4156 399.863 82.7781 399.563L110.209 393.506C111.575 393.213 112.994 393.656 113.934 394.684C114.875 395.716 115.197 397.169 114.778 398.5L106.309 425.284C105.887 426.616 104.791 427.622 103.428 427.922C103.147 427.984 102.866 428.012 102.584 428.012L102.581 428.009ZM91.0687 405.734L100.897 416.478L105.287 402.597L91.0719 405.738L91.0687 405.734Z" fill="#19B5FE"/>
<path d="M965 914.731H140C136.837 914.731 134.272 912.166 134.272 909C134.272 905.834 136.837 903.272 140 903.272H965C968.162 903.272 970.728 905.838 970.728 909C970.728 912.162 968.162 914.731 965 914.731Z" fill="#102770"/>
<defs>
<linearGradient id="paint0_linear_13_482" x1="686.86" y1="367.007" x2="417.012" y2="510.199" gradientUnits="userSpaceOnUse">
<stop stop-color="white"/>
<stop offset="1" stop-color="#25A9E0"/>
</linearGradient>
<linearGradient id="paint1_linear_13_482" x1="728.879" y1="446.196" x2="459.029" y2="589.386" gradientUnits="userSpaceOnUse">
<stop stop-color="white"/>
<stop offset="1" stop-color="#25A9E0"/>
</linearGradient>
<linearGradient id="paint2_linear_13_482" x1="674.408" y1="619.047" x2="524.656" y2="674.386" gradientUnits="userSpaceOnUse">
<stop stop-color="white"/>
<stop offset="1" stop-color="#25A9E0"/>
</linearGradient>
</defs>
</svg>
