<svg width="1080" height="1080" viewBox="0 0 1080 1080" fill="none" xmlns="http://www.w3.org/2000/svg">
<path d="M492.02 346.324C492.02 350.084 489.973 353.723 486.41 355.558L185.601 512.975L132.669 540.677C127.574 543.345 121.282 541.359 118.659 536.249C116.036 531.185 118.007 524.968 123.056 522.315L175.306 494.962L476.903 337.135C481.998 334.512 488.245 336.514 490.868 341.593C491.656 343.109 492.02 344.732 492.02 346.324Z" fill="#F9B060"/>
<path d="M127.878 546.417C126.367 546.417 124.848 546.184 123.365 545.717C119.553 544.51 116.442 541.89 114.61 538.336C110.862 531.073 113.707 522.081 120.948 518.291L474.802 333.105C478.365 331.267 482.404 330.928 486.198 332.141C489.991 333.351 493.085 335.968 494.913 339.51C496.739 343.049 497.078 347.088 495.865 350.882C494.652 354.675 492.038 357.771 488.496 359.597L134.777 544.716C132.611 545.85 130.255 546.423 127.881 546.423L127.878 546.417ZM481.652 340.526C480.736 340.526 479.829 340.744 478.993 341.174L125.163 526.348C122.34 527.825 121.233 531.33 122.692 534.163C123.408 535.549 124.621 536.571 126.104 537.041C127.589 537.511 129.169 537.371 130.552 536.649L484.296 351.518C485.7 350.794 486.719 349.59 487.192 348.11C487.665 346.63 487.532 345.056 486.822 343.676C486.11 342.297 484.903 341.278 483.426 340.805C482.844 340.62 482.246 340.526 481.652 340.526Z" fill="#102770"/>
<g opacity="0.22">
<path d="M185.601 512.975L132.669 540.677C127.574 543.345 121.282 541.359 118.659 536.249C116.036 531.185 118.007 524.968 123.056 522.315L175.306 494.962C178.581 500.663 182.19 506.97 185.601 512.975Z" fill="#102770"/>
</g>
<path d="M494.931 431.886C494.931 525.635 427.701 603.995 338.909 621.265V730.905H307.189V624.738C305.476 624.768 303.747 624.798 302.019 624.798C299.699 624.798 297.379 624.753 295.074 624.662H295.059C216.26 621.826 146.497 570.911 120.084 496.16C117.992 490.246 121.1 483.741 127.028 481.649C132.942 479.557 139.447 482.665 141.539 488.593C164.313 553.064 223.644 597.43 291.254 601.706C294.817 601.933 298.41 602.054 302.019 602.054C395.86 602.054 472.188 525.711 472.188 431.886C472.188 397.527 462.014 364.428 442.742 336.165C439.194 330.979 440.544 323.898 445.729 320.366C450.915 316.817 457.996 318.167 461.528 323.353C483.378 355.406 494.931 392.948 494.931 431.886Z" fill="#F9B060"/>
<g opacity="0.57">
<path d="M494.931 431.886C494.931 500.269 459.163 560.464 405.336 594.731C455.342 559.842 488.108 501.891 488.108 436.434C488.108 397.497 476.554 359.955 454.705 327.901C452.022 323.959 447.276 322.23 442.863 323.201C443.606 322.124 444.577 321.154 445.729 320.366C450.915 316.817 457.996 318.167 461.528 323.353C483.378 355.406 494.931 392.948 494.931 431.886Z" fill="white"/>
</g>
<path d="M338.903 735.448H307.183C304.672 735.448 302.635 733.41 302.635 730.899V629.341C302.428 629.341 302.219 629.341 302.013 629.341C218.452 629.341 143.613 576.427 115.79 497.67C114.374 493.664 114.604 489.342 116.439 485.503C118.274 481.664 121.497 478.771 125.509 477.355C129.512 475.939 133.833 476.169 137.673 478.007C141.512 479.842 144.405 483.065 145.821 487.077C169.15 553.125 231.92 597.503 302.01 597.503C393.334 597.503 467.63 523.206 467.63 431.883C467.63 398.431 457.72 366.217 438.976 338.724C436.58 335.222 435.692 330.988 436.48 326.81C437.268 322.625 439.64 319.001 443.161 316.602C446.66 314.206 450.896 313.318 455.072 314.109C459.257 314.898 462.884 317.269 465.28 320.79C487.647 353.605 499.471 392.02 499.471 431.886C499.471 524.953 434.081 605.56 343.449 624.977V730.905C343.449 733.416 341.411 735.454 338.9 735.454L338.903 735.448ZM311.732 726.351H334.354V621.259C334.354 619.082 335.898 617.211 338.036 616.795C426.309 599.625 490.377 521.857 490.377 431.88C490.377 393.852 479.099 357.207 457.765 325.909C456.737 324.399 455.184 323.383 453.389 323.046C451.6 322.707 449.79 323.089 448.292 324.114C446.778 325.145 445.762 326.7 445.423 328.493C445.086 330.282 445.465 332.092 446.49 333.59C466.274 362.605 476.73 396.59 476.73 431.88C476.73 528.219 398.352 606.597 302.013 606.597C228.071 606.597 161.857 559.781 137.245 490.101C136.638 488.378 135.395 486.998 133.749 486.21C132.105 485.421 130.255 485.324 128.539 485.931C126.813 486.54 125.433 487.781 124.645 489.427C123.856 491.071 123.759 492.921 124.366 494.637C150.909 569.767 222.301 620.243 302.013 620.243C303.714 620.243 305.415 620.213 307.101 620.183C308.33 620.14 309.5 620.632 310.37 621.487C311.241 622.342 311.732 623.512 311.732 624.731V726.351Z" fill="#102770"/>
<path d="M452.119 431.886C452.119 440.786 451.345 449.489 449.844 457.95V457.965C441.429 506.136 410.027 546.378 367.375 567.044C347.619 576.612 325.451 581.979 302.025 581.979C258.039 581.979 218.464 563.056 191.02 532.913V532.898C166.715 506.227 151.916 470.808 151.916 431.886C151.916 396.254 164.319 363.533 185.077 337.802C201.346 317.56 222.786 301.655 247.379 292.042C264.316 285.416 282.738 281.777 302.025 281.777C317.324 281.777 332.092 284.066 345.996 288.327C407.435 307.113 452.119 364.276 452.119 431.886Z" fill="#19B5FE"/>
<path d="M282.205 730.896H363.888C389.852 730.896 410.931 751.975 410.931 777.939H235.161C235.161 751.975 256.24 730.896 282.205 730.896Z" fill="#F9B060"/>
<g opacity="0.57">
<path d="M410.931 777.939H406.701C402.88 755.817 383.578 738.987 360.349 738.987H278.669C265.674 738.987 253.908 744.248 245.402 752.77C242.324 755.848 239.671 759.35 237.533 763.186C239.853 756.121 243.81 749.798 248.95 744.673C257.456 736.152 269.207 730.89 282.202 730.89H363.882C389.87 730.89 410.931 751.951 410.931 777.939Z" fill="white"/>
</g>
<g opacity="0.3">
<path d="M410.931 777.939H235.167C235.167 764.945 240.429 753.179 248.95 744.673C255.667 737.941 264.416 733.24 274.196 731.572C274.12 731.633 274.044 731.709 273.968 731.785C273.883 731.87 273.798 731.955 273.714 732.039C261.647 744.273 270.602 765.051 287.784 765.051H409.142C410.309 769.145 410.931 773.466 410.931 777.939Z" fill="#102770"/>
</g>
<path d="M410.931 782.488H235.161C232.65 782.488 230.613 780.45 230.613 777.939C230.613 749.492 253.757 726.347 282.205 726.347H363.888C392.336 726.347 415.48 749.492 415.48 777.939C415.48 780.45 413.442 782.488 410.931 782.488ZM239.953 773.391H406.14C403.865 752.09 385.783 735.445 363.888 735.445H282.205C260.31 735.445 242.227 752.09 239.953 773.391Z" fill="#102770"/>
<g opacity="0.3">
<path d="M447.822 439.719C447.822 448.619 447.048 457.322 445.547 465.783V465.798C440.65 467.314 437.284 468.345 437.284 468.345C432.28 469.104 427.58 465.601 424.532 461.553C421.484 457.519 419.392 452.743 415.889 449.089C411.416 444.434 404.745 441.993 398.316 442.66C389.916 443.555 383.108 450.423 377.316 456.033C369.295 463.782 360.47 472.576 349.311 472.727C339.425 472.849 330.418 465.404 326.946 456.155C323.474 446.89 324.899 436.322 328.948 427.316C333.436 417.339 340.85 409.833 347.855 401.661C355.361 392.912 361.577 382.95 366.323 372.458C369.492 365.483 371.827 356.765 367.233 350.654C364.246 346.666 359.045 344.983 354.102 344.407C349.144 343.831 344.08 344.104 339.228 342.936C329.69 340.662 321.836 332.489 319.941 322.861C318.061 313.248 322.664 299.268 330.624 293.552C330.624 293.552 334.724 296.66 341.699 296.16C403.138 314.946 447.822 372.109 447.822 439.719Z" fill="#102770"/>
</g>
<path d="M452.119 431.886C452.119 440.786 451.345 449.489 449.844 457.95V457.965C444.947 459.481 441.581 460.512 441.581 460.512C436.577 461.271 431.877 457.768 428.829 453.72C425.781 449.686 423.689 444.91 420.186 441.256C415.713 436.601 409.042 434.16 402.613 434.827C394.213 435.722 387.405 442.59 381.613 448.201C373.592 455.949 364.767 464.743 353.608 464.894C343.722 465.016 334.715 457.571 331.243 448.322C327.771 439.058 329.196 428.489 333.245 419.483C337.733 409.506 345.147 402 352.152 393.828C359.658 385.079 365.874 375.117 370.62 364.625C373.789 357.65 376.124 348.932 371.53 342.821C368.543 338.833 363.342 337.15 358.399 336.574C353.441 335.998 348.377 336.271 343.525 335.103C333.987 332.829 326.133 324.656 324.238 315.028C322.358 305.415 326.961 291.435 334.922 285.719C334.922 285.719 339.021 288.827 345.996 288.327C407.435 307.113 452.119 364.276 452.119 431.886Z" fill="#0CAE97"/>
<path d="M452.119 431.886C452.119 440.786 451.345 449.489 449.844 457.95V457.965C444.947 459.481 441.581 460.512 441.581 460.512C436.577 461.271 431.877 457.768 428.829 453.72C425.781 449.686 423.689 444.91 420.186 441.256C415.713 436.601 409.042 434.16 402.613 434.827C394.213 435.722 387.405 442.59 381.613 448.201C373.592 455.949 364.767 464.743 353.608 464.894C343.722 465.016 334.715 457.571 331.243 448.322C327.771 439.058 329.196 428.489 333.245 419.483C337.733 409.506 345.147 402 352.152 393.828C359.658 385.079 365.874 375.117 370.62 364.625C373.789 357.65 376.124 348.932 371.53 342.821C368.543 338.833 363.342 337.15 358.399 336.574C353.441 335.998 348.377 336.271 343.525 335.103C333.987 332.829 326.133 324.656 324.238 315.028C322.358 305.415 326.961 291.435 334.922 285.719C334.922 285.719 339.021 288.827 345.996 288.327C407.435 307.113 452.119 364.276 452.119 431.886Z" fill="#3EDC81"/>
<g opacity="0.3">
<path d="M324.232 315.028C322.655 306.992 325.627 295.908 331.298 289.146C329.114 294.802 328.295 301.109 329.296 306.189C331.192 315.817 339.046 323.989 348.583 326.264C353.435 327.431 358.499 327.158 363.457 327.734C368.4 328.311 373.601 329.994 376.588 333.981C381.182 340.092 378.847 348.81 375.678 355.785C373.343 360.956 370.644 366.005 367.597 370.841C368.658 368.794 369.674 366.717 370.614 364.625C373.783 357.65 376.118 348.932 371.524 342.821C368.537 338.833 363.336 337.15 358.393 336.574C353.435 335.998 348.371 336.271 343.519 335.103C333.981 332.829 326.127 324.656 324.232 315.028Z" fill="#102770"/>
</g>
<g opacity="0.3">
<path d="M450.975 450.338C450.672 452.901 450.278 455.433 449.838 457.95V457.965C444.941 459.481 441.574 460.512 441.574 460.512C436.571 461.271 431.871 457.768 428.823 453.72C425.775 449.686 423.683 444.91 420.18 441.256C415.707 436.601 409.036 434.16 402.607 434.827C394.207 435.722 387.399 442.59 381.607 448.201C373.586 455.949 364.761 464.743 353.602 464.894C343.716 465.016 334.709 457.571 331.237 448.322C327.765 439.058 329.19 428.489 333.238 419.483C334.679 416.283 336.407 413.342 338.348 410.552L338.303 410.643C334.254 419.65 332.829 430.218 336.301 439.482C339.773 448.731 348.78 456.176 358.666 456.055C369.826 455.903 378.65 447.109 386.671 439.361C392.463 433.751 399.271 426.882 407.671 425.987C414.1 425.32 420.772 427.761 425.244 432.416C428.747 436.071 430.839 440.847 433.887 444.88C436.935 448.928 441.635 452.431 446.639 451.673C446.639 451.673 448.291 451.172 450.975 450.338Z" fill="#102770"/>
</g>
<g opacity="0.3">
<path d="M367.597 370.841C363.336 379.044 358.15 386.823 352.146 393.828C347.385 399.377 342.442 404.624 338.348 410.552C342.836 400.621 350.22 393.13 357.21 384.988C361.016 380.561 364.488 375.815 367.597 370.841Z" fill="#282E6A"/>
</g>
<path d="M245.09 323.368C238.13 331.51 227.683 335.998 217.115 337.772C206.562 339.531 195.766 338.818 185.092 338.09L185.077 337.802C201.346 317.56 222.786 301.655 247.379 292.042L250.063 293.452C254.779 303.065 252.049 315.225 245.09 323.368Z" fill="#3EDC81"/>
<g opacity="0.3">
<path d="M273.262 369.492C267.876 366.159 257.932 368.091 252.85 371.866C249.475 374.374 246.551 377.698 245.302 381.713C244.053 385.728 244.723 390.483 247.652 393.497C253.141 399.144 263.997 397.067 268.555 403.489C270.135 405.715 270.584 408.563 271.994 410.901C274.657 415.316 280.804 416.926 285.398 414.767C290.771 412.244 291.675 405.746 291.117 400.427C290.48 394.38 288.542 388.491 285.552 383.202C282.896 378.499 278.411 371.703 273.262 369.492Z" fill="#102770"/>
</g>
<g opacity="0.57">
<path d="M245.084 323.368C238.124 331.51 227.677 335.998 217.109 337.772C206.556 339.531 195.76 338.818 185.086 338.09L185.07 337.802C185.177 337.666 185.283 337.545 185.389 337.408C193.713 337.878 202.083 337.999 210.286 336.635C220.854 334.861 231.301 330.373 238.261 322.23C244.932 314.422 247.722 302.929 243.78 293.513C244.962 292.997 246.16 292.512 247.373 292.042L250.057 293.452C254.773 303.065 252.043 315.225 245.084 323.368Z" fill="white"/>
</g>
<path d="M277.052 362.805C271.667 359.473 261.723 361.404 256.641 365.18C253.265 367.688 250.342 371.011 249.093 375.026C247.843 379.041 248.513 383.796 251.443 386.811C256.932 392.457 267.788 390.38 272.346 396.803C273.926 399.029 274.375 401.876 275.785 404.214C278.447 408.629 284.594 410.24 289.188 408.081C294.562 405.558 295.466 399.059 294.908 393.74C294.271 387.693 292.333 381.804 289.343 376.515C286.687 371.812 282.202 365.016 277.052 362.805Z" fill="#3EDC81"/>
<g opacity="0.57">
<path d="M291.86 407.671C292.345 405.442 292.36 403.062 292.133 400.894C291.496 394.844 289.555 388.961 286.568 383.669C283.9 378.969 279.427 372.161 274.271 369.962C268.889 366.626 258.942 368.552 253.863 372.327C252.013 373.707 250.3 375.33 248.92 377.179C248.965 376.967 249.026 376.755 249.087 376.543C250.345 372.524 253.271 369.204 256.637 366.702C261.717 362.911 271.664 360.986 277.046 364.322C282.201 366.535 286.69 373.328 289.343 378.028C292.33 383.32 294.271 389.203 294.908 395.253C295.363 399.529 294.862 404.563 291.86 407.671Z" fill="white"/>
</g>
<g opacity="0.3">
<path d="M294.316 401.834C293.498 404.487 291.921 406.792 289.191 408.081C284.597 410.234 278.441 408.626 275.788 404.214C274.378 401.879 273.923 399.029 272.346 396.8C267.782 390.386 256.926 392.463 251.437 386.808C248.51 383.79 247.843 379.044 249.087 375.026C249.951 372.267 251.604 369.826 253.666 367.779C253.408 368.324 253.196 368.885 253.014 369.462C251.77 373.48 252.437 378.241 255.364 381.243C260.853 386.899 271.709 384.821 276.273 391.235C277.85 393.464 278.305 396.314 279.715 398.649C282.368 403.062 288.509 404.684 293.118 402.516C293.543 402.319 293.952 402.091 294.316 401.834Z" fill="#102770"/>
</g>
<path d="M284.806 412.826C279.912 412.826 275.081 410.391 272.54 406.17C271.718 404.805 271.181 403.383 270.708 402.131C270.256 400.936 269.832 399.805 269.256 398.995C267.673 396.763 264.443 395.966 260.707 395.041C256.665 394.04 252.083 392.906 248.726 389.455C245.002 385.622 243.725 379.514 245.475 373.901C246.839 369.522 249.921 365.456 254.381 362.141C260.498 357.595 271.946 355.412 278.802 359.436C283.475 361.553 288.13 366.669 292.642 374.653C295.911 380.436 297.998 386.902 298.677 393.346C299.599 402.107 296.727 408.729 290.802 411.513C288.9 412.408 286.847 412.829 284.809 412.829L284.806 412.826ZM269.977 364.864C266.099 364.864 261.574 366.238 258.903 368.221C256.695 369.862 253.829 372.57 252.713 376.151C251.792 379.105 252.374 382.326 254.163 384.166C256.007 386.065 259.176 386.847 262.53 387.678C267.075 388.803 272.228 390.077 275.439 394.604C276.579 396.211 277.228 397.931 277.801 399.45C278.196 400.493 278.565 401.479 279.032 402.252C280.637 404.912 284.63 406.028 287.578 404.645C291.593 402.759 291.405 396.666 291.138 394.134C290.568 388.715 288.806 383.266 286.044 378.377C282.389 371.915 278.666 367.621 275.557 366.284C275.384 366.211 275.218 366.123 275.057 366.023C273.75 365.213 271.946 364.858 269.974 364.858L269.977 364.864Z" fill="#102770"/>
<g opacity="0.25">
<path d="M324.056 492.032C318.027 499.953 298.616 498.164 282.389 485.816C266.163 473.467 259.267 455.236 265.295 447.312C271.324 439.391 283.775 450.326 299.999 462.675C316.226 475.023 330.085 484.108 324.056 492.029V492.032Z" fill="white"/>
</g>
<g opacity="0.25">
<path d="M365.019 506.1C363.512 511.234 355.667 513.454 347.494 511.058C339.322 508.663 333.918 502.555 335.422 497.421C336.929 492.287 344.207 491.996 352.38 494.395C360.552 496.79 366.523 500.966 365.016 506.1H365.019Z" fill="white"/>
</g>
<g opacity="0.57">
<path d="M302.019 281.777C312.784 281.777 323.292 282.914 333.42 285.082L324.429 304.809C311.677 301.276 298.259 299.396 284.4 299.396C265.113 299.396 246.691 303.035 229.754 309.661C214.243 315.726 199.99 324.293 187.497 334.876C203.432 316.029 223.978 301.185 247.373 292.042C264.31 285.416 282.732 281.777 302.019 281.777Z" fill="white"/>
</g>
<g opacity="0.57">
<path d="M449.732 458.572C443.47 493.597 425.047 524.362 399.013 546.393C415.829 526.56 427.549 502.285 432.219 475.584V475.569C433.205 470.004 433.872 464.333 434.221 458.572H449.732Z" fill="white"/>
</g>
<path d="M367.375 567.044C347.619 576.612 325.451 581.979 302.025 581.979C258.039 581.979 218.464 563.056 191.02 532.913V532.898L191.187 528.926C200.254 526.53 205.561 517.326 209.579 508.851C213.597 500.36 218.1 490.989 226.773 487.411C235.78 483.696 246.348 487.79 253.596 494.295C260.828 500.799 265.756 509.442 271.776 517.099C281.738 529.76 293.686 533.596 309.136 535.658C321.221 537.265 333.684 537.735 345.026 542.223C355.882 546.499 365.814 555.597 367.375 567.044Z" fill="#3EDC81"/>
<g opacity="0.57">
<path d="M367.369 567.044C365.322 568.03 363.26 568.985 361.168 569.864C357.832 560.812 349.296 553.716 340.092 550.093C328.75 545.604 316.287 545.134 304.202 543.527C288.752 541.465 276.804 537.629 266.842 524.968C260.822 517.311 255.895 508.669 248.662 502.164C241.414 495.659 230.846 491.565 221.84 495.28C218.094 496.827 215.123 499.45 212.636 502.634C216.017 496.175 220.187 490.125 226.767 487.411C235.774 483.696 246.342 487.79 253.59 494.295C260.822 500.799 265.75 509.442 271.77 517.099C281.731 529.76 293.679 533.596 309.13 535.658C321.215 537.265 333.678 537.735 345.02 542.223C355.876 546.499 365.807 555.597 367.369 567.044Z" fill="white"/>
</g>
<g opacity="0.57">
<path d="M212.636 502.634C211.544 504.696 210.544 506.804 209.573 508.851C207.678 512.853 205.51 516.993 202.765 520.51C203.432 519.252 204.054 517.978 204.645 516.72C206.92 511.898 209.361 506.804 212.636 502.634Z" fill="white"/>
</g>
<path d="M302.025 585.77C258.806 585.77 217.324 567.435 188.218 535.467C187.584 534.769 187.23 533.86 187.23 532.913C187.23 532.859 187.23 532.792 187.233 532.738L187.399 528.765C187.469 527.103 188.613 525.684 190.22 525.259C197.658 523.294 202.45 515.04 206.156 507.225C210.192 498.695 215.217 488.078 225.33 483.905C234.643 480.066 246.73 483.038 256.131 491.471C261.368 496.181 265.414 501.87 269.329 507.368C271.081 509.833 272.895 512.38 274.76 514.755C283.903 526.375 294.883 529.929 309.643 531.901C312.29 532.252 314.959 532.55 317.63 532.847C327.216 533.914 337.126 535.018 346.427 538.696C357.107 542.902 369.213 552.428 371.139 566.529C371.36 568.154 370.511 569.737 369.034 570.453C348.049 580.615 325.509 585.767 302.031 585.767L302.025 585.77ZM194.987 531.625C222.598 561.24 261.505 578.189 302.025 578.189C323.359 578.189 343.88 573.716 363.069 564.885C360.437 555.43 351.233 548.74 343.637 545.75C335.273 542.438 326.294 541.441 316.787 540.382C314.064 540.079 311.341 539.776 308.639 539.415C292.457 537.256 279.49 533.032 268.801 519.443C266.824 516.926 264.956 514.303 263.151 511.765C259.309 506.364 255.679 501.263 251.067 497.112C245.569 492.178 236.283 487.59 228.226 490.913C220.821 493.97 216.672 502.737 213.012 510.47C208.979 518.976 203.711 527.958 194.993 531.625H194.987Z" fill="#102770"/>
<g opacity="0.57">
<path d="M453.965 429.611C453.965 438.512 453.192 447.215 451.691 455.676V455.691C451.661 455.888 451.615 456.1 451.585 456.297H436.074C436.256 453.295 436.346 450.278 436.346 447.23C436.346 379.621 391.663 322.458 330.224 303.672C328.92 303.277 327.601 302.883 326.282 302.534L335.273 282.808C339.534 283.703 343.734 284.794 347.843 286.053C409.281 304.839 453.965 362.002 453.965 429.611Z" fill="white"/>
</g>
<path d="M302.025 586.528C258.594 586.528 216.906 568.103 187.657 535.976C187.588 535.9 187.521 535.822 187.457 535.74C161.605 507.258 147.37 470.389 147.37 431.886C147.37 396.687 159.504 362.259 181.541 334.946C198.444 313.915 220.642 297.61 245.727 287.806C263.667 280.788 282.611 277.228 302.028 277.228C317.473 277.228 332.714 279.5 347.331 283.979C378.32 293.455 406.164 313.018 425.736 339.067C445.975 366.002 456.67 398.098 456.67 431.886C456.67 440.892 455.891 449.884 454.35 458.611C454.344 458.657 454.335 458.702 454.329 458.748C445.817 507.468 414.055 549.483 369.362 571.138C348.274 581.352 325.621 586.528 302.028 586.528H302.025ZM194.58 530.069C222.1 560.173 261.244 577.431 302.025 577.431C324.232 577.431 345.553 572.56 365.392 562.95C407.42 542.587 437.299 503.104 445.341 457.31C445.347 457.259 445.356 457.207 445.365 457.155C446.827 448.91 447.57 440.407 447.57 431.886C447.57 367.442 406.216 311.498 344.665 292.676C330.91 288.461 316.566 286.326 302.025 286.326C283.745 286.326 265.917 289.674 249.035 296.278C225.427 305.506 204.536 320.851 188.622 340.653C167.582 366.732 156.465 398.28 156.465 431.886C156.465 468.218 169.932 503.004 194.383 529.835C194.453 529.911 194.52 529.99 194.58 530.069Z" fill="#102770"/>
<path d="M353.374 468.688C342.442 468.688 331.913 460.901 327.692 449.656C324.174 440.274 324.939 428.711 329.784 417.93C333.772 409.063 339.913 402.061 345.854 395.289C346.994 393.988 348.14 392.685 349.271 391.362C356.419 383.032 362.438 373.513 367.163 363.063C370.872 354.897 371.321 348.856 368.497 345.099C366.099 341.899 361.444 340.744 357.956 340.338C356.24 340.137 354.499 340.046 352.659 339.949C349.399 339.78 346.03 339.604 342.636 338.785C331.604 336.153 322.71 326.897 320.517 315.756C318.51 305.488 322.998 289.228 332.644 282.298C333.172 281.919 333.787 281.683 334.43 281.61C335.043 281.543 340.52 281.058 347.476 284.812C378.165 294.286 405.727 313.7 425.126 339.516C445.265 366.32 455.909 398.258 455.909 431.88C455.909 440.871 455.127 449.847 453.586 458.56C453.356 459.964 452.355 461.149 450.966 461.58C446.063 463.099 442.691 464.13 442.691 464.13C442.512 464.185 442.333 464.227 442.148 464.255C436.459 465.116 430.342 462.029 425.799 455.994C424.468 454.232 423.331 452.385 422.233 450.596C420.705 448.113 419.261 445.765 417.448 443.873C413.794 440.07 408.247 438.042 403.004 438.594C396.208 439.318 390.18 445.165 384.861 450.326L383.663 451.485C375.408 459.466 366.05 468.512 353.656 468.682C353.562 468.682 353.468 468.682 353.374 468.682V468.688ZM336.186 289.155C330.282 294.21 326.333 306.01 327.956 314.304C329.56 322.452 336.323 329.493 344.401 331.419C347.121 332.074 350.005 332.226 353.056 332.383C354.936 332.48 356.877 332.583 358.836 332.811C365.953 333.642 371.39 336.316 374.562 340.55C379.175 346.688 379.011 355.315 374.071 366.196C369.049 377.295 362.642 387.423 355.027 396.299C353.875 397.643 352.713 398.968 351.552 400.29C345.726 406.934 340.222 413.208 336.699 421.041C332.665 430.012 331.971 439.473 334.788 446.997C337.869 455.203 345.663 461.11 353.371 461.11C353.435 461.11 353.496 461.11 353.556 461.11C362.939 460.982 370.796 453.389 378.392 446.044L379.578 444.895C385.467 439.179 392.8 432.068 402.207 431.064C409.852 430.266 417.594 433.099 422.916 438.636C425.293 441.117 427.019 443.925 428.689 446.639C429.742 448.349 430.736 449.965 431.849 451.442C433.996 454.29 437.444 457.152 440.768 456.804C441.517 456.573 443.6 455.933 446.487 455.042C447.706 447.461 448.322 439.685 448.322 431.892C448.322 367.111 406.752 310.877 344.88 291.957C344.626 291.878 344.377 291.775 344.143 291.645C340.565 289.652 337.623 289.231 336.18 289.158L336.186 289.155Z" fill="#102770"/>
<path d="M202.365 342.663C196.452 342.663 190.59 342.263 184.834 341.872C182.921 341.742 181.404 340.201 181.307 338.285L181.292 337.996C181.244 337.068 181.541 336.153 182.123 335.428C198.95 314.492 221.039 298.271 246 288.512C247.025 288.115 248.171 288.176 249.144 288.688L251.828 290.098C252.541 290.471 253.114 291.062 253.469 291.784C258.618 302.28 256.41 315.962 247.974 325.833C239.225 336.068 226.707 340.01 217.746 341.511C212.609 342.366 207.469 342.666 202.368 342.666L202.365 342.663ZM192.594 334.77C200.579 335.213 208.657 335.337 216.49 334.03C224.208 332.735 234.94 329.405 242.206 320.902C248.304 313.767 250.254 303.793 247.146 296.209C226.258 304.663 207.55 317.9 192.591 334.77H192.594Z" fill="#102770"/>
<g opacity="0.3">
<path d="M424.471 518.691C409.885 539.236 390.249 555.96 367.369 567.044C347.613 576.612 325.445 581.979 302.019 581.979C258.032 581.979 218.458 563.056 191.014 532.913V532.898C166.709 506.227 151.91 470.808 151.91 431.886C151.91 396.254 164.313 363.533 185.071 337.802C193.743 327.007 203.887 317.454 215.198 309.433C197.731 333.951 187.497 363.927 187.497 396.299C187.497 432.401 200.218 465.486 221.461 491.368L216.078 499.328C253.044 549.926 311.799 567.363 358.802 552.958L350.22 545.862C368.992 544.316 386.777 539.297 402.956 531.458C410.507 527.804 417.694 523.543 424.471 518.691Z" fill="#102770"/>
</g>
<g opacity="0.3">
<path d="M435.352 357.144L443.333 376.885L459.133 366.368L449.586 349.214L435.352 357.144Z" fill="#102770"/>
</g>
<g opacity="0.22">
<path d="M295.059 624.662C216.26 621.826 146.497 570.911 120.084 496.159C117.992 490.246 121.1 483.741 127.028 481.649C132.942 479.557 139.447 482.665 141.539 488.593C164.313 553.064 223.644 597.43 291.254 601.706C291.254 601.706 274.135 613.35 295.059 624.662Z" fill="#102770"/>
</g>
<g opacity="0.3">
<path d="M543.688 628.498C545.341 633.213 545.902 637.929 545.325 642.644H535.379C539.261 637.929 542.035 633.213 543.688 628.498Z" fill="#282E6A"/>
</g>
<g opacity="0.3">
<path d="M543.688 628.498C542.035 623.782 539.261 619.052 535.379 614.336H545.325C545.902 619.052 545.341 623.782 543.688 628.498Z" fill="#282E6A"/>
</g>
<path d="M905.732 670.616H743.484V565.091H905.732C927.066 565.091 944.387 582.413 944.387 603.747V631.961C944.387 653.295 927.066 670.616 905.732 670.616Z" fill="#19B5FE"/>
<g opacity="0.57">
<path d="M944.387 603.753V617.02C944.387 595.671 927.087 578.355 905.738 578.355H743.484V565.088H905.738C927.087 565.088 944.387 582.404 944.387 603.753Z" fill="white"/>
</g>
<g opacity="0.3">
<path d="M944.387 607.331V631.955C944.387 653.304 927.087 670.619 905.738 670.619H743.484V645.98H905.738C927.087 645.98 944.387 628.68 944.387 607.331Z" fill="#102770"/>
</g>
<path d="M905.735 675.165H743.487C740.976 675.165 738.938 673.127 738.938 670.616V565.091C738.938 562.58 740.976 560.543 743.487 560.543H905.735C929.558 560.543 948.939 579.923 948.939 603.747V631.961C948.939 655.784 929.558 675.165 905.735 675.165ZM748.036 666.068H905.735C924.543 666.068 939.842 650.768 939.842 631.961V603.747C939.842 584.942 924.543 569.64 905.735 569.64H748.036V666.068Z" fill="#102770"/>
<path d="M515.27 656.257C515.037 664.227 521.411 670.768 529.335 670.768H747.254C766.828 670.768 782.697 654.899 782.697 635.3V600.559C782.697 580.985 766.828 565.091 747.254 565.091H529.923C522.212 565.091 515.507 571.047 515.273 578.734C515.04 586.704 521.414 593.221 529.338 593.221H743.551C749.622 593.221 754.568 598.167 754.568 604.262V631.597C754.568 637.692 749.622 642.638 743.551 642.638H529.923C522.212 642.638 515.507 648.57 515.273 656.257H515.27Z" fill="#19B5FE"/>
<g opacity="0.57">
<path d="M754.568 631.591V640.188C754.568 646.283 749.625 651.226 743.545 651.226H529.92C523.537 651.226 517.866 655.275 515.956 661.021C515.455 659.52 515.228 657.928 515.273 656.26C515.501 648.573 522.203 642.644 529.92 642.644H743.545C749.625 642.644 754.568 637.686 754.568 631.591Z" fill="white"/>
</g>
<g opacity="0.3">
<path d="M782.694 624.707V635.306C782.694 654.896 766.819 670.771 747.244 670.771H529.329C521.414 670.771 515.031 664.221 515.273 656.26C515.319 654.547 515.698 652.925 516.32 651.439C518.427 656.564 523.461 660.172 529.329 660.172H747.244C766.819 660.172 782.694 644.297 782.694 624.707Z" fill="#282E6A"/>
</g>
<g opacity="0.57">
<path d="M782.694 600.553V611.865C782.694 592.29 766.819 576.399 747.245 576.399H529.92C524.053 576.399 518.776 579.841 516.486 584.875C515.637 583.01 515.213 580.933 515.273 578.734C515.501 571.047 522.203 565.088 529.92 565.088H747.245C766.819 565.088 782.694 580.979 782.694 600.553Z" fill="white"/>
</g>
<path d="M747.251 675.317H529.332C524.256 675.317 519.513 673.312 515.977 669.67C512.438 666.025 510.57 661.213 510.722 656.124C511.025 646.178 519.637 638.09 529.92 638.09H743.548C747.114 638.09 750.016 635.179 750.016 631.597V604.265C750.016 600.687 747.114 597.773 743.548 597.773H529.335C524.25 597.773 519.504 595.768 515.968 592.126C512.435 588.49 510.573 583.687 510.722 578.604C511.025 568.646 519.637 560.546 529.92 560.546H747.251C769.303 560.546 787.243 578.498 787.243 600.563V635.303C787.243 657.367 769.303 675.32 747.251 675.32V675.317ZM519.813 656.394C519.737 659.002 520.692 661.467 522.503 663.332C524.31 665.194 526.736 666.219 529.332 666.219H747.251C764.287 666.219 778.146 652.349 778.146 635.3V600.56C778.146 583.511 764.287 569.64 747.251 569.64H529.92C524.504 569.64 519.971 573.783 519.816 578.874C519.74 581.473 520.692 583.929 522.497 585.788C524.304 587.65 526.733 588.675 529.335 588.675H743.548C752.13 588.675 759.114 595.668 759.114 604.265V631.597C759.114 640.194 752.13 647.187 743.548 647.187H529.92C524.504 647.187 519.971 651.318 519.816 656.397L519.813 656.394Z" fill="#102770"/>
<path d="M535.382 642.638H743.548C749.619 642.638 754.565 637.692 754.565 631.597V604.262C754.565 598.167 749.619 593.221 743.548 593.221H535.382C548.931 609.699 548.931 626.157 535.382 642.635V642.638Z" fill="white"/>
<g opacity="0.3">
<path d="M754.568 604.268V625.39C754.568 619.294 749.625 614.336 743.545 614.336H545.325C544.492 607.301 541.171 600.265 535.379 593.215H743.545C749.625 593.215 754.568 598.173 754.568 604.268Z" fill="#102770"/>
</g>
<path d="M743.548 647.187H535.382C533.623 647.187 532.022 646.171 531.27 644.582C530.518 642.993 530.751 641.11 531.87 639.751C544.109 624.865 544.109 611 531.87 596.114C530.754 594.755 530.521 592.872 531.27 591.283C532.019 589.694 533.623 588.678 535.382 588.678H743.548C752.13 588.678 759.114 595.671 759.114 604.268V631.6C759.114 640.197 752.13 647.19 743.548 647.19V647.187ZM544.14 638.09H743.548C747.114 638.09 750.016 635.178 750.016 631.597V604.265C750.016 600.687 747.114 597.773 743.548 597.773H544.14C551.991 611.079 551.991 624.783 544.14 638.09Z" fill="#102770"/>
<path d="M849.631 776.147H687.383V670.622H849.631C870.965 670.622 888.286 687.944 888.286 709.278V737.492C888.286 758.826 870.965 776.147 849.631 776.147Z" fill="#FFCA28"/>
<g opacity="0.57">
<path d="M888.286 709.284V722.551C888.286 701.202 870.986 683.886 849.637 683.886H687.383V670.619H849.637C870.986 670.619 888.286 687.935 888.286 709.284Z" fill="white"/>
</g>
<g opacity="0.3">
<path d="M888.286 712.862V737.486C888.286 758.835 870.986 776.15 849.637 776.15H687.383V751.511H849.637C870.986 751.511 888.286 734.211 888.286 712.862Z" fill="#102770"/>
</g>
<path d="M849.634 780.696H687.386C684.875 780.696 682.837 778.658 682.837 776.147V670.622C682.837 668.111 684.875 666.073 687.386 666.073H849.634C873.457 666.073 892.838 685.454 892.838 709.278V737.492C892.838 761.315 873.457 780.696 849.634 780.696ZM691.935 771.598H849.634C868.441 771.598 883.74 756.299 883.74 737.492V709.278C883.74 690.47 868.441 675.171 849.634 675.171H691.935V771.598Z" fill="#102770"/>
<path d="M459.169 761.788C458.936 769.758 465.31 776.299 473.234 776.299H691.152C710.727 776.299 726.596 760.43 726.596 740.831V706.09C726.596 686.516 710.727 670.622 691.152 670.622H473.822C466.11 670.622 459.406 676.578 459.172 684.265C458.939 692.235 465.313 698.752 473.237 698.752H687.45C693.521 698.752 698.467 703.698 698.467 709.793V737.128C698.467 743.223 693.521 748.169 687.45 748.169H473.822C466.11 748.169 459.406 754.101 459.172 761.788H459.169Z" fill="#FFCA28"/>
<g opacity="0.57">
<path d="M698.467 737.122V745.719C698.467 751.814 693.524 756.757 687.444 756.757H473.819C467.436 756.757 461.765 760.806 459.854 766.552C459.354 765.051 459.127 763.459 459.172 761.791C459.4 754.104 466.101 748.175 473.819 748.175H687.444C693.524 748.175 698.467 743.217 698.467 737.122Z" fill="white"/>
</g>
<g opacity="0.3">
<path d="M726.593 730.238V740.837C726.593 760.427 710.718 776.302 691.143 776.302H473.228C465.313 776.302 458.929 769.752 459.172 761.791C459.218 760.078 459.597 758.456 460.218 756.97C462.326 762.095 467.36 765.703 473.228 765.703H691.143C710.718 765.703 726.593 749.828 726.593 730.238Z" fill="#102770"/>
</g>
<g opacity="0.57">
<path d="M726.593 706.084V717.396C726.593 697.821 710.718 681.93 691.143 681.93H473.819C467.951 681.93 462.675 685.372 460.385 690.406C459.536 688.541 459.111 686.464 459.172 684.265C459.4 676.578 466.101 670.619 473.819 670.619H691.143C710.718 670.619 726.593 686.51 726.593 706.084Z" fill="white"/>
</g>
<path d="M691.149 780.848H473.231C468.154 780.848 463.412 778.843 459.876 775.201C456.337 771.556 454.469 766.743 454.62 761.655C454.924 751.708 463.536 743.621 473.819 743.621H687.447C691.013 743.621 693.915 740.709 693.915 737.128V709.796C693.915 706.215 691.013 703.304 687.447 703.304H473.234C468.148 703.304 463.403 701.299 459.867 697.657C456.334 694.021 454.472 689.218 454.62 684.135C454.924 674.176 463.536 666.077 473.819 666.077H691.149C713.202 666.077 731.142 684.029 731.142 706.093V740.834C731.142 762.898 713.202 780.851 691.149 780.851V780.848ZM463.712 761.928C463.636 764.536 464.591 767.001 466.402 768.863C468.209 770.725 470.635 771.75 473.231 771.75H691.149C708.186 771.75 722.044 757.879 722.044 740.831V706.09C722.044 689.042 708.186 675.171 691.149 675.171H473.819C468.403 675.171 463.869 679.313 463.715 684.405C463.639 687.004 464.591 689.46 466.393 691.319C468.2 693.181 470.629 694.206 473.234 694.206H687.447C696.029 694.206 703.012 701.199 703.012 709.796V737.128C703.012 745.725 696.029 752.718 687.447 752.718H473.819C468.403 752.718 463.869 756.851 463.715 761.928H463.712Z" fill="#102770"/>
<path d="M479.281 748.169H687.447C693.518 748.169 698.464 743.223 698.464 737.128V709.793C698.464 703.698 693.518 698.752 687.447 698.752H479.281C492.83 715.23 492.83 731.688 479.281 748.166V748.169Z" fill="white"/>
<g opacity="0.3">
<path d="M698.467 709.799V730.92C698.467 724.825 693.524 719.867 687.444 719.867H489.224C488.39 712.832 485.07 705.796 479.278 698.746H687.444C693.524 698.746 698.467 703.704 698.467 709.799Z" fill="#102770"/>
</g>
<path d="M687.447 752.718H479.281C477.522 752.718 475.921 751.702 475.169 750.113C474.416 748.521 474.65 746.641 475.769 745.282C488.008 730.396 488.008 716.531 475.769 701.645C474.653 700.286 474.42 698.403 475.169 696.814C475.921 695.222 477.522 694.209 479.281 694.209H687.447C696.029 694.209 703.012 701.202 703.012 709.799V737.131C703.012 745.728 696.029 752.721 687.447 752.721V752.718ZM488.039 743.621H687.447C691.013 743.621 693.915 740.709 693.915 737.128V709.796C693.915 706.215 691.013 703.304 687.447 703.304H488.039C495.89 716.61 495.89 730.314 488.039 743.621Z" fill="#102770"/>
<path d="M855.963 565.167H656.288V419.607H855.963C885.948 419.607 910.296 443.952 910.296 473.94V510.837C910.296 540.822 885.951 565.17 855.963 565.17V565.167Z" fill="#FF5722"/>
<g opacity="0.57">
<path d="M910.287 473.946V493.248C910.287 463.242 885.966 438.921 855.959 438.921H656.285V419.604H855.959C885.966 419.604 910.287 443.94 910.287 473.946Z" fill="white"/>
</g>
<g opacity="0.3">
<path d="M910.12 515.279C907.846 543.209 884.465 565.164 855.959 565.164H656.285V419.604H667.656V536.113H867.331C884.692 536.113 900.158 527.97 910.12 515.279Z" fill="#102770"/>
</g>
<path d="M855.963 569.716H656.291C653.78 569.716 651.742 567.678 651.742 565.167V419.607C651.742 417.096 653.78 415.058 656.291 415.058H855.963C888.432 415.058 914.845 441.471 914.845 473.94V510.834C914.845 543.303 888.432 569.716 855.963 569.716ZM660.839 560.618H855.963C883.413 560.618 905.747 538.287 905.747 510.834V473.94C905.747 446.49 883.416 424.156 855.963 424.156H660.839V560.618Z" fill="#102770"/>
<path d="M511.522 537.875H673.761C688.817 537.875 701.053 525.638 701.053 510.582V474.192C701.053 459.136 688.817 446.9 673.761 446.9H511.522C529.717 458.529 529.217 526.76 511.522 537.875Z" fill="white"/>
<g opacity="0.3">
<path d="M701.044 474.189V504.014C701.044 488.957 688.808 476.721 673.752 476.721H524.037C522.309 462.923 518.154 451.142 511.513 446.897H673.752C688.808 446.897 701.044 459.133 701.044 474.189Z" fill="#102770"/>
</g>
<path d="M673.761 542.423H511.522C509.496 542.423 507.713 541.083 507.152 539.133C506.591 537.186 507.386 535.1 509.105 534.023C515.592 529.948 520.356 512.556 520.435 492.669C520.513 472.303 515.843 455.06 509.075 450.733C507.371 449.644 506.591 447.564 507.158 445.623C507.725 443.685 509.502 442.351 511.525 442.351H673.764C691.322 442.351 705.605 456.634 705.605 474.192V510.582C705.605 528.14 691.322 542.423 673.764 542.423H673.761ZM521.393 533.326H673.761C686.303 533.326 696.505 523.121 696.505 510.582V474.192C696.505 461.65 686.303 451.448 673.761 451.448H521.411C527.352 461.974 529.587 478.435 529.529 492.702C529.475 506.779 527.194 522.967 521.393 533.326Z" fill="#102770"/>
<path d="M492.948 551.521C492.948 559.057 499.058 565.167 506.594 565.167H673.761C703.858 565.167 728.346 540.68 728.346 510.582V474.192C728.346 444.095 703.858 419.607 673.761 419.607H506.594C499.058 419.607 492.948 425.718 492.948 433.253C492.948 440.789 499.058 446.9 506.594 446.9H673.761C688.817 446.9 701.053 459.136 701.053 474.192V510.582C701.053 525.638 688.817 537.875 673.761 537.875H506.594C499.058 537.875 492.948 543.985 492.948 551.521Z" fill="#FF5722"/>
<g opacity="0.57">
<path d="M701.044 510.579V518.539C701.044 533.596 688.808 545.832 673.752 545.832H506.585C500.429 545.832 495.229 549.911 493.53 555.506C493.151 554.232 492.939 552.898 492.939 551.518C492.939 543.982 499.049 537.872 506.585 537.872H673.752C688.808 537.872 701.044 525.635 701.044 510.579Z" fill="white"/>
</g>
<g opacity="0.3">
<path d="M728.337 500.344V510.579C728.337 540.677 703.849 565.164 673.752 565.164H506.585C499.049 565.164 492.939 559.054 492.939 551.518C492.939 549.713 493.288 547.985 493.94 546.408C495.971 551.412 500.869 554.929 506.585 554.929H673.752C703.849 554.929 728.337 530.442 728.337 500.344Z" fill="#282E6A"/>
</g>
<g opacity="0.57">
<path d="M728.337 474.189V485.819C728.337 455.721 703.849 431.234 673.752 431.234H506.585C501.127 431.234 496.411 434.433 494.243 439.073C493.409 437.314 492.939 435.328 492.939 433.25C492.939 425.715 499.049 419.604 506.585 419.604H673.752C703.849 419.604 728.337 444.091 728.337 474.189Z" fill="white"/>
</g>
<path d="M673.761 569.716H506.594C496.563 569.716 488.399 561.552 488.399 551.521C488.399 541.489 496.563 533.326 506.594 533.326H673.761C686.303 533.326 696.505 523.121 696.505 510.582V474.192C696.505 461.65 686.303 451.448 673.761 451.448H506.594C496.563 451.448 488.399 443.285 488.399 433.253C488.399 423.222 496.563 415.058 506.594 415.058H673.761C706.366 415.058 732.895 441.587 732.895 474.192V510.582C732.895 543.188 706.366 569.716 673.761 569.716ZM506.594 542.423C501.579 542.423 497.497 546.505 497.497 551.521C497.497 556.537 501.579 560.618 506.594 560.618H673.761C701.351 560.618 723.797 538.172 723.797 510.582V474.192C723.797 446.602 701.351 424.156 673.761 424.156H506.594C501.579 424.156 497.497 428.238 497.497 433.253C497.497 438.269 501.579 442.351 506.594 442.351H673.761C691.319 442.351 705.602 456.634 705.602 474.192V510.582C705.602 528.14 691.319 542.423 673.761 542.423H506.594Z" fill="#102770"/>
<path d="M600.474 446.9V492.387L585.439 479.12L570.277 492.387V446.9H600.474Z" fill="#19B5FE"/>
<g opacity="0.3">
<path d="M600.471 446.897H570.268V463.333H600.471V446.897Z" fill="#282E6A"/>
</g>
<path d="M600.474 496.178C599.568 496.178 598.673 495.853 597.967 495.229L585.427 484.166L572.773 495.241C571.654 496.22 570.065 496.457 568.709 495.841C567.354 495.226 566.486 493.876 566.486 492.39V446.903C566.486 444.81 568.184 443.112 570.277 443.112H600.474C602.567 443.112 604.265 444.81 604.265 446.903V492.39C604.265 493.879 603.392 495.232 602.033 495.844C601.533 496.069 601.002 496.181 600.474 496.181V496.178ZM574.064 450.69V484.033L582.941 476.266C584.375 475.011 586.516 475.017 587.944 476.275L596.681 483.984V450.687H574.064V450.69Z" fill="#102770"/>
<path d="M547.248 719.688C482.046 775.956 409.776 795.925 323.528 790.837C315.253 790.348 308.251 784.535 306.095 776.517L296.233 735.224L295.296 731.306L291.308 714.624L286.05 692.587L280.637 669.961L510.109 596.493L519.234 618.233L527.785 638.626L534.393 654.389L536.565 659.584L552.679 697.985C555.651 705.629 553.468 714.321 547.242 719.691L547.248 719.688Z" fill="#6157A4"/>
<g opacity="0.57">
<path d="M548.173 722.578C482.971 778.846 410.701 798.815 324.453 793.727C322.849 793.636 321.287 793.338 319.814 792.856C402.552 796.283 471.915 774.391 535.097 719.87C541.323 714.503 543.506 705.811 540.534 698.163L524.88 661.209L522.709 656.015L516.101 640.252L507.55 619.858L500.384 602.794L511.04 599.383L520.165 621.123L528.716 641.516L535.324 657.279L537.496 662.474L553.61 700.874C556.582 708.519 554.399 717.211 548.173 722.581V722.578Z" fill="white"/>
</g>
<g opacity="0.3">
<path d="M522.197 625.277L517.805 626.681L510.979 642.065C507.637 649.598 502.261 656.048 495.456 660.697L424.071 709.45C421.654 711.1 418.794 712.016 415.868 712.077L397.412 712.456C384.83 712.713 375.706 724.525 378.629 736.764L382.298 752.121C384.451 760.139 391.456 765.952 399.732 766.44C429.053 768.166 456.749 767.004 483.105 762.498C434.979 786.073 382.532 794.315 323.531 790.837C315.256 790.348 308.254 784.535 306.098 776.517L296.236 735.224L295.299 731.306L291.311 714.624L286.053 692.587L280.64 669.961L272.328 635.145L348.528 610.749L356.84 645.565L510.112 596.493L519.237 618.233L522.194 625.277H522.197Z" fill="#102770"/>
</g>
<path d="M348.738 796.147C340.413 796.147 331.925 795.889 323.262 795.376C313.033 794.773 304.372 787.668 301.71 777.697L267.903 636.203C267.351 633.89 268.673 631.539 270.942 630.815L494.868 559.123C497.115 558.402 499.538 559.521 500.45 561.695L556.888 696.217C560.591 705.739 557.895 716.51 550.223 723.13C492.848 772.642 428.307 796.147 348.741 796.147H348.738ZM277.732 638.193L310.528 775.465C312.147 781.524 317.494 785.921 323.798 786.297C412.741 791.543 482.804 769.291 544.276 716.243C549.04 712.134 550.717 705.454 548.449 699.625L493.67 569.058L277.732 638.193Z" fill="#282E6A"/>
<path d="M562.329 562.811L571.12 590.27L415.437 696.583L226.958 700.459L218.167 673L562.329 562.811Z" fill="#6157A4"/>
<g opacity="0.57">
<path d="M562.326 562.805L571.12 590.27L560.997 597.187L551.136 566.386L562.326 562.805Z" fill="white"/>
</g>
<g opacity="0.3">
<path d="M406.634 669.106L414.752 694.464L416.644 695.753L415.431 696.586L226.961 700.459L218.167 672.994L436.68 603.034C393.373 655.235 406.634 669.109 406.634 669.109V669.106Z" fill="#102770"/>
</g>
<path d="M226.958 705.008C224.984 705.008 223.231 703.734 222.628 701.848L213.837 674.389C213.47 673.239 213.573 671.99 214.125 670.919C214.677 669.846 215.632 669.036 216.781 668.669L560.943 558.48C562.092 558.113 563.341 558.217 564.412 558.769C565.485 559.32 566.295 560.276 566.662 561.425L575.453 588.884C576.066 590.801 575.347 592.893 573.685 594.027L418.003 700.338C417.272 700.835 416.414 701.111 415.531 701.129L227.052 705.008C227.022 705.008 226.989 705.008 226.958 705.008ZM223.886 675.944L230.258 695.844L413.991 692.065L565.755 588.429L559.384 568.53L223.886 675.944Z" fill="#102770"/>
<path d="M562.32 562.805L406.637 669.106L218.164 672.991L368.528 550.074L562.32 562.805Z" fill="#6157A4"/>
<path d="M401.333 669.212L218.167 672.994L319.941 589.782C283.675 640.607 322.276 662.668 401.333 669.212Z" fill="#6157A4"/>
<g opacity="0.57">
<path d="M562.326 562.805L406.634 669.106L386.959 669.515L520.501 578.334C524.956 575.293 523.055 568.339 517.675 567.987L359.339 557.586L368.525 550.074L562.326 562.805Z" fill="white"/>
</g>
<path d="M218.164 677.539C216.263 677.539 214.555 676.354 213.897 674.564C213.227 672.745 213.785 670.698 215.286 669.47L360.431 550.82C364.692 547.339 370.053 545.617 375.551 545.98L562.617 558.268C564.551 558.395 566.195 559.736 566.708 561.607C567.217 563.478 566.486 565.467 564.885 566.562L413.406 669.992C409.927 672.366 405.861 673.67 401.646 673.758L218.261 677.539C218.231 677.539 218.198 677.539 218.167 677.539H218.164ZM374.123 555.029C371.233 555.029 368.443 556.021 366.187 557.865L231.246 668.172L401.455 664.663C403.899 664.612 406.255 663.857 408.272 662.48L548.867 566.48L374.954 555.057C374.678 555.039 374.399 555.029 374.123 555.029Z" fill="#102770"/>
<path d="M388.554 612.757C400.435 608.954 408.712 601.643 407.042 596.427C405.373 591.211 394.388 590.066 382.508 593.869C370.628 597.671 362.351 604.983 364.02 610.198C365.69 615.414 376.674 616.56 388.554 612.757Z" fill="#102770"/>
<path d="M345.911 814.017C343.986 814.017 342.199 812.786 341.581 810.854L297.337 672.657C296.763 670.871 297.349 668.918 298.804 667.735L382.699 599.744C384.648 598.164 387.514 598.461 389.097 600.414C390.68 602.367 390.38 605.229 388.427 606.812L306.95 672.848L350.245 808.082C351.012 810.475 349.693 813.035 347.3 813.802C346.839 813.95 346.372 814.02 345.911 814.02V814.017Z" fill="#102770"/>
<path d="M366.332 842.595L349.244 848.066C345.05 849.409 340.668 846.604 340.134 842.231L336.85 815.357C336.441 812.013 338.467 808.847 341.678 807.819L347.913 805.823C351.009 804.832 354.381 806.096 356.061 808.877L370.202 832.276C372.546 836.157 370.653 841.209 366.335 842.592L366.332 842.595Z" fill="#102770"/>
<g opacity="0.3">
<path d="M401.333 669.212L218.167 672.994L319.941 589.782C283.675 640.607 322.276 662.668 401.333 669.212Z" fill="#102770"/>
</g>
<g opacity="0.25">
<path d="M843.936 454.769C843.936 460.679 831.872 466.811 816.995 466.811C802.118 466.811 790.054 460.679 790.054 454.769C790.054 448.859 802.118 449.55 816.995 449.55C831.872 449.55 843.936 448.859 843.936 454.769Z" fill="white"/>
</g>
<g opacity="0.25">
<path d="M905.571 598.34C905.571 604.25 893.508 610.382 878.63 610.382C863.753 610.382 851.69 604.25 851.69 598.34C851.69 592.429 863.753 593.121 878.63 593.121C893.508 593.121 905.571 592.429 905.571 598.34Z" fill="white"/>
</g>
<g opacity="0.25">
<path d="M825.198 701.608C825.198 707.519 813.135 713.65 798.257 713.65C783.38 713.65 771.316 707.519 771.316 701.608C771.316 695.698 783.38 696.389 798.257 696.389C813.135 696.389 825.198 695.698 825.198 701.608Z" fill="white"/>
</g>
<g opacity="0.25">
<path d="M781.706 456.828C781.706 460.861 776.502 464.13 770.082 464.13C763.662 464.13 758.459 460.861 758.459 456.828C758.459 452.795 763.662 451.042 770.082 451.042C776.502 451.042 781.706 452.795 781.706 456.828Z" fill="white"/>
</g>
<g opacity="0.25">
<path d="M857.079 702.73C857.079 706.764 851.875 710.033 845.455 710.033C839.035 710.033 833.831 706.764 833.831 702.73C833.831 698.697 839.035 696.944 845.455 696.944C851.875 696.944 857.079 698.697 857.079 702.73Z" fill="white"/>
</g>
<g opacity="0.25">
<path d="M843.936 598.882C843.936 602.916 838.732 606.185 832.312 606.185C825.892 606.185 820.688 602.916 820.688 598.882C820.688 594.849 825.892 593.096 832.312 593.096C838.732 593.096 843.936 594.849 843.936 598.882Z" fill="white"/>
</g>
<path d="M59.4007 360.249C58.0876 360.249 56.7624 360.155 55.4402 359.97C48.044 358.927 41.4968 355.066 37.0057 349.101C32.5145 343.133 30.6131 335.777 31.6563 328.38C33.8094 313.115 47.9833 302.44 63.2459 304.596C70.6421 305.64 77.1893 309.5 81.6804 315.465C86.1716 321.433 88.073 328.79 87.0298 336.186C85.9866 343.582 82.1262 350.129 76.1613 354.621C71.2638 358.308 65.4262 360.249 59.4007 360.249ZM45.1691 330.285C44.6354 334.072 45.6089 337.839 47.9075 340.892C50.2061 343.946 53.5601 345.923 57.3446 346.457C61.1353 346.991 64.8986 346.017 67.9523 343.719C71.006 341.42 72.9832 338.066 73.517 334.282C74.0507 330.494 73.0772 326.728 70.7786 323.674C68.48 320.62 65.126 318.643 61.3415 318.109C53.5176 317.002 46.2699 322.47 45.1691 330.285Z" fill="#19B5FE"/>
<path d="M165.229 262.011H165.214C164.953 262.026 164.741 262.123 164.601 262.302C164.589 262.32 164.574 262.323 164.565 262.354L153.357 268.125C151.091 269.289 148.338 267.997 147.768 265.511C146.87 261.526 145.424 257.493 140.923 253.76C129.612 244.341 122.243 253.202 110.92 243.801C99.6086 234.382 106.978 225.521 95.6694 216.117C92.746 213.688 90.0896 212.478 87.5574 211.854C84.3703 211.068 82.7327 207.553 84.2672 204.651L89.1798 195.354C90.0835 193.646 91.8878 192.603 93.8165 192.697C99.2174 192.961 104.43 192.333 110.929 197.737C122.24 207.156 114.871 216.017 126.182 225.436C137.509 234.852 144.875 225.976 156.201 235.392C165.456 243.094 162.857 248.865 166.927 256.807C167.891 258.706 167.127 261.032 165.232 262.011H165.229Z" fill="#19B5FE"/>
<path d="M42.728 750.177L39.0071 739.885C37.9943 737.083 39.1193 733.895 41.7546 732.506C42.7098 732.003 43.6772 731.388 44.6627 730.632C56.3561 721.702 49.357 712.534 61.0504 703.604C72.7346 694.655 79.7457 703.822 91.4269 694.888C98.526 689.469 98.7383 683.974 100.418 678.486C102.235 672.578 110.046 671.32 113.601 676.378L117.979 682.64C119.817 685.239 119.766 688.711 117.892 691.274C112.445 698.776 115.687 706.397 105.94 713.844C94.2562 722.793 87.2451 713.626 75.5639 722.56C63.8524 731.503 70.8666 740.673 59.1702 749.604C55.3766 752.506 52.2925 753.658 49.4147 754.125C46.5277 754.592 43.7196 752.924 42.728 750.174V750.177Z" fill="#FFCA28"/>
<path d="M116.13 615.97C116.928 611.014 113.557 606.35 108.601 605.553C103.645 604.756 98.9816 608.127 98.1843 613.082C97.387 618.038 100.758 622.702 105.714 623.499C110.669 624.296 115.333 620.925 116.13 615.97Z" fill="#19B5FE"/>
<path d="M98.344 412.256C101.864 412.256 104.718 409.402 104.718 405.882C104.718 402.362 101.864 399.508 98.344 399.508C94.8236 399.508 91.9697 402.362 91.9697 405.882C91.9697 409.402 94.8236 412.256 98.344 412.256Z" fill="#FF5722"/>
<path d="M161.435 741.906C163.924 739.417 163.924 735.381 161.435 732.891C158.946 730.402 154.91 730.402 152.42 732.891C149.931 735.381 149.931 739.417 152.42 741.906C154.91 744.395 158.946 744.395 161.435 741.906Z" fill="#F05828"/>
<path d="M985.211 454.563C985.047 454.563 984.883 454.563 984.72 454.56C969.302 454.293 956.981 441.532 957.248 426.118C957.379 418.652 960.408 411.68 965.779 406.492C971.149 401.303 978.191 398.522 985.69 398.646C993.156 398.777 1000.13 401.806 1005.32 407.177C1010.5 412.547 1013.29 419.622 1013.16 427.088C1012.9 442.339 1000.4 454.563 985.211 454.566V454.563ZM985.199 412.287C981.469 412.287 977.948 413.709 975.261 416.305C972.511 418.961 970.961 422.53 970.894 426.351C970.758 434.242 977.066 440.774 984.959 440.913C992.844 441.056 999.385 434.742 999.521 426.849C999.588 423.025 998.163 419.407 995.506 416.656C992.85 413.906 989.28 412.356 985.46 412.29C985.375 412.29 985.29 412.29 985.205 412.29L985.199 412.287Z" fill="#3EDC81"/>
<path d="M911.154 310.04H911.169C911.424 310.085 911.627 310.207 911.745 310.398C911.755 310.416 911.77 310.422 911.776 310.455L922.259 317.457C924.376 318.87 927.26 317.9 928.109 315.492C929.452 311.635 931.348 307.793 936.242 304.593C948.548 296.518 954.865 306.158 967.183 298.101C979.488 290.025 973.172 280.385 985.475 272.325C988.656 270.244 991.43 269.341 994.017 269.007C997.271 268.586 999.297 265.283 998.102 262.226L994.275 252.431C993.571 250.633 991.897 249.39 989.972 249.266C984.574 248.917 979.467 247.698 972.398 252.334C960.093 260.41 966.409 270.05 954.103 278.126C941.782 286.195 935.469 276.543 923.148 284.612C913.077 291.217 915.005 297.246 910.062 304.675C908.889 306.452 909.383 308.851 911.157 310.037L911.154 310.04Z" fill="#3EDC81"/>
<path d="M1039.47 779.465L1040.75 768.596C1041.1 765.64 1039.28 762.792 1036.4 762.037C1035.36 761.764 1034.27 761.385 1033.14 760.876C1019.72 754.841 1024.45 744.324 1011.03 738.289C997.614 732.234 992.871 742.759 979.464 736.719C971.316 733.058 969.86 727.758 966.973 722.796C963.862 717.456 955.965 718.011 953.658 723.746L950.819 730.842C949.621 733.789 950.464 737.158 952.872 739.23C959.883 745.295 958.461 753.455 969.648 758.486C983.061 764.542 987.804 754.016 1001.21 760.057C1014.65 766.098 1009.91 776.623 1023.33 782.658C1027.68 784.62 1030.95 785.038 1033.86 784.838C1036.78 784.638 1039.13 782.373 1039.47 779.468L1039.47 779.465Z" fill="#FF5722"/>
<path d="M1023.67 360.982C1028.04 358.512 1029.58 352.967 1027.11 348.598C1024.64 344.228 1019.09 342.688 1014.72 345.159C1010.36 347.629 1008.82 353.173 1011.29 357.543C1013.76 361.912 1019.3 363.452 1023.67 360.982Z" fill="#19B5FE"/>
<path d="M1021.63 667.688C1028.85 667.552 1034.59 661.592 1034.45 654.377C1034.32 647.161 1028.36 641.422 1021.14 641.558C1013.93 641.694 1008.19 647.654 1008.32 654.869C1008.46 662.085 1014.42 667.824 1021.63 667.688Z" fill="#FFCA28"/>
<path d="M995.463 610.104C997.206 607.686 996.659 604.312 994.24 602.569C991.822 600.826 988.448 601.374 986.705 603.792C984.962 606.211 985.51 609.584 987.928 611.327C990.347 613.07 993.72 612.523 995.463 610.104Z" fill="#FF5722"/>
</svg>
