<svg width="1080" height="1080" viewBox="0 0 1080 1080" fill="none" xmlns="http://www.w3.org/2000/svg">
<path d="M99.9963 610.306C85.2019 610.306 73.1661 598.27 73.1661 583.475C73.1661 568.681 85.2019 556.645 99.9963 556.645C114.791 556.645 126.827 568.681 126.827 583.475C126.827 598.27 114.791 610.306 99.9963 610.306ZM99.9963 569.737C92.4216 569.737 86.2611 575.901 86.2611 583.472C86.2611 591.044 92.4245 597.208 99.9963 597.208C107.568 597.208 113.732 591.044 113.732 583.472C113.732 575.901 107.568 569.737 99.9963 569.737Z" fill="#19B5FE"/>
<path d="M982.914 485.621C968.119 485.621 956.081 473.585 956.081 458.791C956.081 443.996 968.116 431.96 982.914 431.96C997.711 431.96 1009.74 443.996 1009.74 458.791C1009.74 473.585 997.708 485.621 982.914 485.621ZM982.914 445.053C975.339 445.053 969.176 451.216 969.176 458.788C969.176 466.36 975.339 472.523 982.914 472.523C990.488 472.523 996.649 466.36 996.649 458.788C996.649 451.216 990.485 445.053 982.914 445.053Z" fill="#3EDC81"/>
<path d="M793.868 339.792V695.711C793.868 703.385 787.632 709.621 779.959 709.621H559.861C556.875 698.554 547.479 693.028 538.044 693.028V325.882H779.959C787.632 325.882 793.868 332.118 793.868 339.792Z" fill="white"/>
<path d="M538.044 325.888V693.022C528.619 693.022 519.208 698.557 516.222 709.624H296.13C288.454 709.624 282.218 703.388 282.218 695.711V339.786C282.218 332.11 288.454 325.888 296.13 325.888H538.047H538.044Z" fill="white"/>
<path d="M538.044 325.888V693.022C528.619 693.022 519.208 698.557 516.222 709.624H296.13C288.454 709.624 282.218 703.388 282.218 695.711V339.786C282.218 332.11 288.454 325.888 296.13 325.888H538.047H538.044Z" fill="white"/>
<path d="M538.047 325.885V693.025C531.616 693.025 525.214 695.586 520.849 700.708C518.783 703.123 517.183 706.091 516.222 709.627H296.125C290.232 709.627 285.183 705.946 283.175 700.751C283.044 700.475 282.942 700.184 282.855 699.893C282.433 698.583 282.215 697.172 282.215 695.717V339.795C282.215 332.113 288.457 325.885 296.125 325.885H538.047Z" fill="#61BD79"/>
<path d="M793.865 339.795V695.717C793.865 703.385 787.638 709.627 779.956 709.627H559.858C556.875 698.554 547.476 693.025 538.047 693.025V325.885H779.956C787.638 325.885 793.865 332.113 793.865 339.795Z" fill="#3EDC81"/>
<g opacity="0.57">
<path d="M793.865 339.795V695.717C793.865 702.556 788.918 708.259 782.4 709.409C782.997 707.866 783.317 706.193 783.317 704.447V348.525C783.317 340.843 777.089 334.615 769.407 334.615H538.047V325.885H779.956C787.638 325.885 793.865 332.113 793.865 339.795Z" fill="white"/>
</g>
<path d="M516.228 713.986H296.13C286.053 713.986 277.856 705.789 277.856 695.711V339.792C277.856 329.715 286.053 321.517 296.13 321.517H538.047C540.457 321.517 542.412 323.473 542.412 325.882V693.028C542.412 695.438 540.457 697.393 538.047 697.393C531.59 697.393 523.104 700.894 520.445 710.759C519.93 712.665 518.204 713.986 516.231 713.986H516.228ZM296.13 330.247C290.866 330.247 286.586 334.528 286.586 339.792V695.711C286.586 700.975 290.866 705.256 296.13 705.256H513.091C516.638 696.401 524.257 690.403 533.682 688.986V330.247H296.13Z" fill="#102770"/>
<path d="M779.959 713.986H559.861C557.888 713.986 556.159 712.662 555.647 710.759C552.987 700.894 544.502 697.393 538.044 697.393C535.635 697.393 533.679 695.438 533.679 693.028V325.882C533.679 323.473 535.635 321.517 538.044 321.517H779.959C790.036 321.517 798.233 329.715 798.233 339.792V695.711C798.233 705.789 790.036 713.986 779.959 713.986ZM562.998 705.256H779.959C785.223 705.256 789.503 700.975 789.503 695.711V339.792C789.503 334.528 785.223 330.247 779.959 330.247H542.409V688.986C551.832 690.403 559.45 696.404 562.998 705.256Z" fill="#102770"/>
<path d="M767.812 680.352C691.221 658.862 614.633 658.862 538.042 680.352V319.114C614.633 291.538 691.221 291.538 767.812 319.114V680.352Z" fill="white"/>
<g opacity="0.3">
<path d="M538.047 691.57L520.849 699.253L520.747 699.296H283.175C283.044 699.02 282.942 698.729 282.855 698.438C282.433 697.128 282.215 695.717 282.215 694.262L283.894 329.799L310.811 327.128L536.491 668.93L538.047 691.57Z" fill="#102770"/>
</g>
<g opacity="0.3">
<path d="M610.404 646.072C610.404 651.011 606.732 655.172 601.832 655.783C580.568 658.437 559.314 662.75 538.047 668.712V327.835C561.4 319.425 584.738 313.59 608.076 310.302C609.27 310.127 610.346 311.073 610.346 312.281L610.404 646.072Z" fill="#102770"/>
</g>
<path d="M767.812 684.717C767.419 684.717 767.021 684.665 766.634 684.554C691.186 663.384 614.673 663.384 539.223 684.554C537.908 684.921 536.496 684.656 535.405 683.83C534.317 683.006 533.677 681.717 533.677 680.352V319.114C533.677 317.271 534.832 315.63 536.563 315.008C611.778 287.927 688.055 287.217 763.273 312.898C768.598 314.717 772.174 319.693 772.174 325.28V680.355C772.174 681.72 771.534 683.009 770.446 683.833C769.677 684.415 768.749 684.72 767.809 684.72L767.812 684.717ZM542.409 322.192V674.631C615.779 655.047 690.08 655.047 763.447 674.631V325.277C763.447 323.423 762.245 321.767 760.453 321.156C688.119 296.462 614.772 296.811 542.407 322.192H542.409Z" fill="#102770"/>
<path d="M308.274 680.352C384.865 658.862 461.453 658.862 538.044 680.352V319.114C461.453 291.538 384.865 291.538 308.274 319.114V680.352Z" fill="white"/>
<path d="M538.044 684.717C537.649 684.717 537.253 684.665 536.866 684.554C461.415 663.384 384.903 663.384 309.455 684.554C308.14 684.921 306.729 684.656 305.637 683.83C304.549 683.006 303.909 681.717 303.909 680.352V325.277C303.909 319.69 307.485 314.714 312.81 312.895C388.031 287.214 464.311 287.924 539.523 315.005C541.254 315.627 542.409 317.272 542.409 319.111V680.349C542.409 681.714 541.769 683.003 540.681 683.827C539.913 684.409 538.984 684.714 538.044 684.714V684.717ZM423.161 659.944C460.08 659.944 496.996 664.842 533.679 674.634V322.195C461.314 296.817 387.97 296.462 315.633 321.159C313.844 321.77 312.642 323.426 312.642 325.28V674.634C349.325 664.842 386.244 659.944 423.161 659.944Z" fill="#102770"/>
<path d="M571.742 381.775C570.118 381.775 568.64 380.68 568.221 379.033C567.726 377.087 568.902 375.108 570.849 374.61C592.045 369.218 613.544 365.877 634.747 364.681C636.746 364.579 638.469 366.101 638.582 368.109C638.696 370.114 637.159 371.834 635.154 371.945C614.417 373.114 593.384 376.382 572.641 381.658C572.342 381.734 572.039 381.772 571.742 381.772V381.775Z" fill="#102770"/>
<path d="M571.696 417.667C570.072 417.667 568.594 416.572 568.175 414.925C567.68 412.979 568.856 411 570.802 410.502C621.081 397.701 672.073 396.7 722.361 407.519C724.325 407.941 725.574 409.876 725.152 411.841C724.73 413.805 722.795 415.056 720.83 414.631C671.651 404.051 621.78 405.034 572.598 417.553C572.295 417.629 571.995 417.667 571.699 417.667H571.696Z" fill="#102770"/>
<path d="M571.696 444.986C570.072 444.986 568.594 443.891 568.175 442.244C567.68 440.298 568.856 438.319 570.802 437.821C621.081 425.023 672.073 424.016 722.361 434.838C724.325 435.26 725.574 437.195 725.152 439.16C724.73 441.124 722.795 442.378 720.83 441.95C671.651 431.37 621.78 432.353 572.598 444.872C572.295 444.948 571.995 444.986 571.699 444.986H571.696Z" fill="#102770"/>
<path d="M571.696 472.302C570.072 472.302 568.594 471.208 568.175 469.561C567.68 467.614 568.856 465.635 570.802 465.137C621.081 452.336 672.073 451.332 722.361 462.155C724.325 462.577 725.574 464.512 725.152 466.476C724.73 468.44 722.795 469.691 720.83 469.267C671.651 458.686 621.78 459.667 572.598 472.188C572.295 472.264 571.995 472.302 571.699 472.302H571.696Z" fill="#102770"/>
<path d="M571.696 526.559C570.072 526.559 568.594 525.465 568.175 523.817C567.68 521.871 568.856 519.892 570.802 519.394C596.73 512.794 623.031 509.285 648.968 508.965C651.002 508.962 652.626 510.548 652.649 512.559C652.672 514.567 651.066 516.217 649.055 516.24C623.692 516.551 597.967 519.985 572.595 526.442C572.295 526.518 571.993 526.556 571.696 526.556V526.559Z" fill="#102770"/>
<path d="M571.696 555.775C570.072 555.775 568.594 554.681 568.175 553.034C567.68 551.087 568.856 549.108 570.802 548.611C596.73 542.011 623.031 538.501 648.968 538.184C651.002 538.155 652.626 539.767 652.649 541.778C652.672 543.786 651.066 545.436 649.055 545.459C623.692 545.771 597.967 549.204 572.595 555.662C572.292 555.737 571.993 555.775 571.696 555.775Z" fill="#102770"/>
<path d="M502.799 555.775C502.502 555.775 502.199 555.74 501.899 555.662C476.527 549.204 450.8 545.771 425.439 545.459C423.431 545.433 421.822 543.786 421.845 541.778C421.871 539.785 423.495 538.184 425.483 538.184H425.529C451.466 538.504 477.767 542.011 503.695 548.611C505.642 549.105 506.817 551.087 506.323 553.034C505.903 554.681 504.422 555.775 502.801 555.775H502.799Z" fill="#102770"/>
<path d="M502.799 584.994C502.502 584.994 502.199 584.959 501.899 584.881C476.527 578.421 450.803 574.99 425.439 574.678C423.431 574.652 421.822 573.005 421.845 570.997C421.871 569.004 423.492 567.403 425.483 567.403H425.529C451.466 567.721 477.767 571.23 503.695 577.833C505.642 578.328 506.817 580.309 506.323 582.256C505.903 583.903 504.422 584.997 502.801 584.997L502.799 584.994Z" fill="#102770"/>
<g opacity="0.3">
<path d="M766.279 683.248L765.507 683.728L737.266 700.577H553.674C553.674 700.577 553.863 701.13 554.198 702.09L547.854 693.665L539.124 690.392V680.352L551.622 680.512C617.985 661.03 695.391 661.103 766.279 683.248Z" fill="#102770"/>
</g>
<g opacity="0.3">
<path d="M767.807 683.728H765.508L766.293 683.248C766.803 683.408 767.297 683.568 767.807 683.728Z" fill="#282E6A"/>
</g>
<g opacity="0.3">
<path d="M464.139 646.072C464.139 651.011 467.812 655.172 472.712 655.783C493.975 658.437 515.23 662.75 536.496 668.712V327.835C513.144 319.425 489.805 313.59 466.467 310.302C465.274 310.127 464.197 311.073 464.197 312.281L464.139 646.072Z" fill="#102770"/>
</g>
<g opacity="0.3">
<path d="M343.223 325.524V654.5C343.223 657.727 340.939 660.486 337.778 661.135C327.544 663.239 317.298 665.729 307.052 668.607V327.73C316.265 324.418 325.472 321.497 334.682 318.977C338.983 317.801 343.223 321.06 343.223 325.521V325.524Z" fill="#102770"/>
</g>
<path d="M881.515 780.733C805.462 813.077 733.57 810.182 656.237 780.296C648.817 777.43 644.117 770.067 644.495 762.109L647.565 721.485L647.856 717.629L649.093 701.217L650.737 679.537L652.41 657.276H883.625L885.603 679.814L887.451 700.955L888.877 717.295L889.343 722.678L892.835 762.487C893.315 770.344 888.775 777.648 881.515 780.733Z" fill="#6157A4"/>
<g opacity="0.57">
<path d="M881.515 783.643C805.462 815.987 733.57 813.092 656.237 783.206C654.797 782.653 653.458 781.926 652.25 781.053C726.863 808.392 796.659 808.683 870.355 777.343C877.615 774.258 882.155 766.954 881.675 759.097L878.183 720.743L877.717 715.36L876.291 699.02L874.443 677.879L872.887 660.186H883.625L885.603 682.724L887.451 703.865L888.877 720.205L889.343 725.588L892.835 765.397C893.315 773.254 888.775 780.558 881.515 783.643Z" fill="white"/>
</g>
<g opacity="0.3">
<path d="M886.244 687.118H881.82L863.036 708.215L771.939 735.337C769.247 736.137 766.366 736.137 763.674 735.337L734.711 726.714C729.298 725.102 723.784 728.903 723.359 734.531L721.276 762.109C720.897 770.067 725.597 777.43 733.017 780.296C759.309 790.452 784.961 797.494 810.365 801.088C759.484 808.552 709.141 800.739 656.237 780.296C648.817 777.43 644.117 770.067 644.495 762.109L647.565 721.485L647.856 717.629L649.093 701.217L650.737 679.537L652.41 657.276L655 623.025H731.781L729.191 657.276H883.625L885.603 679.814L886.244 687.118Z" fill="#102770"/>
</g>
<path d="M772.428 808.235C734.635 808.235 695.836 800.279 654.669 784.367C645.499 780.823 639.662 771.796 640.145 761.905L650.65 622.702C650.822 620.427 652.719 618.666 655.003 618.666H880.627C882.891 618.666 884.78 620.395 884.975 622.65L897.191 762.103C897.79 771.889 892.174 780.945 883.226 784.751C846.411 800.407 809.914 808.238 772.428 808.238V808.235ZM659.051 627.393L648.857 762.443C648.566 768.455 652.163 774.04 657.814 776.222C737.569 807.051 808.107 807.205 879.809 776.714C885.365 774.351 888.851 768.738 888.484 762.746L876.626 627.393H659.048H659.051Z" fill="#102770"/>
<path d="M941.199 641.774V669.443L767.812 721.049L594.426 669.443V641.774H941.199Z" fill="#6157A4"/>
<g opacity="0.57">
<path d="M941.199 641.766V669.44L929.923 672.801V641.766H941.199Z" fill="white"/>
</g>
<g opacity="0.3">
<path d="M767.807 693.36V718.91L769.16 720.641L767.807 721.049L594.429 669.44V641.766H814.599C759.746 676.802 767.807 693.36 767.807 693.36Z" fill="#102770"/>
</g>
<path d="M767.812 725.414C767.393 725.414 766.974 725.352 766.567 725.233L593.18 673.627C591.33 673.077 590.061 671.375 590.061 669.443V641.774C590.061 639.365 592.016 637.409 594.426 637.409H941.199C943.608 637.409 945.564 639.365 945.564 641.774V669.443C945.564 671.375 944.295 673.074 942.444 673.627L769.058 725.233C768.65 725.355 768.231 725.414 767.812 725.414ZM598.791 666.186L767.812 716.494L936.834 666.186V646.136H598.791V666.186Z" fill="#102770"/>
<path d="M941.193 641.766L767.809 693.363L594.429 641.766L767.809 573.427L941.193 641.766Z" fill="#6157A4"/>
<path d="M762.932 691.905L594.429 641.766L711.789 595.497C663.774 631.333 692.598 662.79 762.932 691.905Z" fill="#6157A4"/>
<g opacity="0.57">
<path d="M941.199 641.766L767.807 693.36L749.706 687.976L898.434 643.718C903.392 642.243 903.692 635.332 898.876 633.434L757.214 577.6L767.807 573.424L941.199 641.766Z" fill="white"/>
</g>
<path d="M767.813 697.125C766.061 697.125 764.309 696.872 762.604 696.366L593.184 645.95C591.4 645.418 590.148 643.814 590.067 641.955C589.985 640.095 591.094 638.387 592.826 637.706L761.117 571.376C765.432 569.676 770.187 569.676 774.503 571.376L942.794 637.706C944.525 638.39 945.634 640.095 945.553 641.955C945.471 643.814 944.22 645.418 942.436 645.95L773.016 696.366C771.313 696.872 769.562 697.125 767.81 697.125H767.813ZM607.795 641.189L765.095 688C766.873 688.529 768.753 688.529 770.528 688L927.828 641.189L771.305 579.497C769.052 578.613 766.573 578.61 764.321 579.497L607.798 641.189H607.795Z" fill="#102770"/>
<path d="M767.809 636.548C779.779 636.548 789.483 632.288 789.483 627.032C789.483 621.777 779.779 617.517 767.809 617.517C755.839 617.517 746.136 621.777 746.136 627.032C746.136 632.288 755.839 636.548 767.809 636.548Z" fill="#102770"/>
<path d="M671.244 808.235C668.834 808.235 666.879 806.28 666.879 803.87V664.624C666.879 662.825 667.985 661.207 669.661 660.555L766.226 622.964C768.47 622.091 771.005 623.203 771.878 625.449C772.753 627.696 771.639 630.227 769.392 631.1L675.606 667.606V803.867C675.606 806.277 673.65 808.232 671.241 808.232L671.244 808.235Z" fill="#102770"/>
<path d="M680.213 840.123H662.994C658.769 840.123 655.585 836.276 656.377 832.126L661.239 806.603C661.845 803.425 664.624 801.126 667.857 801.126H674.137C677.256 801.126 679.968 803.268 680.69 806.303L686.766 831.826C687.773 836.06 684.563 840.123 680.213 840.123Z" fill="#102770"/>
<g opacity="0.3">
<path d="M762.932 691.905L594.429 641.766L711.789 595.497C663.774 631.333 692.598 662.79 762.932 691.905Z" fill="#102770"/>
</g>
<path d="M419.328 318.593L432.865 385.092L399.38 391.916L385.831 325.405L404.996 336.294L419.328 318.593Z" fill="#FF5722"/>
<g opacity="0.57">
<path d="M407.973 349.025L388.811 338.142L399.753 391.846L399.374 391.919L385.828 325.411L405.005 336.294L419.322 318.587L422 331.696L407.973 349.025Z" fill="white"/>
</g>
<path d="M412.324 378.897L395.987 408.922L336.373 376.461L358.262 368.057L352.718 346.447L412.324 378.897Z" fill="#FF5722"/>
<g opacity="0.57">
<path d="M412.164 379.202L361.806 351.79L367.35 373.411L345.888 381.647L336.373 376.467L358.256 368.057L352.712 346.45L412.324 378.897L412.164 379.202Z" fill="white"/>
</g>
<path d="M399.38 396.281C398.53 396.281 397.692 396.034 396.971 395.556C396.004 394.919 395.332 393.921 395.102 392.786L381.553 326.275C381.213 324.599 381.882 322.876 383.267 321.872C384.653 320.868 386.497 320.764 387.987 321.61L403.934 330.669L415.935 315.846C416.997 314.533 418.726 313.948 420.364 314.353C422.005 314.754 423.268 316.067 423.606 317.723L437.146 384.222C437.626 386.585 436.101 388.89 433.741 389.37L400.253 396.194C399.965 396.252 399.671 396.281 399.38 396.281ZM392.026 333.943L402.788 386.768L427.721 381.687L416.898 328.533L408.392 339.041C407.048 340.703 404.7 341.145 402.843 340.089L392.026 333.943Z" fill="#102770"/>
<path d="M395.987 413.287C395.265 413.287 394.547 413.107 393.901 412.754L334.286 380.293C332.791 379.479 331.906 377.869 332.016 376.173C332.13 374.473 333.218 372.995 334.807 372.384L353.067 365.374L348.49 347.53C348.059 345.848 348.665 344.07 350.035 343.002C351.406 341.934 353.28 341.782 354.805 342.612L414.41 375.058C416.526 376.211 417.309 378.862 416.156 380.977L399.819 411.003C399.267 412.021 398.332 412.775 397.221 413.104C396.816 413.223 396.4 413.281 395.984 413.281L395.987 413.287ZM346.761 377.151L394.238 403.003L406.402 380.646L359.437 355.078L362.49 366.974C363.04 369.122 361.896 371.339 359.827 372.134L346.764 377.151H346.761Z" fill="#102770"/>
<path d="M239.185 499.082C239.185 499.082 228.607 480.298 227.585 445.786C347.116 416.046 444.441 350.361 514.083 239.877L522.613 260.448L382.208 428.07L239.187 499.082H239.185Z" fill="white"/>
<g opacity="0.3">
<path d="M515.527 268.913L382.205 428.076L239.193 499.08C239.193 499.08 228.615 480.296 227.582 445.783C342.396 417.221 436.695 355.5 505.677 252.792C508.732 257.87 512.399 263.835 515.527 268.913Z" fill="#102770"/>
</g>
<path d="M239.187 503.448C237.66 503.448 236.179 502.641 235.381 501.224C234.927 500.418 224.265 481.096 223.223 445.917C223.162 443.865 224.539 442.046 226.532 441.552C348.726 411.148 444.229 342.513 510.391 237.549C511.261 236.17 512.821 235.381 514.453 235.527C516.08 235.663 517.491 236.697 518.117 238.204L526.646 258.778C527.269 260.279 527.004 262.005 525.959 263.253L385.555 430.875C385.168 431.338 384.69 431.713 384.149 431.981L241.128 502.994C240.506 503.302 239.845 503.45 239.19 503.45L239.187 503.448ZM232.087 449.153C233.21 471.513 238.451 486.602 241.239 493.19L379.447 424.569L517.564 259.677L513.245 249.265C479.716 300.641 438.979 343.476 392.061 376.676C345.679 409.498 291.87 433.875 232.084 449.156L232.087 449.153Z" fill="#102770"/>
<path d="M294.771 492.206C311.673 515.07 315.863 540.649 304.124 549.327C292.374 558.013 269.149 546.504 252.245 523.64C235.343 500.776 231.153 475.197 242.904 466.511C250.656 460.778 263.439 463.86 276.092 473.215C282.587 478.011 289.047 484.463 294.771 492.206Z" fill="white"/>
<g opacity="0.3">
<path d="M307.564 545.683H307.549C295.123 550.557 274.375 539.136 258.909 518.213C243.966 497.988 238.96 475.625 246.148 464.727C253.962 461.686 265.078 465.062 276.092 473.224C282.596 478.011 289.056 484.471 294.774 492.212C309.732 512.436 314.722 534.785 307.564 545.683Z" fill="#102770"/>
</g>
<path d="M294.605 556.604C289.629 556.604 284.068 555.144 278.181 552.231C267.775 547.077 257.317 537.847 248.738 526.239C240.159 514.631 234.4 501.928 232.524 490.466C230.481 477.979 233.245 468.225 240.311 463.001C249.489 456.215 263.835 458.724 278.688 469.706C285.71 474.889 292.487 481.774 298.281 489.61C306.859 501.216 312.618 513.921 314.495 525.38C316.541 537.867 313.779 547.618 306.72 552.836C303.324 555.347 299.215 556.602 294.603 556.602L294.605 556.604ZM252.408 468.018C249.684 468.018 247.33 468.673 245.502 470.023C241.265 473.157 239.676 480.095 241.14 489.058C242.796 499.176 247.987 510.536 255.757 521.05C263.527 531.564 272.868 539.857 282.055 544.409C290.194 548.439 297.291 548.954 301.531 545.82C305.762 542.692 307.348 535.757 305.882 526.794C304.223 516.676 299.032 505.316 291.262 494.802C285.977 487.655 279.837 481.404 273.502 476.728C265.817 471.045 258.26 468.015 252.405 468.015L252.408 468.018Z" fill="#282E6A"/>
<path d="M304.127 549.327C305.003 548.477 305.876 547.624 306.749 546.795C305.987 547.746 305.114 548.599 304.127 549.327Z" fill="white"/>
<path d="M304.127 553.692C302.887 553.692 301.656 553.165 300.798 552.152C299.311 550.4 299.436 547.799 301.083 546.198C301.968 545.337 302.855 544.476 303.737 543.635C305.402 542.052 308.006 542.028 309.697 543.579C311.387 545.13 311.588 547.729 310.154 549.522C309.147 550.779 307.991 551.893 306.72 552.833C305.94 553.409 305.032 553.689 304.127 553.689V553.692Z" fill="#282E6A"/>
<path d="M242.906 466.511C243.974 465.722 245.147 465.097 246.401 464.634C245.252 465.262 244.079 465.885 242.906 466.511Z" fill="white"/>
<path d="M242.909 470.879C241.457 470.879 240.043 470.151 239.217 468.845C237.994 466.912 238.472 464.363 240.311 463.004C241.693 461.98 243.235 461.151 244.888 460.542C247.033 459.751 249.428 460.746 250.374 462.83C251.319 464.91 250.499 467.372 248.491 468.469C247.382 469.075 246.25 469.677 245.121 470.282L244.961 470.367C244.309 470.716 243.605 470.882 242.909 470.882V470.879Z" fill="#282E6A"/>
<path d="M309.618 541.263C291.303 543.003 260.145 517.805 254.59 487.696L278.525 475.092C299.372 490.783 309.755 512.829 309.618 541.263Z" fill="white"/>
<g opacity="0.3">
<path d="M309.484 535.309C291.486 531.148 267.711 509.294 262.357 483.598L278.522 475.087C297.888 489.68 308.233 509.73 309.484 535.309Z" fill="#102770"/>
</g>
<path d="M586.007 340.95C561.257 353.492 536.159 367.926 511.118 383.814C464.747 413.264 418.566 447.718 375.119 484.602C358.925 498.338 343.124 512.422 327.832 526.71C320.761 533.301 313.747 539.994 306.749 546.804C315.071 536.386 310.255 513.149 294.774 492.212C289.056 484.471 282.596 478.011 276.092 473.224C265.194 465.164 254.194 461.744 246.396 464.64C273.182 450.337 299.75 434.929 325.664 418.589C372.428 389.14 417.111 356.679 457.327 322.297C481.625 301.534 504.294 280.058 524.795 258.132C535.97 249.867 557.576 259.907 574.207 280.626C575.036 281.659 575.866 282.721 576.666 283.812C593.573 306.685 597.749 332.278 586.007 340.95Z" fill="white"/>
<g opacity="0.3">
<path d="M576.666 283.812C576.142 283.099 575.618 282.416 575.08 281.732C584.421 300.254 585.207 318.005 575.822 324.945C551.073 337.487 525.974 351.921 500.933 367.809C499.301 368.845 497.668 369.89 496.039 370.938C486.372 377.154 473.384 374.555 467.072 364.949C460.409 354.811 457.158 340.595 457.33 322.297C417.114 356.679 372.431 389.14 325.667 418.589C348.423 423.999 362.086 433.867 369.232 446.932C373.184 454.155 371.304 463.193 365.03 468.519L364.937 468.597C348.743 482.333 332.942 496.417 317.65 510.705C314.623 513.528 311.612 516.365 308.614 519.231C311.975 530.726 311.51 540.853 306.752 546.804C313.75 539.994 320.764 533.301 327.835 526.71C343.127 512.422 358.928 498.338 375.122 484.602C418.569 447.718 464.75 413.264 511.121 383.815C536.162 367.926 561.26 353.492 586.01 340.95C597.752 332.278 593.576 306.685 576.669 283.812H576.666Z" fill="#102770"/>
</g>
<path d="M306.746 551.163C305.696 551.163 304.648 550.787 303.813 550.031C302.105 548.483 301.898 545.872 303.338 544.071C309.557 536.298 306.74 515.742 291.262 494.802C285.977 487.655 279.837 481.404 273.502 476.728C263.643 469.435 254.078 466.444 247.915 468.728C245.767 469.526 243.36 468.519 242.418 466.426C241.478 464.334 242.319 461.867 244.344 460.787C353.818 402.319 452.287 329.29 521.606 255.152C521.786 254.957 521.987 254.782 522.2 254.622C535.35 244.9 559.174 254.907 577.609 277.899C578.473 278.964 579.335 280.079 580.181 281.222C588.76 292.828 594.516 305.533 596.39 316.998C598.43 329.488 595.665 339.239 588.606 344.457C588.411 344.602 588.204 344.73 587.986 344.838C504.664 387.109 413.331 452.828 330.803 529.891C323.804 536.427 316.736 543.166 309.787 549.923C308.94 550.747 307.843 551.16 306.743 551.16L306.746 551.163ZM262.339 460.959C267.58 462.649 273.127 465.591 278.688 469.706C285.71 474.889 292.487 481.774 298.281 489.61C309.121 504.274 315.019 520.075 315.115 532.684C318.36 529.594 321.61 526.533 324.846 523.509C407.839 446.01 499.74 379.871 583.676 337.234C587.715 334.016 589.205 327.183 587.771 318.403C586.115 308.283 580.926 296.919 573.157 286.408C572.388 285.369 571.606 284.356 570.808 283.376C556.017 264.929 536.799 255.198 527.676 261.429C460.691 332.983 366.904 403.448 262.334 460.956L262.339 460.959Z" fill="#102770"/>
<path d="M464.427 415.024L424.028 444.89C412.283 421.749 397.072 401.173 378.393 383.16L418.793 353.294C439.663 371.159 455.456 391.456 464.427 415.024Z" fill="#FF5722"/>
<g opacity="0.57">
<path d="M416.441 431.131C419.366 435.423 422.145 439.832 424.764 444.342L424.022 444.895C421.636 440.196 419.119 435.612 416.441 431.131Z" fill="white"/>
</g>
<g opacity="0.57">
<path d="M456.003 397.142C447.84 385.575 437.815 374.91 426.234 364.987L388.142 393.141C385.013 389.722 381.754 386.404 378.393 383.16L418.798 353.289C434.192 366.471 446.836 380.977 456.003 397.142Z" fill="white"/>
</g>
<g opacity="0.57">
<path d="M416.441 431.131C407.566 418.065 397.352 405.974 385.828 394.858L388.142 393.141C398.894 404.825 408.337 417.483 416.441 431.131Z" fill="white"/>
</g>
<g opacity="0.3">
<path d="M464.427 415.024L424.022 444.895C420.835 438.624 417.402 432.528 413.691 426.635L452.365 398.044C449.543 390.609 446.022 383.494 441.875 376.685C451.521 388.441 459.16 401.173 464.427 415.024Z" fill="#102770"/>
</g>
<path d="M424.028 449.252C423.693 449.252 423.356 449.214 423.024 449.135C421.773 448.838 420.719 448.009 420.137 446.863C408.669 424.266 393.607 403.891 375.367 386.297C374.441 385.406 373.958 384.152 374.04 382.872C374.121 381.591 374.767 380.41 375.8 379.647L416.2 349.782C417.835 348.574 420.088 348.653 421.633 349.977C444.299 369.375 459.632 390.144 468.507 413.473C469.203 415.304 468.597 417.373 467.023 418.537L426.623 448.402C425.864 448.964 424.953 449.257 424.028 449.257V449.252ZM385.095 383.631C401.187 399.84 414.762 418.205 425.538 438.342L459.134 413.508C450.995 393.706 437.681 375.78 418.571 358.885L385.095 383.634V383.631Z" fill="#102770"/>
<path d="M307.794 545.712C286.679 545.712 255.958 519.173 250.298 488.484C249.952 486.604 250.865 484.722 252.556 483.831L276.491 471.228C278.627 470.105 281.263 470.922 282.386 473.055C283.51 475.188 282.692 477.828 280.559 478.951L259.557 490.009C266.326 517.209 294.539 538.306 309.205 536.915C311.609 536.68 313.736 538.449 313.963 540.847C314.19 543.248 312.429 545.378 310.031 545.605C309.301 545.675 308.553 545.709 307.794 545.709V545.712Z" fill="#282E6A"/>
<path d="M207.617 369.564H207.602C207.355 369.535 207.137 369.593 206.977 369.739C206.962 369.753 206.948 369.753 206.933 369.782L195.409 373.464C193.081 374.206 190.681 372.547 190.535 370.103C190.317 366.189 189.589 362.144 185.923 357.895C176.713 347.186 168.332 354.403 159.107 343.709C149.897 333 158.278 325.783 149.068 315.089C146.687 312.327 144.365 310.759 142.069 309.767C139.18 308.515 138.187 304.93 140.099 302.428L146.225 294.408C147.351 292.935 149.225 292.234 151.035 292.63C156.104 293.738 161.138 293.968 166.429 300.117C175.639 310.826 167.258 318.043 176.468 328.751C185.693 339.46 194.074 332.229 203.298 342.938C210.835 351.697 207.46 356.746 210.05 364.908C210.661 366.858 209.569 368.939 207.62 369.564H207.617Z" fill="#19B5FE"/>
<path d="M118.798 765.071L116.892 754.743C116.374 751.932 117.936 749.092 120.649 748.19C121.629 747.864 122.645 747.431 123.695 746.872C136.168 740.252 130.979 730.477 143.451 723.854C155.915 717.213 161.118 726.994 173.576 720.368C181.148 716.352 182.21 711.184 184.66 706.251C187.305 700.943 194.9 700.978 197.47 706.324L200.633 712.938C201.966 715.685 201.372 718.965 199.195 721.098C192.86 727.346 194.737 735.069 184.34 740.592C171.876 747.233 166.673 737.452 154.215 744.078C141.726 750.707 146.926 760.488 134.454 767.108C130.409 769.261 127.307 769.867 124.507 769.858C121.702 769.849 119.304 767.827 118.795 765.068L118.798 765.071Z" fill="#FFCA28"/>
<path d="M985.783 298.45L985.172 308.934C985.006 311.786 982.809 314.172 979.96 314.402C978.93 314.487 977.841 314.664 976.686 314.955C962.995 318.412 965.704 329.141 952.012 332.596C938.324 336.073 935.606 325.332 921.926 328.798C913.615 330.893 911.351 335.66 907.795 339.865C903.959 344.39 896.594 342.542 895.372 336.739L893.879 329.56C893.242 326.575 894.601 323.531 897.223 321.977C904.864 317.42 904.885 309.473 916.298 306.589C929.987 303.111 932.704 313.852 946.384 310.386C960.096 306.926 957.378 296.189 971.067 292.734C975.511 291.608 978.665 291.76 981.383 292.438C984.107 293.116 985.952 295.65 985.786 298.453L985.783 298.45Z" fill="#FF5722"/>
<path d="M159.381 500.878C164.197 500.878 168.102 496.973 168.102 492.157C168.102 487.34 164.197 483.435 159.381 483.435C154.564 483.435 150.659 487.34 150.659 492.157C150.659 496.973 154.564 500.878 159.381 500.878Z" fill="#19B5FE"/>
<path d="M866.621 432.318C869.999 432.318 872.738 429.58 872.738 426.202C872.738 422.823 869.999 420.085 866.621 420.085C863.243 420.085 860.504 422.823 860.504 426.202C860.504 429.58 863.243 432.318 866.621 432.318Z" fill="#FF5722"/>
<path d="M191.152 614.537C194.53 614.537 197.269 611.798 197.269 608.42C197.269 605.042 194.53 602.303 191.152 602.303C187.774 602.303 185.035 605.042 185.035 608.42C185.035 611.798 187.774 614.537 191.152 614.537Z" fill="#FF5722"/>
<path d="M915.547 542.351C921.987 542.351 927.207 537.131 927.207 530.691C927.207 524.251 921.987 519.031 915.547 519.031C909.107 519.031 903.887 524.251 903.887 530.691C903.887 537.131 909.107 542.351 915.547 542.351Z" fill="#19B5FE"/>
</svg>
