<svg width="1728" height="1117" viewBox="0 0 1728 1117" fill="none" xmlns="http://www.w3.org/2000/svg">
<g clip-path="url(#clip0_9_2)">
<rect width="1728" height="1117" fill="white"/>
<mask id="mask0_9_2" style="mask-type:alpha" maskUnits="userSpaceOnUse" x="-1749" y="86" width="3588" height="399">
<path d="M1836.15 277.967C1837.88 331.964 1748.28 438.711 1376.01 433.722C1003.74 428.732 781.103 291.697 716.317 223.803C661.409 163.059 482.882 53.4851 208.04 101.136C-66.8027 148.786 -92.4902 326.795 -115.376 408.166C-150.369 460.057 -365.427 534.076 -590.535 428.445C-815.643 322.814 -972.916 205.905 -1023.41 160.654C-1072.28 109.901 -1351.48 39.1921 -1505.18 161.444C-1697.31 314.259 -1706.82 531.275 -1746.4 459.84" stroke="url(#paint0_linear_9_2)" stroke-width="5"/>
</mask>
<g mask="url(#mask0_9_2)">
<rect x="1835.71" y="0.00012207" width="510" height="3617.37" transform="rotate(89.9061 1835.71 0.00012207)" fill="url(#paint1_linear_9_2)"/>
</g>
<mask id="mask1_9_2" style="mask-type:alpha" maskUnits="userSpaceOnUse" x="-2518" y="738" width="4881" height="399">
<path d="M2360.34 928.967C2362.67 982.963 2240.66 1089.76 1734.03 1084.99C1227.4 1080.22 924.48 943.321 836.351 875.465C761.66 814.754 518.76 705.286 144.688 753.099C-229.384 800.912 -264.449 978.937 -295.644 1060.32C-343.297 1112.23 -636.022 1186.38 -942.318 1080.88C-1248.61 975.383 -1462.58 858.567 -1531.28 813.346C-1597.75 762.622 -1977.69 692.078 -2186.94 814.421C-2448.5 967.35 -2461.58 1184.37 -2515.4 1112.96" stroke="url(#paint2_linear_9_2)" stroke-width="5"/>
</mask>
<g mask="url(#mask1_9_2)">
<rect x="2359.92" y="651" width="510" height="3863.36" transform="rotate(89.9061 2359.92 651)" fill="url(#paint3_linear_9_2)"/>
</g>
<mask id="mask2_9_2" style="mask-type:alpha" maskUnits="userSpaceOnUse" x="-2327" y="-285" width="4428" height="2078">
<path d="M2094.03 -283.202C2117.19 -234.369 2046.37 -88.5035 1577.84 104.296C1109.3 297.095 776.982 288.888 669.392 260.685C576.96 233.833 310.607 227.539 -15.3575 417.178C-341.322 606.818 -304.33 784.452 -301.389 871.561C-325.079 937.927 -565.861 1120.16 -889.066 1142.2C-1212.27 1164.24 -1454.84 1139.92 -1535.72 1125C-1616.69 1104.15 -1994.12 1187.04 -2139.25 1381.19C-2320.67 1623.86 -2248.24 1828.86 -2325.61 1784.03" stroke="url(#paint4_linear_9_2)" stroke-width="5"/>
</mask>
<g mask="url(#mask2_9_2)">
<rect x="1985.45" y="-539.084" width="510" height="3863.36" transform="rotate(67 1985.45 -539.084)" fill="url(#paint5_linear_9_2)"/>
</g>
<mask id="mask3_9_2" style="mask-type:alpha" maskUnits="userSpaceOnUse" x="-2236" y="245" width="4005" height="2812">
<path d="M1758.39 247.175C1789.68 291.244 1745.27 447.191 1317.33 718.422C889.39 989.653 560.698 1039.28 449.844 1030.19C354.155 1019.79 90.7546 1059.84 -197.327 1303.21C-485.409 1546.57 -418.133 1715.08 -400.11 1800.35C-411.917 1869.83 -617.396 2091.1 -931.864 2168.93C-1246.33 2246.76 -1489.44 2264.93 -1571.68 2264.28C-1655.04 2257.81 -2012.34 2404.98 -2121.56 2621.38C-2258.08 2891.87 -2151.15 3081.17 -2235.14 3050.46" stroke="url(#paint6_linear_9_2)" stroke-width="5"/>
</mask>
<g mask="url(#mask3_9_2)">
<rect x="1607.03" y="14.0357" width="510" height="3863.36" transform="rotate(57 1607.03 14.0357)" fill="url(#paint7_linear_9_2)"/>
</g>
<mask id="mask4_9_2" style="mask-type:alpha" maskUnits="userSpaceOnUse" x="-2674" y="-1556" width="4428" height="2078">
<path d="M1747.41 -1554.2C1770.57 -1505.37 1699.76 -1359.5 1231.22 -1166.7C762.68 -973.905 430.365 -982.112 322.774 -1010.31C230.343 -1037.17 -36.0104 -1043.46 -361.975 -853.822C-687.939 -664.182 -650.948 -486.548 -648.006 -399.439C-671.697 -333.073 -912.479 -150.839 -1235.68 -128.801C-1558.89 -106.762 -1801.45 -131.085 -1882.34 -146.001C-1963.31 -166.854 -2340.74 -83.9561 -2485.87 110.185C-2667.29 352.862 -2594.86 557.857 -2672.23 513.026" stroke="url(#paint8_linear_9_2)" stroke-width="5"/>
</mask>
<g mask="url(#mask4_9_2)">
<rect x="1638.83" y="-1810.08" width="510" height="3863.36" transform="rotate(67 1638.83 -1810.08)" fill="url(#paint9_linear_9_2)"/>
</g>
</g>
<defs>
<linearGradient id="paint0_linear_9_2" x1="1836.18" y1="282.774" x2="-1746.68" y2="288.647" gradientUnits="userSpaceOnUse">
<stop stop-color="#C64545"/>
<stop offset="1" stop-color="#B95656"/>
</linearGradient>
<linearGradient id="paint1_linear_9_2" x1="2090.71" y1="0.00012207" x2="2090.71" y2="3617.37" gradientUnits="userSpaceOnUse">
<stop stop-color="#FFB1B1"/>
<stop offset="0.175" stop-color="#FFE3AB"/>
<stop offset="0.34" stop-color="#BAFEEA"/>
<stop offset="0.505" stop-color="#FDFEBA"/>
<stop offset="0.62" stop-color="#CDFFC0"/>
<stop offset="0.72" stop-color="#FFCBC0"/>
<stop offset="0.86" stop-color="#EBFFC0"/>
<stop offset="0.98" stop-color="#C0FFF4"/>
</linearGradient>
<linearGradient id="paint2_linear_9_2" x1="2360.38" y1="933.774" x2="-2515.68" y2="941.767" gradientUnits="userSpaceOnUse">
<stop stop-color="#C64545"/>
<stop offset="1" stop-color="#B95656"/>
</linearGradient>
<linearGradient id="paint3_linear_9_2" x1="2614.92" y1="651" x2="2614.92" y2="4514.36" gradientUnits="userSpaceOnUse">
<stop stop-color="#FFB1B1"/>
<stop offset="0.175" stop-color="#FFE3AB"/>
<stop offset="0.34" stop-color="#BAFEEA"/>
<stop offset="0.505" stop-color="#FDFEBA"/>
<stop offset="0.62" stop-color="#CDFFC0"/>
<stop offset="0.72" stop-color="#FFCBC0"/>
<stop offset="0.86" stop-color="#EBFFC0"/>
<stop offset="0.98" stop-color="#C0FFF4"/>
</linearGradient>
<linearGradient id="paint4_linear_9_2" x1="2095.94" y1="-278.789" x2="-2392.51" y2="1626.44" gradientUnits="userSpaceOnUse">
<stop stop-color="#C64545"/>
<stop offset="1" stop-color="#B95656"/>
</linearGradient>
<linearGradient id="paint5_linear_9_2" x1="2240.45" y1="-539.084" x2="2240.45" y2="3324.27" gradientUnits="userSpaceOnUse">
<stop stop-color="#FFB1B1"/>
<stop offset="0.175" stop-color="#FFE3AB"/>
<stop offset="0.34" stop-color="#BAFEEA"/>
<stop offset="0.505" stop-color="#FDFEBA"/>
<stop offset="0.62" stop-color="#CDFFC0"/>
<stop offset="0.72" stop-color="#FFCBC0"/>
<stop offset="0.86" stop-color="#EBFFC0"/>
<stop offset="0.98" stop-color="#C0FFF4"/>
</linearGradient>
<linearGradient id="paint6_linear_9_2" x1="1761.04" y1="251.19" x2="-2328.37" y2="2906.88" gradientUnits="userSpaceOnUse">
<stop stop-color="#C64545"/>
<stop offset="1" stop-color="#B95656"/>
</linearGradient>
<linearGradient id="paint7_linear_9_2" x1="1862.03" y1="14.0357" x2="1862.03" y2="3877.39" gradientUnits="userSpaceOnUse">
<stop stop-color="#FFB1B1"/>
<stop offset="0.175" stop-color="#FFE3AB"/>
<stop offset="0.34" stop-color="#BAFEEA"/>
<stop offset="0.505" stop-color="#FDFEBA"/>
<stop offset="0.62" stop-color="#CDFFC0"/>
<stop offset="0.72" stop-color="#FFCBC0"/>
<stop offset="0.86" stop-color="#EBFFC0"/>
<stop offset="0.98" stop-color="#C0FFF4"/>
</linearGradient>
<linearGradient id="paint8_linear_9_2" x1="1749.32" y1="-1549.79" x2="-2739.12" y2="355.441" gradientUnits="userSpaceOnUse">
<stop stop-color="#C64545"/>
<stop offset="1" stop-color="#B95656"/>
</linearGradient>
<linearGradient id="paint9_linear_9_2" x1="1893.83" y1="-1810.08" x2="1893.83" y2="2053.27" gradientUnits="userSpaceOnUse">
<stop stop-color="#FFB1B1"/>
<stop offset="0.175" stop-color="#FFE3AB"/>
<stop offset="0.34" stop-color="#BAFEEA"/>
<stop offset="0.505" stop-color="#FDFEBA"/>
<stop offset="0.62" stop-color="#CDFFC0"/>
<stop offset="0.72" stop-color="#FFCBC0"/>
<stop offset="0.86" stop-color="#EBFFC0"/>
<stop offset="0.98" stop-color="#C0FFF4"/>
</linearGradient>
<clipPath id="clip0_9_2">
<rect width="1728" height="1117" fill="white"/>
</clipPath>
</defs>
</svg>
