<?xml version="1.0" encoding="UTF-8"?>
<svg id="uuid-52c3a8aa-c8f1-4c9b-a94e-66836b8d9c2c" data-name="Layer 1" xmlns="http://www.w3.org/2000/svg" xmlns:xlink="http://www.w3.org/1999/xlink" viewBox="0 0 4000 4000">
  <defs>
    <style>
      .uuid-241ef410-7cc5-456e-83a4-75d095d2e22e {
        fill: #fa5c98;
      }

      .uuid-241ef410-7cc5-456e-83a4-75d095d2e22e, .uuid-b3cf464b-fb52-4d8b-9a23-fc9589f9fab7, .uuid-46736c33-8d31-4354-b1ca-0baf366619f2, .uuid-f459a371-114f-475a-bda7-4aa71957183c, .uuid-c5281206-f4fe-492d-b37f-6d3e43cd03ff, .uuid-3bb649b9-8643-49c2-81a5-7c08193a1814, .uuid-e14d8570-c647-4124-93df-3b2367c6e666, .uuid-747848a9-10c7-4d8a-a80e-a68741f1ba64, .uuid-6f7b158e-3d09-49b9-aebd-89bf8bdd2117, .uuid-602c3d4e-20f1-4f23-9bad-a67ff7fc2c15, .uuid-02bf7293-3b63-48e6-bcbb-7802afc4b267, .uuid-116c5d9c-00d2-453a-acfd-db6e6ab966e1, .uuid-d51ab4f3-0d34-4f08-a860-5ed92506da55, .uuid-f20b7039-ce7b-4624-98f4-ffb98109458b, .uuid-e063a60a-ae3f-47b2-b5e4-223e0801f5b9, .uuid-e08f625a-45c4-4877-b24c-382bedd1afd2, .uuid-027e4875-547a-4a51-9231-a2a76735618d, .uuid-2b59c7a0-e259-455d-b815-e2ed1fdc355f, .uuid-da14d2d9-2741-457c-b433-28a510a8d5fc, .uuid-9f0c21a4-6064-4b00-a418-1c9a9b158e45, .uuid-3efffcfa-b30c-4ecd-936d-c6f13d464cea, .uuid-7557678b-42a9-4d98-9a16-e9525d2d27e2 {
        stroke-width: 0px;
      }

      .uuid-b3cf464b-fb52-4d8b-9a23-fc9589f9fab7 {
        fill: #f8bf71;
      }

      .uuid-e1f8a616-36bf-46fc-bb5b-73f2467e9949 {
        opacity: .51;
      }

      .uuid-46736c33-8d31-4354-b1ca-0baf366619f2 {
        fill: #19b5fe;
      }

      .uuid-205af049-5617-4304-afb8-f817934377a9 {
        opacity: .6;
      }

      .uuid-317e1c3f-bc50-42f9-8290-2a274dccff31 {
        mask: url(#uuid-0c2a0087-3228-47c2-acf9-4d48303a2d98);
      }

      .uuid-f459a371-114f-475a-bda7-4aa71957183c {
        fill: #dce5ee;
      }

      .uuid-c5281206-f4fe-492d-b37f-6d3e43cd03ff {
        fill: #5f5a57;
      }

      .uuid-3bb649b9-8643-49c2-81a5-7c08193a1814 {
        fill: #fcf8d0;
      }

      .uuid-e14d8570-c647-4124-93df-3b2367c6e666 {
        fill: none;
      }

      .uuid-747848a9-10c7-4d8a-a80e-a68741f1ba64 {
        fill: #8bc34a;
      }

      .uuid-9b92529f-2bef-411f-99e8-6cf9b8f2cc49 {
        mask: url(#uuid-8219c63c-e68d-4130-8f0a-969cab676991);
      }

      .uuid-6f7b158e-3d09-49b9-aebd-89bf8bdd2117 {
        fill: url(#uuid-143828a9-9bc2-4bf5-8a27-78fbffb73eb5);
      }

      .uuid-6f7b158e-3d09-49b9-aebd-89bf8bdd2117, .uuid-d51ab4f3-0d34-4f08-a860-5ed92506da55 {
        mix-blend-mode: multiply;
      }

      .uuid-486674ab-161d-4eaa-a43f-9bd698808fb8 {
        mask: url(#uuid-60a00244-03da-4c0d-a311-b34c882a5e24);
      }

      .uuid-602c3d4e-20f1-4f23-9bad-a67ff7fc2c15 {
        fill: #102770;
      }

      .uuid-02bf7293-3b63-48e6-bcbb-7802afc4b267 {
        fill: #fff;
      }

      .uuid-dcf674b5-e863-48a7-8040-5f33e7066bef, .uuid-116c5d9c-00d2-453a-acfd-db6e6ab966e1, .uuid-da14d2d9-2741-457c-b433-28a510a8d5fc {
        opacity: .3;
      }

      .uuid-116c5d9c-00d2-453a-acfd-db6e6ab966e1 {
        fill: url(#uuid-32989f62-b829-4f90-9b7c-3525f6d2c40c);
      }

      .uuid-d51ab4f3-0d34-4f08-a860-5ed92506da55 {
        fill: url(#uuid-56cf25e5-3aa3-4237-a511-b6c3c4e429a6);
      }

      .uuid-f20b7039-ce7b-4624-98f4-ffb98109458b {
        fill: #f7c714;
      }

      .uuid-45ca0bd9-5e37-4a9c-b9fd-36e8a56dc427 {
        filter: url(#uuid-03e63538-fb4d-4e72-8fa9-01d854f81843);
      }

      .uuid-e063a60a-ae3f-47b2-b5e4-223e0801f5b9 {
        fill: #6cefe6;
      }

      .uuid-4e407b67-72d1-4c19-9332-3014c52ecb28 {
        mask: url(#uuid-93874855-8ecc-4b47-a459-8d8563056a36);
      }

      .uuid-e08f625a-45c4-4877-b24c-382bedd1afd2 {
        fill: #22a7f0;
      }

      .uuid-027e4875-547a-4a51-9231-a2a76735618d {
        fill: #282e6a;
      }

      .uuid-f90e842a-29ee-4b7d-926f-4867b72b816b {
        filter: url(#uuid-6a7699e2-3ae4-4b67-be6f-a3c8154dbbf2);
      }

      .uuid-2b59c7a0-e259-455d-b815-e2ed1fdc355f {
        fill: #ff5722;
      }

      .uuid-da14d2d9-2741-457c-b433-28a510a8d5fc {
        fill: url(#uuid-f074e8ec-17ba-4416-9b4f-e19a3979d94c);
      }

      .uuid-9f0c21a4-6064-4b00-a418-1c9a9b158e45 {
        fill: #fdf5ed;
      }

      .uuid-3efffcfa-b30c-4ecd-936d-c6f13d464cea {
        fill: #fce5e5;
      }

      .uuid-7557678b-42a9-4d98-9a16-e9525d2d27e2 {
        fill: #ffca28;
      }
    </style>
    <filter id="uuid-03e63538-fb4d-4e72-8fa9-01d854f81843" x="819.83" y="1906.41" width="328.33" height="631.46" color-interpolation-filters="sRGB" filterUnits="userSpaceOnUse">
      <feFlood flood-color="#fff" result="bg"/>
      <feBlend in="SourceGraphic" in2="bg"/>
    </filter>
    <filter id="uuid-824105dc-0d74-489e-bebf-5dfed69ba24e" x="819.83" y="-10192" width="328.33" height="32766" color-interpolation-filters="sRGB" filterUnits="userSpaceOnUse">
      <feFlood flood-color="#fff" result="bg"/>
      <feBlend in="SourceGraphic" in2="bg"/>
    </filter>
    <mask id="uuid-60a00244-03da-4c0d-a311-b34c882a5e24" data-name="mask-1" x="819.83" y="-10192" width="328.33" height="32766" maskUnits="userSpaceOnUse"/>
    <linearGradient id="uuid-56cf25e5-3aa3-4237-a511-b6c3c4e429a6" x1="1122.37" y1="1905.05" x2="921.64" y2="2167.3" gradientTransform="translate(-667.22 577.66) rotate(-18.24)" gradientUnits="userSpaceOnUse">
      <stop offset="0" stop-color="#fff"/>
      <stop offset="1" stop-color="#000"/>
    </linearGradient>
    <mask id="uuid-0c2a0087-3228-47c2-acf9-4d48303a2d98" data-name="mask" x="819.83" y="1906.41" width="328.33" height="631.46" maskUnits="userSpaceOnUse">
      <g class="uuid-45ca0bd9-5e37-4a9c-b9fd-36e8a56dc427">
        <g class="uuid-486674ab-161d-4eaa-a43f-9bd698808fb8">
          <polygon class="uuid-d51ab4f3-0d34-4f08-a860-5ed92506da55" points="1148.15 1906.41 921.99 2537.87 819.83 2227.88 906.43 1986.08 1148.15 1906.41"/>
        </g>
      </g>
    </mask>
    <linearGradient id="uuid-32989f62-b829-4f90-9b7c-3525f6d2c40c" x1="1122.37" y1="1905.05" x2="921.64" y2="2167.3" gradientTransform="translate(-667.22 577.66) rotate(-18.24)" gradientUnits="userSpaceOnUse">
      <stop offset="0" stop-color="#fff"/>
      <stop offset="1" stop-color="#fff"/>
    </linearGradient>
    <filter id="uuid-6a7699e2-3ae4-4b67-be6f-a3c8154dbbf2" x="966.63" y="1874.21" width="354.14" height="928.05" color-interpolation-filters="sRGB" filterUnits="userSpaceOnUse">
      <feFlood flood-color="#fff" result="bg"/>
      <feBlend in="SourceGraphic" in2="bg"/>
    </filter>
    <filter id="uuid-48bb5d0b-d87c-483a-add0-91381458cbef" x="966.63" y="-10192" width="354.14" height="32766" color-interpolation-filters="sRGB" filterUnits="userSpaceOnUse">
      <feFlood flood-color="#fff" result="bg"/>
      <feBlend in="SourceGraphic" in2="bg"/>
    </filter>
    <mask id="uuid-93874855-8ecc-4b47-a459-8d8563056a36" data-name="mask-3" x="966.63" y="-10192" width="354.14" height="32766" maskUnits="userSpaceOnUse"/>
    <linearGradient id="uuid-143828a9-9bc2-4bf5-8a27-78fbffb73eb5" x1="1397.93" y1="1959.33" x2="1016.98" y2="2436.51" gradientTransform="translate(-667.22 577.66) rotate(-18.24)" gradientUnits="userSpaceOnUse">
      <stop offset="0" stop-color="#fff"/>
      <stop offset="1" stop-color="#000"/>
    </linearGradient>
    <mask id="uuid-8219c63c-e68d-4130-8f0a-969cab676991" data-name="mask-2" x="966.63" y="1874.21" width="354.14" height="928.05" maskUnits="userSpaceOnUse">
      <g class="uuid-f90e842a-29ee-4b7d-926f-4867b72b816b">
        <g class="uuid-4e407b67-72d1-4c19-9332-3014c52ecb28">
          <path class="uuid-6f7b158e-3d09-49b9-aebd-89bf8bdd2117" d="m1275.36,1892.13l45.41,137.78-275.06,767.93-9.37,3.09c-13.77,4.54-28.61-2.92-33.15-16.72l-36.55-110.91,286.23-799.1c10.06.93,19.13,7.69,22.5,17.92Z"/>
        </g>
      </g>
    </mask>
    <linearGradient id="uuid-f074e8ec-17ba-4416-9b4f-e19a3979d94c" x1="1397.93" y1="1959.33" x2="1016.98" y2="2436.51" xlink:href="#uuid-32989f62-b829-4f90-9b7c-3525f6d2c40c"/>
  </defs>
  <rect class="uuid-02bf7293-3b63-48e6-bcbb-7802afc4b267" width="4000" height="4000"/>
  <circle class="uuid-e063a60a-ae3f-47b2-b5e4-223e0801f5b9" cx="2000" cy="2000" r="1225"/>
  <g>
    <path class="uuid-2b59c7a0-e259-455d-b815-e2ed1fdc355f" d="m1989.05,1291.63v1271.4c-32.64,0-65.23,19.16-75.58,57.49h-762.19c-26.58,0-48.18-21.6-48.18-48.18v-1232.59c0-26.58,21.6-48.13,48.18-48.13h837.77Z"/>
    <path class="uuid-e14d8570-c647-4124-93df-3b2367c6e666" d="m1989.05,1291.61v1271.45c-32.67,0-65.21,19.13-75.55,57.46h-762.22c-26.58,0-48.17-21.59-48.17-48.17v-1232.56c0-26.58,21.59-48.17,48.17-48.17h837.77Z"/>
    <path class="uuid-2b59c7a0-e259-455d-b815-e2ed1fdc355f" d="m2874.99,1339.78v1232.56c0,26.58-21.59,48.17-48.17,48.17h-762.22c-10.34-38.33-42.88-57.46-75.55-57.46v-1271.45h837.77c26.58,0,48.17,21.59,48.17,48.17Z"/>
    <g class="uuid-dcf674b5-e863-48a7-8040-5f33e7066bef">
      <path class="uuid-027e4875-547a-4a51-9231-a2a76735618d" d="m2757.69,2454.38v24.04c0,31.13-25.23,56.36-56.41,56.36h-616.24c-22.64-.35-54.71,8.94-70.59,13.08-33.21,8.67-52.46-24.49-52.46-58.81v-1111.94c0-25.66,10.34-48.89,27.07-65.67v1225.01c7.69-46.67,43.09-75.14,123.05-73.84h616.24c10.72,0,20.79-3.03,29.34-8.23Z"/>
    </g>
    <g class="uuid-dcf674b5-e863-48a7-8040-5f33e7066bef">
      <path class="uuid-027e4875-547a-4a51-9231-a2a76735618d" d="m1215.19,2454.38v24.04c0,31.13,25.23,56.36,56.41,56.36h616.24c22.64-.35,54.71,8.94,70.59,13.08,33.21,8.67,52.46-24.49,52.46-58.81v-1111.94c0-25.66-10.34-48.89-27.07-65.67v1225.01c-7.69-46.67-43.09-75.14-123.05-73.84h-616.24c-10.72,0-20.79-3.03-29.34-8.23Z"/>
    </g>
    <g class="uuid-205af049-5617-4304-afb8-f817934377a9">
      <path class="uuid-02bf7293-3b63-48e6-bcbb-7802afc4b267" d="m2875,1339.76v1232.59c0,25.55-19.98,46.5-45.15,48.07v-1264.15c0-12.13-9.85-21.98-21.98-21.98h-818.82v-42.66h837.77c26.58,0,48.18,21.55,48.18,48.13Z"/>
    </g>
    <path class="uuid-602c3d4e-20f1-4f23-9bad-a67ff7fc2c15" d="m1874.11,2639.47h-722.83c-37.01,0-67.12-30.11-67.12-67.12v-1232.56c0-37.01,30.11-67.12,67.12-67.12h837.76c10.46,0,18.95,8.48,18.95,18.95v1271.45c0,10.46-8.49,18.95-18.95,18.95-19.86,0-37.42,8.69-48.18,23.85-14.95,21.05-39.9,33.62-66.75,33.62Zm-722.83-1328.91c-16.11,0-29.22,13.11-29.22,29.23v1232.56c0,16.11,13.11,29.22,29.22,29.22h722.83c14.6,0,28-6.6,35.85-17.66,14.12-19.89,35.79-33.37,60.13-38.02v-1235.33h-818.81Z"/>
    <path class="uuid-602c3d4e-20f1-4f23-9bad-a67ff7fc2c15" d="m2826.82,2639.47h-722.83c-26.85,0-51.8-12.57-66.76-33.61-10.76-15.16-28.32-23.85-48.18-23.85-10.46,0-18.95-8.48-18.95-18.95v-1271.45c0-10.46,8.49-18.95,18.95-18.95h837.77c37.01,0,67.12,30.11,67.12,67.12v1232.56c0,37.01-30.11,67.12-67.12,67.12Zm-818.82-93.57c24.35,4.64,46.02,18.13,60.13,38.02,7.86,11.06,21.26,17.66,35.86,17.66h722.83c16.11,0,29.22-13.11,29.22-29.22v-1232.56c0-16.12-13.11-29.23-29.22-29.23h-818.82v1235.33Z"/>
    <path class="uuid-9f0c21a4-6064-4b00-a418-1c9a9b158e45" d="m1193.35,2406.21c0,31.15,25.25,56.4,56.4,56.4h616.26c79.98-1.28,115.36,27.17,123.05,73.83v-1231.5c0-51.53-41.78-93.31-93.31-93.31h-646c-31.15,0-56.4,25.25-56.4,56.4v1138.19Z"/>
    <g class="uuid-dcf674b5-e863-48a7-8040-5f33e7066bef">
      <path class="uuid-602c3d4e-20f1-4f23-9bad-a67ff7fc2c15" d="m1238.01,1268.03v1138.17c0,31.18,25.23,56.41,56.41,56.41h-44.66c-31.18,0-56.41-25.23-56.41-56.41v-1138.17c0-31.13,25.23-56.41,56.41-56.41h44.66c-31.18,0-56.41,25.28-56.41,56.41Z"/>
    </g>
    <g class="uuid-dcf674b5-e863-48a7-8040-5f33e7066bef">
      <path class="uuid-027e4875-547a-4a51-9231-a2a76735618d" d="m1989.05,2475.88v60.58c-7.42-44.93-40.49-73.03-114.34-73.84h35.95c33.56-.54,59.28,4.17,78.39,13.26Z"/>
    </g>
    <path class="uuid-9f0c21a4-6064-4b00-a418-1c9a9b158e45" d="m2784.76,2406.21c0,31.15-25.25,56.4-56.4,56.4h-616.26c-79.98-1.28-115.36,27.17-123.05,73.83v-1231.5c0-51.53,41.78-93.31,93.31-93.31h646c31.15,0,56.4,25.25,56.4,56.4v1138.19Z"/>
    <path class="uuid-02bf7293-3b63-48e6-bcbb-7802afc4b267" d="m2210.52,1211.62c-51.54,0-93.28,41.79-93.28,93.33v1108.94h-5.14c-79.96-1.3-115.37,27.18-123.05,73.84v-1182.78c0-51.54,41.79-93.33,93.33-93.33h128.14Z"/>
    <g class="uuid-dcf674b5-e863-48a7-8040-5f33e7066bef">
      <path class="uuid-602c3d4e-20f1-4f23-9bad-a67ff7fc2c15" d="m2784.75,2357.48v48.72c0,31.15-25.26,56.41-56.41,56.41h-616.24c-79.96-1.3-115.37,27.18-123.05,73.84v-1231.51c0-51.55,41.79-93.33,93.33-93.33h128.14c-51.54,0-93.28,41.79-93.28,93.33v1011.01c0,54.09,43.85,97.93,97.93,97.93h513.16c31.18,0,56.41-25.23,56.41-56.41Z"/>
    </g>
    <g class="uuid-dcf674b5-e863-48a7-8040-5f33e7066bef">
      <path class="uuid-602c3d4e-20f1-4f23-9bad-a67ff7fc2c15" d="m1215.19,2357.48v48.72c0,31.15,25.26,56.41,56.41,56.41h616.24c79.96-1.3,99.97,4.99,107.65,51.65l15.4-1209.31c0-51.55-41.79-93.33-93.33-93.33h-128.14c51.54,0,93.28,41.79,93.28,93.33v1011.01c0,54.09-43.85,97.93-97.93,97.93h-513.16c-31.18,0-56.41-25.23-56.41-56.41Z"/>
    </g>
    <path class="uuid-602c3d4e-20f1-4f23-9bad-a67ff7fc2c15" d="m1989.04,2552.68c-7.88,0-14.71-5.7-16.01-13.6-4.29-26.01-19.6-60.27-101.84-60.27-1.62,0-3.25.01-4.92.04h-616.52c-40.05,0-72.64-32.58-72.64-72.63v-1138.19c0-40.05,32.58-72.64,72.64-72.64h646c60.41,0,109.55,49.14,109.55,109.55v1231.5c0,8.46-6.49,15.5-14.92,16.19-.45.04-.89.06-1.34.06Zm-117.76-106.35c44.89,0,78.82,9.46,101.53,28.24v-1169.63c0-42.5-34.58-77.07-77.07-77.07h-646c-22.14,0-40.16,18.02-40.16,40.16v1138.19c0,22.14,18.01,40.16,40.16,40.16h616.26c1.77-.03,3.54-.04,5.27-.04Z"/>
    <path class="uuid-602c3d4e-20f1-4f23-9bad-a67ff7fc2c15" d="m1989.07,2552.68c-.44,0-.89-.02-1.34-.06-8.43-.69-14.92-7.73-14.92-16.19v-1231.5c0-60.41,49.15-109.55,109.55-109.55h646c40.05,0,72.64,32.58,72.64,72.64v1138.19c0,40.05-32.58,72.64-72.64,72.64h-616.26c-86.83-1.35-102.65,33.71-107.02,60.23-1.3,7.9-8.13,13.6-16.01,13.6Zm93.3-1324.81c-42.5,0-77.07,34.58-77.07,77.07v1169.65c23.62-19.53,59.33-29,107.07-28.22h616.01c22.14,0,40.16-18.02,40.16-40.16v-1138.19c0-22.14-18.01-40.16-40.16-40.16h-646Z"/>
    <g>
      <path class="uuid-602c3d4e-20f1-4f23-9bad-a67ff7fc2c15" d="m1492.76,1399.28h-200.98c-8.5,0-15.38-6.89-15.38-15.38s6.88-15.38,15.38-15.38h200.98c8.5,0,15.38,6.89,15.38,15.38s-6.88,15.38-15.38,15.38Z"/>
      <path class="uuid-602c3d4e-20f1-4f23-9bad-a67ff7fc2c15" d="m1859.85,1526.43h-568.07c-8.5,0-15.38-6.89-15.38-15.38s6.88-15.38,15.38-15.38h568.07c8.5,0,15.38,6.89,15.38,15.38s-6.88,15.38-15.38,15.38Z"/>
      <path class="uuid-602c3d4e-20f1-4f23-9bad-a67ff7fc2c15" d="m1859.85,1907.87h-568.07c-8.5,0-15.38-6.89-15.38-15.38s6.88-15.38,15.38-15.38h568.07c8.5,0,15.38,6.89,15.38,15.38s-6.88,15.38-15.38,15.38Z"/>
      <path class="uuid-602c3d4e-20f1-4f23-9bad-a67ff7fc2c15" d="m1703.99,1653.57h-412.21c-8.5,0-15.38-6.89-15.38-15.38s6.88-15.38,15.38-15.38h412.21c8.5,0,15.38,6.89,15.38,15.38s-6.88,15.38-15.38,15.38Z"/>
      <path class="uuid-602c3d4e-20f1-4f23-9bad-a67ff7fc2c15" d="m1703.99,1780.72h-412.21c-8.5,0-15.38-6.89-15.38-15.38s6.88-15.38,15.38-15.38h412.21c8.5,0,15.38,6.89,15.38,15.38s-6.88,15.38-15.38,15.38Z"/>
      <path class="uuid-602c3d4e-20f1-4f23-9bad-a67ff7fc2c15" d="m1703.99,2035.02h-412.21c-8.5,0-15.38-6.89-15.38-15.38s6.88-15.38,15.38-15.38h412.21c8.5,0,15.38,6.89,15.38,15.38s-6.88,15.38-15.38,15.38Z"/>
      <path class="uuid-602c3d4e-20f1-4f23-9bad-a67ff7fc2c15" d="m2303.85,1399.28h-200.98c-8.5,0-15.38-6.89-15.38-15.38s6.88-15.38,15.38-15.38h200.98c8.5,0,15.38,6.89,15.38,15.38s-6.88,15.38-15.38,15.38Z"/>
      <path class="uuid-602c3d4e-20f1-4f23-9bad-a67ff7fc2c15" d="m2515.08,1526.43h-412.21c-8.5,0-15.38-6.89-15.38-15.38s6.88-15.38,15.38-15.38h412.21c8.5,0,15.38,6.89,15.38,15.38s-6.88,15.38-15.38,15.38Z"/>
      <path class="uuid-602c3d4e-20f1-4f23-9bad-a67ff7fc2c15" d="m2361.27,1907.87h-258.4c-8.5,0-15.38-6.89-15.38-15.38s6.88-15.38,15.38-15.38h258.4c8.5,0,15.38,6.89,15.38,15.38s-6.88,15.38-15.38,15.38Z"/>
      <path class="uuid-602c3d4e-20f1-4f23-9bad-a67ff7fc2c15" d="m2515.08,1653.57h-412.21c-8.5,0-15.38-6.89-15.38-15.38s6.88-15.38,15.38-15.38h412.21c8.5,0,15.38,6.89,15.38,15.38s-6.88,15.38-15.38,15.38Z"/>
      <path class="uuid-602c3d4e-20f1-4f23-9bad-a67ff7fc2c15" d="m2619.67,1780.72h-516.8c-8.5,0-15.38-6.89-15.38-15.38s6.88-15.38,15.38-15.38h516.8c8.5,0,15.38,6.89,15.38,15.38s-6.88,15.38-15.38,15.38Z"/>
      <path class="uuid-602c3d4e-20f1-4f23-9bad-a67ff7fc2c15" d="m2515.08,2035.02h-412.21c-8.5,0-15.38-6.89-15.38-15.38s6.88-15.38,15.38-15.38h412.21c8.5,0,15.38,6.89,15.38,15.38s-6.88,15.38-15.38,15.38Z"/>
    </g>
    <g class="uuid-dcf674b5-e863-48a7-8040-5f33e7066bef">
      <path class="uuid-602c3d4e-20f1-4f23-9bad-a67ff7fc2c15" d="m1202.71,1291.63l-8.45,408.08-48.72-32h-42.44v-327.96c0-26.58,21.6-48.13,48.18-48.13h51.43Z"/>
    </g>
  </g>
  <path class="uuid-7557678b-42a9-4d98-9a16-e9525d2d27e2" d="m3559.17,2270.59c-3.49,0-6.96-1.45-9.43-4.29l-44.62-51.21c-2.18-2.5-3.28-5.76-3.05-9.07.23-3.31,1.76-6.39,4.26-8.56l51.22-44.62c5.21-4.54,13.11-3.99,17.64,1.21l44.62,51.21c2.18,2.5,3.28,5.76,3.05,9.07-.23,3.31-1.76,6.39-4.26,8.56l-51.22,44.62c-2.37,2.06-5.3,3.08-8.21,3.08Zm-26.99-62.5l28.2,32.36,32.36-28.2-28.2-32.36-32.36,28.2Z"/>
  <g>
    <path class="uuid-2b59c7a0-e259-455d-b815-e2ed1fdc355f" d="m3649.05,1958.16c-.29,0-.58,0-.87-.03-6.88-.47-12.08-6.44-11.61-13.33l5.61-81.5c.47-6.89,6.43-12.09,13.33-11.61,6.88.47,12.08,6.44,11.61,13.33l-5.61,81.5c-.45,6.6-5.95,11.64-12.46,11.64Z"/>
    <path class="uuid-2b59c7a0-e259-455d-b815-e2ed1fdc355f" d="m3692.6,1920.21c-.29,0-.58,0-.87-.03l-81.49-5.61c-6.88-.47-12.08-6.44-11.61-13.33.47-6.89,6.44-12.07,13.33-11.61l81.49,5.61c6.88.47,12.08,6.44,11.61,13.33-.45,6.6-5.95,11.64-12.46,11.64Z"/>
  </g>
  <g>
    <path class="uuid-747848a9-10c7-4d8a-a80e-a68741f1ba64" d="m380.83,1902.7c-6.9,0-12.5-5.6-12.5-12.5v-81.69c0-6.9,5.6-12.5,12.5-12.5s12.5,5.6,12.5,12.5v81.69c0,6.9-5.6,12.5-12.5,12.5Z"/>
    <path class="uuid-747848a9-10c7-4d8a-a80e-a68741f1ba64" d="m421.67,1861.86h-81.69c-6.9,0-12.5-5.6-12.5-12.5s5.6-12.5,12.5-12.5h81.69c6.9,0,12.5,5.6,12.5,12.5s-5.6,12.5-12.5,12.5Z"/>
  </g>
  <path class="uuid-602c3d4e-20f1-4f23-9bad-a67ff7fc2c15" d="m3468.69,1734.47c-1.14,0-2.29-.04-3.43-.12-26.93-1.85-47.33-25.27-45.48-52.2,1.85-26.93,25.09-47.34,52.2-45.48,13.04.9,24.96,6.82,33.55,16.68,8.59,9.86,12.83,22.47,11.93,35.52-.9,13.05-6.82,24.96-16.68,33.55-8.99,7.83-20.27,12.05-32.08,12.05Zm-.09-72.91c-12.47,0-23.01,9.69-23.88,22.31-.44,6.39,1.64,12.56,5.83,17.38,4.2,4.82,10.03,7.72,16.42,8.16,6.32.44,12.55-1.63,17.38-5.84,4.82-4.2,7.72-10.03,8.16-16.42.44-6.38-1.64-12.56-5.84-17.38-4.2-4.82-10.03-7.72-16.41-8.16-.56-.04-1.11-.06-1.67-.06Z"/>
  <path class="uuid-602c3d4e-20f1-4f23-9bad-a67ff7fc2c15" d="m488.27,2259.21c-32.92,0-59.7-26.78-59.7-59.7s26.78-59.7,59.7-59.7,59.7,26.78,59.7,59.7-26.78,59.7-59.7,59.7Zm0-94.4c-19.14,0-34.7,15.57-34.7,34.7s15.57,34.7,34.7,34.7,34.7-15.57,34.7-34.7-15.57-34.7-34.7-34.7Z"/>
  <path class="uuid-46736c33-8d31-4354-b1ca-0baf366619f2" d="m571.34,1650.17c-3.47,0-6.83-1.45-9.22-4.06l-60.67-66.33c-3.01-3.3-4.04-7.95-2.7-12.21s4.86-7.47,9.22-8.44l87.78-19.38c4.35-.96,8.9.47,11.92,3.77,3.01,3.3,4.04,7.95,2.7,12.21l-27.1,85.71c-1.35,4.26-4.86,7.47-9.22,8.44-.89.2-1.8.29-2.7.29Zm-36.84-71.29l31.45,34.38,14.05-44.42-45.49,10.04Z"/>
  <g>
    <path class="uuid-027e4875-547a-4a51-9231-a2a76735618d" d="m3020.58,2863.26c-5.91,0-11.85-.86-17.67-2.61l-513.42-154.03c-15.66-4.7-28.55-15.22-36.31-29.61-7.75-14.4-9.43-30.95-4.73-46.61l234.04-780.1c4.7-15.66,15.21-28.56,29.61-36.31,14.39-7.75,30.95-9.44,46.61-4.74l513.42,154.03c15.66,4.7,28.55,15.21,36.31,29.61,7.75,14.4,9.43,30.95,4.73,46.61l-234.04,780.1c-4.7,15.66-15.21,28.56-29.61,36.31-9.05,4.87-18.95,7.34-28.94,7.34Zm-279.54-1051.62c-9.17,0-18.27,2.27-26.58,6.75-13.22,7.12-22.88,18.96-27.19,33.34l-234.04,780.1c-4.32,14.38-2.77,29.58,4.35,42.81,7.11,13.22,18.96,22.88,33.34,27.19l513.42,154.03c14.38,4.31,29.58,2.78,42.81-4.35,13.22-7.12,22.88-18.96,27.19-33.34l234.04-780.1c4.32-14.38,2.77-29.58-4.35-42.81-7.11-13.22-18.96-22.88-33.34-27.19l-513.42-154.03c-5.34-1.6-10.8-2.4-16.23-2.4Z"/>
    <path class="uuid-02bf7293-3b63-48e6-bcbb-7802afc4b267" d="m3310.77,2038.8l-234.05,780.1c-9.3,31.05-42.05,48.65-73.1,39.35l-159.1-47.7-354.3-106.3c-31.1-9.35-48.7-42.1-39.4-73.15l234.05-780.1c6.35-21.25,23.7-36.2,43.95-40.5,9.35-2.05,19.35-1.8,29.15,1.15l513.45,154c31.05,9.35,48.65,42.1,39.35,73.15Z"/>
    <g class="uuid-dcf674b5-e863-48a7-8040-5f33e7066bef">
      <path class="uuid-027e4875-547a-4a51-9231-a2a76735618d" d="m2691.94,1835.75c0,.05-.05.05,0,.1-.1.1-.15.15-.2.25.05-.1.15-.25.2-.35Z"/>
    </g>
    <g class="uuid-dcf674b5-e863-48a7-8040-5f33e7066bef">
      <path class="uuid-602c3d4e-20f1-4f23-9bad-a67ff7fc2c15" d="m3083.44,2796.55l-6.7,22.35c-9.3,31.05-42.05,48.65-73.1,39.35l-159.1-47.7-354.3-106.3c-31.1-9.35-48.7-42.1-39.4-73.15l234.05-780.1c.65-2.15,1.4-4.25,2.3-6.25.2-.5.4-.95.6-1.4.55-1.25,1.15-2.45,1.8-3.6.5-.95,1.05-1.9,1.6-2.8.2-.3.35-.55.55-.85.05-.1.1-.15.2-.25-.05-.05,0-.05,0-.1,8.55-13.05,21.95-22.05,36.9-25.25l247.25,74.2,117.3,202.3-204.95,683.05c-1.1,3.8-2.6,7.35-4.4,10.7l133.35,40c25.55,7.65,52.25-2.9,66.05-24.2Z"/>
    </g>
    <path class="uuid-602c3d4e-20f1-4f23-9bad-a67ff7fc2c15" d="m3020.6,2875.77c-7.12,0-14.27-1.04-21.28-3.14l-513.42-154.03c-18.86-5.66-34.38-18.32-43.72-35.66-9.34-17.34-11.36-37.27-5.7-56.13l234.04-780.1c5.65-18.86,18.32-34.38,35.65-43.72,17.33-9.34,37.27-11.36,56.13-5.7l513.42,154.03h0c18.86,5.66,34.38,18.32,43.72,35.66,9.34,17.34,11.36,37.27,5.7,56.13l-234.04,780.1c-5.65,18.86-18.32,34.39-35.65,43.72-10.89,5.86-22.82,8.85-34.85,8.85Zm-279.54-1051.62c-7.14,0-14.21,1.77-20.67,5.25-10.28,5.54-17.79,14.74-21.15,25.93l-234.04,780.1c-3.35,11.19-2.15,23.01,3.38,33.29,5.53,10.28,14.74,17.79,25.93,21.15l513.42,154.03c11.19,3.36,23.01,2.16,33.29-3.38,10.28-5.53,17.79-14.74,21.14-25.93l234.04-780.1c3.35-11.18,2.15-23.01-3.38-33.29-5.53-10.28-14.74-17.79-25.93-21.15l-513.42-154.03c-4.16-1.25-8.4-1.87-12.62-1.87Z"/>
    <path class="uuid-02bf7293-3b63-48e6-bcbb-7802afc4b267" d="m3164.64,2000.73l-204.92,683.04c-9.32,31.08-42.07,48.66-73.09,39.35l-513.45-154.04c-31.02-9.31-48.68-42.01-39.35-73.09l234.03-780.08c9.32-31.08,42.08-48.72,73.11-39.41l406.4,121.92,117.28,202.3Z"/>
    <path class="uuid-02bf7293-3b63-48e6-bcbb-7802afc4b267" d="m3164.64,2000.73l-204.92,683.04c-9.32,31.08-42.07,48.66-73.09,39.35l-513.45-154.04c-31.02-9.31-48.68-42.01-39.35-73.09l234.03-780.08c9.32-31.08,42.08-48.72,73.11-39.41l406.4,121.92,117.28,202.3Z"/>
    <g class="uuid-dcf674b5-e863-48a7-8040-5f33e7066bef">
      <path class="uuid-602c3d4e-20f1-4f23-9bad-a67ff7fc2c15" d="m2953.84,2697.15c-13.55,22.5-41,33.85-67.2,25.95l-513.45-154c-31.05-9.3-48.7-42.05-39.35-73.1l234-780.1c6.6-21.95,24.9-37.2,45.95-40.95-2.5,4.1-4.5,8.6-5.95,13.45l-234,780.1c-9.35,31.05,8.3,63.8,39.35,73.1l513.45,154c9.15,2.75,18.4,3.15,27.2,1.55Z"/>
    </g>
    <path class="uuid-602c3d4e-20f1-4f23-9bad-a67ff7fc2c15" d="m2903.46,2740.61c-7,0-14.1-1.01-21.14-3.12l-513.45-154.04c-38.92-11.68-61.08-52.85-49.41-91.77l234.04-780.08c11.68-38.95,52.85-61.15,91.78-49.47l406.4,121.92c3.65,1.1,6.75,3.55,8.67,6.85l117.28,202.3c2.08,3.58,2.58,7.87,1.39,11.84l-204.92,683.04c-9.57,31.88-38.93,52.53-70.63,52.53Zm-279.33-1051.58c-18.8,0-36.23,12.26-41.91,31.2l-234.03,780.08c-6.92,23.08,6.23,47.49,29.3,54.41l513.45,154.04c23.09,6.94,47.49-6.22,54.41-29.3l203.05-676.82-111.05-191.55-400.71-120.22c-4.16-1.25-8.37-1.85-12.52-1.85Z"/>
    <g class="uuid-dcf674b5-e863-48a7-8040-5f33e7066bef">
      <path class="uuid-602c3d4e-20f1-4f23-9bad-a67ff7fc2c15" d="m3161.43,1999.75l-20.95,54.3-133.35-40c-16.55-4.95-25.9-22.4-20.95-38.9l37-123.4,78.7,135.75,59.55,12.25Z"/>
    </g>
    <path class="uuid-02bf7293-3b63-48e6-bcbb-7802afc4b267" d="m3164.64,2000.73l-133.34-40c-16.55-4.96-25.9-22.42-20.95-38.91l37.02-123.38,117.28,202.3Z"/>
    <path class="uuid-602c3d4e-20f1-4f23-9bad-a67ff7fc2c15" d="m3164.64,2015.73c-1.44,0-2.89-.21-4.31-.63l-133.34-40c-24.43-7.33-38.34-33.16-31.02-57.59l37.02-123.38c1.72-5.73,6.67-9.89,12.62-10.59,5.91-.69,11.73,2.2,14.73,7.38l117.28,202.3c3.09,5.32,2.61,11.99-1.21,16.82-2.9,3.66-7.26,5.7-11.77,5.7Zm-112.87-179.79l-27.06,90.18c-2.57,8.58,2.31,17.66,10.9,20.24l97.05,29.12-80.89-139.54Z"/>
    <g>
      <g>
        <path class="uuid-02bf7293-3b63-48e6-bcbb-7802afc4b267" d="m2558.34,2034.36l408.19,122.46-408.19-122.46Z"/>
        <path class="uuid-602c3d4e-20f1-4f23-9bad-a67ff7fc2c15" d="m2966.54,2168.19c-1.08,0-2.18-.16-3.27-.48l-408.19-122.46c-6.01-1.8-9.42-8.14-7.62-14.15,1.8-6.01,8.15-9.4,14.15-7.62l408.19,122.46c6.01,1.8,9.42,8.14,7.62,14.15-1.47,4.92-5.99,8.1-10.88,8.1Z"/>
      </g>
      <g>
        <path class="uuid-02bf7293-3b63-48e6-bcbb-7802afc4b267" d="m2529.77,2129.6l408.19,122.46-408.19-122.46Z"/>
        <path class="uuid-602c3d4e-20f1-4f23-9bad-a67ff7fc2c15" d="m2937.96,2263.43c-1.08,0-2.18-.16-3.27-.48l-408.19-122.46c-6.01-1.8-9.42-8.14-7.62-14.15,1.8-6.01,8.15-9.41,14.15-7.62l408.19,122.46c6.01,1.8,9.42,8.14,7.62,14.15-1.47,4.92-5.99,8.1-10.88,8.1Z"/>
      </g>
      <g>
        <path class="uuid-02bf7293-3b63-48e6-bcbb-7802afc4b267" d="m2501.19,2224.85l408.19,122.46-408.19-122.46Z"/>
        <path class="uuid-602c3d4e-20f1-4f23-9bad-a67ff7fc2c15" d="m2909.39,2358.68c-1.08,0-2.18-.16-3.27-.48l-408.19-122.46c-6.01-1.8-9.42-8.14-7.62-14.15,1.8-6.01,8.15-9.4,14.15-7.62l408.19,122.46c6.01,1.8,9.42,8.14,7.62,14.15-1.47,4.92-5.99,8.1-10.88,8.1Z"/>
      </g>
      <g>
        <path class="uuid-02bf7293-3b63-48e6-bcbb-7802afc4b267" d="m2472.62,2320.09l408.19,122.46-408.19-122.46Z"/>
        <path class="uuid-602c3d4e-20f1-4f23-9bad-a67ff7fc2c15" d="m2880.81,2453.92c-1.08,0-2.18-.16-3.27-.48l-408.19-122.46c-6.01-1.8-9.42-8.14-7.62-14.15,1.8-6.01,8.15-9.4,14.15-7.62l408.19,122.46c6.01,1.8,9.42,8.14,7.62,14.15-1.47,4.92-5.99,8.1-10.88,8.1Z"/>
      </g>
    </g>
    <path class="uuid-602c3d4e-20f1-4f23-9bad-a67ff7fc2c15" d="m2657.19,1914.15l-19.83,31.48-31.37-9.41,81.03-121.53,39.7,11.91,1.35,146.24-32.55-9.77-.02-37.44-38.31-11.49Zm40.73-12.45l.18-30.89c0-8.66.6-19.29.99-27.83l-.39-.12c-4.37,7.34-9.39,16.87-13.9,23.95l-16.45,26.01,29.57,8.87Z"/>
  </g>
  <g>
    <path class="uuid-f459a371-114f-475a-bda7-4aa71957183c" d="m1533.58,2817.97l-426.07,140.43c-55.92,18.43-116.19-11.96-134.62-67.88l-283.85-861.23c-18.43-55.92,11.96-116.19,67.88-134.62l426.07-140.43c55.92-18.43,116.19,11.96,134.62,67.88l283.85,861.23c18.43,55.92-11.96,116.19-67.88,134.62Z"/>
    <g class="uuid-dcf674b5-e863-48a7-8040-5f33e7066bef">
      <path class="uuid-602c3d4e-20f1-4f23-9bad-a67ff7fc2c15" d="m1075.96,1875.03l-161.17,53.12c-4.17,1.38-8.67-.89-10.05-5.06s.89-8.67,5.07-10.05l161.17-53.12c4.17-1.38,8.67.89,10.05,5.06s-.89,8.67-5.07,10.05Z"/>
    </g>
    <path class="uuid-02bf7293-3b63-48e6-bcbb-7802afc4b267" d="m1317.61,1822.12l283.85,861.23c4.71,14.28,6.22,28.86,4.94,42.95-.27,3.03-.67,6.05-1.23,9.05-2.95,16.52-9.77,32.13-19.8,45.51,1.8-5.22,3.19-10.58,4.17-16.07.56-3,.96-6.02,1.23-9.05,1.27-14.1-.24-28.67-4.94-42.95l-288.96-876.74c-15.61-47.36-66.65-73.09-114-57.48l-457.08,150.65c-11.08,3.65-20.98,9.26-29.45,16.32,12.47-23.27,33.54-41.96,60.59-50.87l426.06-140.42c55.92-18.43,116.19,11.96,134.62,67.88Z"/>
    <path class="uuid-602c3d4e-20f1-4f23-9bad-a67ff7fc2c15" d="m1074.02,2978.82c-18.76,0-37.39-4.39-54.63-13.09-29.01-14.62-50.58-39.67-60.75-70.52l-283.85-861.23c-20.99-63.68,13.75-132.57,77.43-153.56l426.07-140.43c63.72-21,132.57,13.75,153.57,77.43l283.85,861.23c20.99,63.68-13.75,132.57-77.43,153.56l-4.7-14.25,4.7,14.25-426.07,140.43c-12.52,4.13-25.38,6.17-38.19,6.17Zm142.27-1214.95c-9.48,0-19.12,1.48-28.6,4.61l-426.07,140.43c-47.97,15.82-74.14,67.71-58.33,115.68l283.85,861.24c7.66,23.24,23.91,42.11,45.76,53.12,21.85,11.02,46.68,12.87,69.92,5.21l426.07-140.43c47.97-15.81,74.14-67.71,58.33-115.68l-283.85-861.23c-12.69-38.49-48.6-62.94-87.08-62.94Z"/>
    <path class="uuid-e08f625a-45c4-4877-b24c-382bedd1afd2" d="m1275.36,1892.13l238.54,723.76c4.55,13.8-2.95,28.62-16.72,33.15l-460.85,151.89c-13.77,4.54-28.61-2.92-33.15-16.72l-238.54-723.76c-4.54-13.77,2.95-28.62,16.72-33.15l460.85-151.89c3.54-1.17,7.16-1.54,10.66-1.2,10.06.93,19.13,7.69,22.5,17.92Z"/>
    <g class="uuid-dcf674b5-e863-48a7-8040-5f33e7066bef">
      <path class="uuid-602c3d4e-20f1-4f23-9bad-a67ff7fc2c15" d="m1288.98,1861.61l238.54,723.76c3.59,10.88-.31,22.4-8.9,28.99.09-2.91-.34-5.84-1.3-8.75l-238.54-723.76c-3.37-10.23-12.44-16.99-22.5-17.92-3.5-.34-7.11.03-10.66,1.2l-460.85,151.89c-2.91.96-5.52,2.36-7.81,4.16.2-10.83,7.16-20.82,18.02-24.4l460.85-151.89c3.54-1.17,7.16-1.54,10.66-1.2,10.06.93,19.13,7.69,22.5,17.92Z"/>
    </g>
    <g class="uuid-dcf674b5-e863-48a7-8040-5f33e7066bef">
      <path class="uuid-c5281206-f4fe-492d-b37f-6d3e43cd03ff" d="m1596.61,2762.21c-1.41,3.03-2.97,5.98-4.68,8.86,1.67-2.89,3.26-5.86,4.68-8.86Z"/>
    </g>
    <g class="uuid-dcf674b5-e863-48a7-8040-5f33e7066bef">
      <path class="uuid-c5281206-f4fe-492d-b37f-6d3e43cd03ff" d="m1596.61,2762.21c1.98-4.26,3.74-8.64,5.17-13.13-1.4,4.48-3.12,8.88-5.17,13.13Z"/>
    </g>
    <g class="uuid-dcf674b5-e863-48a7-8040-5f33e7066bef">
      <path class="uuid-c5281206-f4fe-492d-b37f-6d3e43cd03ff" d="m1602.79,2745.71c.64-2.27,1.22-4.55,1.7-6.86-.45,2.3-1.02,4.58-1.7,6.86Z"/>
    </g>
    <circle class="uuid-602c3d4e-20f1-4f23-9bad-a67ff7fc2c15" cx="1295.31" cy="2811.63" r="38.18" transform="translate(-1612.85 3872.59) rotate(-85.31)"/>
    <path class="uuid-602c3d4e-20f1-4f23-9bad-a67ff7fc2c15" d="m910.61,1923.43c-3.34,0-6.45-2.12-7.55-5.47-1.38-4.17.89-8.67,5.06-10.04l161.17-53.12c4.17-1.37,8.67.89,10.04,5.06,1.38,4.17-.89,8.67-5.06,10.04l-161.17,53.12c-.83.27-1.67.4-2.49.4Z"/>
    <path class="uuid-602c3d4e-20f1-4f23-9bad-a67ff7fc2c15" d="m1264.15,2120.08l-362.27,119.4c-11.43,3.77-23.76-2.45-27.53-13.88l-32.05-97.25c-3.77-11.43,2.45-23.76,13.88-27.53l362.27-119.4c11.43-3.77,23.76,2.45,27.53,13.88l32.05,97.25c3.77,11.43-2.45,23.76-13.88,27.53Z"/>
    <path class="uuid-02bf7293-3b63-48e6-bcbb-7802afc4b267" d="m1190.5,2092.12c-5.41,0-10.78-1.26-15.75-3.77-8.36-4.22-14.58-11.44-17.5-20.33-6.05-18.35,3.96-38.21,22.31-44.26,18.37-6.04,38.21,3.96,44.27,22.32h0c6.04,18.36-3.97,38.22-22.32,44.27-3.6,1.19-7.31,1.78-11.01,1.78Zm.02-52.08c-1.76,0-3.55.28-5.31.86-8.91,2.94-13.76,12.57-10.83,21.48,1.42,4.32,4.44,7.82,8.49,9.86,4.06,2.05,8.66,2.39,12.98.97,8.91-2.93,13.76-12.57,10.83-21.48-2.36-7.15-9.02-11.68-16.17-11.68Z"/>
    <path class="uuid-02bf7293-3b63-48e6-bcbb-7802afc4b267" d="m1238.57,2099.16c-1.67,0-3.35-.46-4.86-1.43l-27.23-17.47c-4.19-2.69-5.41-8.27-2.72-12.47,2.69-4.19,8.26-5.42,12.47-2.72l27.23,17.47c4.19,2.69,5.41,8.27,2.72,12.47-1.72,2.69-4.63,4.15-7.6,4.15Z"/>
    <g class="uuid-317e1c3f-bc50-42f9-8290-2a274dccff31">
      <polygon class="uuid-116c5d9c-00d2-453a-acfd-db6e6ab966e1" points="1148.15 1906.41 921.99 2537.87 819.83 2227.88 906.43 1986.08 1148.15 1906.41"/>
    </g>
    <g class="uuid-9b92529f-2bef-411f-99e8-6cf9b8f2cc49">
      <path class="uuid-da14d2d9-2741-457c-b433-28a510a8d5fc" d="m1275.36,1892.13l45.41,137.78-275.06,767.93-9.37,3.09c-13.77,4.54-28.61-2.92-33.15-16.72l-36.55-110.91,286.23-799.1c10.06.93,19.13,7.69,22.5,17.92Z"/>
    </g>
    <path class="uuid-602c3d4e-20f1-4f23-9bad-a67ff7fc2c15" d="m1028.08,2812.28c-5.59,0-11.14-1.31-16.28-3.9-8.65-4.36-15.08-11.83-18.11-21.02l-238.54-723.76c-6.25-18.98,4.1-39.52,23.08-45.77l460.85-151.89c9.21-3.03,19.03-2.3,27.67,2.06,8.65,4.36,15.08,11.83,18.11,21.02l238.54,723.76c6.25,18.98-4.1,39.52-23.08,45.78h0l-460.85,151.89c-3.73,1.23-7.57,1.84-11.39,1.84Zm222.36-928.18c-1.71,0-3.43.27-5.1.83l-460.85,151.89c-8.51,2.81-13.15,12.01-10.35,20.52l238.55,723.76c1.36,4.12,4.24,7.47,8.12,9.42,3.88,1.95,8.27,2.28,12.41.92l460.85-151.89c8.51-2.81,13.15-12.01,10.35-20.52l-238.54-723.76c-1.36-4.12-4.24-7.47-8.12-9.42-2.3-1.16-4.79-1.75-7.3-1.75Zm246.75,764.95h.05-.05Z"/>
    <g class="uuid-dcf674b5-e863-48a7-8040-5f33e7066bef">
      <path class="uuid-602c3d4e-20f1-4f23-9bad-a67ff7fc2c15" d="m1583.04,2624.37l18.12,54.98c4.71,14.28,6.22,28.86,4.94,42.95-.27,3.03-.67,6.05-1.23,9.05-6.64,37.3-33.04,69.91-71.59,82.62l-426.06,140.42c-55.92,18.43-116.19-11.96-134.62-67.88l-283.85-861.23c-18.43-55.92,11.96-116.19,67.88-134.62l27.62-9.1c-55.92,18.43-86.31,78.7-67.88,134.62l283.85,861.23c.02.05.04.11.05.16,3.42,10.33,11.71,18.41,22.04,21.83,20.94,6.93,44.21,7.45,66.79,0l426.06-140.42c38.56-12.71,64.95-45.32,71.59-82.62.56-3,.96-6.02,1.23-9.05,1.27-14.1-.24-28.67-4.94-42.95Z"/>
    </g>
    <g class="uuid-dcf674b5-e863-48a7-8040-5f33e7066bef">
      <path class="uuid-602c3d4e-20f1-4f23-9bad-a67ff7fc2c15" d="m1265.8,1898.48l238.54,723.76c3.84,11.65-.89,24.01-10.75,30.3-.15-2.07-.56-4.19-1.23-6.24l-238.54-723.76c-3.37-10.23-12.44-16.99-22.5-17.92-3.5-.34-7.11.03-10.66,1.2l-460.85,151.89c-2.14.71-4.13,1.68-5.96,2.85-.9-11.77,6.24-23.05,17.95-26.91l460.85-151.89c3.54-1.17,7.16-1.54,10.66-1.2,10.06.93,19.13,7.69,22.5,17.92Z"/>
    </g>
    <g class="uuid-dcf674b5-e863-48a7-8040-5f33e7066bef">
      <path class="uuid-3efffcfa-b30c-4ecd-936d-c6f13d464cea" d="m1305.84,2788.6c7.26,4.24,8.92,14.93,6.27,19.46-2.65,4.53-8.59,1.19-15.85-3.05-7.26-4.24-13.09-7.78-10.45-12.31,2.65-4.53,12.77-8.35,20.03-4.1Z"/>
    </g>
  </g>
  <g>
    <path class="uuid-241ef410-7cc5-456e-83a4-75d095d2e22e" d="m3319.67,2243.23l-.98-2.09c-17.36-36.97-61.38-52.83-98.35-35.47l-54.52,25.62c34.17-14.65,96.74,118.43,64.08,135.77l54.3-25.48c36.96-17.42,52.83-61.38,35.47-98.35Z"/>
    <g class="uuid-dcf674b5-e863-48a7-8040-5f33e7066bef">
      <path class="uuid-602c3d4e-20f1-4f23-9bad-a67ff7fc2c15" d="m3234.49,2317.68l27.27-12.79c33.31-15.69,49.39-52.94,39.56-87.2,7.09,6.39,13.05,14.27,17.37,23.46l.98,2.09c17.36,36.97,1.49,80.94-35.47,98.35l-54.3,25.48c11.42-6.06,11.17-26.28,4.59-49.38Z"/>
      <path class="uuid-602c3d4e-20f1-4f23-9bad-a67ff7fc2c15" d="m3200.39,2250.3c-11.88-14.7-24.46-23.34-34.57-19.01l18.74-8.8c5.74,8.36,11.15,17.9,15.83,27.81Z"/>
    </g>
    <g class="uuid-e1f8a616-36bf-46fc-bb5b-73f2467e9949">
      <path class="uuid-02bf7293-3b63-48e6-bcbb-7802afc4b267" d="m3238.44,2336.32c2.94,8.14,5.22,16.14,6.68,23.6l-15.22,7.14c8.19-4.35,10.39-15.99,8.55-30.74Z"/>
      <path class="uuid-02bf7293-3b63-48e6-bcbb-7802afc4b267" d="m3220.34,2205.67c36.97-17.36,80.99-1.5,98.35,35.47l.98,2.09c4.38,9.34,6.63,19.12,6.98,28.8l-.12-.26c-17.36-36.97-61.38-52.83-98.35-35.47l-28.33,13.31c-11.72-14.29-24.07-22.6-34.02-18.33l54.52-25.62Z"/>
    </g>
    <path class="uuid-f20b7039-ce7b-4624-98f4-ffb98109458b" d="m3165.81,2231.29l-.51.23-44.19,20.8q-.06,0-.12.01h-.06s-301.06,141.47-301.06,141.47c-.73.37-1.46.74-2.13,1.16-4.36,2.45-8.16,5.84-11.06,9.97l-80.64,115.88,140.73,11.95c5.13.43,10.25-.32,15.08-2.28.63-.24,1.25-.48,1.87-.78l301.06-141.47h.06s44.31-20.82,44.31-20.82h.12c.23-.09.39-.23.61-.37,32.66-17.34-29.91-150.42-64.08-135.77Z"/>
    <path class="uuid-f20b7039-ce7b-4624-98f4-ffb98109458b" d="m3165.81,2231.29l-.51.23-44.19,20.8q-.06,0-.12.01h-.06s-301.06,141.47-301.06,141.47c-.73.37-1.46.74-2.13,1.16-4.36,2.45-8.16,5.84-11.06,9.97l-80.64,115.88,140.73,11.95c5.13.43,10.25-.32,15.08-2.28.63-.24,1.25-.48,1.87-.78l301.06-141.47h.06s44.31-20.82,44.31-20.82h.12c.23-.09.39-.23.61-.37,32.66-17.34-29.91-150.42-64.08-135.77Z"/>
    <path class="uuid-b3cf464b-fb52-4d8b-9a23-fc9589f9fab7" d="m2817.75,2394.96c-4.36,2.45-8.16,5.84-11.06,9.97l-80.64,115.88,140.73,11.95c5.13.43,10.25-.32,15.08-2.28,29.64-19.7-30.19-146.73-64.12-135.53Z"/>
    <g class="uuid-e1f8a616-36bf-46fc-bb5b-73f2467e9949">
      <path class="uuid-02bf7293-3b63-48e6-bcbb-7802afc4b267" d="m3183.86,2259.31l-.51.23-44.19,20.8q-.06,0-.12.01h-.06s-301.06,141.47-301.06,141.47c-.73.37-1.46.74-2.13,1.16-4.36,2.45-8.16,5.84-11.06,9.97l-63.24,90.88-35.45-3.01,80.64-115.88c2.9-4.13,6.69-7.53,11.06-9.97.67-.42,1.4-.79,2.13-1.16l301.06-141.47h.06q.06-.01.12-.02l44.19-20.8.51-.23c15.58-6.68,37.04,17.37,52.71,47.14-11.91-14.77-24.53-23.47-34.67-19.13Z"/>
    </g>
    <path class="uuid-3bb649b9-8643-49c2-81a5-7c08193a1814" d="m3165.81,2231.29c-.18.02-.29.09-.46.16l-.05.06-44.31,20.81q.06,0,.12-.01c34.17-15.78,97.56,118.94,64.08,135.71l43.97-20.6h.12c.23-.09.39-.23.61-.37,32.66-17.34-29.91-150.42-64.08-135.77Z"/>
    <path class="uuid-602c3d4e-20f1-4f23-9bad-a67ff7fc2c15" d="m2869.67,2547.89c-1.37,0-2.75-.06-4.14-.18l-140.74-11.95c-5.34-.45-10.03-3.72-12.31-8.57-2.28-4.85-1.79-10.55,1.26-14.94l80.64-115.88c4.1-5.85,9.53-10.79,15.74-14.33.96-.58,1.98-1.12,3.01-1.64l400.82-188.31c21.5-10.1,45.65-11.23,68-3.17,22.34,8.06,40.21,24.34,50.31,45.84l.98,2.09h0c20.82,44.34,1.68,97.41-42.66,118.3l-400.46,188.14c-.87.42-1.86.82-2.86,1.2-5.52,2.25-11.46,3.4-17.59,3.4Zm-116.47-39.82l114.86,9.76c2.83.24,5.57-.18,8.16-1.23l1.05-.42,400.54-188.18c29.38-13.84,42.07-49.01,28.27-78.4l-.98-2.09c-6.69-14.25-18.52-25.04-33.33-30.37-14.8-5.33-30.81-4.59-45.07,2.11l-400.45,188.13s0,0,0,0c0,0-.28.13-.55.29-.1.06-.54.32-.63.38-2.43,1.36-4.54,3.26-6.1,5.49l-65.78,94.53Z"/>
    <path class="uuid-602c3d4e-20f1-4f23-9bad-a67ff7fc2c15" d="m2764.57,2465.53l-38.48,55.31,67.14,5.68c-5.67-20.52-16.48-43.53-28.66-60.99Z"/>
    <path class="uuid-602c3d4e-20f1-4f23-9bad-a67ff7fc2c15" d="m3229.26,2378.9c-.12,0-.24,0-.36,0-6.34-.2-11.36-5.5-11.17-11.84.15-4.62,2.97-8.51,6.95-10.21,4.89-3.28,5.07-28.08-12.09-64.59-17.36-36.95-36.83-52.56-42.2-50.46-3.87,1.88-8.64,1.53-12.22-1.34-4.95-3.96-5.78-11.16-1.82-16.12,1.1-1.37,2.54-2.54,4.14-3.28,26.6-12.5,55.1,23.54,72.9,61.42,17.8,37.89,27.35,82.83.76,95.33-1.53.72-3.2,1.09-4.89,1.09Z"/>
    <path class="uuid-602c3d4e-20f1-4f23-9bad-a67ff7fc2c15" d="m3184.88,2399.75c-.12,0-.24,0-.36,0-6.34-.2-11.36-5.5-11.17-11.84.15-4.61,2.96-8.5,6.93-10.21,1.39-.95,2.41-3.91,2.76-8.05,2.4-28.44-25.47-87.76-48.89-104.06-3.49-2.43-6.6-3.54-8.14-2.94-3.86,1.88-8.63,1.52-12.21-1.34-4.95-3.96-5.78-11.16-1.82-16.12,1.1-1.37,2.54-2.54,4.13-3.28,6.61-3.1,17.37-4.77,31.17,4.83,29.94,20.83,61.73,88.51,58.66,124.85-1.42,16.76-9.58,23.97-16.18,27.08-1.53.72-3.19,1.09-4.88,1.09Z"/>
    <path class="uuid-602c3d4e-20f1-4f23-9bad-a67ff7fc2c15" d="m2880.06,2542.97c-.12,0-.24,0-.36,0-6.34-.2-11.36-5.5-11.17-11.84.15-4.61,2.96-8.5,6.93-10.21,2.1-1.44,3.71-7.64,2.46-18.4-1.49-12.88-6.79-29.72-14.52-46.19-17.36-36.95-36.75-52.58-42.21-50.46-3.87,1.88-8.64,1.53-12.22-1.34-4.95-3.96-5.78-11.16-1.82-16.12,1.1-1.37,2.54-2.54,4.14-3.28,6.59-3.1,17.35-4.78,31.17,4.83,29.94,20.83,61.73,88.51,58.66,124.85-1.42,16.76-9.58,23.97-16.18,27.07-1.53.72-3.19,1.09-4.88,1.09Z"/>
    <g class="uuid-dcf674b5-e863-48a7-8040-5f33e7066bef">
      <path class="uuid-602c3d4e-20f1-4f23-9bad-a67ff7fc2c15" d="m2854.92,2488.47c5.13.43,10.25-.32,15.08-2.28.63-.24,1.25-.48,1.87-.78l301.06-141.47h.06s44.31-20.82,44.31-20.82h.12c.23-.09.39-.23.61-.37,7.35-3.91,9.85-13.71,8.95-26.34,12.9,30.97,17.76,62.77,2.91,70.65-.22.14-.39.28-.61.36h-.12s-44.31,20.82-44.31,20.82h-.06s-301.06,141.47-301.06,141.47c-.62.3-1.25.54-1.87.78-4.83,1.96-9.95,2.71-15.08,2.28l-140.73-11.95,28.45-40.88,100.42,8.53Z"/>
    </g>
  </g>
</svg>