<?xml version="1.0" encoding="UTF-8"?>
<svg id="uuid-accb1156-ff74-4b67-9391-b2fd08ace7fe" data-name="Layer 1" xmlns="http://www.w3.org/2000/svg" xmlns:xlink="http://www.w3.org/1999/xlink" viewBox="0 0 4000 4000">
  <defs>
    <style>
      .uuid-8f09a97e-d0aa-4dc0-9a29-486200c1dc31 {
        opacity: .72;
      }

      .uuid-d3ef71cd-ed58-4b03-92e0-339f4d47d507 {
        fill: url(#uuid-855efb17-57b2-4715-a995-12e4dbabafee);
      }

      .uuid-d3ef71cd-ed58-4b03-92e0-339f4d47d507, .uuid-29e052d3-f04d-48ff-8802-0d370cbe0f10, .uuid-909ccd6c-ca2b-4aa3-988f-8f21f0f371ce, .uuid-33de1d34-6e65-416f-a9ba-efea91e49989, .uuid-1e200cbb-c564-4f5e-8bc0-b5140c99464e, .uuid-19d7d3fa-7fa5-422b-bf0a-1874d87f03b7, .uuid-8ed29490-8590-475e-854c-fe14a3ec53c6, .uuid-948d03e0-d503-45f1-bdd7-66edd1bb8457, .uuid-7f6e6c29-7461-457f-b69c-33e71fc2a421, .uuid-70e833b5-8bac-4f13-af2f-cdd51c3a0be6, .uuid-c62cdc5f-695c-45a6-af75-41562006308a, .uuid-c0333073-3ddd-482d-b495-404b2227ab30, .uuid-72dcffde-a772-4770-a4d3-cac074d3f543, .uuid-3d935729-1f58-4321-9020-406b055f4362, .uuid-45737c59-5223-4300-9952-8142c72bcd8b, .uuid-343fe2e2-326c-4ec4-a40c-d075ab524ac8, .uuid-dd65d9a7-e4e1-4378-b9f9-47f62c0dec3f, .uuid-e388528e-d9d4-4062-a039-46114489a54f, .uuid-4831dd68-a278-47e1-bcce-56b6eb584ae7, .uuid-a6ca4209-eb59-42d7-95bb-e69880ae95ed, .uuid-1cd3340c-b08f-4cf9-8f25-09dce7aae69e, .uuid-581f56d1-f00c-45f2-b493-9fee5b06f488, .uuid-5a4352a7-1245-4c9d-a807-9f16024b9339, .uuid-39cad218-dd7a-4027-b58e-71e100c24350, .uuid-b458816e-ad33-4c82-a5e7-f36029f3200e {
        stroke-width: 0px;
      }

      .uuid-d3ef71cd-ed58-4b03-92e0-339f4d47d507, .uuid-29e052d3-f04d-48ff-8802-0d370cbe0f10, .uuid-70e833b5-8bac-4f13-af2f-cdd51c3a0be6, .uuid-c62cdc5f-695c-45a6-af75-41562006308a, .uuid-385b5bb9-80b5-4cd1-9390-bc770a9fd77e, .uuid-a6ca4209-eb59-42d7-95bb-e69880ae95ed {
        opacity: .3;
      }

      .uuid-29e052d3-f04d-48ff-8802-0d370cbe0f10 {
        fill: url(#uuid-05a92645-199e-4382-be74-959077ca02e6);
      }

      .uuid-efe759d0-92e4-49c8-a5e8-6444cbba5729 {
        mask: url(#uuid-04bb91af-e0aa-4897-aeb9-3be09fb51abc);
      }

      .uuid-909ccd6c-ca2b-4aa3-988f-8f21f0f371ce {
        fill: url(#uuid-4cf98b49-665d-4fca-9174-d3afbfe49353);
      }

      .uuid-909ccd6c-ca2b-4aa3-988f-8f21f0f371ce, .uuid-33de1d34-6e65-416f-a9ba-efea91e49989, .uuid-19d7d3fa-7fa5-422b-bf0a-1874d87f03b7, .uuid-343fe2e2-326c-4ec4-a40c-d075ab524ac8, .uuid-4831dd68-a278-47e1-bcce-56b6eb584ae7 {
        mix-blend-mode: multiply;
      }

      .uuid-33de1d34-6e65-416f-a9ba-efea91e49989 {
        fill: url(#uuid-4a3ce0f2-ebc3-48f3-94c0-22ce844c4b22);
      }

      .uuid-4e08fa8c-0b50-4a31-b6e9-ec8e44903b2e {
        filter: url(#uuid-dc6f639e-97fe-4292-8176-26b50ae5f0ea);
      }

      .uuid-1e200cbb-c564-4f5e-8bc0-b5140c99464e {
        fill: #f8bf71;
      }

      .uuid-19d7d3fa-7fa5-422b-bf0a-1874d87f03b7 {
        fill: url(#uuid-5556ad75-4a17-41c6-9b55-66fcb21df805);
      }

      .uuid-8ed29490-8590-475e-854c-fe14a3ec53c6 {
        fill: #19b5fe;
      }

      .uuid-948d03e0-d503-45f1-bdd7-66edd1bb8457 {
        fill: #dcdee0;
      }

      .uuid-98a13e57-c0eb-480b-9c31-921170262b9e {
        mask: url(#uuid-8f9c7df2-f552-4878-9fcd-d1862e2cf9c3);
      }

      .uuid-30a22b61-8cdb-4815-af65-528955c281fd {
        filter: url(#uuid-09fcff73-b43c-474b-a893-e8db1bd255bd);
      }

      .uuid-7f6e6c29-7461-457f-b69c-33e71fc2a421 {
        fill: #5f5a57;
      }

      .uuid-70e833b5-8bac-4f13-af2f-cdd51c3a0be6 {
        fill: url(#uuid-6da3404f-1df0-483e-b689-5210c7dba693);
      }

      .uuid-c62cdc5f-695c-45a6-af75-41562006308a {
        fill: url(#uuid-94d239e8-1d21-4240-a0e6-9569c3d8de95);
      }

      .uuid-915fea70-efc7-43f0-97a7-3987adc31d9a {
        mask: url(#uuid-5093affb-9a19-482b-8ef3-ba754e6c60d2);
      }

      .uuid-c0333073-3ddd-482d-b495-404b2227ab30 {
        fill: #8bc34a;
      }

      .uuid-761407e9-d007-4977-9494-83bdc585db42 {
        mask: url(#uuid-d69a26d1-fb65-4e3e-bb11-a8de2152d405);
      }

      .uuid-c334a941-2f1b-4fc0-abde-4025ccf9d0d4 {
        mask: url(#uuid-1d78dd99-5ef2-4241-8f59-adc25d8006e4);
      }

      .uuid-65546bd8-1678-4c1b-aae2-72bcdabc4a55 {
        filter: url(#uuid-0e7b5418-f06a-47b4-99ce-6a581eb851a7);
      }

      .uuid-270e4a7a-d5d5-40ff-8d52-19d7f74fe2d2 {
        mask: url(#uuid-11179077-d06d-4052-a40e-b3f582b10155);
      }

      .uuid-2accb7a4-f6d0-49b4-9763-cb48b0c8af5c {
        filter: url(#uuid-c60f018d-9c9d-4f5a-a081-9e51857c0c66);
      }

      .uuid-cdc8b34c-4b98-487b-b5d9-24bb072b568f {
        mask: url(#uuid-4c9581dc-8823-465a-93ab-dbff63edc05d);
      }

      .uuid-72dcffde-a772-4770-a4d3-cac074d3f543 {
        fill: #102770;
      }

      .uuid-a9706b14-4be3-481c-a214-ef6dcc6a9313 {
        mask: url(#uuid-3013b51e-824b-4498-bad6-fd29c8b4a755);
      }

      .uuid-3d935729-1f58-4321-9020-406b055f4362 {
        fill: #fff;
      }

      .uuid-45737c59-5223-4300-9952-8142c72bcd8b {
        fill: #f7c714;
      }

      .uuid-343fe2e2-326c-4ec4-a40c-d075ab524ac8 {
        fill: url(#uuid-234aa388-c6c8-4123-b825-28ed6de7ff7e);
      }

      .uuid-d999a49c-cafb-4dfd-ab34-4e6d43a49415 {
        opacity: .55;
      }

      .uuid-ffdfc8d2-ef61-4c86-b68a-055cbc8599a0 {
        mask: url(#uuid-1454b0ce-1b86-42bc-9773-2abd04e2b1f4);
      }

      .uuid-819d6da8-ab85-45b8-97c7-2d04d7da19c4 {
        mask: url(#uuid-f3940e97-2097-4160-931d-91888d6677ee);
      }

      .uuid-dd65d9a7-e4e1-4378-b9f9-47f62c0dec3f {
        fill: #22a7f0;
      }

      .uuid-e388528e-d9d4-4062-a039-46114489a54f {
        fill: #7fffb6;
      }

      .uuid-4831dd68-a278-47e1-bcce-56b6eb584ae7 {
        fill: url(#uuid-009ce1e8-7fb2-4bc5-a6a7-65d93db6de17);
      }

      .uuid-98016f48-fdbe-4383-9b40-ee2e249696cb {
        filter: url(#uuid-b92266ce-9931-42ed-8015-1700cb771706);
      }

      .uuid-a6ca4209-eb59-42d7-95bb-e69880ae95ed {
        fill: url(#uuid-a6119982-1da7-4c68-922a-264f20c63d55);
      }

      .uuid-1cd3340c-b08f-4cf9-8f25-09dce7aae69e {
        fill: #e67e22;
      }

      .uuid-581f56d1-f00c-45f2-b493-9fee5b06f488 {
        fill: #ff5722;
      }

      .uuid-5a4352a7-1245-4c9d-a807-9f16024b9339 {
        fill: #3edc81;
      }

      .uuid-39cad218-dd7a-4027-b58e-71e100c24350 {
        fill: #fdf5ed;
      }

      .uuid-b458816e-ad33-4c82-a5e7-f36029f3200e {
        fill: #ffca28;
      }
    </style>
    <filter id="uuid-c60f018d-9c9d-4f5a-a081-9e51857c0c66" x="932.14" y="1272.43" width="379.88" height="631.85" color-interpolation-filters="sRGB" filterUnits="userSpaceOnUse">
      <feFlood flood-color="#fff" result="bg"/>
      <feBlend in="SourceGraphic" in2="bg"/>
    </filter>
    <filter id="uuid-a30803be-fdb2-4936-a609-b4c49384c72f" x="932.14" y="-10192" width="379.88" height="32766" color-interpolation-filters="sRGB" filterUnits="userSpaceOnUse">
      <feFlood flood-color="#fff" result="bg"/>
      <feBlend in="SourceGraphic" in2="bg"/>
    </filter>
    <mask id="uuid-1d78dd99-5ef2-4241-8f59-adc25d8006e4" data-name="mask-1" x="932.14" y="-10192" width="379.88" height="32766" maskUnits="userSpaceOnUse"/>
    <linearGradient id="uuid-234aa388-c6c8-4123-b825-28ed6de7ff7e" x1="1317.18" y1="1132.51" x2="830.51" y2="2085.85" gradientTransform="translate(63.02 -83.18) rotate(1.79)" gradientUnits="userSpaceOnUse">
      <stop offset="0" stop-color="#fff"/>
      <stop offset="1" stop-color="#000"/>
    </linearGradient>
    <mask id="uuid-d69a26d1-fb65-4e3e-bb11-a8de2152d405" data-name="mask" x="932.14" y="1272.43" width="379.88" height="631.85" maskUnits="userSpaceOnUse">
      <g class="uuid-2accb7a4-f6d0-49b4-9763-cb48b0c8af5c">
        <g class="uuid-c334a941-2f1b-4fc0-abde-4025ccf9d0d4">
          <polygon class="uuid-343fe2e2-326c-4ec4-a40c-d075ab524ac8" points="1312.02 1272.43 988.33 1904.28 932.14 1696.37 1123.18 1323.45 1312.02 1272.43"/>
        </g>
      </g>
    </mask>
    <linearGradient id="uuid-a6119982-1da7-4c68-922a-264f20c63d55" x1="1317.18" y1="1132.51" x2="830.51" y2="2085.85" gradientTransform="translate(63.02 -83.18) rotate(1.79)" gradientUnits="userSpaceOnUse">
      <stop offset="0" stop-color="#fff"/>
      <stop offset="1" stop-color="#fff"/>
    </linearGradient>
    <filter id="uuid-0e7b5418-f06a-47b4-99ce-6a581eb851a7" x="1259.64" y="1537.97" width="492.93" height="893.44" color-interpolation-filters="sRGB" filterUnits="userSpaceOnUse">
      <feFlood flood-color="#fff" result="bg"/>
      <feBlend in="SourceGraphic" in2="bg"/>
    </filter>
    <filter id="uuid-c615d7cd-7298-4640-bf1a-d6ce98168eb5" x="1259.64" y="-10192" width="492.93" height="32766" color-interpolation-filters="sRGB" filterUnits="userSpaceOnUse">
      <feFlood flood-color="#fff" result="bg"/>
      <feBlend in="SourceGraphic" in2="bg"/>
    </filter>
    <mask id="uuid-f3940e97-2097-4160-931d-91888d6677ee" data-name="mask-3" x="1259.64" y="-10192" width="492.93" height="32766" maskUnits="userSpaceOnUse"/>
    <linearGradient id="uuid-009ce1e8-7fb2-4bc5-a6a7-65d93db6de17" x1="1853.42" y1="1406.27" x2="1366.75" y2="2359.62" gradientTransform="translate(63.02 -83.18) rotate(1.79)" gradientUnits="userSpaceOnUse">
      <stop offset="0" stop-color="#fff"/>
      <stop offset="1" stop-color="#000"/>
    </linearGradient>
    <mask id="uuid-3013b51e-824b-4498-bad6-fd29c8b4a755" data-name="mask-2" x="1259.64" y="1537.97" width="492.93" height="893.44" maskUnits="userSpaceOnUse">
      <g class="uuid-65546bd8-1678-4c1b-aae2-72bcdabc4a55">
        <g class="uuid-819d6da8-ab85-45b8-97c7-2d04d7da19c4">
          <polygon class="uuid-4831dd68-a278-47e1-bcce-56b6eb584ae7" points="1752.57 1668.33 1378 2399.44 1259.64 2431.41 1717.37 1537.97 1752.57 1668.33"/>
        </g>
      </g>
    </mask>
    <linearGradient id="uuid-94d239e8-1d21-4240-a0e6-9569c3d8de95" x1="1853.42" y1="1406.27" x2="1366.75" y2="2359.62" xlink:href="#uuid-a6119982-1da7-4c68-922a-264f20c63d55"/>
    <filter id="uuid-b92266ce-9931-42ed-8015-1700cb771706" x="1020.07" y="1197.68" width="622.47" height="1121.6" color-interpolation-filters="sRGB" filterUnits="userSpaceOnUse">
      <feFlood flood-color="#fff" result="bg"/>
      <feBlend in="SourceGraphic" in2="bg"/>
    </filter>
    <filter id="uuid-9a000503-c402-4fa5-96d3-052f10823e06" x="1020.07" y="-10192" width="622.47" height="32766" color-interpolation-filters="sRGB" filterUnits="userSpaceOnUse">
      <feFlood flood-color="#fff" result="bg"/>
      <feBlend in="SourceGraphic" in2="bg"/>
    </filter>
    <mask id="uuid-04bb91af-e0aa-4897-aeb9-3be09fb51abc" data-name="mask-5" x="1020.07" y="-10192" width="622.47" height="32766" maskUnits="userSpaceOnUse"/>
    <linearGradient id="uuid-4cf98b49-665d-4fca-9174-d3afbfe49353" x1="1548.23" y1="1250.46" x2="1061.56" y2="2203.81" gradientTransform="translate(63.02 -83.18) rotate(1.79)" gradientUnits="userSpaceOnUse">
      <stop offset="0" stop-color="#fff"/>
      <stop offset="1" stop-color="#000"/>
    </linearGradient>
    <mask id="uuid-1454b0ce-1b86-42bc-9773-2abd04e2b1f4" data-name="mask-4" x="1020.07" y="1197.68" width="622.47" height="1121.6" maskUnits="userSpaceOnUse">
      <g class="uuid-98016f48-fdbe-4383-9b40-ee2e249696cb">
        <g class="uuid-efe759d0-92e4-49c8-a5e8-6444cbba5729">
          <path class="uuid-909ccd6c-ca2b-4aa3-988f-8f21f0f371ce" d="m1642.54,1261.1v.05s-542.07,1058.13-542.07,1058.13l-80.4-297.46,398.75-778.27,164.47-44.43c21.85-5.92,44.4,7.04,50.32,28.89l8.92,33.09Z"/>
        </g>
      </g>
    </mask>
    <linearGradient id="uuid-6da3404f-1df0-483e-b689-5210c7dba693" x1="1548.23" y1="1250.46" x2="1061.56" y2="2203.81" xlink:href="#uuid-a6119982-1da7-4c68-922a-264f20c63d55"/>
    <filter id="uuid-09fcff73-b43c-474b-a893-e8db1bd255bd" x="2107.78" y="2128.59" width="241.63" height="156.17" color-interpolation-filters="sRGB" filterUnits="userSpaceOnUse">
      <feFlood flood-color="#fff" result="bg"/>
      <feBlend in="SourceGraphic" in2="bg"/>
    </filter>
    <filter id="uuid-0c30af36-77ac-43ab-807e-eae4581cb861" x="2107.78" y="-10192" width="241.63" height="32766" color-interpolation-filters="sRGB" filterUnits="userSpaceOnUse">
      <feFlood flood-color="#fff" result="bg"/>
      <feBlend in="SourceGraphic" in2="bg"/>
    </filter>
    <mask id="uuid-8f9c7df2-f552-4878-9fcd-d1862e2cf9c3" data-name="mask-7" x="2107.78" y="-10192" width="241.63" height="32766" maskUnits="userSpaceOnUse"/>
    <linearGradient id="uuid-4a3ce0f2-ebc3-48f3-94c0-22ce844c4b22" x1="2462.67" y1="2194.86" x2="2192.48" y2="2408.35" gradientTransform="translate(525.71 -599.74) rotate(13)" gradientUnits="userSpaceOnUse">
      <stop offset="0" stop-color="#fff"/>
      <stop offset="1" stop-color="#000"/>
    </linearGradient>
    <mask id="uuid-11179077-d06d-4052-a40e-b3f582b10155" data-name="mask-6" x="2107.78" y="2128.59" width="241.63" height="156.17" maskUnits="userSpaceOnUse">
      <g class="uuid-30a22b61-8cdb-4815-af65-528955c281fd">
        <g class="uuid-98a13e57-c0eb-480b-9c31-921170262b9e">
          <polygon class="uuid-33de1d34-6e65-416f-a9ba-efea91e49989" points="2349.41 2176.89 2107.78 2284.76 2174.73 2169.42 2266.12 2128.59 2349.41 2176.89"/>
        </g>
      </g>
    </mask>
    <linearGradient id="uuid-05a92645-199e-4382-be74-959077ca02e6" x1="2462.67" y1="2194.86" x2="2192.48" y2="2408.35" gradientTransform="translate(525.71 -599.74) rotate(13)" xlink:href="#uuid-a6119982-1da7-4c68-922a-264f20c63d55"/>
    <filter id="uuid-dc6f639e-97fe-4292-8176-26b50ae5f0ea" x="2054.37" y="2197.34" width="389.41" height="208.98" color-interpolation-filters="sRGB" filterUnits="userSpaceOnUse">
      <feFlood flood-color="#fff" result="bg"/>
      <feBlend in="SourceGraphic" in2="bg"/>
    </filter>
    <filter id="uuid-9cd6fc21-f40f-4bbe-8488-27dcb49d7d66" x="2054.37" y="-10192" width="389.41" height="32766" color-interpolation-filters="sRGB" filterUnits="userSpaceOnUse">
      <feFlood flood-color="#fff" result="bg"/>
      <feBlend in="SourceGraphic" in2="bg"/>
    </filter>
    <mask id="uuid-4c9581dc-8823-465a-93ab-dbff63edc05d" data-name="mask-9" x="2054.37" y="-10192" width="389.41" height="32766" maskUnits="userSpaceOnUse"/>
    <linearGradient id="uuid-5556ad75-4a17-41c6-9b55-66fcb21df805" x1="2539.77" y1="2292.44" x2="2269.57" y2="2505.92" gradientTransform="translate(525.71 -599.74) rotate(13)" gradientUnits="userSpaceOnUse">
      <stop offset="0" stop-color="#fff"/>
      <stop offset="1" stop-color="#000"/>
    </linearGradient>
    <mask id="uuid-5093affb-9a19-482b-8ef3-ba754e6c60d2" data-name="mask-8" x="2054.37" y="2197.34" width="389.41" height="208.98" maskUnits="userSpaceOnUse">
      <g class="uuid-4e08fa8c-0b50-4a31-b6e9-ec8e44903b2e">
        <g class="uuid-cdc8b34c-4b98-487b-b5d9-24bb072b568f">
          <polygon class="uuid-19d7d3fa-7fa5-422b-bf0a-1874d87f03b7" points="2443.79 2231.66 2398.56 2309.65 2182.06 2406.32 2054.37 2376.83 2079.45 2333.63 2384.59 2197.34 2393.91 2202.78 2443.79 2231.66"/>
        </g>
      </g>
    </mask>
    <linearGradient id="uuid-855efb17-57b2-4715-a995-12e4dbabafee" x1="2539.77" y1="2292.44" x2="2269.57" y2="2505.92" gradientTransform="translate(525.71 -599.74) rotate(13)" xlink:href="#uuid-a6119982-1da7-4c68-922a-264f20c63d55"/>
  </defs>
  <rect class="uuid-3d935729-1f58-4321-9020-406b055f4362" width="4000" height="4000"/>
  <path class="uuid-b458816e-ad33-4c82-a5e7-f36029f3200e" d="m3439.34,2578.35c-3.32,0-6.49-1.32-8.84-3.66l-48.03-48.03c-2.34-2.34-3.66-5.52-3.66-8.84s1.32-6.49,3.66-8.84l48.03-48.03c4.88-4.88,12.79-4.88,17.68,0l48.03,48.03c4.88,4.88,4.88,12.79,0,17.68l-48.03,48.03c-2.34,2.34-5.52,3.66-8.84,3.66Zm-30.36-60.53l30.36,30.36,30.35-30.36-30.35-30.35-30.36,30.35Z"/>
  <g>
    <path class="uuid-581f56d1-f00c-45f2-b493-9fee5b06f488" d="m3636.08,2314.42c-6.9,0-12.5-5.6-12.5-12.5v-81.69c0-6.9,5.6-12.5,12.5-12.5s12.5,5.6,12.5,12.5v81.69c0,6.9-5.6,12.5-12.5,12.5Z"/>
    <path class="uuid-581f56d1-f00c-45f2-b493-9fee5b06f488" d="m3676.93,2273.58h-81.69c-6.9,0-12.5-5.6-12.5-12.5s5.6-12.5,12.5-12.5h81.69c6.9,0,12.5,5.6,12.5,12.5s-5.6,12.5-12.5,12.5Z"/>
  </g>
  <g>
    <path class="uuid-c0333073-3ddd-482d-b495-404b2227ab30" d="m444.25,2403.16c-5.52,0-10.58-3.69-12.07-9.28l-21.07-78.92c-1.78-6.67,2.18-13.52,8.85-15.3,6.64-1.79,13.52,2.18,15.3,8.85l21.07,78.92c1.78,6.67-2.18,13.52-8.85,15.3-1.08.29-2.16.43-3.23.43Z"/>
    <path class="uuid-c0333073-3ddd-482d-b495-404b2227ab30" d="m394.25,2374.24c-5.52,0-10.58-3.69-12.07-9.28-1.78-6.67,2.18-13.52,8.85-15.3l78.93-21.07c6.64-1.79,13.52,2.18,15.3,8.85,1.78,6.67-2.18,13.52-8.85,15.3l-78.93,21.07c-1.08.29-2.16.43-3.23.43Z"/>
  </g>
  <path class="uuid-72dcffde-a772-4770-a4d3-cac074d3f543" d="m3504.92,2082.62c-26.99,0-48.96-21.96-48.96-48.96s21.96-48.96,48.96-48.96,48.96,21.96,48.96,48.96-21.96,48.96-48.96,48.96Zm0-72.91c-13.21,0-23.96,10.75-23.96,23.96s10.75,23.96,23.96,23.96,23.96-10.75,23.96-23.96-10.75-23.96-23.96-23.96Z"/>
  <path class="uuid-72dcffde-a772-4770-a4d3-cac074d3f543" d="m619.1,2659.51c-10.36,0-20.58-2.72-29.79-8.05-13.8-7.98-23.67-20.86-27.78-36.27-8.5-31.8,10.46-64.58,42.27-73.08,31.84-8.49,64.59,10.47,73.09,42.28h0c4.12,15.41,1.98,31.5-6,45.3-7.99,13.8-20.87,23.67-36.28,27.78-5.13,1.37-10.33,2.05-15.5,2.05Zm.09-94.43c-2.95,0-5.96.38-8.95,1.18-18.49,4.94-29.51,24-24.57,42.48,2.39,8.96,8.13,16.45,16.15,21.09,8.02,4.64,17.37,5.88,26.32,3.49,8.96-2.39,16.45-8.13,21.09-16.15,4.64-8.02,5.88-17.37,3.49-26.32h0c-4.14-15.5-18.21-25.76-33.54-25.76Z"/>
  <path class="uuid-8ed29490-8590-475e-854c-fe14a3ec53c6" d="m547.84,2095.64c-2.35,0-4.69-.66-6.73-1.97l-75.73-48.42c-3.76-2.41-5.96-6.64-5.75-11.1.2-4.46,2.77-8.48,6.73-10.53l79.8-41.38c3.96-2.06,8.73-1.84,12.49.57,3.76,2.41,5.96,6.64,5.75,11.1l-4.07,89.8c-.2,4.46-2.77,8.48-6.73,10.53-1.81.94-3.78,1.4-5.75,1.4Zm-50.76-59.79l39.25,25.1,2.11-46.54-41.36,21.45Z"/>
  <circle class="uuid-e388528e-d9d4-4062-a039-46114489a54f" cx="2000" cy="2000" r="1258.63"/>
  <g>
    <path class="uuid-948d03e0-d503-45f1-bdd7-66edd1bb8457" d="m1913.82,2431.24l-138.84,37.53-250.33,67.61-298.82,80.76c-74.92,20.27-152.12-24.06-172.39-99.03l-295.4-1093.21c-20.22-74.92,24.11-152.12,99.03-172.39l687.99-185.9c74.97-20.22,152.17,24.11,172.39,99.03l64.08,237.07,43.49,161.09,187.83,695.06c20.27,74.97-24.06,152.17-99.03,172.39Z"/>
    <g class="uuid-385b5bb9-80b5-4cd1-9390-bc770a9fd77e">
      <path class="uuid-7f6e6c29-7461-457f-b69c-33e71fc2a421" d="m1116.92,1273.93c-5.36-.17-10.2-3.79-11.67-9.24-1.8-6.66,2.14-13.53,8.81-15.33l195.16-52.74c6.66-1.8,13.52,2.14,15.33,8.81,1.8,6.66-2.14,13.53-8.81,15.33l-195.16,52.74c-1.22.33-2.45.47-3.66.43Z"/>
    </g>
    <path class="uuid-dd65d9a7-e4e1-4378-b9f9-47f62c0dec3f" d="m1837.7,2275.24l-459.7,124.2-118.36,31.97-46.62,12.6c-40.61,10.99-82.43-13.03-93.37-53.64l-19.19-71.03v-.05s-80.4-297.46-80.4-297.46l-31.74-117.55-56.18-207.91-70.22-259.82c-5.92-21.9,6.99-44.4,28.89-50.32l232.37-62.77,188.84-51.03,106.8-28.88,164.47-44.43c21.85-5.92,44.4,7.04,50.32,28.89l8.92,33.09v.05s74.84,276.82,74.84,276.82l35.2,130.36,138.78,513.54c10.99,40.56-13.03,82.38-53.64,93.37Z"/>
    <path class="uuid-72dcffde-a772-4770-a4d3-cac074d3f543" d="m1502.25,1534.62l-372.44,100.64c-30.44,8.23-61.79-9.78-70.02-40.23l-3.22-11.92c-8.23-30.44,9.78-61.79,40.23-70.02l372.44-100.64c30.44-8.23,61.79,9.78,70.02,40.23l3.22,11.92c8.23,30.44-9.78,61.79-40.23,70.02Z"/>
    <path class="uuid-72dcffde-a772-4770-a4d3-cac074d3f543" d="m1561.83,1755.11l-372.44,100.64c-30.44,8.23-61.79-9.78-70.02-40.23l-3.22-11.92c-8.23-30.44,9.78-61.79,40.23-70.02l372.44-100.64c30.44-8.23,61.79,9.78,70.02,40.23l3.22,11.92c8.23,30.44-9.78,61.79-40.23,70.02Z"/>
    <path class="uuid-72dcffde-a772-4770-a4d3-cac074d3f543" d="m1621.41,1975.59l-372.44,100.64c-30.44,8.23-61.79-9.78-70.02-40.23l-3.22-11.92c-8.23-30.44,9.78-61.79,40.23-70.02l372.44-100.64c30.44-8.23,61.79,9.78,70.02,40.23l3.22,11.92c8.23,30.44-9.78,61.79-40.23,70.02Z"/>
    <g>
      <path class="uuid-3d935729-1f58-4321-9020-406b055f4362" d="m1256.8,1537.88c-1.56-5.04-3.42-11.15-5.08-17.3l-.19.05c.15,5.76,0,12.27-.28,17.67l-.69,17.91-7.47,2.02-8.96-15.17c-2.72-4.59-5.8-10.23-8.3-15.49l-.13.03c1.3,5.79,2.87,12.37,3.98,17.73l3.59,16.29-8.86,2.39-8.74-43.07,12.75-3.45,7.96,13.02c2.65,4.54,5.4,9.46,7.68,14.17l.19-.05c-.13-5.22-.2-11.21-.09-16.3l.72-15.29,12.5-3.38,13.76,41.72-9.36,2.53-5.01-16.04Z"/>
      <path class="uuid-3d935729-1f58-4321-9020-406b055f4362" d="m1285.24,1535.92l-.08,11.68-9.92,2.69,1.49-45.84,12.57-3.39,24.57,38.79-10.3,2.79-6.2-9.99-12.13,3.28Zm8.81-10.06l-5.07-8.27c-1.43-2.3-3.04-5.25-4.34-7.59l-.13.03c.05,2.69.28,6.06.25,8.7l-.08,9.66,9.36-2.53Z"/>
      <path class="uuid-3d935729-1f58-4321-9020-406b055f4362" d="m1313.2,1503.23l-11.37,3.07-2.17-8.04,32.54-8.79,2.17,8.04-11.56,3.13,9.27,34.3-9.61,2.6-9.27-34.3Z"/>
      <path class="uuid-3d935729-1f58-4321-9020-406b055f4362" d="m1346.89,1485.49l4.39,16.27,15.77-4.26-4.4-16.27,9.55-2.58,11.44,42.34-9.55,2.58-4.79-17.72-15.77,4.26,4.79,17.72-9.61,2.6-11.44-42.34,9.61-2.6Z"/>
    </g>
    <g>
      <path class="uuid-3d935729-1f58-4321-9020-406b055f4362" d="m1247.42,1783.8c2.93.63,7.25.87,11.33-.23,4.39-1.19,6.23-3.63,5.49-6.4-.71-2.64-3.13-3.6-8.72-4.05-7.7-.55-13.34-3.2-15-9.36-1.95-7.23,2.59-14.39,12.58-17.09,4.78-1.29,8.56-1.24,11.38-.78l-.04,8.31c-1.92-.36-5.26-.74-9.4.38-4.15,1.12-5.64,3.55-5.05,5.75.73,2.7,3.44,3.25,9.47,3.85,8.22.74,12.79,3.69,14.4,9.65,1.92,7.1-1.91,14.61-13.54,17.75-4.84,1.31-9.96,1.34-12.71.67l-.19-8.45Z"/>
      <path class="uuid-3d935729-1f58-4321-9020-406b055f4362" d="m1314.47,1775c-1.52,1.35-5.22,3.36-10.38,4.76-14.64,3.95-24.64-3.11-27.9-15.18-3.9-14.45,4.22-25.28,17.04-28.75,4.97-1.34,9.01-1.35,10.95-.93l.1,8.13c-2.16-.29-5.07-.32-8.46.6-7.61,2.05-12.28,8.24-9.73,17.66,2.29,8.48,8.76,12.47,17.3,10.16,2.89-.78,5.93-2.28,7.61-3.54l3.47,7.09Z"/>
      <path class="uuid-3d935729-1f58-4321-9020-406b055f4362" d="m1319.23,1729.55l11.44,42.34-9.61,2.6-11.45-42.34,9.62-2.6Z"/>
      <path class="uuid-3d935729-1f58-4321-9020-406b055f4362" d="m1359.31,1744.94l-15.58,4.21,2.72,10.05,17.4-4.7,2.12,7.85-27.02,7.3-11.44-42.34,26.13-7.06,2.12,7.86-16.51,4.46,2.37,8.79,15.58-4.21,2.11,7.79Z"/>
      <path class="uuid-3d935729-1f58-4321-9020-406b055f4362" d="m1372.49,1760.6l-11.45-42.34,11.18-3.02,12.99,13.14c3.72,3.78,7.66,8.38,10.83,12.65l.19-.05c-2.14-5.42-3.88-11.09-5.59-17.44l-3.35-12.37,8.8-2.37,11.44,42.34-10.05,2.71-13.46-13.89c-3.74-3.84-7.98-8.56-11.4-12.96l-.17.12c1.76,5.52,3.5,11.46,5.36,18.36l3.45,12.75-8.79,2.38Z"/>
      <path class="uuid-3d935729-1f58-4321-9020-406b055f4362" d="m1446.6,1739.29c-1.52,1.36-5.22,3.37-10.38,4.76-14.64,3.96-24.64-3.12-27.9-15.18-3.9-14.45,4.22-25.28,17.04-28.74,4.97-1.34,9.01-1.36,10.95-.93l.1,8.13c-2.16-.29-5.07-.31-8.46.6-7.61,2.06-12.28,8.24-9.73,17.66,2.29,8.48,8.76,12.47,17.3,10.16,2.89-.78,5.93-2.28,7.61-3.54l3.47,7.09Z"/>
      <path class="uuid-3d935729-1f58-4321-9020-406b055f4362" d="m1473.55,1714.07l-15.58,4.21,2.72,10.06,17.4-4.71,2.12,7.85-27.02,7.3-11.44-42.34,26.13-7.07,2.12,7.86-16.51,4.46,2.37,8.8,15.58-4.21,2.11,7.79Z"/>
    </g>
    <g>
      <path class="uuid-3d935729-1f58-4321-9020-406b055f4362" d="m1323.94,1987.89l-15.58,4.21,2.71,10.06,17.4-4.7,2.13,7.85-27.02,7.3-11.44-42.34,26.14-7.06,2.12,7.85-16.52,4.46,2.38,8.8,15.58-4.21,2.1,7.78Z"/>
      <path class="uuid-3d935729-1f58-4321-9020-406b055f4362" d="m1337.12,2003.54l-11.44-42.34,11.19-3.02,12.99,13.14c3.72,3.78,7.66,8.37,10.83,12.64l.19-.05c-2.14-5.43-3.87-11.09-5.59-17.44l-3.34-12.37,8.79-2.38,11.45,42.34-10.05,2.71-13.46-13.89c-3.74-3.85-7.97-8.56-11.39-12.96l-.18.11c1.77,5.52,3.51,11.45,5.37,18.37l3.45,12.75-8.8,2.38Z"/>
      <path class="uuid-3d935729-1f58-4321-9020-406b055f4362" d="m1415.31,1980.32c-2.68,1.81-7.9,4.7-13.49,6.21-7.73,2.09-13.84,1.65-18.75-1.07-4.88-2.59-8.52-7.54-10.13-13.77-3.74-14.09,4.33-24.9,18.22-28.65,5.46-1.47,9.96-1.55,12.3-1.1l.06,8.21c-2.6-.38-5.7-.41-10.35.84-7.98,2.16-12.79,8.31-10.31,17.48,2.36,8.74,9.22,12.41,17.07,10.29,2.2-.59,3.89-1.32,4.54-1.89l-2.39-8.86-6.53,1.76-2.02-7.48,15.77-4.26,6.03,22.3Z"/>
      <path class="uuid-3d935729-1f58-4321-9020-406b055f4362" d="m1411.85,1937.92l9.61-2.6,9.27,34.3,16.84-4.55,2.17,8.04-26.45,7.15-11.45-42.34Z"/>
      <path class="uuid-3d935729-1f58-4321-9020-406b055f4362" d="m1453.56,1926.65l11.44,42.34-9.61,2.6-11.45-42.34,9.62-2.6Z"/>
      <path class="uuid-3d935729-1f58-4321-9020-406b055f4362" d="m1470.93,1956.8c2.93.63,7.25.87,11.33-.23,4.4-1.19,6.23-3.64,5.49-6.4-.71-2.64-3.13-3.6-8.71-4.05-7.71-.55-13.34-3.2-15-9.36-1.95-7.23,2.58-14.38,12.57-17.08,4.78-1.29,8.56-1.24,11.39-.79l-.05,8.31c-1.92-.36-5.25-.74-9.4.38-4.15,1.12-5.64,3.55-5.05,5.75.73,2.7,3.44,3.25,9.46,3.84,8.22.75,12.79,3.7,14.4,9.66,1.92,7.1-1.91,14.6-13.54,17.74-4.84,1.31-9.96,1.35-12.7.67l-.19-8.45Z"/>
      <path class="uuid-3d935729-1f58-4321-9020-406b055f4362" d="m1505.36,1912.65l4.4,16.27,15.77-4.26-4.39-16.27,9.55-2.58,11.44,42.34-9.55,2.58-4.79-17.72-15.76,4.26,4.79,17.72-9.62,2.6-11.44-42.34,9.61-2.6Z"/>
    </g>
    <path class="uuid-3d935729-1f58-4321-9020-406b055f4362" d="m1995.69,2371.12c1.51-13.11.59-26.74-3.09-40.32l-312.43-1156.32c-15.56-57.51-74.78-91.53-132.29-76.02l-751.11,202.99c-6.56,1.75-12.78,4.1-18.68,6.97,18.19-26.49,45.54-46.85,78.98-55.91l687.99-185.9c74.97-20.22,152.17,24.11,172.39,99.03l295.4,1093.21c10.76,39.76,3.35,80.09-17.17,112.27Z"/>
    <path class="uuid-72dcffde-a772-4770-a4d3-cac074d3f543" d="m1189.2,2639.55c-69.66,0-133.62-46.47-152.64-116.86l-295.4-1093.21c-11.02-40.76-5.5-83.37,15.54-119.99,21.04-36.61,55.07-62.84,95.83-73.86l687.99-185.9c84.14-22.72,171.1,27.22,193.84,111.37l295.41,1093.21c11.02,40.76,5.5,83.37-15.54,119.99-21.04,36.61-55.07,62.84-95.83,73.85l-687.99,185.91c-13.75,3.72-27.59,5.49-41.2,5.49Zm392.52-1560.3c-10.6,0-21.36,1.38-32.08,4.28l-687.99,185.9c-31.74,8.57-58.24,29-74.61,57.5-16.38,28.51-20.67,61.68-12.09,93.42l295.4,1093.21c17.71,65.52,85.41,104.41,150.92,86.71l687.99-185.91h0c31.74-8.57,58.24-28.99,74.61-57.5,16.38-28.51,20.67-61.68,12.09-93.42l-295.41-1093.21c-14.81-54.8-64.61-90.99-118.85-90.99Z"/>
    <g class="uuid-761407e9-d007-4977-9494-83bdc585db42">
      <polygon class="uuid-a6ca4209-eb59-42d7-95bb-e69880ae95ed" points="1312.02 1272.43 988.33 1904.28 932.14 1696.37 1123.18 1323.45 1312.02 1272.43"/>
    </g>
    <g class="uuid-a9706b14-4be3-481c-a214-ef6dcc6a9313">
      <polygon class="uuid-c62cdc5f-695c-45a6-af75-41562006308a" points="1752.57 1668.33 1378 2399.44 1259.64 2431.41 1717.37 1537.97 1752.57 1668.33"/>
    </g>
    <g class="uuid-ffdfc8d2-ef61-4c86-b68a-055cbc8599a0">
      <path class="uuid-70e833b5-8bac-4f13-af2f-cdd51c3a0be6" d="m1642.54,1261.1v.05s-542.07,1058.13-542.07,1058.13l-80.4-297.46,398.75-778.27,164.47-44.43c21.85-5.92,44.4,7.04,50.32,28.89l8.92,33.09Z"/>
    </g>
    <g class="uuid-385b5bb9-80b5-4cd1-9390-bc770a9fd77e">
      <path class="uuid-72dcffde-a772-4770-a4d3-cac074d3f543" d="m1893.88,2207.39c.56-8.18-.18-16.59-2.47-24.96l-257.59-952.72c-5.92-21.82-28.46-34.77-50.29-28.85l-692.05,186.87c-1.31.36-2.57.77-3.79,1.28,6.17-18.24,21.03-33.12,41.05-38.54l655.35-176.98c32.02-8.64,64.97,10.27,73.62,42.27l247.69,915.99c7.21,26.76,2.26,53.93-11.51,75.64Z"/>
    </g>
    <path class="uuid-72dcffde-a772-4770-a4d3-cac074d3f543" d="m1193.01,2461.69c-15.73,0-31.25-4.11-45.26-12.15-21.11-12.13-36.24-31.75-42.59-55.26l-257.74-953.82c-3.9-14.45-1.95-29.56,5.51-42.53s19.52-22.28,33.97-26.19l692.46-187.11c14.46-3.91,29.56-1.95,42.54,5.51,12.98,7.46,22.28,19.53,26.18,33.98l257.74,953.82c6.35,23.5,3.17,48.07-8.96,69.18-12.13,21.11-31.75,36.23-55.26,42.58l-624.68,168.8c-7.91,2.13-15.94,3.19-23.92,3.19Zm401.02-1249.02c-2.29,0-4.58.3-6.84.91l-692.46,187.11c-6.71,1.81-12.32,6.13-15.78,12.16-3.47,6.04-4.38,13.05-2.56,19.77l257.74,953.82c4.26,15.77,14.4,28.93,28.57,37.07,14.16,8.13,30.63,10.27,46.41,6.01l624.68-168.8h0c15.77-4.26,28.93-14.4,37.07-28.56,8.13-14.16,10.27-30.64,6.01-46.42l-257.74-953.82c-1.81-6.71-6.13-12.32-12.16-15.79-4-2.3-8.44-3.47-12.93-3.47Z"/>
    <circle class="uuid-72dcffde-a772-4770-a4d3-cac074d3f543" cx="1497.73" cy="2440.74" r="28.55" transform="translate(-984.07 3869.4) rotate(-88.39)"/>
    <path class="uuid-72dcffde-a772-4770-a4d3-cac074d3f543" d="m1121.29,1264.28c-5.51,0-10.55-3.67-12.06-9.24-1.8-6.67,2.14-13.53,8.8-15.33l195.16-52.73c6.67-1.82,13.53,2.14,15.33,8.8,1.8,6.67-2.14,13.53-8.8,15.33l-195.16,52.73c-1.09.3-2.19.44-3.27.44Z"/>
  </g>
  <g>
    <path class="uuid-45737c59-5223-4300-9952-8142c72bcd8b" d="m3079.58,1434.62l-86.79-65.5c-3.22-2.47-5.81-5.61-7.46-9.22-.3-.45-.48-.88-.67-1.3l-120.21-283.92-12.67-29.88c-12.2-28.95,1.32-62.31,30.22-74.58l1.67-.68c28.96-12.25,62.38,1.28,74.58,30.22l12.34,29.11,120.54,284.69c.23.49.39.97.55,1.51l.08.15c1.27,3.68,1.73,7.62,1.21,11.52l-13.39,107.88Z"/>
    <path class="uuid-948d03e0-d503-45f1-bdd7-66edd1bb8457" d="m2965.1,1039.06l10.04,26.31c-33.14,8.28-62.51,20.34-89.01,35.28l-11.63-25.62c24.26-17.64,53.85-30.21,90.6-35.97Z"/>
    <path class="uuid-581f56d1-f00c-45f2-b493-9fee5b06f488" d="m2864.45,1074.69l-12.67-29.88c-12.2-28.95,1.32-62.31,30.22-74.58l1.67-.68c28.96-12.25,62.38,1.28,74.58,30.22l12.34,29.11c-39.05,6.58-74.41,21.83-106.14,45.81Z"/>
    <path class="uuid-1e200cbb-c564-4f5e-8bc0-b5140c99464e" d="m3079.58,1434.62l-86.79-65.5c-3.22-2.47-5.81-5.61-7.46-9.22-6.48-26.43,92.16-68.15,106.35-44.83l.08.15c1.27,3.68,1.73,7.62,1.21,11.52l-13.39,107.88Z"/>
    <g class="uuid-385b5bb9-80b5-4cd1-9390-bc770a9fd77e">
      <path class="uuid-72dcffde-a772-4770-a4d3-cac074d3f543" d="m3084.4,1395.89l-4.84,38.75-86.76-65.53c-3.24-2.48-5.84-5.6-7.49-9.2-.29-.47-.47-.88-.65-1.3l-120.21-283.94-12.68-29.85c-12.21-28.96,1.36-62.34,30.26-74.61l1.65-.65c6.43-2.71,13.04-4.19,19.64-4.48-17.99,15.69-24.71,41.76-14.92,65l12.62,29.85,120.21,283.94c.18.41.41.83.71,1.3,1.65,3.6,4.25,6.72,7.43,9.2l55.03,41.52Z"/>
    </g>
    <g class="uuid-d999a49c-cafb-4dfd-ab34-4e6d43a49415">
      <path class="uuid-3d935729-1f58-4321-9020-406b055f4362" d="m3092.95,1326.76l-13.39,107.88-28.96-21.88,9.73-78.62c.47-3.89.06-7.84-1.24-11.56-.06-.06-.06-.12-.06-.12-.18-.53-.35-1-.59-1.53l-120.5-284.65-12.33-29.14c-8.61-20.41-27.66-33.15-48.37-34.56,1.53-.88,3.13-1.65,4.78-2.36l1.65-.65c28.96-12.27,62.4,1.24,74.55,30.2l12.39,29.14,120.5,284.65c.24.53.41,1,.53,1.53,0,0,.06.06.12.12,1.24,3.72,1.71,7.67,1.18,11.56Z"/>
    </g>
    <path class="uuid-72dcffde-a772-4770-a4d3-cac074d3f543" d="m3079.58,1447.12c-2.68,0-5.33-.86-7.53-2.52l-86.78-65.51c-5.35-4.03-9.55-9.42-12.16-15.6l-132.82-313.79c-14.92-35.25,1.62-76.07,36.87-90.99l1.66-.7c17.07-7.22,35.94-7.37,53.13-.41s30.63,20.2,37.86,37.28h0l132.83,313.8c2.61,6.17,3.55,12.94,2.72,19.58l-13.36,107.9c-.55,4.43-3.42,8.23-7.53,9.97-1.57.66-3.22.99-4.87.99Zm-173.72-469.63c-5.87,0-11.74,1.18-17.31,3.54l-1.66.7c-22.55,9.55-33.13,35.67-23.59,58.22l132.83,313.79c.9,2.13,2.35,3.99,4.19,5.38l69.5,52.48,10.71-86.43c.29-2.29-.04-4.63-.94-6.76l-132.83-313.8h0c-4.62-10.93-13.22-19.4-24.22-23.86-5.39-2.18-11.04-3.27-16.69-3.27Z"/>
    <path class="uuid-72dcffde-a772-4770-a4d3-cac074d3f543" d="m3085.96,1383.12l-6.38,51.5-41.41-31.27c13.8-8.85,31.83-16.48,47.8-20.23Z"/>
    <path class="uuid-72dcffde-a772-4770-a4d3-cac074d3f543" d="m2870.02,1096.78c-2.08,0-4.17-.73-5.84-2.23l-.04-.04c-.98-.87-1.76-1.95-2.27-3.16-8.82-20.84,19.76-41.69,49.44-54.26,29.69-12.57,64.57-18.58,73.39,2.27.56,1.32.79,2.75.67,4.18-.41,4.87-4.58,8.53-9.56,8.12-3.5-.29-6.36-2.57-7.53-5.64-2.37-3.86-21.46-4.74-50.07,7.37-28.95,12.26-41.55,26.76-40.09,30.97,1.35,3.08.9,6.79-1.47,9.45-1.75,1.97-4.18,2.98-6.63,2.98Z"/>
    <path class="uuid-72dcffde-a772-4770-a4d3-cac074d3f543" d="m2884.74,1131.55c-1.74,0-3.51-.52-5.04-1.6l-.05-.03c-1.36-.95-2.43-2.27-3.08-3.8-2.19-5.17-3.16-13.51,4.65-23.84,16.93-22.42,69.94-44.89,97.84-41.41,12.85,1.59,18.16,8.09,20.35,13.26.46,1.09.7,2.26.7,3.45,0,4.89-3.96,8.88-8.85,8.88-3.76,0-6.98-2.33-8.26-5.64-.68-1.1-2.93-1.99-6.12-2.38-21.79-2.74-68.3,16.97-81.54,34.51-2,2.65-2.92,4.94-2.51,6.17,1.21,2.74,1.01,6.03-.83,8.65-1.72,2.46-4.47,3.78-7.25,3.78Z"/>
    <path class="uuid-72dcffde-a772-4770-a4d3-cac074d3f543" d="m2985.85,1370.42c-1.93,0-3.87-.63-5.49-1.93l-.05-.04c-1.15-.92-2.05-2.11-2.62-3.46-8.82-20.84,19.77-41.69,49.46-54.26,29.68-12.57,64.56-18.57,73.38,2.27.55,1.3.78,2.71.67,4.13-.38,4.87-4.72,8.66-9.5,8.17-3.53-.27-6.42-2.56-7.6-5.65-2.4-3.85-21.46-4.72-50.06,7.38-28.93,12.25-41.55,26.75-40.1,30.96,1.29,2.92.96,6.45-1.17,9.11-1.75,2.19-4.33,3.33-6.92,3.33Z"/>
  </g>
  <g>
    <path class="uuid-948d03e0-d503-45f1-bdd7-66edd1bb8457" d="m3125,1710v-35s100,10,95,60l-22.5,17.5-47.8,24.77-22.2-4.77-2.5-62.5Z"/>
    <path class="uuid-72dcffde-a772-4770-a4d3-cac074d3f543" d="m3395.33,1485.22c-1.85,0-3.73-.42-5.5-1.3-6.1-3.04-8.58-10.45-5.53-16.56l45.47-91.13c1.59-3.2,1.85-6.82.72-10.21s-3.52-6.13-6.71-7.73l-29.66-14.8c-6.1-3.04-8.58-10.45-5.53-16.56,3.04-6.1,10.45-8.58,16.56-5.53l29.66,14.8c18.78,9.37,26.44,32.28,17.06,51.05l-45.47,91.13c-2.16,4.33-6.52,6.84-11.05,6.84Z"/>
    <path class="uuid-dd65d9a7-e4e1-4378-b9f9-47f62c0dec3f" d="m3417.64,1296.34l-69.73-34.8,17.4-34.87c9.61-19.26,33.01-27.08,52.26-17.47h0c19.26,9.61,27.08,33.01,17.47,52.26l-17.4,34.87Z"/>
    <g class="uuid-385b5bb9-80b5-4cd1-9390-bc770a9fd77e">
      <path class="uuid-72dcffde-a772-4770-a4d3-cac074d3f543" d="m3421.64,1288.34l-4,8-69.75-34.8,17.4-34.85c9.55-19.2,32.85-27.05,52.1-17.6-11,2.5-20.75,9.7-26.2,20.55l-17.35,34.85,47.8,23.85Z"/>
    </g>
    <g class="uuid-d999a49c-cafb-4dfd-ab34-4e6d43a49415">
      <path class="uuid-3d935729-1f58-4321-9020-406b055f4362" d="m3445.79,1246.62c0,5.85-1.3,11.75-4.1,17.35l-17.4,34.85-69.75-34.8.5-1,45.1,22.5,17.4-34.85c2.8-5.6,4.1-11.5,4.1-17.35,0-9.25-3.35-18.3-9.4-25.35,4.05.55,8.1,1.75,12,3.7,13.65,6.85,21.55,20.6,21.55,34.95Z"/>
    </g>
    <path class="uuid-72dcffde-a772-4770-a4d3-cac074d3f543" d="m3417.63,1308.84c-1.88,0-3.78-.42-5.57-1.32l-69.73-34.79c-2.97-1.48-5.22-4.08-6.27-7.23-1.05-3.14-.81-6.58.67-9.54l17.4-34.86c6.14-12.3,16.7-21.47,29.74-25.83,13.04-4.36,26.99-3.38,39.3,2.76,25.39,12.68,35.74,43.64,23.07,69.03l-17.4,34.86c-2.19,4.38-6.61,6.92-11.2,6.92Zm-52.95-52.91l47.36,23.63,11.82-23.68c6.52-13.06,1.2-28.98-11.86-35.5-6.32-3.16-13.51-3.66-20.21-1.42-6.71,2.24-12.14,6.96-15.29,13.29l-11.82,23.68Z"/>
    <path class="uuid-581f56d1-f00c-45f2-b493-9fee5b06f488" d="m3420.56,1314.04l-206.76,413.26c-1.71,3.42-4.25,6.3-7.45,8.43l-77.03,50.69-5.4-92.03c-.25-3.78.55-7.59,2.25-11.02l206.68-413.09c16.24-32.55,103.95,11.22,87.71,43.77Z"/>
    <path class="uuid-948d03e0-d503-45f1-bdd7-66edd1bb8457" d="m3125,1710v-35s100,10,95,60l-22.5,17.5-47.8,24.77-22.2-4.77-2.5-62.5Z"/>
    <g class="uuid-385b5bb9-80b5-4cd1-9390-bc770a9fd77e">
      <path class="uuid-72dcffde-a772-4770-a4d3-cac074d3f543" d="m3404.04,1276.09c-18.6-6.3-37.3-5.8-43.95,7.55l-206.7,413.1c-1.7,3.4-2.5,7.2-2.25,11l3.25,55.55-28.8,18.95-5.4-92c-.25-3.8.55-7.6,2.25-11l206.65-413.1c10.7-21.45,52.35-9.8,74.95,9.95Z"/>
    </g>
    <g class="uuid-d999a49c-cafb-4dfd-ab34-4e6d43a49415">
      <path class="uuid-3d935729-1f58-4321-9020-406b055f4362" d="m3423.92,1316.13l-206.8,413.25c-1.7,3.45-4.25,6.3-7.45,8.45l-77,50.65-1.9-32.6,51.7-34.05c3.2-2.1,5.75-5,7.45-8.4l206.75-413.25c5.6-11.25-1.15-23.8-13.1-34.1,25.5,9.7,49.5,31.65,40.35,50.05Z"/>
    </g>
    <path class="uuid-72dcffde-a772-4770-a4d3-cac074d3f543" d="m3129.32,1798.92c-1.91,0-3.84-.44-5.61-1.33-3.99-2-6.61-5.98-6.88-10.44l-5.4-92.03c-.39-5.86.83-11.89,3.55-17.33l206.68-413.1c10.45-20.95,40.39-24.29,72.8-8.13,32.41,16.17,47.73,42.1,37.28,63.06,0,0,0,0,0,0l-206.76,413.26c-2.67,5.34-6.71,9.92-11.69,13.24l-77.09,50.73c-2.08,1.36-4.47,2.06-6.87,2.06Zm226.17-527.64c-5.71,0-9.92,1.5-11.46,4.59l-206.69,413.1c-.73,1.46-1.06,3.05-.96,4.59l4.14,70.53,58.96-38.79c1.32-.88,2.4-2.09,3.13-3.57l206.77-413.26h0c3.58-7.16-8.36-20.68-26.07-29.52-10.09-5.03-20.26-7.66-27.82-7.66Zm65.07,42.77h.05-.05Z"/>
    <path class="uuid-72dcffde-a772-4770-a4d3-cac074d3f543" d="m3166.08,1762.22l-36.74,24.19-2.59-43.91c13.3,4.04,28.14,11.48,39.33,19.72Z"/>
    <path class="uuid-72dcffde-a772-4770-a4d3-cac074d3f543" d="m3212.6,1738.66c-1.39,0-2.8-.32-4.13-.98-4.58-2.29-6.43-7.85-4.15-12.42.71-1.43-.63-5.22-5.25-10.2-5.62-6.05-14.77-12.47-25.1-17.62-10.33-5.16-20.97-8.61-29.19-9.47-6.79-.7-10.61.51-11.32,1.93-2.28,4.58-7.84,6.42-12.42,4.15-4.58-2.29-6.43-7.85-4.15-12.42,9.84-19.72,41.36-12.74,65.35-.76,12.42,6.2,23.21,13.86,30.39,21.58,13.46,14.47,10.96,25.68,8.27,31.08-1.62,3.25-4.89,5.13-8.29,5.13Z"/>
    <path class="uuid-72dcffde-a772-4770-a4d3-cac074d3f543" d="m3391.61,1379.9c-1.39,0-2.8-.32-4.13-.98-4.58-2.29-6.43-7.85-4.15-12.42.83-1.66-1.24-5.01-1.89-6-10.06-15.22-44.82-32.5-63.04-31.46-1.19.07-5.1.43-5.93,2.09-2.28,4.58-7.86,6.43-12.42,4.16-4.58-2.29-6.44-7.84-4.16-12.42,2.58-5.19,8.39-11.53,21.38-12.32,24.92-1.5,65.84,18.9,79.61,39.72,7.18,10.85,5.6,19.31,3.02,24.49-1.62,3.25-4.89,5.13-8.29,5.13Z"/>
    <path class="uuid-72dcffde-a772-4770-a4d3-cac074d3f543" d="m3394.57,1460.77l1.52.76,20.84-41.77-1.52-.76c-11.53-5.76-25.55-1.07-31.31,10.46h0c-5.76,11.53-1.07,25.55,10.46,31.31Z"/>
  </g>
  <g>
    <path class="uuid-1cd3340c-b08f-4cf9-8f25-09dce7aae69e" d="m2629.44,1228.93c-25.25-40.42-65.92-71.21-116-82.77-100.21-23.14-200.23,39.3-223.37,139.52l-34.26,148.35,362.9,83.81,34.26-148.35c11.57-50.08,1.74-100.18-23.53-140.55Zm-91.57,196.33l-168.76-38.97,15.93-68.98c10.77-46.62,57.24-75.66,103.86-64.89,23.29,5.38,42.2,19.7,53.93,38.47,11.76,18.83,16.36,42.06,10.97,65.39l-15.93,68.98Z"/>
    <g class="uuid-385b5bb9-80b5-4cd1-9390-bc770a9fd77e">
      <path class="uuid-7f6e6c29-7461-457f-b69c-33e71fc2a421" d="m2656.79,1346.5c-26.59,6.02-55.75,7.65-85.91,4.02-5.25-.6-10.5-1.4-15.62-2.37-.36,2.69-.84,5.4-1.47,8.13l-15.93,68.98-168.76-38.97,15.93-68.98c4.78-20.7,16.61-37.93,32.32-49.75-17.77-25.04-26.45-53.68-22.94-82.89,1.24-10.49,4.03-20.57,8.18-30.08-54.77,21.84-98.27,69.32-112.53,131.09l-34.26,148.35,362.9,83.81,34.26-148.35c1.78-7.7,3.03-15.36,3.82-22.98Z"/>
    </g>
    <g class="uuid-d999a49c-cafb-4dfd-ab34-4e6d43a49415">
      <path class="uuid-3d935729-1f58-4321-9020-406b055f4362" d="m2629.44,1228.93c-25.25-40.42-65.92-71.21-116-82.77-32.2-7.44-64.39-6.04-94.01,2.66,14.45-.15,29.23,1.41,43.94,4.81,50.08,11.57,90.75,42.36,116,82.77,25.26,40.37,35.14,90.48,23.58,140.56l-30.08,130.27,45.84,10.59,34.26-148.35c11.57-50.08,1.74-100.18-23.53-140.55Z"/>
    </g>
    <path class="uuid-72dcffde-a772-4770-a4d3-cac074d3f543" d="m2618.71,1535.33c-1.31,0-2.64-.15-3.94-.45l-362.9-83.81c-9.42-2.17-15.29-11.57-13.12-20.99l34.26-148.34c25.27-109.44,134.9-177.92,244.36-152.63,53,12.24,98.07,44.4,126.9,90.55,28.85,46.1,37.99,100.71,25.74,153.76l-34.26,148.34c-1.05,4.53-3.84,8.45-7.78,10.91-2.8,1.75-6.02,2.66-9.27,2.66Zm-341.9-114.42l328.79,75.93,30.32-131.29c10.15-43.94,2.58-89.16-21.31-127.33,0,0,0,0,0,0-23.89-38.22-61.21-64.86-105.1-75-90.64-20.94-181.45,35.77-202.38,126.4l-30.32,131.29Zm261.07,21.86c-1.3,0-2.63-.15-3.95-.45l-168.75-38.97c-9.42-2.17-15.29-11.57-13.12-20.99l15.93-68.98c12.92-55.93,68.91-90.9,124.85-78.01,27.08,6.25,50.1,22.68,64.83,46.25,14.76,23.61,19.43,51.53,13.18,78.6l-15.93,68.98c-1.87,8.09-9.07,13.56-17.04,13.56Zm-147.78-69.59l134.65,31.1,12-51.94c4.15-17.96,1.04-36.49-8.76-52.18-9.78-15.64-25.05-26.54-43.02-30.69-37.14-8.56-74.31,14.65-82.88,51.78l-11.99,51.93Z"/>
    <path class="uuid-5a4352a7-1245-4c9d-a807-9f16024b9339" d="m2933.53,2744.47l-160.6-104.05c-18.6-12.05-23.91-36.89-11.86-55.49l192.44-297.02c12.05-18.6,36.89-23.91,55.49-11.86l160.6,104.05c18.6,12.05,23.91,36.89,11.86,55.49l-192.44,297.02c-12.05,18.6-36.89,23.91-55.49,11.86Z"/>
    <g class="uuid-8f09a97e-d0aa-4dc0-9a29-486200c1dc31">
      <path class="uuid-3d935729-1f58-4321-9020-406b055f4362" d="m3181.44,2435.58l-192.42,297.02c-12.05,18.62-36.88,23.92-55.49,11.87l-7.82-5.04,202.22-312.15c6.93-10.66,3.87-24.97-6.8-31.9l-167.08-108.22c12.22-18.01,36.61-23,54.96-11.12l160.6,104.06c18.57,12.04,23.9,36.93,11.82,55.48Z"/>
    </g>
    <path class="uuid-72dcffde-a772-4770-a4d3-cac074d3f543" d="m2955.25,2768.4c-10.73,0-21.58-2.99-31.24-9.24h0l-160.6-104.05c-26.66-17.28-34.3-53.03-17.03-79.69l192.44-297.02c8.37-12.91,21.27-21.8,36.32-25.02,15.06-3.21,30.46-.37,43.37,7.99l160.6,104.05c26.67,17.29,34.3,53.03,17.03,79.7l-192.44,297.01c-11.02,17.01-29.56,26.27-48.46,26.27Zm-12.21-38.62c10.49,6.79,24.52,3.78,31.29-6.69l192.44-297.01c6.78-10.47,3.78-24.51-6.68-31.29l-160.6-104.05c-10.46-6.79-24.51-3.79-31.29,6.68l-192.44,297.02c-6.78,10.46-3.78,24.5,6.68,31.28l160.6,104.05h0Z"/>
    <path class="uuid-39cad218-dd7a-4027-b58e-71e100c24350" d="m2631.93,3085.79l-1075.52-248.37c-68.51-15.82-111.23-84.19-95.41-152.7l199.69-864.7c84.41-365.51,449.14-593.39,814.65-508.98h0c365.51,84.41,593.39,449.14,508.98,814.65l-199.69,864.7c-15.82,68.51-84.19,111.23-152.7,95.41Z"/>
    <g class="uuid-385b5bb9-80b5-4cd1-9390-bc770a9fd77e">
      <path class="uuid-72dcffde-a772-4770-a4d3-cac074d3f543" d="m2775.88,3015.7c-6.19,13.25-14.51,25.08-24.45,35.2-22.51,8.35-47.67,10.44-72.76,4.65l-1101.27-254.32c-54.27-12.53-88.15-66.7-75.61-121.02l205.64-890.46c30.28-131.1,96.59-244.49,186.09-332.04-70.8,81.25-123.2,180.61-149.14,292.95l-116.65,505.11c-9.39,40.68-13.45,81.36-12.72,121.3.29,15.41,18.77,23.17,30.14,12.81l17.86-16.25,107.67-98.04c-11.03,10.44-20.32,22.86-27.12,37-3.97,8.32-7.16,17.23-9.33,26.63l-51.13,221.42c-4.58,19.83-4.22,39.62.27,58.15,7.76,32.38,28.18,60.85,56.96,78.43,0,0,.03.11.09.07,11.32,6.98,24.01,12.27,37.7,15.43l709.19,163.78c19.78,4.57,39.57,4.21,58.09-.23,1.35-.3,2.72-.66,4.03-1.02l-72.87,44.9-18.25,11.23c-11.12,6.82-8.34,23.68,4.37,26.62l252.94,58.41c20.56,4.75,41.16,4.22,60.26-.71Z"/>
    </g>
    <g class="uuid-385b5bb9-80b5-4cd1-9390-bc770a9fd77e">
      <path class="uuid-7f6e6c29-7461-457f-b69c-33e71fc2a421" d="m1740.36,2697.23c-28.78-17.58-49.2-46.05-56.96-78.43,16.35,27.84,35.42,54.16,56.96,78.43Z"/>
    </g>
    <g class="uuid-d999a49c-cafb-4dfd-ab34-4e6d43a49415">
      <path class="uuid-3d935729-1f58-4321-9020-406b055f4362" d="m2984.31,2125.68l-199.69,864.69c-14.74,63.82-75.06,105.26-138.63,97.87,34.22-15.96,60.99-46.98,70.14-86.64l199.69-864.69c13.1-56.71,18.69-113.35,17.4-168.92-103.51-8.2-157.49-218.44-61.77-266.94-12.1-26.5-25.97-52.18-41.41-76.89-92.09-147.4-240.43-259.71-423.17-301.91-76.73-17.72-153.46-21.69-227.55-13.5,94.68-20.47,195.32-20.94,296.02,2.32,182.74,42.2,331.07,154.51,423.17,301.91,92.14,147.41,127.99,329.96,85.79,512.7Z"/>
    </g>
    <path class="uuid-72dcffde-a772-4770-a4d3-cac074d3f543" d="m2660.59,3106.57c-10.76,0-21.68-1.21-32.6-3.73l-1075.51-248.37c-37.7-8.7-69.74-31.56-90.23-64.37-20.5-32.81-26.99-71.63-18.29-109.32l199.69-864.69c41.88-181.33,151.86-335.5,309.69-434.12,157.83-98.61,344.62-129.84,525.94-87.98,374.33,86.45,608.54,461.31,522.09,835.63l-199.69,864.7c-15.45,66.89-75.2,112.25-141.09,112.25Zm-339.35-1795.69c-122.53,0-242.88,34.24-349.37,100.77-149.9,93.66-254.37,240.08-294.14,412.3l-199.69,864.7c-6.6,28.58-1.68,58.02,13.87,82.9,15.54,24.88,39.84,42.21,68.42,48.81l1075.52,248.37h0c58.95,13.63,118.09-23.29,131.71-82.29l199.69-864.69c39.77-172.22,10.1-349.62-83.56-499.53-93.66-149.9-240.08-254.37-412.3-294.14-49.88-11.52-100.21-17.21-150.16-17.21Z"/>
    <path class="uuid-72dcffde-a772-4770-a4d3-cac074d3f543" d="m2888.1,2113.47c-.75,0-1.5-.08-2.26-.26-5.38-1.24-8.74-6.61-7.49-11.99,34.46-149.25,8.28-302.97-73.75-432.85-82.01-129.85-209.58-219.56-359.22-252.59-304.14-67.13-609.36,128.41-680.38,435.93-1.24,5.38-6.62,8.75-11.99,7.49-5.38-1.24-8.74-6.61-7.49-11.99,73.48-318.15,389.38-520.44,704.17-450.96,154.89,34.19,286.94,127.04,371.82,261.44,84.9,134.43,112,293.55,76.32,448.03-1.06,4.62-5.18,7.75-9.73,7.75Z"/>
    <path class="uuid-1cd3340c-b08f-4cf9-8f25-09dce7aae69e" d="m2911.85,2439.52l187.29,127.46c25.17,17.13,32.14,51.17,15.74,76.81l-207.09,323.73c-13.01,20.34-36.36,31.64-60.39,29.21l-62.75-6.34,127.21-550.87Z"/>
    <g class="uuid-d999a49c-cafb-4dfd-ab34-4e6d43a49415">
      <path class="uuid-3d935729-1f58-4321-9020-406b055f4362" d="m3114.88,2643.79l-207.1,323.7c-13.01,20.34-36.36,31.68-60.37,29.21l-14.39-1.48,222.22-347.41c-20.28-11.05-27.89-41.23-16.74-61.29l-138.81-94.46,12.14-52.57,187.32,127.47c25.14,17.15,32.12,51.14,15.72,76.81Z"/>
    </g>
    <path class="uuid-72dcffde-a772-4770-a4d3-cac074d3f543" d="m2853.97,3014.56c-2.76,0-5.55-.14-8.34-.42l-62.75-6.34c-5-.51-9.54-3.13-12.47-7.22-2.92-4.09-3.96-9.23-2.82-14.13l127.21-550.86c1.3-5.63,5.29-10.25,10.67-12.36,5.39-2.11,11.45-1.42,16.23,1.83l187.29,127.46c33.23,22.61,42.29,66.85,20.63,100.71l-207.09,323.73c-15.15,23.68-40.88,37.61-68.55,37.61Zm-47.81-39.59l42.99,4.35c17.54,1.76,34.38-6.36,43.89-21.23l207.09-323.73c11.38-17.79,6.62-41.04-10.84-52.92l-166.14-113.07-116.99,506.59Z"/>
    <path class="uuid-1cd3340c-b08f-4cf9-8f25-09dce7aae69e" d="m2487.34,2876.5l-709.21-163.78c-68.23-15.76-110.78-83.85-95.02-152.08l51.13-221.43c15.76-68.23,83.85-110.78,152.08-95.02l709.21,163.78c68.23,15.76,110.78,83.85,95.02,152.08l-51.13,221.43c-15.76,68.23-83.85,110.78-152.08,95.02Z"/>
    <g class="uuid-385b5bb9-80b5-4cd1-9390-bc770a9fd77e">
      <path class="uuid-72dcffde-a772-4770-a4d3-cac074d3f543" d="m2619.46,2826.04c-28.78,40.87-80.4,62.41-132.14,50.46l-709.19-163.78c-68.25-15.76-110.77-83.88-95.02-152.08l51.13-221.42c11.22-48.57,48.87-84.06,94.26-94.87-9.22,13.06-16.13,28.09-19.95,44.61l-23.82,103.16c-30.84,133.55,52.42,266.81,185.97,297.65l590.92,136.46c19.68,4.55,39.41,4.23,57.83-.19Z"/>
    </g>
    <g class="uuid-d999a49c-cafb-4dfd-ab34-4e6d43a49415">
      <path class="uuid-3d935729-1f58-4321-9020-406b055f4362" d="m2690.54,2560.07l-51.13,221.42c-10.09,43.7-41.67,76.9-81.03,90.9.56-1.77,1.03-3.56,1.46-5.41l72.35-313.3c9.9-42.87-16.81-85.63-59.64-95.52l-799.51-184.63c29.67-26.71,71.45-38.97,113.3-29.31l709.18,163.78c68.25,15.76,110.78,83.83,95.02,152.08Z"/>
    </g>
    <path class="uuid-72dcffde-a772-4770-a4d3-cac074d3f543" d="m2516.15,2897.31c-10.9,0-21.87-1.24-32.74-3.75l-709.21-163.78c-77.53-17.9-126.04-95.54-108.13-173.07l51.13-221.43c8.67-37.56,31.45-69.49,64.14-89.91,32.69-20.42,71.37-26.9,108.93-18.22l709.2,163.78c37.56,8.67,69.49,31.45,89.91,64.14,20.42,32.69,26.89,71.37,18.22,108.93l-51.14,221.43c-8.67,37.56-31.45,69.49-64.14,89.91-23.22,14.51-49.47,21.98-76.18,21.98Zm-24.87-37.86c28.46,6.58,57.75,1.67,82.51-13.8,24.76-15.47,42.02-39.65,48.58-68.1l51.14-221.43c6.57-28.45,1.67-57.75-13.8-82.51-15.47-24.76-39.65-42.02-68.1-48.58l-709.21-163.78c-28.45-6.58-57.75-1.67-82.51,13.8-24.76,15.47-42.02,39.66-48.58,68.1l-51.13,221.43c-13.56,58.73,23.18,117.54,81.9,131.1l709.21,163.78Z"/>
    <g class="uuid-d999a49c-cafb-4dfd-ab34-4e6d43a49415">
      <path class="uuid-3d935729-1f58-4321-9020-406b055f4362" d="m1838.2,2355.46c118.84,56.43,340.3,104.69,627.58,147.71l-627.58-147.71Z"/>
    </g>
    <path class="uuid-72dcffde-a772-4770-a4d3-cac074d3f543" d="m3139.77,2378.29c-3.34,0-6.72-.95-9.7-2.95-8.04-5.37-10.21-16.23-4.83-24.27l52.88-79.18c12.43-18.61,35.43-27.72,57.23-22.7l92.25,21.3c9.42,2.17,15.29,11.57,13.12,20.99-2.17,9.42-11.57,15.31-20.99,13.12l-92.26-21.3c-7.71-1.79-15.85,1.44-20.25,8.03l-52.88,79.18c-3.37,5.05-8.92,7.78-14.57,7.78Z"/>
    <path class="uuid-72dcffde-a772-4770-a4d3-cac074d3f543" d="m2491.3,1788.65l-82.63-132.18c-5.27-8.5-16.43-11.08-24.9-5.75l-132.22,82.57c-8.47,5.33-11.04,16.49-5.76,24.94l82.63,132.18c5.27,8.5,16.43,11.08,24.9,5.75l132.22-82.57c8.46-5.28,11.03-16.44,5.76-24.94Zm-155.58,27.5c-1.53,6.63-8.19,10.78-14.81,9.25-6.63-1.53-10.78-8.19-9.25-14.81l20.45-88.57c1.54-6.67,8.19-10.78,14.81-9.25,6.63,1.53,10.8,8.14,9.25,14.81l-20.45,88.57Zm67.67,15.63c-1.53,6.63-8.19,10.78-14.81,9.25-6.63-1.53-10.78-8.19-9.25-14.81l20.45-88.57c1.54-6.67,8.19-10.78,14.81-9.25,6.63,1.53,10.8,8.14,9.25,14.81l-20.45,88.57Z"/>
    <g>
      <path class="uuid-3d935729-1f58-4321-9020-406b055f4362" d="m1839.4,2350.24l742.79,171.54-742.79-171.54Z"/>
      <path class="uuid-72dcffde-a772-4770-a4d3-cac074d3f543" d="m2582.21,2531.77c-.75,0-1.5-.08-2.26-.26l-742.79-171.53c-5.38-1.24-8.74-6.61-7.49-11.99,1.24-5.38,6.63-8.74,11.99-7.49l742.79,171.53c5.38,1.24,8.74,6.61,7.49,11.99-1.06,4.62-5.18,7.75-9.73,7.75Z"/>
    </g>
    <rect class="uuid-72dcffde-a772-4770-a4d3-cac074d3f543" x="2455.46" y="2479.71" width="102.88" height="50.41" rx="19.55" ry="19.55" transform="translate(627.93 -499.85) rotate(13)"/>
    <rect class="uuid-72dcffde-a772-4770-a4d3-cac074d3f543" x="2486.91" y="2515.23" width="27.01" height="35.49" rx="5.02" ry="5.02" transform="translate(634.08 -497.68) rotate(13)"/>
    <path class="uuid-72dcffde-a772-4770-a4d3-cac074d3f543" d="m2522.57,2548.42l-48.84-11.28c-2.71-.63-5.43,1.03-6.06,3.73l-17.36,75.18c-.63,2.71,1.1,5.39,3.81,6.01l48.84,11.28c2.71.63,5.43-1.03,6.06-3.73l17.36-75.18c.63-2.71-1.1-5.39-3.81-6.01Zm-20.93,70.62c-.39,1.68-2.02,2.7-3.7,2.31l-33.08-7.64c-1.62-.38-2.7-2.02-2.31-3.7l3.29-14.25c.39-1.68,2.08-2.69,3.7-2.31l33.08,7.64c1.68.39,2.7,2.02,2.31,3.7l-3.29,14.25Z"/>
    <g class="uuid-385b5bb9-80b5-4cd1-9390-bc770a9fd77e">
      <path class="uuid-72dcffde-a772-4770-a4d3-cac074d3f543" d="m2516.18,2495.35l-62.15-14.35c-10.52-2.43-21.02,4.13-23.44,14.65l-2.55,11.03c-2.43,10.52,4.13,21.02,14.65,23.44l17.92,4.14-3.07,13.31-11.26-2.6c-2.71-.63-5.43,1.03-6.06,3.73l-17.36,75.18c-.63,2.71,1.1,5.39,3.81,6.01l48.84,11.28c2.71.63,5.43-1.03,6.06-3.73l17.36-75.18c.63-2.71-1.1-5.39-3.81-6.01l-11.26-2.6,3.07-13.31,17.92,4.14c10.52,2.43,21.02-4.13,23.44-14.65l2.55-11.03c2.43-10.52-4.13-21.02-14.65-23.44Zm-38.71,117.26l-3.29,14.25c-.39,1.68-2.02,2.7-3.7,2.31l-33.08-7.64c-1.62-.38-2.7-2.02-2.31-3.7l3.29-14.25c.39-1.68,2.08-2.69,3.7-2.31l33.08,7.64c1.68.39,2.7,2.02,2.31,3.7Z"/>
    </g>
    <path class="uuid-1cd3340c-b08f-4cf9-8f25-09dce7aae69e" d="m1579.12,2173.25l-43.54-10.05c-27.87-6.44-55.69,10.94-62.13,38.82l-84.89,367.58c-6.44,27.87,10.94,55.69,38.82,62.13l43.54,10.05,108.2-468.53Z"/>
    <g class="uuid-385b5bb9-80b5-4cd1-9390-bc770a9fd77e">
      <path class="uuid-72dcffde-a772-4770-a4d3-cac074d3f543" d="m1579.12,2173.25l-43.54-10.05c-27.87-6.44-55.69,10.94-62.13,38.82l-84.89,367.58c-6.44,27.87,10.94,55.69,38.82,62.13l43.54,10.05,108.2-468.53Z"/>
    </g>
    <path class="uuid-72dcffde-a772-4770-a4d3-cac074d3f543" d="m1470.94,2659.28c-1.3,0-2.63-.15-3.95-.45l-43.54-10.05c-18.04-4.16-33.37-15.1-43.18-30.8-9.8-15.7-12.91-34.28-8.75-52.31l84.89-367.58c8.59-37.23,45.87-60.53,83.11-51.93l43.54,10.05c4.53,1.04,8.45,3.84,10.9,7.78,2.46,3.94,3.26,8.69,2.21,13.21l-108.2,468.53c-1.87,8.1-9.07,13.57-17.04,13.57Zm52.92-479.93c-6.35,0-12.59,1.78-18.11,5.22-7.77,4.85-13.18,12.45-15.24,21.37l-84.89,367.59c-2.06,8.93-.53,18.13,4.33,25.89,4.85,7.77,12.44,13.18,21.37,15.24l26.49,6.12,100.32-434.42-26.48-6.12c-2.59-.6-5.2-.89-7.78-.89Z"/>
    <path class="uuid-948d03e0-d503-45f1-bdd7-66edd1bb8457" d="m2516.14,2224.1l-140.5,242.19-389.08-89.85,199.45-343.81c17.05-29.39,54.65-39.39,84.03-22.34l223.82,129.8c29.33,17.04,39.32,54.69,22.28,84.02Z"/>
    <g class="uuid-385b5bb9-80b5-4cd1-9390-bc770a9fd77e">
      <path class="uuid-72dcffde-a772-4770-a4d3-cac074d3f543" d="m2057.14,2254.76c2.84,25.49,9.77,50.13,20.24,73.23l-33.39,61.72-57.44-13.26,70.59-121.69Z"/>
    </g>
    <path class="uuid-72dcffde-a772-4770-a4d3-cac074d3f543" d="m2375.63,2481.72c-1.15,0-2.31-.13-3.47-.4l-389.08-89.85c-4.78-1.1-8.74-4.4-10.69-8.9s-1.65-9.64.81-13.88l199.45-343.81c10.31-17.78,26.92-30.47,46.77-35.75,19.85-5.28,40.58-2.5,58.35,7.81l223.81,129.8c17.75,10.32,30.43,26.93,35.7,46.79,5.27,19.87,2.5,40.58-7.81,58.33l-140.5,242.18c-2.8,4.83-7.93,7.69-13.35,7.69Zm-365.24-115.62l357.61,82.58,134.79-232.33s0,0,0,0c6.17-10.62,7.83-23.01,4.67-34.91-3.15-11.89-10.74-21.85-21.37-28.01l-223.8-129.79c-10.64-6.18-23.05-7.84-34.93-4.68-11.88,3.16-21.83,10.76-28.01,21.41l-188.96,325.74Z"/>
    <path class="uuid-72dcffde-a772-4770-a4d3-cac074d3f543" d="m2456.97,2238.67l-35.11,60.5-90.97,156.8-299.52-69.17,1.09-1.85,23.71-40.91,28.31-48.83,66.9-115.25,51.43-88.7c3.95-6.89,12.74-9.17,19.58-5.23l60.6,35.14,83.22,48.26,35.15,20.43,50.38,29.18c6.88,4,9.16,12.79,5.22,19.63Z"/>
    <path class="uuid-72dcffde-a772-4770-a4d3-cac074d3f543" d="m2398.74,2152.98c-1.58,0-3.17-.41-4.63-1.25l-84.65-49.1c-4.42-2.56-5.93-8.23-3.36-12.65,2.56-4.42,8.24-5.94,12.65-3.36l84.65,49.1c4.42,2.56,5.93,8.23,3.36,12.65-1.71,2.96-4.82,4.62-8.02,4.62Z"/>
    <g class="uuid-385b5bb9-80b5-4cd1-9390-bc770a9fd77e">
      <path class="uuid-3d935729-1f58-4321-9020-406b055f4362" d="m1961.15,2608.72c-19.16,14.89-54.26,1.76-78.4-29.31s-28.19-68.33-9.03-83.21c19.16-14.89,37.2,11.49,61.35,42.56,24.14,31.07,45.25,55.07,26.09,69.96Z"/>
    </g>
    <g class="uuid-385b5bb9-80b5-4cd1-9390-bc770a9fd77e">
      <path class="uuid-3d935729-1f58-4321-9020-406b055f4362" d="m2312.17,1505.02c8-38.61,65.27-59.39,127.91-46.41,62.64,12.98,106.93,54.81,98.92,93.43-8,38.61-58.14,25.01-120.78,12.03-62.64-12.98-114.05-20.43-106.05-59.04Z"/>
    </g>
    <g class="uuid-385b5bb9-80b5-4cd1-9390-bc770a9fd77e">
      <path class="uuid-3d935729-1f58-4321-9020-406b055f4362" d="m2189.08,1522.46c3.19,15.79,19.13,15.9,38,12.09,18.87-3.81,33.52-10.11,30.33-25.9-3.19-15.79-21.07-25.5-39.94-21.68-18.87,3.81-31.58,19.7-28.39,35.49Z"/>
    </g>
    <g class="uuid-270e4a7a-d5d5-40ff-8d52-19d7f74fe2d2">
      <polygon class="uuid-29e052d3-f04d-48ff-8802-0d370cbe0f10" points="2349.41 2176.89 2107.78 2284.76 2174.73 2169.42 2266.12 2128.59 2349.41 2176.89"/>
    </g>
    <g class="uuid-915fea70-efc7-43f0-97a7-3987adc31d9a">
      <polygon class="uuid-d3ef71cd-ed58-4b03-92e0-339f4d47d507" points="2443.79 2231.66 2398.56 2309.65 2182.06 2406.32 2054.37 2376.83 2079.45 2333.63 2384.59 2197.34 2393.91 2202.78 2443.79 2231.66"/>
    </g>
    <g class="uuid-385b5bb9-80b5-4cd1-9390-bc770a9fd77e">
      <path class="uuid-72dcffde-a772-4770-a4d3-cac074d3f543" d="m2353.88,2398.85s16.32,25.22,46.64,19.57l-30.49,46.57-55.94-18.88,39.78-47.26Z"/>
    </g>
  </g>
</svg>