<?xml version="1.0" encoding="UTF-8"?>
<svg id="uuid-88a65147-6a2d-4a20-8dac-199895045145" data-name="Layer 1" xmlns="http://www.w3.org/2000/svg" xmlns:xlink="http://www.w3.org/1999/xlink" viewBox="0 0 4000 4000">
  <defs>
    <style>
      .uuid-372f7149-4705-47e4-bbf1-40a8b9282449 {
        fill: #fa5c98;
      }

      .uuid-372f7149-4705-47e4-bbf1-40a8b9282449, .uuid-c970bb60-9ec5-4b88-9d35-ea27250381c5, .uuid-6dd3f781-9447-4c4f-b0d8-bf570fd6ceab, .uuid-28f68726-f5d3-43a1-8f70-83aaee0f045a, .uuid-181766ec-f492-4b07-9752-5752fe6514af, .uuid-235a0796-630c-4623-b3cb-afd4b9371b39, .uuid-f7f89c83-77d0-4112-a3b0-96847e00231e, .uuid-12ca4e1a-f019-4fd7-8b7d-e0398e852553, .uuid-a9dfe94b-68ba-475b-98cd-22c41d3d80fd, .uuid-9769d739-9559-4c09-9596-ee50feae2128, .uuid-e2021072-fcf1-4722-84ea-678888be0e52, .uuid-dbbeaa9b-e8eb-4bc6-8717-554b6498aea2, .uuid-33517956-b9bb-4274-8c6b-f5f98536618c, .uuid-12c90b45-7476-431c-9569-9a68da70d61a, .uuid-0e8f153e-12cb-4414-86ca-4db515b9473b, .uuid-2a56151e-ccbd-41f4-8cc2-9eae92462989, .uuid-2ee589ef-6e80-439e-a7ca-6e108872ce7b, .uuid-7e3672d4-326d-4efa-9a1d-fc46cce480a4, .uuid-74c00d88-14e7-4ce8-b688-21cb45522c78, .uuid-183e6556-9af5-4500-975e-0764cf6e7522, .uuid-5d67b57c-6789-4385-b822-1735e5ae4e51, .uuid-4a2c2eb7-7d63-4df4-b702-16e9d16f88f4, .uuid-68be9e51-80ad-4145-9b9c-26f6aa7ef061 {
        stroke-width: 0px;
      }

      .uuid-c970bb60-9ec5-4b88-9d35-ea27250381c5 {
        fill: url(#uuid-ef4f8b1b-720f-4837-9616-41c698122aae);
        opacity: .47;
      }

      .uuid-6dd3f781-9447-4c4f-b0d8-bf570fd6ceab {
        fill: #f8bf71;
      }

      .uuid-76cc3698-fb44-4c4f-a6f6-27fbda4e954c {
        opacity: .51;
      }

      .uuid-d155bca6-2bdd-4f84-8e61-a21dea8aec0c {
        mask: url(#uuid-22a50773-3804-43af-9b0c-f420c4743752);
      }

      .uuid-28f68726-f5d3-43a1-8f70-83aaee0f045a {
        fill: #19b5fe;
      }

      .uuid-181766ec-f492-4b07-9752-5752fe6514af {
        fill: url(#uuid-9ee63157-d5eb-40ca-92d8-3b62265cf352);
      }

      .uuid-181766ec-f492-4b07-9752-5752fe6514af, .uuid-a9dfe94b-68ba-475b-98cd-22c41d3d80fd, .uuid-e2021072-fcf1-4722-84ea-678888be0e52 {
        mix-blend-mode: multiply;
      }

      .uuid-235a0796-630c-4623-b3cb-afd4b9371b39 {
        fill: #dce5ee;
      }

      .uuid-f7f89c83-77d0-4112-a3b0-96847e00231e {
        fill: #5f5a57;
      }

      .uuid-12ca4e1a-f019-4fd7-8b7d-e0398e852553 {
        fill: #fcf8d0;
      }

      .uuid-f0e47951-c8bb-42fb-a280-bf023aac2501 {
        filter: url(#uuid-6da6f9ac-3766-4fe3-8fc0-2f54e898cc3b);
      }

      .uuid-851fab66-a983-46aa-8a33-bf6d0b48fb5d {
        mask: url(#uuid-c2341d82-54f4-48fd-95f8-774633dbf325);
      }

      .uuid-a9dfe94b-68ba-475b-98cd-22c41d3d80fd {
        fill: url(#uuid-d0603321-33f0-4b51-b0ad-662794e279d7);
      }

      .uuid-9769d739-9559-4c09-9596-ee50feae2128 {
        fill: #8bc34a;
      }

      .uuid-e74fe30b-19aa-45b5-b423-149272eaf4e8 {
        mask: url(#uuid-76e1bd98-031b-4501-ae80-959c22bcb632);
      }

      .uuid-e2021072-fcf1-4722-84ea-678888be0e52 {
        fill: url(#uuid-3ab26ba5-6adf-4a66-a48c-d9699971a1d0);
      }

      .uuid-dbbeaa9b-e8eb-4bc6-8717-554b6498aea2 {
        fill: #102770;
      }

      .uuid-33517956-b9bb-4274-8c6b-f5f98536618c {
        fill: #fff;
      }

      .uuid-46c769ae-29dc-4586-8bda-6baec95c6dc5, .uuid-0e8f153e-12cb-4414-86ca-4db515b9473b, .uuid-183e6556-9af5-4500-975e-0764cf6e7522 {
        opacity: .3;
      }

      .uuid-12c90b45-7476-431c-9569-9a68da70d61a {
        fill: #f7c714;
      }

      .uuid-a7e39aee-702a-4218-9fb8-ac215a5b0020 {
        opacity: .57;
      }

      .uuid-0e8f153e-12cb-4414-86ca-4db515b9473b {
        fill: url(#uuid-8ad3b190-42ae-4ec0-9ed3-8cdab4f2eac5);
      }

      .uuid-5664bf43-1bad-4dda-bd45-a88216e9ea0f {
        filter: url(#uuid-098ea5d7-3388-44c6-8d74-e232bcc88497);
      }

      .uuid-2a56151e-ccbd-41f4-8cc2-9eae92462989 {
        fill: #c7e1ef;
      }

      .uuid-05bd3940-2ca1-470d-8114-ea4775d4f6f4 {
        mask: url(#uuid-10e58931-68f5-4ebf-9253-c80b394e903a);
      }

      .uuid-2ee589ef-6e80-439e-a7ca-6e108872ce7b {
        fill: #22a7f0;
      }

      .uuid-7e3672d4-326d-4efa-9a1d-fc46cce480a4 {
        fill: #ace0f5;
      }

      .uuid-74c00d88-14e7-4ce8-b688-21cb45522c78 {
        fill: #ffdb9c;
      }

      .uuid-57c0dda6-a8a6-4ecd-82e4-212491ea4903 {
        filter: url(#uuid-9a60e880-f73f-4caf-ac90-2b61e1b8e60c);
      }

      .uuid-183e6556-9af5-4500-975e-0764cf6e7522 {
        fill: url(#uuid-d201cd5c-d6f2-4440-8c69-d90fc513fc9d);
      }

      .uuid-5d67b57c-6789-4385-b822-1735e5ae4e51 {
        fill: #ff5722;
      }

      .uuid-4bb92885-d5a1-4b72-9fca-a7aae27a134d {
        mask: url(#uuid-748ab785-4510-493b-afb6-3cffc6c283f3);
      }

      .uuid-4a2c2eb7-7d63-4df4-b702-16e9d16f88f4 {
        fill: #fce5e5;
      }

      .uuid-44ec14d4-3b69-47d5-bd55-54edc4b4be96 {
        mask: url(#uuid-78d1e8b9-4a05-4e6c-87e5-c9f31ad815cd);
      }

      .uuid-68be9e51-80ad-4145-9b9c-26f6aa7ef061 {
        fill: #ffca28;
      }
    </style>
    <filter id="uuid-6da6f9ac-3766-4fe3-8fc0-2f54e898cc3b" x="1885.38" y="1041.42" width="899.68" height="976.63" color-interpolation-filters="sRGB" filterUnits="userSpaceOnUse">
      <feFlood flood-color="#fff" result="bg"/>
      <feBlend in="SourceGraphic" in2="bg"/>
    </filter>
    <filter id="uuid-298cec23-715b-43ce-986c-10e038b4283a" x="1885.38" y="-10192" width="899.68" height="32766" color-interpolation-filters="sRGB" filterUnits="userSpaceOnUse">
      <feFlood flood-color="#fff" result="bg"/>
      <feBlend in="SourceGraphic" in2="bg"/>
    </filter>
    <mask id="uuid-c2341d82-54f4-48fd-95f8-774633dbf325" data-name="mask-1" x="1885.38" y="-10192" width="899.68" height="32766" maskUnits="userSpaceOnUse"/>
    <linearGradient id="uuid-9ee63157-d5eb-40ca-92d8-3b62265cf352" x1="2320" y1="1058.32" x2="1652.55" y2="2123.23" gradientTransform="translate(263.61 -145.67) rotate(7.36)" gradientUnits="userSpaceOnUse">
      <stop offset="0" stop-color="#fff"/>
      <stop offset="1" stop-color="#000"/>
    </linearGradient>
    <mask id="uuid-76e1bd98-031b-4501-ae80-959c22bcb632" data-name="mask" x="1885.38" y="1041.42" width="899.68" height="976.63" maskUnits="userSpaceOnUse">
      <g class="uuid-f0e47951-c8bb-42fb-a280-bf023aac2501">
        <g class="uuid-851fab66-a983-46aa-8a33-bf6d0b48fb5d">
          <polygon class="uuid-181766ec-f492-4b07-9752-5752fe6514af" points="2785.06 1099.81 1926.81 2018.05 1885.38 1979.32 1954.17 1446.94 2333.17 1041.42 2785.06 1099.81"/>
        </g>
      </g>
    </mask>
    <linearGradient id="uuid-d201cd5c-d6f2-4440-8c69-d90fc513fc9d" x1="2320" y1="1058.32" x2="1652.55" y2="2123.23" gradientTransform="translate(263.61 -145.67) rotate(7.36)" gradientUnits="userSpaceOnUse">
      <stop offset="0" stop-color="#fff"/>
      <stop offset="1" stop-color="#25a9e0"/>
    </linearGradient>
    <filter id="uuid-9a60e880-f73f-4caf-ac90-2b61e1b8e60c" x="1840.96" y="1121.44" width="1199.13" height="1293.17" color-interpolation-filters="sRGB" filterUnits="userSpaceOnUse">
      <feFlood flood-color="#fff" result="bg"/>
      <feBlend in="SourceGraphic" in2="bg"/>
    </filter>
    <filter id="uuid-8eaad6f3-a443-4328-bddc-4ca0d8498e06" x="1840.96" y="-10192" width="1199.13" height="32766" color-interpolation-filters="sRGB" filterUnits="userSpaceOnUse">
      <feFlood flood-color="#fff" result="bg"/>
      <feBlend in="SourceGraphic" in2="bg"/>
    </filter>
    <mask id="uuid-22a50773-3804-43af-9b0c-f420c4743752" data-name="mask-3" x="1840.96" y="-10192" width="1199.13" height="32766" maskUnits="userSpaceOnUse"/>
    <linearGradient id="uuid-3ab26ba5-6adf-4a66-a48c-d9699971a1d0" x1="2633.12" y1="1259.15" x2="1965.68" y2="2324.05" gradientTransform="translate(263.61 -145.67) rotate(7.36)" gradientUnits="userSpaceOnUse">
      <stop offset="0" stop-color="#fff"/>
      <stop offset="1" stop-color="#000"/>
    </linearGradient>
    <mask id="uuid-78d1e8b9-4a05-4e6c-87e5-c9f31ad815cd" data-name="mask-2" x="1840.96" y="1121.44" width="1199.13" height="1293.17" maskUnits="userSpaceOnUse">
      <g class="uuid-57c0dda6-a8a6-4ecd-82e4-212491ea4903">
        <g class="uuid-d155bca6-2bdd-4f84-8e61-a21dea8aec0c">
          <path class="uuid-e2021072-fcf1-4722-84ea-678888be0e52" d="m3039.48,1211.49l-9.84,76.12-1053.36,1127.01-71.46-9.23c-40.12-5.18-68.44-41.92-63.26-82.03l8.2-63.47,1064.01-1138.44,62.43,8.07c40.12,5.18,68.44,41.92,63.27,81.98Z"/>
        </g>
      </g>
    </mask>
    <linearGradient id="uuid-8ad3b190-42ae-4ec0-9ed3-8cdab4f2eac5" x1="2633.12" y1="1259.15" x2="1965.68" y2="2324.05" xlink:href="#uuid-d201cd5c-d6f2-4440-8c69-d90fc513fc9d"/>
    <filter id="uuid-098ea5d7-3388-44c6-8d74-e232bcc88497" x="2380.78" y="1845.48" width="576.14" height="647.67" color-interpolation-filters="sRGB" filterUnits="userSpaceOnUse">
      <feFlood flood-color="#fff" result="bg"/>
      <feBlend in="SourceGraphic" in2="bg"/>
    </filter>
    <filter id="uuid-645c3487-45f8-46b6-b278-450d06f956de" x="2380.78" y="-10192" width="576.14" height="32766" color-interpolation-filters="sRGB" filterUnits="userSpaceOnUse">
      <feFlood flood-color="#fff" result="bg"/>
      <feBlend in="SourceGraphic" in2="bg"/>
    </filter>
    <mask id="uuid-748ab785-4510-493b-afb6-3cffc6c283f3" data-name="mask-5" x="2380.78" y="-10192" width="576.14" height="32766" maskUnits="userSpaceOnUse"/>
    <linearGradient id="uuid-d0603321-33f0-4b51-b0ad-662794e279d7" x1="2793.59" y1="1982.17" x2="2373.61" y2="2487.16" gradientTransform="translate(263.61 -145.67) rotate(7.36)" gradientUnits="userSpaceOnUse">
      <stop offset="0" stop-color="#fff"/>
      <stop offset="1" stop-color="#000"/>
    </linearGradient>
    <mask id="uuid-10e58931-68f5-4ebf-9253-c80b394e903a" data-name="mask-4" x="2380.78" y="1845.48" width="576.14" height="647.67" maskUnits="userSpaceOnUse">
      <g class="uuid-5664bf43-1bad-4dda-bd45-a88216e9ea0f">
        <g class="uuid-4bb92885-d5a1-4b72-9fca-a7aae27a134d">
          <polygon class="uuid-a9dfe94b-68ba-475b-98cd-22c41d3d80fd" points="2956.92 1845.48 2913.42 2182.13 2622.77 2493.15 2380.78 2461.88 2956.92 1845.48"/>
        </g>
      </g>
    </mask>
    <linearGradient id="uuid-ef4f8b1b-720f-4837-9616-41c698122aae" x1="2793.59" y1="1982.17" x2="2373.61" y2="2487.16" xlink:href="#uuid-d201cd5c-d6f2-4440-8c69-d90fc513fc9d"/>
  </defs>
  <rect class="uuid-33517956-b9bb-4274-8c6b-f5f98536618c" width="4000" height="4000"/>
  <circle class="uuid-74c00d88-14e7-4ce8-b688-21cb45522c78" cx="2000" cy="2000" r="1225"/>
  <path class="uuid-68be9e51-80ad-4145-9b9c-26f6aa7ef061" d="m3519.34,2098.35c-3.32,0-6.49-1.32-8.84-3.66l-48.03-48.03c-2.34-2.34-3.66-5.52-3.66-8.84s1.32-6.49,3.66-8.84l48.03-48.03c4.88-4.88,12.79-4.88,17.68,0l48.03,48.03c4.88,4.88,4.88,12.79,0,17.68l-48.03,48.03c-2.34,2.34-5.52,3.66-8.84,3.66Zm-30.36-60.53l30.36,30.36,30.35-30.36-30.35-30.35-30.36,30.35Z"/>
  <g>
    <path class="uuid-5d67b57c-6789-4385-b822-1735e5ae4e51" d="m3716.08,1789.42c-6.9,0-12.5-5.6-12.5-12.5v-81.69c0-6.9,5.6-12.5,12.5-12.5s12.5,5.6,12.5,12.5v81.69c0,6.9-5.6,12.5-12.5,12.5Z"/>
    <path class="uuid-5d67b57c-6789-4385-b822-1735e5ae4e51" d="m3756.93,1748.58h-81.69c-6.9,0-12.5-5.6-12.5-12.5s5.6-12.5,12.5-12.5h81.69c6.9,0,12.5,5.6,12.5,12.5s-5.6,12.5-12.5,12.5Z"/>
  </g>
  <g>
    <path class="uuid-9769d739-9559-4c09-9596-ee50feae2128" d="m382.19,2046.49c-6.9,0-12.5-5.6-12.5-12.5v-81.69c0-6.9,5.6-12.5,12.5-12.5s12.5,5.6,12.5,12.5v81.69c0,6.9-5.6,12.5-12.5,12.5Z"/>
    <path class="uuid-9769d739-9559-4c09-9596-ee50feae2128" d="m423.03,2005.65h-81.69c-6.9,0-12.5-5.6-12.5-12.5s5.6-12.5,12.5-12.5h81.69c6.9,0,12.5,5.6,12.5,12.5s-5.6,12.5-12.5,12.5Z"/>
  </g>
  <path class="uuid-dbbeaa9b-e8eb-4bc6-8717-554b6498aea2" d="m3564.92,1527.62c-26.99,0-48.96-21.96-48.96-48.96s21.96-48.96,48.96-48.96,48.96,21.96,48.96,48.96-21.96,48.96-48.96,48.96Zm0-72.91c-13.21,0-23.96,10.75-23.96,23.96s10.75,23.96,23.96,23.96,23.96-10.75,23.96-23.96-10.75-23.96-23.96-23.96Z"/>
  <path class="uuid-dbbeaa9b-e8eb-4bc6-8717-554b6498aea2" d="m543.48,2315.12c-32.92,0-59.7-26.78-59.7-59.7s26.78-59.7,59.7-59.7,59.7,26.78,59.7,59.7-26.78,59.7-59.7,59.7Zm0-94.4c-19.14,0-34.7,15.57-34.7,34.7s15.57,34.7,34.7,34.7,34.7-15.57,34.7-34.7-15.57-34.7-34.7-34.7Z"/>
  <path class="uuid-28f68726-f5d3-43a1-8f70-83aaee0f045a" d="m494.79,1754.01c-3.47,0-6.83-1.45-9.22-4.06l-60.67-66.32c-3.01-3.3-4.04-7.95-2.7-12.21s4.86-7.48,9.22-8.44l87.78-19.38c4.35-.95,8.9.47,11.92,3.77,3.01,3.3,4.04,7.95,2.7,12.21l-27.1,85.71c-1.35,4.26-4.86,7.48-9.22,8.44-.89.2-1.8.29-2.7.29Zm-36.84-71.28l31.45,34.38,14.05-44.42-45.49,10.05Z"/>
  <g>
    <path class="uuid-7e3672d4-326d-4efa-9a1d-fc46cce480a4" d="m3039.48,1206.49l-160.98,1245.84c-5.18,40.12-41.92,68.44-82.03,63.26l-891.64-115.21c-40.12-5.18-68.44-41.92-63.26-82.03l160.98-1245.84c5.18-40.07,41.91-68.39,82.03-63.21l891.64,115.21c40.12,5.18,68.44,41.92,63.27,81.98Z"/>
    <path class="uuid-235a0796-630c-4623-b3cb-afd4b9371b39" d="m2751.46,2759.88l-865.2-111.8c-114.19-14.75-194.8-119.28-180.04-233.47l182.49-1412.3c14.75-114.19,119.28-194.8,233.47-180.04l865.2,111.8c114.19,14.75,194.8,119.28,180.04,233.47l-182.49,1412.3c-14.75,114.19-119.28,194.8-233.47,180.04Z"/>
    <g class="uuid-46c769ae-29dc-4586-8bda-6baec95c6dc5">
      <path class="uuid-dbbeaa9b-e8eb-4bc6-8717-554b6498aea2" d="m2974.7,2622.6c-31.95,90.8-123.91,150.11-223.23,137.28l-865.21-111.8c-114.2-14.76-194.77-119.29-180.01-233.49l182.48-1412.26c4.73-36.6,18.69-69.73,39.26-97.42v-.05s.06-.04.06-.04l21.85-21.58v-.05s18.56-18.32,18.56-18.32l89.74-21.83c-62.88,20.41-103.84,70.52-125.62,146.61l-173.6,1343.53c-14.76,114.2,65.81,218.74,180.01,233.49l865.21,111.8c64.86,8.38,126.64-14.04,170.51-55.86Z"/>
    </g>
    <g class="uuid-46c769ae-29dc-4586-8bda-6baec95c6dc5">
      <path class="uuid-f7f89c83-77d0-4112-a3b0-96847e00231e" d="m1951.67,878.12c-.62,1.68-1.19,3.38-1.76,5.07v.05s-21.85,21.58-21.85,21.58c7.09-9.62,15-18.53,23.62-26.69Z"/>
    </g>
    <path class="uuid-33517956-b9bb-4274-8c6b-f5f98536618c" d="m3167.4,1167.55l-182.48,1412.26c-6.8,52.66-32.71,98.22-69.9,130.52,13.13-21.6,22.06-46.25,25.51-72.98l187.89-1454.11c13.26-102.65-59.19-196.61-161.84-209.87l-907.01-117.2c-35.16-4.54-69.25.98-99.46,14.32,43.19-36.92,101.27-56.08,162.07-48.23l865.21,111.8c114.2,14.76,194.77,119.29,180.01,233.49Z"/>
    <path class="uuid-dbbeaa9b-e8eb-4bc6-8717-554b6498aea2" d="m2778.64,2779.13c-9.76,0-19.58-.63-29.42-1.9l-865.2-111.79c-123.58-15.97-211.12-129.49-195.15-253.07l182.49-1412.3c7.73-59.86,38.32-113.13,86.11-149.99,47.8-36.86,107.09-52.92,166.95-45.17l865.2,111.8c123.58,15.97,211.12,129.49,195.15,253.07l-182.49,1412.3c-7.73,59.86-38.32,113.13-86.11,149.99-39.94,30.8-87.91,47.07-137.53,47.07Zm-683.3-1941.1c-94.52,0-176.85,70.35-189.27,166.52l-182.49,1412.3c-6.53,50.59,7.02,100.7,38.17,141.09,31.15,40.4,76.17,66.25,126.76,72.78l865.2,111.79c50.61,6.54,100.7-7.02,141.1-38.17,40.4-31.15,66.24-76.17,72.78-126.76l182.49-1412.3c13.49-104.44-60.49-200.38-164.93-213.88l-865.2-111.8c-8.26-1.06-16.49-1.59-24.6-1.59Z"/>
    <g class="uuid-46c769ae-29dc-4586-8bda-6baec95c6dc5">
      <path class="uuid-dbbeaa9b-e8eb-4bc6-8717-554b6498aea2" d="m3075.17,1203.28l-154.43,1195.11c-4.01,31.04-22.02,56.85-46.89,71.83,2.24-5.61,3.82-11.61,4.63-17.85l160.98-1245.84c5.18-40.12-23.14-76.85-63.21-82.03l-891.69-115.22c-5.01-.65-9.93-.78-14.72-.39,20.64-18.86,49.14-28.79,79.1-24.92l840.91,108.66c54.1,6.99,92.31,56.55,85.32,110.65Z"/>
    </g>
    <path class="uuid-2ee589ef-6e80-439e-a7ca-6e108872ce7b" d="m2796.47,2515.6l-891.65-115.21c-40.11-5.18-68.43-41.9-63.24-82.01l160.98-1245.84c5.18-40.11,41.9-68.43,82.01-63.24l891.65,115.21c40.11,5.18,68.43,41.9,63.25,82.01l-160.98,1245.84c-5.18,40.11-41.9,68.43-82.01,63.25Z"/>
    <g class="uuid-a7e39aee-702a-4218-9fb8-ac215a5b0020">
      <path class="uuid-33517956-b9bb-4274-8c6b-f5f98536618c" d="m2799.67,1755.91l-686.37-88.69c-26.55-3.43-45.29-27.73-41.86-54.28l27.8-215.17c3.43-26.55,27.73-45.29,54.28-41.86l686.37,88.69c26.55,3.43,45.29,27.73,41.86,54.28l-27.8,215.17c-3.43,26.55-27.73,45.29-54.28,41.86Z"/>
    </g>
    <path class="uuid-dbbeaa9b-e8eb-4bc6-8717-554b6498aea2" d="m2497.23,1460.39c-53.3-6.89-102.13,30.77-109.02,84.14-6.89,53.3,30.77,102.13,84.06,109.01,53.37,6.9,102.2-30.76,109.08-84.06,6.9-53.37-30.76-102.2-84.13-109.09Zm23.71,108.65l-58.1,24.23c-5.96,2.45-12.48-2.47-11.64-8.94l8.06-62.37c.84-6.47,8.38-9.57,13.52-5.62l50.04,38.2c5.15,3.88,4.1,11.97-1.87,14.48Z"/>
    <g class="uuid-a7e39aee-702a-4218-9fb8-ac215a5b0020">
      <path class="uuid-33517956-b9bb-4274-8c6b-f5f98536618c" d="m2497.22,1835.68l-423.48-54.72c-13.04-1.69-22.25-13.62-20.56-26.67l1.53-11.84c1.69-13.04,13.62-22.25,26.67-20.56l423.48,54.72c13.04,1.69,22.25,13.62,20.56,26.67l-1.53,11.84c-1.69,13.04-13.62,22.25-26.66,20.56Z"/>
    </g>
    <g class="uuid-e74fe30b-19aa-45b5-b423-149272eaf4e8">
      <polygon class="uuid-183e6556-9af5-4500-975e-0764cf6e7522" points="2785.06 1099.81 1926.81 2018.05 1885.38 1979.32 1954.17 1446.94 2333.17 1041.42 2785.06 1099.81"/>
    </g>
    <g class="uuid-46c769ae-29dc-4586-8bda-6baec95c6dc5">
      <path class="uuid-dbbeaa9b-e8eb-4bc6-8717-554b6498aea2" d="m2976.22,1124.5l-891.65-115.21c-30.55-3.95-59.08,11.56-73.26,36.89,8.95-2.39,18.5-3.15,28.26-1.89l891.65,115.21c40.11,5.18,68.43,41.9,63.25,82.01l-160.98,1245.84c-1.24,9.56-4.31,18.43-8.75,26.36,27.84-7.44,49.83-31.01,53.75-61.36l160.98-1245.84c5.18-40.11-23.13-76.83-63.25-82.01Z"/>
    </g>
    <g class="uuid-44ec14d4-3b69-47d5-bd55-54edc4b4be96">
      <path class="uuid-0e8f153e-12cb-4414-86ca-4db515b9473b" d="m3039.48,1211.49l-9.84,76.12-1053.36,1127.01-71.46-9.23c-40.12-5.18-68.44-41.92-63.26-82.03l8.2-63.47,1064.01-1138.44,62.43,8.07c40.12,5.18,68.44,41.92,63.27,81.98Z"/>
    </g>
    <g class="uuid-05bd3940-2ca1-470d-8114-ea4775d4f6f4">
      <polygon class="uuid-c970bb60-9ec5-4b88-9d35-ea27250381c5" points="2956.92 1845.48 2913.42 2182.13 2622.77 2493.15 2380.78 2461.88 2956.92 1845.48"/>
    </g>
    <path class="uuid-dbbeaa9b-e8eb-4bc6-8717-554b6498aea2" d="m2805.93,2532.44c-3.81,0-7.66-.24-11.53-.74l-891.66-115.21c-23.7-3.07-44.79-15.18-59.38-34.1-14.59-18.93-20.94-42.4-17.88-66.1l160.98-1245.84c6.33-48.93,51.29-83.55,100.2-77.26l891.66,115.21c23.7,3.07,44.79,15.18,59.38,34.1,14.59,18.93,20.94,42.4,17.88,66.1l-160.98,1245.84c-5.83,45.05-44.39,78-88.66,78Zm-730.79-1507.52c-28.21,0-52.78,20.99-56.49,49.7l-160.98,1245.84c-4.03,31.17,18.05,59.81,49.22,63.84l891.66,115.21h0c31.22,4.07,59.81-18.05,63.84-49.22l160.98-1245.84c4.03-31.17-18.05-59.81-49.22-63.84l-891.66-115.21c-2.47-.32-4.92-.47-7.35-.47Z"/>
    <circle class="uuid-dbbeaa9b-e8eb-4bc6-8717-554b6498aea2" cx="2333.88" cy="2587.77" r="41.85" transform="translate(-938.64 1390.19) rotate(-27.85)"/>
    <path class="uuid-dbbeaa9b-e8eb-4bc6-8717-554b6498aea2" d="m2674.42,1011.66c-.69,0-1.39-.05-2.1-.14l-265.11-34.26c-8.89-1.15-15.17-9.29-14.02-18.18,1.15-8.89,9.25-15.12,18.18-14.02l265.11,34.26c8.89,1.15,15.17,9.29,14.02,18.18-1.06,8.18-8.04,14.16-16.08,14.16Z"/>
    <g class="uuid-46c769ae-29dc-4586-8bda-6baec95c6dc5">
      <path class="uuid-f7f89c83-77d0-4112-a3b0-96847e00231e" d="m2086.88,836.05l-28.36,6.87c8.99-2.87,18.47-5.18,28.36-6.87Z"/>
    </g>
    <g class="uuid-46c769ae-29dc-4586-8bda-6baec95c6dc5">
      <path class="uuid-4a2c2eb7-7d63-4df4-b702-16e9d16f88f4" d="m2347.37,2569.97c6.9,5.63,6.87,17.09,3.36,21.4s-9.19-.17-16.09-5.8c-6.9-5.63-12.42-10.29-8.91-14.6,3.52-4.31,14.73-6.63,21.64-1Z"/>
    </g>
  </g>
  <g>
    <path class="uuid-dbbeaa9b-e8eb-4bc6-8717-554b6498aea2" d="m3197.32,2057.05c-4.52,0-9.01-1.89-12.2-5.57-5.82-6.73-5.08-16.91,1.65-22.74l100.57-86.99c3.53-3.05,5.66-7.29,6-11.94s-1.16-9.16-4.21-12.68l-28.32-32.73c-5.82-6.73-5.08-16.91,1.65-22.73,6.74-5.81,16.91-5.08,22.74,1.65l28.31,32.72c8.68,10.04,12.94,22.86,11.98,36.1-.96,13.24-7.01,25.31-17.05,33.99l-100.57,87c-3.05,2.63-6.8,3.93-10.54,3.93Z"/>
    <path class="uuid-2ee589ef-6e80-439e-a7ca-6e108872ce7b" d="m3312.83,1839.38l-66.56-76.95,38.48-33.28c21.25-18.38,53.38-16.06,71.76,5.19h0c18.38,21.25,16.06,53.38-5.19,71.76l-38.48,33.28Z"/>
    <g class="uuid-46c769ae-29dc-4586-8bda-6baec95c6dc5">
      <path class="uuid-dbbeaa9b-e8eb-4bc6-8717-554b6498aea2" d="m3356.5,1734.34c-4.04-4.68-8.78-8.38-13.89-11.2,11.33,20.58,7.18,46.97-11.3,62.96l-36.93,31.95,18.46,21.34,38.47-33.28c21.25-18.38,23.57-50.51,5.19-71.76Z"/>
    </g>
    <g class="uuid-76cc3698-fb44-4c4f-a6f6-27fbda4e954c">
      <path class="uuid-33517956-b9bb-4274-8c6b-f5f98536618c" d="m3368.35,1760.33c-18.75-16.65-47.45-17.25-66.95-.35l-32.75,28.35-22.4-25.9,38.5-33.3c21.25-18.35,53.35-16.05,71.75,5.2,6.65,7.65,10.55,16.7,11.85,26Z"/>
    </g>
    <path class="uuid-dbbeaa9b-e8eb-4bc6-8717-554b6498aea2" d="m3312.83,1855.7c-.39,0-.79-.01-1.18-.04-4.32-.31-8.33-2.33-11.17-5.61l-66.56-76.95c-5.89-6.82-5.15-17.12,1.67-23.02l38.48-33.28c13.57-11.74,30.9-17.52,48.8-16.2,17.9,1.29,34.22,9.49,45.97,23.06,11.74,13.57,17.5,30.9,16.2,48.8-1.3,17.9-9.49,34.22-23.06,45.97l-38.48,33.29c-2.98,2.57-6.77,3.97-10.68,3.97Zm-43.55-91.61l45.21,52.27,26.13-22.61c6.98-6.04,11.19-14.43,11.86-23.63.67-9.2-2.29-18.12-8.33-25.1-6.04-6.98-14.43-11.2-23.64-11.86-9.19-.69-18.12,2.29-25.09,8.33l-26.14,22.6Z"/>
    <path class="uuid-5d67b57c-6789-4385-b822-1735e5ae4e51" d="m3307.45,1862.18l-456.7,394.2c-.75.65-1.55,1.25-2.35,1.8l-.15.15c-3.2,2.2-6.8,3.7-10.7,4.45l-118.3,22.4,39.75-113.6c1.2-3.6,3.2-6.95,5.8-9.75.75-.85,1.55-1.65,2.45-2.4l456.5-394.05c35.9-31.05,119.65,65.75,83.7,96.8Z"/>
    <path class="uuid-33517956-b9bb-4274-8c6b-f5f98536618c" d="m2848.4,2258.18l-.15.15c-3.2,2.2-6.8,3.7-10.7,4.45l-118.3,22.4,39.75-113.6c1.2-3.6,3.2-6.95,5.8-9.75,27.1-23.4,110.25,72.6,83.6,96.35Z"/>
    <g class="uuid-46c769ae-29dc-4586-8bda-6baec95c6dc5">
      <path class="uuid-dbbeaa9b-e8eb-4bc6-8717-554b6498aea2" d="m3307.45,1862.18l-456.7,394.2c-.75.65-1.55,1.25-2.35,1.8l-.15.15c-3.2,2.2-6.8,3.7-10.7,4.45l-118.3,22.4,15.05-42.95,85.75-16.25c3.9-.75,7.5-2.25,10.7-4.45l.15-.15c.8-.55,1.6-1.15,2.35-1.8l456.7-394.2c7.95-6.85,10.05-16.9,8.1-28.05,17.35,23.1,25.75,50.75,9.4,64.85Z"/>
    </g>
    <g class="uuid-76cc3698-fb44-4c4f-a6f6-27fbda4e954c">
      <path class="uuid-33517956-b9bb-4274-8c6b-f5f98536618c" d="m3281.25,1779.03c-9.35-2.2-18.15-1-25.1,5.05l-456.5,394c-3.8,3.3-6.65,7.5-8.25,12.15l-30.4,87.05-41.75,7.9,39.75-113.6c1.55-4.7,4.45-8.9,8.25-12.15l456.5-394.05c14.9-12.9,38.1-3.75,57.5,13.65Z"/>
    </g>
    <path class="uuid-dbbeaa9b-e8eb-4bc6-8717-554b6498aea2" d="m2719.28,2301.52c-4.7,0-9.23-2.03-12.37-5.67-3.8-4.42-4.96-10.53-3.04-16.04l39.71-113.62c2.48-7.27,6.98-13.92,12.98-19.11l456.52-394.05c23.12-19.98,60.87-9,91.81,26.77,30.94,35.76,36.39,74.71,13.26,94.72,0,0,0,0-.01,0l-456.69,394.2c-5.89,5.09-13.07,8.58-20.75,10.08l-118.38,22.42c-1.01.19-2.03.28-3.04.28Zm521.52-525.85c-2.58,0-4.75.66-6.38,2.07l-456.52,394.05c-1.61,1.39-2.81,3.14-3.47,5.06l-30.42,87.06,90.53-17.14c2.04-.4,3.95-1.32,5.57-2.73l456.7-394.2c7.9-6.84.3-29.13-16.6-48.67-13.43-15.53-29.43-25.49-39.41-25.49Zm66.67,86.52h.05-.05Z"/>
    <path class="uuid-dbbeaa9b-e8eb-4bc6-8717-554b6498aea2" d="m2775.74,2274.5l-56.42,10.71,18.93-54.22c14,11.55,28.14,27.96,37.5,43.51Z"/>
    <path class="uuid-dbbeaa9b-e8eb-4bc6-8717-554b6498aea2" d="m2848.28,2270.4c-3.39,0-6.76-1.42-9.15-4.18-4.37-5.05-3.82-12.69,1.23-17.05,1.58-1.36,1.87-6.62-1.22-14.94-3.75-10.12-11.55-22.46-21.42-33.86-9.86-11.4-20.95-20.89-30.41-26.05-7.77-4.24-13.02-4.7-14.59-3.35-5.05,4.37-12.69,3.82-17.05-1.23-4.37-5.05-3.82-12.69,1.23-17.05,21.75-18.82,56.22,5.4,79.12,31.87,11.86,13.71,21.02,28.37,25.81,41.28,8.96,24.21.31,36.46-5.64,41.62-2.29,1.98-5.1,2.95-7.91,2.95Z"/>
    <path class="uuid-dbbeaa9b-e8eb-4bc6-8717-554b6498aea2" d="m3244.17,1927.94c-3.39,0-6.76-1.42-9.15-4.18-4.37-5.05-3.81-12.68,1.24-17.05,1.57-1.36,1.87-6.61-1.21-14.92-3.74-10.11-11.54-22.44-21.4-33.84-9.86-11.41-20.95-20.91-30.42-26.07-7.79-4.25-13.03-4.72-14.61-3.35-5.05,4.36-12.69,3.82-17.05-1.24-4.37-5.05-3.81-12.68,1.24-17.05,21.75-18.82,56.24,5.42,79.14,31.9,11.86,13.71,21.01,28.36,25.79,41.27,8.95,24.2.31,36.45-5.65,41.6-2.29,1.97-5.1,2.94-7.9,2.94Z"/>
    <path class="uuid-dbbeaa9b-e8eb-4bc6-8717-554b6498aea2" d="m3202.46,2025.96l1.45,1.68,46.09-39.87-1.45-1.68c-11.01-12.73-30.25-14.12-42.98-3.11h0c-12.73,11.01-14.12,30.25-3.11,42.98Z"/>
  </g>
  <g>
    <path class="uuid-5d67b57c-6789-4385-b822-1735e5ae4e51" d="m2179.06,2867.39l-801.4,289.56c-65.34,23.61-137.44-10.22-161.05-75.56l-467.97-1295.18c-23.61-65.34,10.22-137.44,75.56-161.05l801.4-289.56c65.34-23.61,137.44,10.22,161.05,75.56l467.97,1295.18c23.61,65.34-10.22,137.44-75.56,161.05Z"/>
    <g class="uuid-76cc3698-fb44-4c4f-a6f6-27fbda4e954c">
      <path class="uuid-33517956-b9bb-4274-8c6b-f5f98536618c" d="m2251.08,2800.52c-.55-9.15-2.4-18.4-5.7-27.5l-486.35-1346.05c-18.55-51.3-75.15-77.85-126.45-59.3l-852.25,307.95c-10.25,3.7-19.55,8.95-27.65,15.35,13.55-29.6,38.5-53.9,71.55-65.8l801.4-289.55c65.3-23.6,137.4,10.2,161,75.55l468,1295.15c11.55,31.95,9.35,65.5-3.55,94.2Z"/>
    </g>
    <g class="uuid-46c769ae-29dc-4586-8bda-6baec95c6dc5">
      <path class="uuid-dbbeaa9b-e8eb-4bc6-8717-554b6498aea2" d="m2253.53,2794.62c-12.7,32.7-38.9,59.9-74.45,72.75l-801.4,289.6c-65.35,23.6-137.45-10.25-161.05-75.6l-468-1295.15c-13.2-36.5-8.45-75.1,9.7-106.15.7,8.1,2.45,16.25,5.3,24.25l489.25,1354c17.75,49.1,71.9,74.5,121,56.75l860.25-310.8c6.95-2.5,13.45-5.75,19.4-9.65Z"/>
    </g>
    <path class="uuid-dbbeaa9b-e8eb-4bc6-8717-554b6498aea2" d="m1335.06,3181.94c-58.68,0-113.84-36.31-134.9-94.6l-467.97-1295.18c-26.85-74.31,11.77-156.6,86.07-183.45l801.4-289.56c36-13,74.9-11.22,109.55,5.04,34.65,16.26,60.89,45.03,73.9,81.03l467.97,1295.18c26.85,74.31-11.77,156.61-86.07,183.46h0l-801.4,289.56c-16.02,5.79-32.42,8.53-48.55,8.53Zm333.35-1836.38c-12.41,0-24.85,2.16-36.87,6.5l-801.4,289.56c-56.15,20.29-85.33,82.49-65.04,138.64l467.97,1295.18c20.28,56.15,82.46,85.32,138.64,65.04l801.4-289.56c56.16-20.29,85.34-82.49,65.05-138.64l-467.97-1295.18c-9.83-27.2-29.66-48.95-55.85-61.24-14.61-6.86-30.24-10.31-45.92-10.31Zm510.64,1521.83h.05-.05Z"/>
    <path class="uuid-33517956-b9bb-4274-8c6b-f5f98536618c" d="m2106.53,2683.17l-790.85,285.7c-13.45,4.9-28.3-2.1-33.2-15.55l-438.2-1212.75c-4.85-13.5,2.15-28.35,15.6-33.2l91-32.9,585.05-211.35,114.8-41.5c13.45-4.85,28.3,2.1,33.2,15.55l438.15,1212.8c4.9,13.45-2.1,28.3-15.55,33.2Z"/>
    <g class="uuid-76cc3698-fb44-4c4f-a6f6-27fbda4e954c">
      <path class="uuid-33517956-b9bb-4274-8c6b-f5f98536618c" d="m2089.03,2718.17l-790.85,285.7c-13.45,4.9-28.3-2.1-33.2-15.55l-438.2-1212.75c-4.85-13.5,2.15-28.35,15.6-33.2l2.25-.8,437.85,1211.75c4.9,13.45,19.75,20.45,33.2,15.55l788.55-284.85.35.95c4.9,13.45-2.1,28.3-15.55,33.2Z"/>
    </g>
    <g class="uuid-46c769ae-29dc-4586-8bda-6baec95c6dc5">
      <path class="uuid-dbbeaa9b-e8eb-4bc6-8717-554b6498aea2" d="m1535.93,1463.12c-.75,58.6-110,143.05-259.5,197.05-149.55,54.05-287.55,58.9-325.55,14.3l585.05-211.35Z"/>
    </g>
    <path class="uuid-dbbeaa9b-e8eb-4bc6-8717-554b6498aea2" d="m1306.86,2983.98c-5.72,0-11.41-1.26-16.74-3.76-9.54-4.48-16.76-12.4-20.35-22.31l-438.19-1212.76c-7.39-20.46,3.24-43.12,23.7-50.51l790.83-285.74c20.44-7.4,43.12,3.24,50.51,23.7l438.19,1212.76c7.39,20.46-3.24,43.12-23.7,50.51l-790.83,285.74c-4.38,1.58-8.91,2.37-13.43,2.37Zm352.64-1550.39c-1.39,0-2.81.24-4.2.74l-790.83,285.74c-6.43,2.32-9.77,9.45-7.45,15.88l438.19,1212.76c1.13,3.12,3.4,5.61,6.4,7.01,3,1.41,6.37,1.57,9.48.44l790.83-285.74h0c6.43-2.32,9.77-9.45,7.45-15.88l-438.19-1212.76c-1.83-5.04-6.6-8.19-11.68-8.19Z"/>
    <path class="uuid-2a56151e-ccbd-41f4-8cc2-9eae92462989" d="m1533.41,1410.77c21.05,58.26-94.02,153.28-257,212.17-162.98,58.89-312.21,59.36-333.27,1.1-4.71-13.03-2.61-27.93,5.34-43.81l147.57-53.32c-7.87-21.78-9.88-44.23-6.83-65.7,6.9-48.57,39.71-91.84,89.12-109.69,49.41-17.85,102.29-5.55,138.65,27.4,16.07,14.56,28.88,33.11,36.75,54.89l147.57-53.32c16.27,7.12,27.4,17.25,32.11,30.28Z"/>
    <path class="uuid-2a56151e-ccbd-41f4-8cc2-9eae92462989" d="m1533.41,1410.77c21.05,58.26-94.02,153.28-257,212.17-162.98,58.89-312.21,59.36-333.27,1.1-4.71-13.03-2.61-27.93,5.34-43.81l147.57-53.32c-7.87-21.78-9.88-44.23-6.83-65.7,6.9-48.57,39.71-91.84,89.12-109.69,49.41-17.85,102.29-5.55,138.65,27.4,16.07,14.56,28.88,33.11,36.75,54.89l147.57-53.32c16.27,7.12,27.4,17.25,32.11,30.28Z"/>
    <g class="uuid-46c769ae-29dc-4586-8bda-6baec95c6dc5">
      <circle class="uuid-dbbeaa9b-e8eb-4bc6-8717-554b6498aea2" cx="1215.31" cy="1453.82" r="43.93" transform="translate(-586.65 2039.94) rotate(-68.12)"/>
    </g>
    <g class="uuid-46c769ae-29dc-4586-8bda-6baec95c6dc5">
      <path class="uuid-dbbeaa9b-e8eb-4bc6-8717-554b6498aea2" d="m1276.43,1622.97c-163,58.85-312.25,59.35-333.3,1.1-4.7-13.05-2.6-27.95,5.35-43.85l19.3-6.95c30.95,50.55,174,47.6,329.6-8.65,110.45-39.9,198.9-96.4,237.9-146.8,10.05,58.65-102.3,148.55-258.85,205.15Z"/>
    </g>
    <g class="uuid-76cc3698-fb44-4c4f-a6f6-27fbda4e954c">
      <path class="uuid-33517956-b9bb-4274-8c6b-f5f98536618c" d="m1512.23,1478.72c1.3-8.1.8-15.8-1.8-22.95-2.5-6.95-6.8-13.05-12.75-18.3-9.45-8.4-22.9-10.7-34.8-6.4l-102.8,37.15c-15.25,5.5-32.6-.1-41-13.95-6.95-11.45-15.4-21.65-25.05-30.35-36.35-32.95-89.25-45.25-138.65-27.4-25.45,9.2-46.5,25.1-61.85,45.05,11.9-40.35,42.2-74.65,84.8-90.05,49.45-17.85,102.3-5.55,138.65,27.4,16.1,14.55,28.9,33.1,36.75,54.9l147.6-53.3c16.25,7.1,27.4,17.25,32.1,30.25,7.05,19.45-1.15,43-21.2,67.95Z"/>
    </g>
    <path class="uuid-dbbeaa9b-e8eb-4bc6-8717-554b6498aea2" d="m1055.3,1684.93c-71.16,0-115.62-18.98-128.61-54.94-6.22-17.23-4.09-37.14,6.16-57.6,2.01-4.01,5.48-7.09,9.7-8.62l132.05-47.71c-4.46-18.76-5.4-38.29-2.69-57.32,8.07-56.8,46.57-104.2,100.49-123.69,53.92-19.47,113.83-7.64,156.35,30.89,14.24,12.9,26,28.51,34.57,45.8l132.04-47.71c4.22-1.52,8.86-1.37,12.97.43,20.96,9.18,35.33,23.14,41.55,40.36h0c28.63,79.24-116.46,180-267.51,234.58-80.66,29.15-160.83,45.31-225.75,45.52-.44,0-.88,0-1.32,0Zm-93.89-90.75c-3.6,9.23-4.21,17.26-1.8,23.92,7.21,19.96,42.96,31.83,95.73,31.83.39,0,.77,0,1.16,0,61-.2,136.99-15.62,213.97-43.44,159.5-57.63,261.68-147.71,246.49-189.77h0c-2.41-6.66-8.01-12.45-16.68-17.25l-140.59,50.8c-9.07,3.28-19.12-1.42-22.41-10.51-6.72-18.6-17.5-34.71-32.04-47.87-32.91-29.82-79.26-38.97-120.95-23.91-41.71,15.07-71.49,51.74-77.74,95.69-2.76,19.42-.76,38.7,5.97,57.3,1.58,4.37,1.35,9.17-.62,13.38-1.97,4.2-5.53,7.45-9.9,9.03l-140.6,50.8Z"/>
    <circle class="uuid-dbbeaa9b-e8eb-4bc6-8717-554b6498aea2" cx="1215.31" cy="1453.82" r="35.53" transform="translate(-617.05 1936.56) rotate(-64.87)"/>
    <path class="uuid-dbbeaa9b-e8eb-4bc6-8717-554b6498aea2" d="m1073.04,1982.61c-5.02,0-10.01-1.33-14.42-3.93l-44.28-26.11c-6.44-3.79-8.57-12.08-4.78-18.52,3.78-6.44,12.08-8.59,18.52-4.78l44.29,26.11c.13.08.54.3,1.06.12.38-.12.64-.36.81-.71l43.46-95.23c3.1-6.79,11.12-9.79,17.92-6.69,6.8,3.1,9.79,11.12,6.69,17.92l-43.46,95.23c-3.33,7.3-9.64,12.88-17.29,15.28-2.77.87-5.64,1.3-8.5,1.3Z"/>
    <path class="uuid-dbbeaa9b-e8eb-4bc6-8717-554b6498aea2" d="m1243.63,1837.65c-5.54,0-10.73-3.43-12.72-8.94-2.54-7.03,1.1-14.78,8.12-17.31l349.41-126.25c7-2.55,14.78,1.09,17.31,8.12,2.54,7.03-1.1,14.78-8.12,17.31l-349.41,126.25c-1.51.55-3.07.81-4.59.81Z"/>
    <path class="uuid-dbbeaa9b-e8eb-4bc6-8717-554b6498aea2" d="m1270.56,1912.19c-5.54,0-10.73-3.43-12.72-8.94-2.54-7.03,1.1-14.78,8.12-17.31l349.41-126.25c6.99-2.55,14.78,1.09,17.31,8.12,2.54,7.03-1.1,14.78-8.12,17.31l-349.41,126.25c-1.51.55-3.07.81-4.59.81Z"/>
    <path class="uuid-dbbeaa9b-e8eb-4bc6-8717-554b6498aea2" d="m1137.68,2276.82c-5.54,0-10.73-3.43-12.72-8.94-2.54-7.03,1.1-14.78,8.12-17.31l583.48-210.82c7-2.54,14.78,1.1,17.31,8.12,2.54,7.03-1.1,14.78-8.12,17.31l-583.48,210.82c-1.51.55-3.07.81-4.59.81Z"/>
    <path class="uuid-dbbeaa9b-e8eb-4bc6-8717-554b6498aea2" d="m1171.39,2370.11c-5.54,0-10.73-3.43-12.72-8.94-2.54-7.03,1.1-14.78,8.12-17.31l583.48-210.83c6.99-2.55,14.78,1.09,17.31,8.12,2.54,7.03-1.1,14.78-8.12,17.31l-583.48,210.83c-1.51.55-3.07.81-4.59.81Z"/>
    <path class="uuid-dbbeaa9b-e8eb-4bc6-8717-554b6498aea2" d="m1205.1,2463.4c-5.54,0-10.73-3.43-12.72-8.94-2.54-7.03,1.1-14.78,8.12-17.31l583.48-210.82c7-2.55,14.78,1.1,17.31,8.12,2.54,7.03-1.1,14.78-8.12,17.31l-583.48,210.82c-1.51.55-3.07.81-4.59.81Z"/>
    <path class="uuid-dbbeaa9b-e8eb-4bc6-8717-554b6498aea2" d="m1238.81,2556.69c-5.54,0-10.73-3.43-12.72-8.94-2.54-7.03,1.1-14.78,8.12-17.31l466.45-168.54c7-2.55,14.78,1.1,17.31,8.12,2.54,7.03-1.1,14.78-8.12,17.31l-466.45,168.54c-1.51.55-3.07.81-4.59.81Z"/>
  </g>
  <g>
    <path class="uuid-372f7149-4705-47e4-bbf1-40a8b9282449" d="m837.72,2669.11l1.12-2.01c19.95-35.64,64.99-48.31,100.63-28.36l52.55,29.44c-33.04-17.05-104.94,111.23-73.61,130.85l-52.34-29.29c-35.63-20.01-48.31-64.99-28.36-100.63Z"/>
    <g class="uuid-46c769ae-29dc-4586-8bda-6baec95c6dc5">
      <path class="uuid-dbbeaa9b-e8eb-4bc6-8717-554b6498aea2" d="m917.36,2749.44l-26.28-14.71c-32.1-18.03-45.49-56.33-33.24-89.8-7.53,5.87-14.04,13.3-19,22.16l-1.12,2.01c-19.95,35.64-7.27,80.62,28.36,100.63l52.34,29.29c-10.96-6.86-9.27-27.01-1.06-49.58Z"/>
      <path class="uuid-dbbeaa9b-e8eb-4bc6-8717-554b6498aea2" d="m956.19,2684.67c12.9-13.82,26.07-21.54,35.84-16.49l-18.06-10.12c-6.32,7.93-12.4,17.06-17.78,26.61Z"/>
    </g>
    <g class="uuid-76cc3698-fb44-4c4f-a6f6-27fbda4e954c">
      <path class="uuid-33517956-b9bb-4274-8c6b-f5f98536618c" d="m912.09,2767.75c-3.52,7.91-6.36,15.73-8.34,23.07l14.67,8.21c-7.86-4.92-9.22-16.69-6.33-31.28Z"/>
      <path class="uuid-33517956-b9bb-4274-8c6b-f5f98536618c" d="m939.47,2638.73c-35.64-19.95-80.68-7.28-100.63,28.36l-1.12,2.01c-5.04,9-7.98,18.59-9.01,28.23l.14-.25c19.95-35.64,64.99-48.31,100.63-28.36l27.31,15.3c12.71-13.42,25.62-20.82,35.25-15.86l-52.55-29.44Z"/>
    </g>
    <path class="uuid-12c90b45-7476-431c-9569-9a68da70d61a" d="m992.03,2668.17l.49.26,42.59,23.9q.06.01.12.02h.06s290.19,162.6,290.19,162.6c.7.42,1.41.84,2.04,1.31,4.18,2.75,7.72,6.41,10.32,10.74l72.16,121.34-141.23,1.88c-5.14.07-10.2-1.05-14.88-3.35-.61-.28-1.21-.57-1.81-.91l-290.19-162.59h-.06s-42.71-23.93-42.71-23.93l-.12-.02c-.22-.1-.38-.24-.59-.4-31.34-19.63,40.57-147.91,73.61-130.85Z"/>
    <path class="uuid-12c90b45-7476-431c-9569-9a68da70d61a" d="m992.03,2668.17l.49.26,42.59,23.9q.06.01.12.02h.06s290.19,162.6,290.19,162.6c.7.42,1.41.84,2.04,1.31,4.18,2.75,7.72,6.41,10.32,10.74l72.16,121.34-141.23,1.88c-5.14.07-10.2-1.05-14.88-3.35-.61-.28-1.21-.57-1.81-.91l-290.19-162.59h-.06s-42.71-23.93-42.71-23.93l-.12-.02c-.22-.1-.38-.24-.59-.4-31.34-19.63,40.57-147.91,73.61-130.85Z"/>
    <path class="uuid-6dd3f781-9447-4c4f-b0d8-bf570fd6ceab" d="m1327.52,2856.27c4.18,2.75,7.72,6.41,10.32,10.74l72.16,121.34-141.23,1.88c-5.14.07-10.2-1.05-14.88-3.35-28.16-21.76,40.59-144.2,73.63-130.61Z"/>
    <g class="uuid-76cc3698-fb44-4c4f-a6f6-27fbda4e954c">
      <path class="uuid-33517956-b9bb-4274-8c6b-f5f98536618c" d="m972.03,2694.83l.49.26,42.59,23.9q.06,0,.12.02h.06s290.19,162.6,290.19,162.6c.7.42,1.41.84,2.04,1.31,4.18,2.75,7.72,6.41,10.32,10.74l56.59,95.16,35.57-.47-72.16-121.34c-2.59-4.33-6.14-7.98-10.32-10.74-.64-.47-1.34-.89-2.04-1.31l-290.19-162.59h-.06q-.06-.02-.12-.03l-42.59-23.9-.49-.26c-15.06-7.78-38.19,14.68-55.94,43.26,12.93-13.89,26.15-21.66,35.94-16.61Z"/>
    </g>
    <path class="uuid-12ca4e1a-f019-4fd7-8b7d-e0398e852553" d="m992.03,2668.17c.17.03.28.11.44.2l.05.07,42.71,23.92q-.06-.01-.12-.02c-32.96-18.18-105.8,111.67-73.6,130.79l-42.39-23.69-.12-.02c-.22-.1-.38-.24-.59-.4-31.34-19.63,40.57-147.91,73.61-130.85Z"/>
    <path class="uuid-dbbeaa9b-e8eb-4bc6-8717-554b6498aea2" d="m1268.35,3005.23c-7.39,0-14.47-1.65-21.07-4.89-.78-.36-1.77-.84-2.74-1.41l-385.79-216.1c-42.74-24-58.04-78.28-34.14-121.02l1.12-2.02c23.96-42.8,78.27-58.11,121.06-34.15l386.01,216.23c1.31.78,2.33,1.41,3.25,2.06,5.94,3.98,11,9.28,14.64,15.36l72.19,121.39c2.74,4.6,2.81,10.32.2,15-2.62,4.67-7.53,7.6-12.89,7.67l-141.23,1.88c-.2,0-.41,0-.62,0Zm-364.95-360.96c-5.37,0-10.76.74-16.06,2.23-15.15,4.27-27.72,14.18-35.42,27.92l-1.1,1.99s0,.02-.02.03c-15.86,28.33-5.71,64.31,22.62,80.22l386.77,216.61c2.84,1.39,5.4,1.93,8.39,1.96l115.24-1.53-58.89-99.02c-1.38-2.3-3.35-4.35-5.68-5.88-.22-.15-.43-.3-.65-.45-.22-.15-.53-.32-.82-.5l-385.65-216.02c-8.93-5-18.78-7.54-28.74-7.54Zm-65.69,24.83h.05-.05Z"/>
    <path class="uuid-dbbeaa9b-e8eb-4bc6-8717-554b6498aea2" d="m1375.54,2930.45l34.43,57.91-67.37.88c7.12-20.07,19.54-42.24,32.94-58.79Z"/>
    <path class="uuid-dbbeaa9b-e8eb-4bc6-8717-554b6498aea2" d="m919.11,2810.91h-.08c-1.97,0-3.9-.51-5.62-1.47-25.64-14.36-12.91-58.51,7.55-95.03,20.46-36.53,51.46-70.4,77.1-56.07,1.64.92,3.03,2.23,4.05,3.81,3.43,5.34,1.91,12.48-3.43,15.91-3.83,2.46-8.54,2.38-12.18.17-5.48-2.05-25.79,12.24-45.49,47.41-19.94,35.59-21.34,60.51-16.49,63.68,3.59,1.94,6.04,5.74,6.04,10.1,0,6.34-5.11,11.49-11.45,11.49Z"/>
    <path class="uuid-dbbeaa9b-e8eb-4bc6-8717-554b6498aea2" d="m961.89,2834.87c-.24,0-.48,0-.73-.02h-.08c-1.72-.11-3.39-.61-4.9-1.45-6.36-3.56-13.98-11.34-14.2-28.15-.47-36.47,36.07-101.7,67.42-120.35,14.46-8.59,25.08-6.15,31.44-2.6,1.52.85,2.84,2.05,3.83,3.49,3.61,5.21,2.33,12.4-2.88,16.02-3.85,2.66-8.74,2.67-12.48.41-2.39-.89-8.37,1.42-16.41,8.71-9.61,8.71-20.22,22.81-29.12,38.69-19.94,35.6-21.33,60.52-16.48,63.67,3.81,2.07,6.3,6.21,6.02,10.82-.38,6.09-5.4,10.78-11.42,10.78Z"/>
    <path class="uuid-dbbeaa9b-e8eb-4bc6-8717-554b6498aea2" d="m1255.72,2999.49c-.24,0-.48,0-.73-.02h-.08c-1.72-.11-3.39-.61-4.9-1.45-6.36-3.56-13.99-11.34-14.2-28.16-.47-36.47,36.08-101.7,67.43-120.34,14.45-8.6,25.06-6.16,31.43-2.59,1.52.85,2.84,2.05,3.83,3.48,3.61,5.21,2.33,12.4-2.88,16.02-3.85,2.66-8.73,2.67-12.48.41-1.58-.55-4.58.3-8.15,2.43-24.53,14.59-56.56,71.76-56.2,100.3.05,4.32.93,7.42,2.34,8.34,3.81,2.07,6.29,6.21,6.01,10.81-.38,6.09-5.4,10.78-11.42,10.78Z"/>
    <g class="uuid-46c769ae-29dc-4586-8bda-6baec95c6dc5">
      <path class="uuid-dbbeaa9b-e8eb-4bc6-8717-554b6498aea2" d="m1283.77,2946.88c-5.14.07-10.2-1.05-14.88-3.35-.61-.28-1.21-.57-1.81-.91l-290.19-162.59h-.06s-42.71-23.93-42.71-23.93l-.12-.02c-.22-.1-.38-.24-.59-.4-7.06-4.42-8.84-14.38-7.05-26.92-15.08,29.97-22.19,61.34-7.95,70.26.21.16.37.3.59.4l.12.02,42.71,23.92h.06s290.19,162.6,290.19,162.6c.6.34,1.2.63,1.81.91,4.67,2.3,9.73,3.41,14.88,3.35l141.23-1.88-25.46-42.8-100.77,1.34Z"/>
    </g>
  </g>
</svg>