<?xml version="1.0" encoding="UTF-8"?>
<svg id="uuid-8318ef26-cf3b-42b5-bfa2-b43dc7a5f570" data-name="Layer 1" xmlns="http://www.w3.org/2000/svg" viewBox="0 0 4000 4000">
  <defs>
    <style>
      .uuid-b0c5076e-f859-4a03-ba93-dd613e765d22 {
        fill: #19b5fe;
      }

      .uuid-b0c5076e-f859-4a03-ba93-dd613e765d22, .uuid-fa29ef98-4b54-426c-bc7b-1b171ec8a4b3, .uuid-152bacb3-68c5-40b7-9be6-1f1350a5e364, .uuid-8255948f-b6ac-42c7-8933-261ba1a62fff, .uuid-d06b61f9-c484-40bf-b7d9-0b48d13efde1, .uuid-fe5056fa-1ab9-4d2b-922c-1f0c73d4409a, .uuid-9b46bffb-9bd3-4658-8122-0f618e970b29, .uuid-4186549b-b364-4c4f-9e11-1ce5000bc249, .uuid-3eb9200f-e537-465f-acd1-dbd09493f1ef, .uuid-58947643-cc64-4e31-b193-e20d75bf09c6 {
        stroke-width: 0px;
      }

      .uuid-fa29ef98-4b54-426c-bc7b-1b171ec8a4b3 {
        fill: #6157a4;
      }

      .uuid-152bacb3-68c5-40b7-9be6-1f1350a5e364 {
        fill: none;
      }

      .uuid-8255948f-b6ac-42c7-8933-261ba1a62fff {
        fill: #102770;
      }

      .uuid-d06b61f9-c484-40bf-b7d9-0b48d13efde1 {
        fill: #fff;
      }

      .uuid-a94a4886-ea36-4d1a-a35e-5c6368b5d40f {
        opacity: .3;
      }

      .uuid-fe5056fa-1ab9-4d2b-922c-1f0c73d4409a {
        fill: #61bd79;
      }

      .uuid-85fff701-fc6f-40e4-a6f0-7aa264a04619 {
        opacity: .57;
      }

      .uuid-9b46bffb-9bd3-4658-8122-0f618e970b29 {
        fill: #282e6a;
      }

      .uuid-4186549b-b364-4c4f-9e11-1ce5000bc249 {
        fill: #ff5722;
      }

      .uuid-3eb9200f-e537-465f-acd1-dbd09493f1ef {
        fill: #3edc81;
      }

      .uuid-58947643-cc64-4e31-b193-e20d75bf09c6 {
        fill: #ffca28;
      }
    </style>
  </defs>
  <rect class="uuid-d06b61f9-c484-40bf-b7d9-0b48d13efde1" width="4000" height="4000"/>
  <g>
    <path class="uuid-b0c5076e-f859-4a03-ba93-dd613e765d22" d="m487.96,2241.6c-50.84,0-92.2-41.36-92.2-92.2s41.36-92.2,92.2-92.2,92.2,41.36,92.2,92.2-41.36,92.2-92.2,92.2Zm0-139.41c-26.03,0-47.2,21.18-47.2,47.2s21.18,47.2,47.2,47.2,47.2-21.18,47.2-47.2-21.18-47.2-47.2-47.2Z"/>
    <path class="uuid-3eb9200f-e537-465f-acd1-dbd09493f1ef" d="m3522.04,1813.13c-50.84,0-92.21-41.36-92.21-92.2s41.36-92.2,92.21-92.2,92.2,41.36,92.2,92.2-41.36,92.2-92.2,92.2Zm0-139.41c-26.03,0-47.21,21.18-47.21,47.2s21.18,47.2,47.21,47.2,47.2-21.18,47.2-47.2-21.18-47.2-47.2-47.2Z"/>
    <g>
      <path class="uuid-d06b61f9-c484-40bf-b7d9-0b48d13efde1" d="m2872.4,1312v1223.09c0,26.37-21.43,47.8-47.8,47.8h-756.35c-10.26-38.03-42.55-57.02-74.97-57.02v-1261.67h831.32c26.37,0,47.8,21.43,47.8,47.8Z"/>
      <path class="uuid-d06b61f9-c484-40bf-b7d9-0b48d13efde1" d="m1993.28,1264.22v1261.63c-32.39,0-64.73,19.02-74.99,57.05h-756.33c-26.38,0-47.81-21.43-47.81-47.81v-1223.11c0-26.38,21.43-47.76,47.81-47.76h831.33Z"/>
      <path class="uuid-d06b61f9-c484-40bf-b7d9-0b48d13efde1" d="m1993.28,1264.22v1261.63c-32.39,0-64.73,19.02-74.99,57.05h-756.33c-26.38,0-47.81-21.43-47.81-47.81v-1223.11c0-26.38,21.43-47.76,47.81-47.76h831.33Z"/>
      <path class="uuid-152bacb3-68c5-40b7-9be6-1f1350a5e364" d="m1993.28,1264.2v1261.67c-32.42,0-64.71,18.99-74.97,57.02h-756.35c-26.37,0-47.8-21.43-47.8-47.8v-1223.09c0-26.37,21.43-47.8,47.8-47.8h831.32Z"/>
      <path class="uuid-fe5056fa-1ab9-4d2b-922c-1f0c73d4409a" d="m1993.29,1264.21v1261.65c-22.1,0-44.1,8.8-59.1,26.4-7.1,8.3-12.6,18.5-15.9,30.65h-756.35c-20.25,0-37.6-12.65-44.5-30.5-.45-.95-.8-1.95-1.1-2.95-1.45-4.5-2.2-9.35-2.2-14.35v-1223.1c0-26.4,21.45-47.8,47.8-47.8h831.35Z"/>
      <path class="uuid-3eb9200f-e537-465f-acd1-dbd09493f1ef" d="m2872.39,1312.01v1223.1c0,26.35-21.4,47.8-47.8,47.8h-756.35c-10.25-38.05-42.55-57.05-74.95-57.05v-1261.65h831.3c26.4,0,47.8,21.4,47.8,47.8Z"/>
      <g class="uuid-85fff701-fc6f-40e4-a6f0-7aa264a04619">
        <path class="uuid-d06b61f9-c484-40bf-b7d9-0b48d13efde1" d="m2872.39,1312.01v1223.1c0,23.5-17,43.1-39.4,47.05,2.05-5.3,3.15-11.05,3.15-17.05v-1223.1c0-26.4-21.4-47.8-47.8-47.8h-795.05v-30h831.3c26.4,0,47.8,21.4,47.8,47.8Z"/>
      </g>
      <path class="uuid-152bacb3-68c5-40b7-9be6-1f1350a5e364" d="m2872.4,1312v1223.09c0,26.37-21.43,47.8-47.8,47.8h-756.35c-10.26-38.03-42.55-57.02-74.97-57.02v-1261.67h831.32c26.37,0,47.8,21.43,47.8,47.8Z"/>
      <path class="uuid-152bacb3-68c5-40b7-9be6-1f1350a5e364" d="m1993.28,1264.2v1261.67c-32.42,0-64.71,18.99-74.97,57.02h-756.35c-26.37,0-47.8-21.43-47.8-47.8v-1223.09c0-26.37,21.43-47.8,47.8-47.8h831.32Z"/>
      <path class="uuid-8255948f-b6ac-42c7-8933-261ba1a62fff" d="m1918.31,2597.89h-756.35c-34.63,0-62.8-28.17-62.8-62.8v-1223.09c0-34.63,28.17-62.8,62.8-62.8h831.33c8.28,0,15,6.72,15,15v1261.67c0,8.28-6.72,15-15,15-22.19,0-51.35,12.03-60.49,45.93-1.77,6.55-7.7,11.09-14.48,11.09Zm-756.35-1318.69c-18.09,0-32.8,14.71-32.8,32.8v1223.09c0,18.09,14.71,32.8,32.8,32.8h745.57c12.19-30.43,38.37-51.04,70.76-55.91v-1232.78h-816.33Z"/>
      <path class="uuid-8255948f-b6ac-42c7-8933-261ba1a62fff" d="m2824.6,2597.89h-756.35c-6.78,0-12.72-4.55-14.48-11.09-9.14-33.9-38.3-45.93-60.49-45.93-8.28,0-15-6.72-15-15v-1261.67c0-8.28,6.72-15,15-15h831.32c34.63,0,62.8,28.17,62.8,62.8v1223.09c0,34.63-28.17,62.8-62.8,62.8Zm-745.57-30h745.57c18.09,0,32.8-14.71,32.8-32.8v-1223.09c0-18.09-14.71-32.8-32.8-32.8h-816.32v1232.78c32.38,4.87,58.56,25.49,70.75,55.91Z"/>
      <path class="uuid-d06b61f9-c484-40bf-b7d9-0b48d13efde1" d="m2782.86,2482.31c-263.2-73.85-526.39-73.85-789.59,0v-1241.37c263.2-94.76,526.39-94.76,789.59,0v1241.37Z"/>
      <g class="uuid-a94a4886-ea36-4d1a-a35e-5c6368b5d40f">
        <path class="uuid-8255948f-b6ac-42c7-8933-261ba1a62fff" d="m1993.29,2520.86l-59.1,26.4-.35.15h-816.4c-.45-.95-.8-1.95-1.1-2.95-1.45-4.5-2.2-9.35-2.2-14.35l5.77-1252.45,92.5-9.18,775.53,1174.58,5.35,77.8Z"/>
      </g>
      <g class="uuid-a94a4886-ea36-4d1a-a35e-5c6368b5d40f">
        <path class="uuid-8255948f-b6ac-42c7-8933-261ba1a62fff" d="m2241.94,2364.51h0c0,16.97-12.62,31.27-29.46,33.37-73.07,9.12-146.11,23.94-219.19,44.43v-1171.4c80.25-28.9,160.45-48.95,240.65-60.25,4.1-.6,7.8,2.65,7.8,6.8l.2,1147.05Z"/>
      </g>
      <path class="uuid-8255948f-b6ac-42c7-8933-261ba1a62fff" d="m2782.86,2497.31c-1.35,0-2.72-.18-4.05-.56-259.27-72.75-522.2-72.75-781.48,0-4.52,1.26-9.37.35-13.12-2.49-3.74-2.83-5.94-7.26-5.94-11.95v-1241.37c0-6.33,3.97-11.97,9.92-14.11,258.47-93.06,520.59-95.5,779.07-7.25,18.3,6.25,30.59,23.35,30.59,42.55v1220.19c0,4.69-2.2,9.12-5.94,11.95-2.64,2-5.83,3.05-9.06,3.05Zm-774.58-1245.79v1211.13c252.13-67.3,507.46-67.3,759.58,0v-1200.53c0-6.37-4.13-12.06-10.29-14.16-248.57-84.86-500.62-83.66-749.3,3.56Z"/>
      <path class="uuid-d06b61f9-c484-40bf-b7d9-0b48d13efde1" d="m1203.69,2482.31c263.2-73.85,526.39-73.85,789.59,0v-1241.37c-263.2-94.76-526.39-94.76-789.59,0v1241.37Z"/>
      <path class="uuid-8255948f-b6ac-42c7-8933-261ba1a62fff" d="m1993.28,2497.31c-1.36,0-2.72-.18-4.05-.56-259.28-72.75-522.21-72.75-781.48,0-4.52,1.26-9.37.35-13.12-2.49-3.74-2.83-5.94-7.26-5.94-11.95v-1220.19c0-19.2,12.29-36.3,30.59-42.55,258.49-88.25,520.62-85.81,779.08,7.25,5.95,2.14,9.92,7.79,9.92,14.11v1241.37c0,4.69-2.2,9.12-5.94,11.95-2.64,2-5.83,3.05-9.06,3.05Zm-394.79-85.13c126.87,0,253.73,16.83,379.79,50.48v-1211.13c-248.68-87.21-500.72-88.43-749.3-3.56-6.15,2.1-10.28,7.79-10.28,14.16v1200.53c126.06-33.65,252.93-50.48,379.79-50.48Z"/>
      <g>
        <path class="uuid-8255948f-b6ac-42c7-8933-261ba1a62fff" d="m2109.08,1456.27c-5.58,0-10.66-3.76-12.1-9.42-1.7-6.69,2.34-13.49,9.03-15.2,72.84-18.53,146.72-30.01,219.58-34.12,6.87-.35,12.79,4.88,13.18,11.78.39,6.89-4.89,12.8-11.78,13.18-71.26,4.02-143.54,15.25-214.82,33.38-1.03.26-2.07.39-3.09.39Z"/>
        <path class="uuid-8255948f-b6ac-42c7-8933-261ba1a62fff" d="m2108.92,1579.61c-5.58,0-10.66-3.76-12.1-9.42-1.7-6.69,2.34-13.49,9.03-15.2,172.78-43.99,348.01-47.43,520.82-10.25,6.75,1.45,11.04,8.1,9.59,14.85-1.45,6.75-8.1,11.05-14.85,9.59-169-36.36-340.38-32.98-509.39,10.04-1.04.26-2.07.39-3.09.39Z"/>
        <path class="uuid-8255948f-b6ac-42c7-8933-261ba1a62fff" d="m2108.92,1673.49c-5.58,0-10.66-3.76-12.1-9.42-1.7-6.69,2.34-13.49,9.03-15.2,172.78-43.98,348.01-47.44,520.82-10.25,6.75,1.45,11.04,8.1,9.59,14.85-1.45,6.75-8.1,11.06-14.85,9.59-169-36.36-340.38-32.98-509.39,10.04-1.04.26-2.07.39-3.09.39Z"/>
        <path class="uuid-8255948f-b6ac-42c7-8933-261ba1a62fff" d="m2108.92,1767.36c-5.58,0-10.66-3.76-12.1-9.42-1.7-6.69,2.34-13.49,9.03-15.2,172.78-43.99,348.01-47.44,520.82-10.25,6.75,1.45,11.04,8.1,9.59,14.85-1.45,6.75-8.1,11.05-14.85,9.59-169-36.36-340.38-32.99-509.39,10.04-1.04.26-2.07.39-3.09.39Z"/>
        <path class="uuid-8255948f-b6ac-42c7-8933-261ba1a62fff" d="m2108.92,1953.81c-5.58,0-10.66-3.76-12.1-9.42-1.7-6.69,2.34-13.49,9.03-15.2,89.1-22.68,179.48-34.74,268.61-35.84,6.99-.01,12.57,5.44,12.65,12.35.08,6.9-5.44,12.57-12.35,12.65-87.16,1.07-175.56,12.87-262.75,35.06-1.03.26-2.07.39-3.09.39Z"/>
        <path class="uuid-8255948f-b6ac-42c7-8933-261ba1a62fff" d="m2108.92,2054.21c-5.58,0-10.66-3.76-12.1-9.42-1.7-6.69,2.34-13.49,9.03-15.2,89.1-22.68,179.48-34.74,268.61-35.83,6.99-.1,12.57,5.44,12.65,12.35.08,6.9-5.44,12.57-12.35,12.65-87.16,1.07-175.56,12.87-262.75,35.06-1.04.26-2.07.39-3.09.39Z"/>
        <path class="uuid-8255948f-b6ac-42c7-8933-261ba1a62fff" d="m1872.16,2054.21c-1.02,0-2.06-.12-3.09-.39-87.19-22.19-175.6-33.99-262.75-35.06-6.9-.09-12.43-5.75-12.35-12.65.09-6.85,5.67-12.35,12.5-12.35h.16c89.13,1.1,179.51,13.15,268.61,35.83,6.69,1.7,10.73,8.51,9.03,15.2-1.44,5.66-6.53,9.42-12.1,9.42Z"/>
        <path class="uuid-8255948f-b6ac-42c7-8933-261ba1a62fff" d="m1872.16,2154.62c-1.02,0-2.06-.12-3.09-.39-87.19-22.2-175.59-33.99-262.75-35.06-6.9-.09-12.43-5.75-12.35-12.65.09-6.85,5.66-12.35,12.5-12.35h.16c89.13,1.09,179.51,13.15,268.61,35.84,6.69,1.7,10.73,8.51,9.03,15.2-1.44,5.66-6.53,9.42-12.1,9.42Z"/>
      </g>
      <g class="uuid-a94a4886-ea36-4d1a-a35e-5c6368b5d40f">
        <path class="uuid-8255948f-b6ac-42c7-8933-261ba1a62fff" d="m2777.59,2492.26l-2.65,1.65-97.05,57.9h-630.9s.65,1.9,1.8,5.2l-21.8-28.95-30-11.25v-34.5l42.95.55c228.05-66.95,494.05-66.7,737.65,9.4Z"/>
      </g>
      <g class="uuid-a94a4886-ea36-4d1a-a35e-5c6368b5d40f">
        <path class="uuid-9b46bffb-9bd3-4658-8122-0f618e970b29" d="m2782.84,2493.91h-7.9l2.7-1.65c1.75.55,3.45,1.1,5.2,1.65Z"/>
      </g>
      <g class="uuid-a94a4886-ea36-4d1a-a35e-5c6368b5d40f">
        <path class="uuid-8255948f-b6ac-42c7-8933-261ba1a62fff" d="m1739.31,2364.51h0c0,16.97,12.62,31.27,29.46,33.37,73.07,9.12,146.11,23.94,219.19,44.43v-1171.4c-80.25-28.9-160.45-48.95-240.65-60.25-4.1-.6-7.8,2.65-7.8,6.8l-.2,1147.05Z"/>
      </g>
      <g class="uuid-a94a4886-ea36-4d1a-a35e-5c6368b5d40f">
        <path class="uuid-8255948f-b6ac-42c7-8933-261ba1a62fff" d="m1323.79,1262.97v1130.5c0,11.09-7.85,20.57-18.71,22.8-35.17,7.23-70.38,15.79-105.59,25.68v-1171.4c31.66-11.38,63.3-21.42,94.95-30.08,14.78-4.04,29.35,7.16,29.35,22.49Z"/>
      </g>
    </g>
    <g>
      <path class="uuid-fa29ef98-4b54-426c-bc7b-1b171ec8a4b3" d="m3173.59,2827.26c-261.35,111.15-508.4,101.2-774.15-1.5-25.5-9.85-41.65-35.15-40.35-62.5l10.55-139.6,1-13.25,4.25-56.4,5.65-74.5,5.75-76.5h794.55l6.8,77.45,6.35,72.65,4.9,56.15,1.6,18.5,12,136.8c1.65,27-13.95,52.1-38.9,62.7Z"/>
      <g class="uuid-85fff701-fc6f-40e4-a6f0-7aa264a04619">
        <path class="uuid-d06b61f9-c484-40bf-b7d9-0b48d13efde1" d="m3173.59,2837.26c-261.35,111.15-508.4,101.2-774.15-1.5-4.95-1.9-9.55-4.4-13.7-7.4,256.4,93.95,496.25,94.95,749.5-12.75,24.95-10.6,40.55-35.7,38.9-62.7l-12-131.8-1.6-18.5-4.9-56.15-6.35-72.65-5.35-60.8h36.9l6.8,77.45,6.35,72.65,4.9,56.15,1.6,18.5,12,136.8c1.65,27-13.95,52.1-38.9,62.7Z"/>
      </g>
      <g class="uuid-a94a4886-ea36-4d1a-a35e-5c6368b5d40f">
        <path class="uuid-8255948f-b6ac-42c7-8933-261ba1a62fff" d="m3189.84,2505.56h-15.2l-64.55,72.5-313.05,93.2c-9.25,2.75-19.15,2.75-28.4,0l-99.53-29.63c-18.6-5.54-37.55,7.52-39.01,26.86l-7.16,94.77c-1.3,27.35,14.85,52.65,40.35,62.5,90.35,34.9,178.5,59.1,265.8,71.45-174.85,25.65-347.85-1.2-529.65-71.45-25.5-9.85-41.65-35.15-40.35-62.5l10.55-139.6,1-13.25,4.25-56.4,5.65-74.5,5.75-76.5,8.9-117.7h263.85l-8.9,117.7h530.7l6.8,77.45,2.2,25.1Z"/>
      </g>
      <path class="uuid-8255948f-b6ac-42c7-8933-261ba1a62fff" d="m2798.72,2921.77c-129.87,0-263.2-27.34-404.67-82.02-31.51-12.18-51.57-43.2-49.91-77.19l36.1-478.36c.59-7.82,7.11-13.87,14.96-13.87h775.34c7.78,0,14.27,5.94,14.94,13.69l41.98,479.22c2.06,33.63-17.24,64.75-47.99,77.83h0c-126.51,53.8-251.93,80.71-380.75,80.71Zm-389.61-621.45l-35.03,464.09c-1,20.66,11.36,39.85,30.78,47.35,274.07,105.94,516.47,106.47,762.87,1.69,19.09-8.12,31.07-27.41,29.81-48l-40.75-465.13h-747.69Zm764.49,526.94h.05-.05Z"/>
      <polygon class="uuid-fa29ef98-4b54-426c-bc7b-1b171ec8a4b3" points="3378.69 2349.74 3378.69 2444.82 2782.86 2622.16 2187.03 2444.82 2187.03 2349.74 3378.69 2349.74"/>
      <g class="uuid-85fff701-fc6f-40e4-a6f0-7aa264a04619">
        <polygon class="uuid-d06b61f9-c484-40bf-b7d9-0b48d13efde1" points="3378.69 2349.71 3378.69 2444.81 3339.94 2456.36 3339.94 2349.71 3378.69 2349.71"/>
      </g>
      <g class="uuid-a94a4886-ea36-4d1a-a35e-5c6368b5d40f">
        <path class="uuid-8255948f-b6ac-42c7-8933-261ba1a62fff" d="m2782.84,2527.01v87.8l4.65,5.95-4.65,1.4-595.8-177.35v-95.1h756.6c-188.5,120.4-160.8,177.3-160.8,177.3Z"/>
      </g>
      <path class="uuid-8255948f-b6ac-42c7-8933-261ba1a62fff" d="m2782.86,2637.16c-1.44,0-2.88-.21-4.28-.62l-595.83-177.34c-6.36-1.89-10.72-7.74-10.72-14.38v-95.08c0-8.28,6.72-15,15-15h1191.66c8.28,0,15,6.72,15,15v95.08c0,6.64-4.36,12.48-10.72,14.38l-595.83,177.34c-1.4.42-2.84.62-4.28.62Zm-580.83-203.53l580.83,172.88,580.83-172.88v-68.9h-1161.66v68.9Z"/>
      <polygon class="uuid-fa29ef98-4b54-426c-bc7b-1b171ec8a4b3" points="3378.67 2349.71 2782.85 2527.02 2187.04 2349.71 2782.85 2114.87 3378.67 2349.71"/>
      <path class="uuid-fa29ef98-4b54-426c-bc7b-1b171ec8a4b3" d="m2766.09,2522.01l-579.05-172.3,403.3-159c-165,123.15-65.95,231.25,175.75,331.3Z"/>
      <g class="uuid-85fff701-fc6f-40e4-a6f0-7aa264a04619">
        <path class="uuid-d06b61f9-c484-40bf-b7d9-0b48d13efde1" d="m3378.69,2349.71l-595.85,177.3-62.2-18.5,511.09-152.09c17.04-5.07,18.07-28.82,1.52-35.34l-486.81-191.87,36.4-14.35,595.85,234.85Z"/>
      </g>
      <path class="uuid-8255948f-b6ac-42c7-8933-261ba1a62fff" d="m2782.86,2539.95c-6.02,0-12.04-.87-17.9-2.61l-582.2-173.25c-6.13-1.83-10.43-7.34-10.71-13.73-.28-6.39,3.53-12.26,9.48-14.6l578.32-227.94c14.83-5.84,31.17-5.84,46,0l578.32,227.94c5.95,2.35,9.76,8.21,9.48,14.6-.28,6.39-4.58,11.9-10.71,13.73l-582.2,173.25c-5.85,1.74-11.87,2.61-17.89,2.61Zm-549.89-192.22l540.55,160.86c6.11,1.82,12.57,1.82,18.67,0l540.55-160.86-537.88-212c-7.74-3.04-16.26-3.05-24,0l-537.88,212Z"/>
      <ellipse class="uuid-8255948f-b6ac-42c7-8933-261ba1a62fff" cx="2782.85" cy="2299.08" rx="74.48" ry="32.7"/>
      <path class="uuid-8255948f-b6ac-42c7-8933-261ba1a62fff" d="m2451.01,2921.77c-8.28,0-15-6.72-15-15v-478.51c0-6.18,3.8-11.74,9.56-13.98l331.84-129.18c7.71-3,16.42.82,19.42,8.54,3.01,7.72-.82,16.42-8.54,19.42l-322.29,125.45v468.25c0,8.28-6.72,15-15,15Z"/>
      <path class="uuid-8255948f-b6ac-42c7-8933-261ba1a62fff" d="m2481.83,3031.35h-59.17c-14.52,0-25.46-13.22-22.74-27.48l16.71-87.71c2.08-10.92,11.63-18.82,22.74-18.82h21.58c10.72,0,20.04,7.36,22.52,17.79l20.88,87.71c3.46,14.55-7.57,28.51-22.52,28.51Z"/>
      <g class="uuid-a94a4886-ea36-4d1a-a35e-5c6368b5d40f">
        <path class="uuid-8255948f-b6ac-42c7-8933-261ba1a62fff" d="m2766.09,2522.01l-579.05-172.3,403.3-159c-165,123.15-65.95,231.25,175.75,331.3Z"/>
      </g>
    </g>
    <g>
      <polygon class="uuid-4186549b-b364-4c4f-9e11-1ce5000bc249" points="1585.32 1239.15 1631.84 1467.67 1516.77 1491.12 1470.21 1262.56 1536.07 1299.98 1585.32 1239.15"/>
      <g class="uuid-85fff701-fc6f-40e4-a6f0-7aa264a04619">
        <polygon class="uuid-d06b61f9-c484-40bf-b7d9-0b48d13efde1" points="1546.3 1343.73 1480.45 1306.33 1518.05 1490.88 1516.75 1491.13 1470.2 1262.58 1536.1 1299.98 1585.3 1239.13 1594.5 1284.18 1546.3 1343.73"/>
      </g>
      <polygon class="uuid-4186549b-b364-4c4f-9e11-1ce5000bc249" points="1561.25 1446.38 1505.11 1549.56 1300.25 1438.01 1375.47 1409.13 1356.42 1334.87 1561.25 1446.38"/>
      <g class="uuid-85fff701-fc6f-40e4-a6f0-7aa264a04619">
        <polygon class="uuid-d06b61f9-c484-40bf-b7d9-0b48d13efde1" points="1560.7 1447.43 1387.65 1353.23 1406.7 1427.53 1332.95 1455.83 1300.25 1438.03 1375.45 1409.13 1356.4 1334.88 1561.25 1446.38 1560.7 1447.43"/>
      </g>
      <path class="uuid-8255948f-b6ac-42c7-8933-261ba1a62fff" d="m1516.77,1506.12c-2.92,0-5.8-.85-8.28-2.49-3.32-2.19-5.63-5.62-6.42-9.52l-46.56-228.56c-1.17-5.76,1.13-11.68,5.89-15.13,4.76-3.45,11.1-3.81,16.22-.9l54.8,31.13,41.24-50.94c3.65-4.51,9.59-6.52,15.22-5.13,5.64,1.38,9.98,5.89,11.14,11.58l46.53,228.52c1.65,8.12-3.59,16.04-11.7,17.69l-115.08,23.45c-.99.2-2,.3-3,.3Zm-25.27-214.22l36.98,181.53,85.68-17.46-37.19-182.66-29.23,36.11c-4.62,5.71-12.69,7.23-19.07,3.6l-37.17-21.12Z"/>
      <path class="uuid-8255948f-b6ac-42c7-8933-261ba1a62fff" d="m1505.11,1564.56c-2.48,0-4.95-.62-7.17-1.83l-204.86-111.55c-5.14-2.8-8.18-8.33-7.8-14.16.39-5.84,4.13-10.92,9.59-13.02l62.75-24.09-15.73-61.32c-1.48-5.78.6-11.89,5.31-15.56,4.71-3.67,11.15-4.19,16.39-1.34l204.83,111.5c7.27,3.96,9.96,13.07,6,20.34l-56.14,103.18c-1.9,3.5-5.11,6.09-8.93,7.22-1.39.41-2.82.61-4.25.61Zm-169.16-124.18l163.15,88.84,41.8-76.83-161.39-87.86,10.49,40.88c1.89,7.38-2.04,15-9.15,17.73l-44.89,17.24Z"/>
      <path class="uuid-d06b61f9-c484-40bf-b7d9-0b48d13efde1" d="m966.27,1859.39s-36.35-64.55-39.86-183.15c410.76-102.2,745.21-327.92,984.53-707.59l29.31,70.69-482.49,576.02-491.48,244.03Z"/>
      <g class="uuid-a94a4886-ea36-4d1a-a35e-5c6368b5d40f">
        <path class="uuid-8255948f-b6ac-42c7-8933-261ba1a62fff" d="m1915.9,1068.43l-458.15,546.95-491.45,244s-36.35-64.55-39.9-183.15c394.55-98.15,718.6-310.25,955.65-663.2,10.5,17.45,23.1,37.95,33.85,55.4Z"/>
      </g>
      <path class="uuid-8255948f-b6ac-42c7-8933-261ba1a62fff" d="m966.28,1874.39c-5.25,0-10.34-2.77-13.08-7.64-1.56-2.77-38.2-69.17-41.78-190.06-.21-7.05,4.52-13.3,11.37-15,419.91-104.48,748.1-340.34,975.46-701.04,2.99-4.74,8.35-7.45,13.96-6.95,5.59.47,10.44,4.02,12.59,9.2l29.31,70.7c2.14,5.16,1.23,11.09-2.36,15.38l-482.49,576.02c-1.33,1.59-2.97,2.88-4.83,3.8l-491.48,244.03c-2.14,1.06-4.41,1.57-6.66,1.57Zm-24.4-186.58c3.86,76.84,21.87,128.69,31.45,151.33l474.94-235.81,474.63-566.64-14.84-35.78c-115.22,176.55-255.21,323.75-416.44,437.84-159.39,112.79-344.3,196.56-549.75,249.07Z"/>
      <path class="uuid-d06b61f9-c484-40bf-b7d9-0b48d13efde1" d="m1157.29,1835.76c58.08,78.57,72.48,166.47,32.14,196.29-40.38,29.85-120.19-9.7-178.28-88.27-58.08-78.57-72.48-166.47-32.1-196.32,26.64-19.7,70.57-9.11,114.05,23.04,22.32,16.48,44.52,38.65,64.19,65.26Z"/>
      <g class="uuid-a94a4886-ea36-4d1a-a35e-5c6368b5d40f">
        <path class="uuid-8255948f-b6ac-42c7-8933-261ba1a62fff" d="m1201.25,2019.53h-.05c-42.7,16.75-114-22.5-167.15-94.4-51.35-69.5-68.55-146.35-43.85-183.8,26.85-10.45,65.05,1.15,102.9,29.2,22.35,16.45,44.55,38.65,64.2,65.25,51.4,69.5,68.55,146.3,43.95,183.75Z"/>
      </g>
      <path class="uuid-9b46bffb-9bd3-4658-8122-0f618e970b29" d="m1156.72,2057.06c-17.1,0-36.21-5.02-56.44-15.03-35.76-17.71-71.7-49.43-101.18-89.32-29.48-39.89-49.27-83.54-55.72-122.93-7.02-42.91,2.48-76.43,26.76-94.38,31.54-23.32,80.84-14.7,131.88,23.04,24.13,17.81,47.42,41.47,67.33,68.4h0c29.48,39.88,49.27,83.54,55.72,122.92,7.03,42.91-2.46,76.42-26.72,94.35-11.67,8.63-25.79,12.94-41.64,12.94Zm-145.01-304.42c-9.36,0-17.45,2.25-23.73,6.89-14.56,10.77-20.02,34.61-14.99,65.41,5.69,34.77,23.53,73.81,50.23,109.94,26.7,36.13,58.8,64.63,90.37,80.27,27.97,13.85,52.36,15.62,66.93,4.85,14.54-10.75,19.99-34.58,14.95-65.38-5.7-34.77-23.54-73.81-50.24-109.94h0c-18.16-24.56-39.26-46.04-61.03-62.11-26.41-19.53-52.38-29.94-72.5-29.94Z"/>
      <g>
        <path class="uuid-d06b61f9-c484-40bf-b7d9-0b48d13efde1" d="m1189.44,2032.05c3.01-2.92,6.01-5.85,9.01-8.7-2.62,3.27-5.62,6.2-9.01,8.7Z"/>
        <path class="uuid-9b46bffb-9bd3-4658-8122-0f618e970b29" d="m1189.44,2047.05c-4.26,0-8.49-1.81-11.44-5.29-5.11-6.02-4.68-14.96.98-20.46,3.04-2.96,6.09-5.92,9.12-8.81,5.72-5.44,14.67-5.52,20.48-.19,5.81,5.33,6.5,14.26,1.57,20.42-3.46,4.32-7.43,8.15-11.8,11.38-2.68,1.98-5.8,2.94-8.91,2.94Z"/>
      </g>
      <g>
        <path class="uuid-d06b61f9-c484-40bf-b7d9-0b48d13efde1" d="m979.06,1747.46c3.67-2.71,7.7-4.86,12.01-6.45-3.95,2.16-7.98,4.3-12.01,6.45Z"/>
        <path class="uuid-9b46bffb-9bd3-4658-8122-0f618e970b29" d="m979.07,1762.47c-4.99,0-9.85-2.5-12.69-6.99-4.2-6.64-2.56-15.4,3.76-20.07,4.75-3.52,10.05-6.37,15.73-8.46,7.37-2.72,15.6.7,18.85,7.86,3.25,7.15.43,15.61-6.47,19.38-3.81,2.08-7.7,4.15-11.58,6.23l-.55.29c-2.24,1.2-4.66,1.77-7.05,1.77Z"/>
      </g>
      <path class="uuid-d06b61f9-c484-40bf-b7d9-0b48d13efde1" d="m1208.31,2004.34c-62.94,5.98-170.01-80.61-189.1-184.08l82.25-43.31c71.64,53.92,107.32,129.68,106.85,227.39Z"/>
      <g class="uuid-a94a4886-ea36-4d1a-a35e-5c6368b5d40f">
        <path class="uuid-8255948f-b6ac-42c7-8933-261ba1a62fff" d="m1207.85,1983.88c-61.85-14.3-143.55-89.4-161.95-177.7l55.55-29.25c66.55,50.15,102.1,119.05,106.4,206.95Z"/>
      </g>
      <path class="uuid-d06b61f9-c484-40bf-b7d9-0b48d13efde1" d="m2158.1,1315.98c-85.05,43.1-171.3,92.7-257.35,147.3-159.35,101.2-318.05,219.6-467.35,346.35-55.65,47.2-109.95,95.6-162.5,144.7-24.3,22.65-48.4,45.65-72.45,69.05,28.6-35.8,12.05-115.65-41.15-187.6-19.65-26.6-41.85-48.8-64.2-65.25-37.45-27.7-75.25-39.45-102.05-29.5,92.05-49.15,183.35-102.1,272.4-158.25,160.7-101.2,314.25-212.75,452.45-330.9,83.5-71.35,161.4-145.15,231.85-220.5,38.4-28.4,112.65,6.1,169.8,77.3,2.85,3.55,5.7,7.2,8.45,10.95,58.1,78.6,72.45,166.55,32.1,196.35Z"/>
      <g class="uuid-a94a4886-ea36-4d1a-a35e-5c6368b5d40f">
        <path class="uuid-8255948f-b6ac-42c7-8933-261ba1a62fff" d="m2126,1119.63c-1.8-2.45-3.6-4.8-5.45-7.15,32.1,63.65,34.8,124.65,2.55,148.5-85.05,43.1-171.3,92.7-257.35,147.3-5.61,3.56-11.22,7.15-16.82,10.75-33.22,21.36-77.85,12.43-99.54-20.58-22.9-34.84-34.07-83.69-33.48-146.57-138.2,118.15-291.75,229.7-452.45,330.9,78.2,18.59,125.15,52.5,149.71,97.4,13.58,24.82,7.12,55.88-14.44,74.18l-.32.27c-55.65,47.2-109.95,95.6-162.5,144.7-10.4,9.7-20.75,19.45-31.05,29.3,11.55,39.5,9.95,74.3-6.4,94.75,24.05-23.4,48.15-46.4,72.45-69.05,52.55-49.1,106.85-97.5,162.5-144.7,149.3-126.75,308-245.15,467.35-346.35,86.05-54.6,172.3-104.2,257.35-147.3,40.35-29.8,26-117.75-32.1-196.35Z"/>
      </g>
      <path class="uuid-8255948f-b6ac-42c7-8933-261ba1a62fff" d="m1198.44,2038.36c-3.61,0-7.21-1.29-10.08-3.89-5.87-5.32-6.58-14.29-1.63-20.48,21.37-26.71,11.69-97.35-41.5-169.31-18.16-24.56-39.26-46.04-61.03-62.11-33.88-25.06-66.75-35.34-87.93-27.49-7.38,2.74-15.65-.72-18.89-7.91-3.23-7.19-.34-15.67,6.62-19.38,376.2-200.92,714.58-451.88,952.79-706.65.62-.67,1.31-1.27,2.04-1.82,45.19-33.41,127.06.98,190.41,79.99,2.97,3.66,5.93,7.49,8.84,11.42h0c29.48,39.88,49.26,83.54,55.7,122.94,7.01,42.92-2.49,76.43-26.75,94.36-.67.5-1.38.94-2.13,1.31-286.33,145.26-600.19,371.1-883.79,635.92-24.05,22.46-48.34,45.62-72.22,68.84-2.91,2.83-6.68,4.25-10.46,4.25Zm-152.6-309.98c18.01,5.81,37.07,15.92,56.18,30.06,24.13,17.81,47.42,41.47,67.33,68.4,37.25,50.39,57.52,104.69,57.85,148.02,11.15-10.62,22.32-21.14,33.44-31.53,285.2-266.32,601.01-493.6,889.45-640.12,13.88-11.06,19-34.54,14.07-64.71-5.69-34.78-23.52-73.83-50.22-109.95h0c-2.64-3.57-5.33-7.05-8.07-10.42-50.83-63.39-116.87-96.83-148.22-75.42-230.19,245.89-552.48,488.04-911.83,685.66Zm1112.28-412.41h.05-.05Z"/>
      <path class="uuid-4186549b-b364-4c4f-9e11-1ce5000bc249" d="m1740.3,1570.53l-138.83,102.63c-40.36-79.52-92.63-150.23-156.82-212.13l138.83-102.63c71.72,61.39,125.99,131.14,156.82,212.13Z"/>
      <g class="uuid-85fff701-fc6f-40e4-a6f0-7aa264a04619">
        <path class="uuid-d06b61f9-c484-40bf-b7d9-0b48d13efde1" d="m1575.4,1625.88c10.05,14.75,19.6,29.9,28.6,45.4l-2.55,1.9c-8.2-16.15-16.85-31.9-26.05-47.3Z"/>
      </g>
      <g class="uuid-85fff701-fc6f-40e4-a6f0-7aa264a04619">
        <path class="uuid-d06b61f9-c484-40bf-b7d9-0b48d13efde1" d="m1711.35,1509.08c-28.05-39.75-62.5-76.4-102.3-110.5l-130.9,96.75c-10.75-11.75-21.95-23.15-33.5-34.3l138.85-102.65c52.9,45.3,96.35,95.15,127.85,150.7Z"/>
      </g>
      <g class="uuid-85fff701-fc6f-40e4-a6f0-7aa264a04619">
        <path class="uuid-d06b61f9-c484-40bf-b7d9-0b48d13efde1" d="m1575.4,1625.88c-30.5-44.9-65.6-86.45-105.2-124.65l7.95-5.9c36.95,40.15,69.4,83.65,97.25,130.55Z"/>
      </g>
      <g class="uuid-a94a4886-ea36-4d1a-a35e-5c6368b5d40f">
        <path class="uuid-8255948f-b6ac-42c7-8933-261ba1a62fff" d="m1740.3,1570.53l-138.85,102.65c-10.95-21.55-22.75-42.5-35.5-62.75l132.9-98.25c-9.7-25.55-21.8-50-36.05-73.4,33.15,40.4,59.4,84.15,77.5,131.75Z"/>
      </g>
      <path class="uuid-8255948f-b6ac-42c7-8933-261ba1a62fff" d="m1601.47,1688.15c-1.15,0-2.31-.13-3.45-.4-4.3-1.02-7.92-3.87-9.92-7.81-39.41-77.65-91.17-147.67-153.85-208.13-3.18-3.06-4.84-7.37-4.56-11.77s2.5-8.46,6.05-11.08l138.83-102.63c5.62-4.15,13.36-3.88,18.67.67,77.89,66.66,130.58,138.03,161.08,218.2,2.39,6.29.31,13.4-5.1,17.4l-138.83,102.63c-2.61,1.93-5.74,2.94-8.92,2.94Zm-133.79-225.5c55.3,55.7,101.95,118.81,138.98,188.01l115.45-85.34c-27.97-68.05-73.72-129.65-139.39-187.71l-115.04,85.05Z"/>
      <path class="uuid-9b46bffb-9bd3-4658-8122-0f618e970b29" d="m1202.04,2019.63c-72.56,0-178.13-91.2-197.58-196.66-1.19-6.46,1.95-12.93,7.76-15.99l82.25-43.31c7.34-3.86,16.4-1.05,20.26,6.28,3.86,7.33,1.05,16.4-6.28,20.26l-72.17,38c23.26,93.47,120.21,165.97,170.61,161.19,8.26-.81,15.57,5.27,16.35,13.51.78,8.25-5.27,15.57-13.51,16.35-2.51.24-5.08.36-7.69.36Z"/>
    </g>
    <path class="uuid-b0c5076e-f859-4a03-ba93-dd613e765d22" d="m857.79,1414.31h-.05c-.85-.1-1.6.1-2.15.6-.05.05-.1.05-.15.15l-39.6,12.65c-8,2.55-16.25-3.15-16.75-11.55-.75-13.45-3.25-27.35-15.85-41.95-31.65-36.8-60.45-12-92.15-48.75-31.65-36.8-2.85-61.6-34.5-98.35-8.18-9.49-16.16-14.88-24.05-18.29-9.93-4.3-13.34-16.62-6.77-25.22l21.05-27.56c3.87-5.06,10.31-7.47,16.53-6.11,17.42,3.81,34.72,4.6,52.9,25.73,31.65,36.8,2.85,61.6,34.5,98.4,31.7,36.8,60.5,11.95,92.2,48.75,25.9,30.1,14.3,47.45,23.2,75.5,2.1,6.7-1.65,13.85-8.35,16Z"/>
    <path class="uuid-58947643-cc64-4e31-b193-e20d75bf09c6" d="m552.57,2773.44l-6.55-35.49c-1.78-9.66,3.59-19.42,12.91-22.52,3.37-1.12,6.86-2.61,10.47-4.53,42.86-22.75,25.03-56.34,67.89-79.1,42.83-22.82,60.71,10.79,103.52-11.98,26.02-13.8,29.67-31.56,38.09-48.51,9.09-18.24,35.19-18.12,44.02.25l10.87,22.73c4.58,9.44,2.54,20.71-4.94,28.04-21.77,21.47-15.32,48.01-51.05,66.99-42.83,22.82-60.71-10.79-103.52,11.98-42.92,22.78-25.05,56.39-67.91,79.14-13.9,7.4-24.56,9.48-34.18,9.45-9.64-.03-17.88-6.98-19.63-16.46Z"/>
    <path class="uuid-4186549b-b364-4c4f-9e11-1ce5000bc249" d="m3531.9,1169.93l-2.1,36.03c-.57,9.8-8.12,18-17.91,18.79-3.54.29-7.28.9-11.25,1.9-47.05,11.88-37.74,48.75-84.79,60.62-47.04,11.95-56.38-24.96-103.39-13.05-28.56,7.2-36.34,23.58-48.56,38.03-13.18,15.55-38.49,9.2-42.69-10.74l-5.13-24.67c-2.19-10.26,2.48-20.72,11.49-26.06,26.26-15.66,26.33-42.97,65.55-52.88,47.04-11.95,56.38,24.96,103.39,13.05,47.12-11.89,37.78-48.79,84.82-60.66,15.27-3.87,26.11-3.35,35.45-1.02,9.36,2.33,15.7,11.04,15.13,20.67Z"/>
    <circle class="uuid-b0c5076e-f859-4a03-ba93-dd613e765d22" cx="692.03" cy="1835.59" r="29.97"/>
    <circle class="uuid-4186549b-b364-4c4f-9e11-1ce5000bc249" cx="3122.41" cy="1608.94" r="21.02"/>
    <circle class="uuid-4186549b-b364-4c4f-9e11-1ce5000bc249" cx="801.21" cy="2235.12" r="21.02"/>
    <circle class="uuid-b0c5076e-f859-4a03-ba93-dd613e765d22" cx="3290.54" cy="1968.01" r="40.07"/>
  </g>
</svg>