<?xml version="1.0" encoding="UTF-8"?>
<svg id="uuid-164c403b-40dd-4af4-86ec-3369ddc1f27a" data-name="Layer 1" xmlns="http://www.w3.org/2000/svg" viewBox="0 0 4000 4000">
  <defs>
    <style>
      .uuid-c1e9e501-c009-464a-97fb-9692c70f28c7 {
        fill: #f9b060;
      }

      .uuid-c1e9e501-c009-464a-97fb-9692c70f28c7, .uuid-401c3772-4945-42f6-8c6d-676c0eda59a6, .uuid-1eb299b1-dac0-42eb-9779-8402b3f8e667, .uuid-b0abe038-776f-4153-b645-b86e330a9bd8, .uuid-641b5de5-e32a-4b7f-8db5-4d856fe67737, .uuid-dbbbf307-f88a-4608-8edf-d722c29fd91d, .uuid-57209792-14a2-4e51-9022-3b8ffb7cd238, .uuid-7bb615e7-e05c-4e2a-b5c6-3a0853ed6d4e, .uuid-62be8d36-13c4-4a4f-97ec-86b4d2ac78e6, .uuid-62117d6e-11e4-4b89-89c2-e44a683c6f89, .uuid-48cf2d56-ac47-448c-a555-50a06f1a1491 {
        stroke-width: 0px;
      }

      .uuid-401c3772-4945-42f6-8c6d-676c0eda59a6 {
        fill: #19b5fe;
      }

      .uuid-1eb299b1-dac0-42eb-9779-8402b3f8e667 {
        fill: #6157a4;
      }

      .uuid-ec5ba922-a576-47ef-8e70-05ba94527a23 {
        opacity: .22;
      }

      .uuid-b0abe038-776f-4153-b645-b86e330a9bd8 {
        fill: #f05828;
      }

      .uuid-641b5de5-e32a-4b7f-8db5-4d856fe67737 {
        fill: #102770;
      }

      .uuid-dbbbf307-f88a-4608-8edf-d722c29fd91d {
        fill: #fff;
      }

      .uuid-77deab76-9388-4223-9ef1-4edc678429b5 {
        opacity: .3;
      }

      .uuid-38e4d454-ea1e-41b4-a89a-b8cfebf67f2d {
        opacity: .57;
      }

      .uuid-57209792-14a2-4e51-9022-3b8ffb7cd238 {
        fill: #282e6a;
      }

      .uuid-7bb615e7-e05c-4e2a-b5c6-3a0853ed6d4e {
        fill: #0cae97;
      }

      .uuid-43b0cb2e-af70-40aa-9b9b-79e7f28e3aab {
        opacity: .25;
      }

      .uuid-62be8d36-13c4-4a4f-97ec-86b4d2ac78e6 {
        fill: #ff5722;
      }

      .uuid-62117d6e-11e4-4b89-89c2-e44a683c6f89 {
        fill: #3edc81;
      }

      .uuid-48cf2d56-ac47-448c-a555-50a06f1a1491 {
        fill: #ffca28;
      }
    </style>
  </defs>
  <rect class="uuid-dbbbf307-f88a-4608-8edf-d722c29fd91d" width="4000" height="4000"/>
  <g>
    <g>
      <path class="uuid-c1e9e501-c009-464a-97fb-9692c70f28c7" d="m1843.43,1362.98c0,12.4-6.75,24.4-18.5,30.45l-991.95,519.1-174.55,91.35c-16.8,8.8-37.55,2.25-46.2-14.6-8.65-16.7-2.15-37.2,14.5-45.95l172.3-90.2,994.55-520.45c16.8-8.65,37.4-2.05,46.05,14.7,2.6,5,3.8,10.35,3.8,15.6Z"/>
      <path class="uuid-641b5de5-e32a-4b7f-8db5-4d856fe67737" d="m642.63,2022.81c-4.98,0-9.99-.77-14.88-2.31-12.57-3.98-22.83-12.62-28.87-24.34-12.36-23.95-2.98-53.6,20.9-66.1l1166.87-610.67c11.75-6.06,25.07-7.18,37.58-3.18,12.51,3.99,22.71,12.62,28.74,24.3,6.02,11.67,7.14,24.99,3.14,37.5-4,12.51-12.62,22.72-24.3,28.74l-1166.43,610.45c-7.14,3.74-14.91,5.63-22.74,5.63Zm1166.61-678.95c-3.02,0-6.01.72-8.77,2.14l-1166.79,610.63c-9.31,4.87-12.96,16.43-8.15,25.77h0c2.36,4.57,6.36,7.94,11.25,9.49,4.9,1.55,10.11,1.09,14.67-1.29l1166.51-610.49c4.63-2.39,7.99-6.36,9.55-11.24,1.56-4.88,1.12-10.07-1.22-14.62-2.35-4.55-6.33-7.91-11.2-9.47-1.92-.61-3.89-.92-5.85-.92Z"/>
      <g class="uuid-ec5ba922-a576-47ef-8e70-05ba94527a23">
        <path class="uuid-641b5de5-e32a-4b7f-8db5-4d856fe67737" d="m832.98,1912.53l-174.55,91.35c-16.8,8.8-37.55,2.25-46.2-14.6-8.65-16.7-2.15-37.2,14.5-45.95l172.3-90.2c10.8,18.8,22.7,39.6,33.95,59.4Z"/>
      </g>
      <path class="uuid-c1e9e501-c009-464a-97fb-9692c70f28c7" d="m1853.03,1645.13c0,309.15-221.7,567.55-514.5,624.5v361.55h-104.6v-350.1c-5.65.1-11.35.2-17.05.2-7.65,0-15.3-.15-22.9-.45h-.05c-259.85-9.35-489.9-177.25-577-423.75-6.9-19.5,3.35-40.95,22.9-47.85,19.5-6.9,40.95,3.35,47.85,22.9,75.1,212.6,270.75,358.9,493.7,373,11.75.75,23.6,1.15,35.5,1.15,309.45,0,561.15-251.75,561.15-561.15,0-113.3-33.55-222.45-97.1-315.65-11.7-17.1-7.25-40.45,9.85-52.1,17.1-11.7,40.45-7.25,52.1,9.85,72.05,105.7,110.15,229.5,110.15,357.9Z"/>
      <g class="uuid-38e4d454-ea1e-41b4-a89a-b8cfebf67f2d">
        <path class="uuid-dbbbf307-f88a-4608-8edf-d722c29fd91d" d="m1853.03,1645.13c0,225.5-117.95,424-295.45,537,164.9-115.05,272.95-306.15,272.95-522,0-128.4-38.1-252.2-110.15-357.9-8.85-13-24.5-18.7-39.05-15.5,2.45-3.55,5.65-6.75,9.45-9.35,17.1-11.7,40.45-7.25,52.1,9.85,72.05,105.7,110.15,229.5,110.15,357.9Z"/>
      </g>
      <path class="uuid-641b5de5-e32a-4b7f-8db5-4d856fe67737" d="m1338.51,2646.16h-104.6c-8.28,0-15-6.72-15-15v-334.9c-.68,0-1.37,0-2.05,0-275.55,0-522.34-174.49-614.09-434.2-4.67-13.21-3.91-27.46,2.14-40.12,6.05-12.66,16.68-22.2,29.91-26.87,13.2-4.67,27.45-3.91,40.11,2.15,12.66,6.05,22.2,16.68,26.87,29.91,76.93,217.8,283.92,364.14,515.05,364.14,301.15,0,546.15-245,546.15-546.15,0-110.31-32.68-216.54-94.49-307.2-7.9-11.55-10.83-25.51-8.23-39.29,2.6-13.8,10.42-25.75,22.03-33.66,11.54-7.9,25.51-10.83,39.28-8.22,13.8,2.6,25.76,10.42,33.66,22.03,73.76,108.21,112.75,234.89,112.75,366.35,0,306.9-215.63,572.71-514.5,636.74v349.31c0,8.28-6.72,15-15,15Zm-89.6-30h74.6v-346.55c0-7.18,5.09-13.35,12.14-14.72,291.09-56.62,502.36-313.07,502.36-609.78,0-125.4-37.19-246.24-107.54-349.45-3.39-4.98-8.51-8.33-14.43-9.44-5.9-1.12-11.87.14-16.81,3.52-4.99,3.4-8.34,8.53-9.46,14.44-1.11,5.9.14,11.87,3.52,16.81,65.24,95.68,99.72,207.75,99.72,324.12,0,317.69-258.46,576.15-576.15,576.15-243.83,0-462.18-154.38-543.34-384.16-2-5.68-6.1-10.23-11.53-12.83-5.42-2.6-11.52-2.92-17.18-.92-5.69,2.01-10.24,6.1-12.84,11.53-2.6,5.42-2.92,11.52-.92,17.18,87.53,247.75,322.95,414.2,585.81,414.2,5.61,0,11.22-.1,16.78-.2,4.05-.14,7.91,1.48,10.78,4.3,2.87,2.82,4.49,6.68,4.49,10.7v335.1Z"/>
      <path class="uuid-401c3772-4945-42f6-8c6d-676c0eda59a6" d="m1711.85,1645.13c0,29.35-2.55,58.05-7.5,85.95v.05c-27.75,158.85-131.3,291.55-271.95,359.7-65.15,31.55-138.25,49.25-215.5,49.25-145.05,0-275.55-62.4-366.05-161.8v-.05c-80.15-87.95-128.95-204.75-128.95-333.1,0-117.5,40.9-225.4,109.35-310.25,53.65-66.75,124.35-119.2,205.45-150.9,55.85-21.85,116.6-33.85,180.2-33.85,50.45,0,99.15,7.55,145,21.6,202.6,61.95,349.95,250.45,349.95,473.4Z"/>
      <path class="uuid-c1e9e501-c009-464a-97fb-9692c70f28c7" d="m1151.54,2631.15h269.36c85.62,0,155.13,69.51,155.13,155.13h-579.62c0-85.62,69.51-155.13,155.13-155.13Z"/>
      <g class="uuid-38e4d454-ea1e-41b4-a89a-b8cfebf67f2d">
        <path class="uuid-dbbbf307-f88a-4608-8edf-d722c29fd91d" d="m1576.03,2786.28h-13.95c-12.6-72.95-76.25-128.45-152.85-128.45h-269.35c-42.85,0-81.65,17.35-109.7,45.45-10.15,10.15-18.9,21.7-25.95,34.35,7.65-23.3,20.7-44.15,37.65-61.05,28.05-28.1,66.8-45.45,109.65-45.45h269.35c85.7,0,155.15,69.45,155.15,155.15Z"/>
      </g>
      <g class="uuid-77deab76-9388-4223-9ef1-4edc678429b5">
        <path class="uuid-641b5de5-e32a-4b7f-8db5-4d856fe67737" d="m1576.03,2786.28h-579.6c0-42.85,17.35-81.65,45.45-109.7,22.15-22.2,51-37.7,83.25-43.2-.25.2-.5.45-.75.7-.28.28-.56.56-.84.84-39.79,40.34-10.26,108.86,46.4,108.86h400.19c3.85,13.5,5.9,27.75,5.9,42.5Z"/>
      </g>
      <path class="uuid-641b5de5-e32a-4b7f-8db5-4d856fe67737" d="m1576.03,2801.28h-579.62c-8.28,0-15-6.72-15-15,0-93.81,76.32-170.13,170.13-170.13h269.36c93.81,0,170.13,76.32,170.13,170.13,0,8.28-6.72,15-15,15Zm-563.82-30h548.02c-7.5-70.24-67.13-125.13-139.33-125.13h-269.36c-72.2,0-131.83,54.89-139.33,125.13Z"/>
      <g class="uuid-77deab76-9388-4223-9ef1-4edc678429b5">
        <path class="uuid-641b5de5-e32a-4b7f-8db5-4d856fe67737" d="m1697.68,1670.96c0,29.35-2.55,58.05-7.5,85.95v.05c-16.15,5-27.25,8.4-27.25,8.4-16.5,2.5-32-9.05-42.05-22.4-10.05-13.3-16.95-29.05-28.5-41.1-14.75-15.35-36.75-23.4-57.95-21.2-27.7,2.95-50.15,25.6-69.25,44.1-26.45,25.55-55.55,54.55-92.35,55.05-32.6.4-62.3-24.15-73.75-54.65-11.45-30.55-6.75-65.4,6.6-95.1,14.8-32.9,39.25-57.65,62.35-84.6,24.75-28.85,45.25-61.7,60.9-96.3,10.45-23,18.15-51.75,3-71.9-9.85-13.15-27-18.7-43.3-20.6-16.35-1.9-33.05-1-49.05-4.85-31.45-7.5-57.35-34.45-63.6-66.2-6.2-31.7,8.98-77.8,35.23-96.65,0,0,13.52,10.25,36.52,8.6,202.6,61.95,349.95,250.45,349.95,473.4Z"/>
      </g>
      <path class="uuid-7bb615e7-e05c-4e2a-b5c6-3a0853ed6d4e" d="m1711.85,1645.13c0,29.35-2.55,58.05-7.5,85.95v.05c-16.15,5-27.25,8.4-27.25,8.4-16.5,2.5-32-9.05-42.05-22.4-10.05-13.3-16.95-29.05-28.5-41.1-14.75-15.35-36.75-23.4-57.95-21.2-27.7,2.95-50.15,25.6-69.25,44.1-26.45,25.55-55.55,54.55-92.35,55.05-32.6.4-62.3-24.15-73.75-54.65-11.45-30.55-6.75-65.4,6.6-95.1,14.8-32.9,39.25-57.65,62.35-84.6,24.75-28.85,45.25-61.7,60.9-96.3,10.45-23,18.15-51.75,3-71.9-9.85-13.15-27-18.7-43.3-20.6-16.35-1.9-33.05-1-49.05-4.85-31.45-7.5-57.35-34.45-63.6-66.2-6.2-31.7,8.98-77.8,35.23-96.65,0,0,13.52,10.25,36.52,8.6,202.6,61.95,349.95,250.45,349.95,473.4Z"/>
      <path class="uuid-62117d6e-11e4-4b89-89c2-e44a683c6f89" d="m1711.85,1645.13c0,29.35-2.55,58.05-7.5,85.95v.05c-16.15,5-27.25,8.4-27.25,8.4-16.5,2.5-32-9.05-42.05-22.4-10.05-13.3-16.95-29.05-28.5-41.1-14.75-15.35-36.75-23.4-57.95-21.2-27.7,2.95-50.15,25.6-69.25,44.1-26.45,25.55-55.55,54.55-92.35,55.05-32.6.4-62.3-24.15-73.75-54.65-11.45-30.55-6.75-65.4,6.6-95.1,14.8-32.9,39.25-57.65,62.35-84.6,24.75-28.85,45.25-61.7,60.9-96.3,10.45-23,18.15-51.75,3-71.9-9.85-13.15-27-18.7-43.3-20.6-16.35-1.9-33.05-1-49.05-4.85-31.45-7.5-57.35-34.45-63.6-66.2-6.2-31.7,8.98-77.8,35.23-96.65,0,0,13.52,10.25,36.52,8.6,202.6,61.95,349.95,250.45,349.95,473.4Z"/>
      <g class="uuid-77deab76-9388-4223-9ef1-4edc678429b5">
        <path class="uuid-641b5de5-e32a-4b7f-8db5-4d856fe67737" d="m1290.13,1259.78c-5.2-26.5,4.6-63.05,23.3-85.35-7.2,18.65-9.9,39.45-6.6,56.2,6.25,31.75,32.15,58.7,63.6,66.2,16,3.85,32.7,2.95,49.05,4.85,16.3,1.9,33.45,7.45,43.3,20.6,15.15,20.15,7.45,48.9-3,71.9-7.7,17.05-16.6,33.7-26.65,49.65,3.5-6.75,6.85-13.6,9.95-20.5,10.45-23,18.15-51.75,3-71.9-9.85-13.15-27-18.7-43.3-20.6-16.35-1.9-33.05-1-49.05-4.85-31.45-7.5-57.35-34.45-63.6-66.2Z"/>
      </g>
      <g class="uuid-77deab76-9388-4223-9ef1-4edc678429b5">
        <path class="uuid-641b5de5-e32a-4b7f-8db5-4d856fe67737" d="m1708.08,1705.98c-1,8.45-2.3,16.8-3.75,25.1v.05c-16.15,5-27.25,8.4-27.25,8.4-16.5,2.5-32-9.05-42.05-22.4-10.05-13.3-16.95-29.05-28.5-41.1-14.75-15.35-36.75-23.4-57.95-21.2-27.7,2.95-50.15,25.6-69.25,44.1-26.45,25.55-55.55,54.55-92.35,55.05-32.6.4-62.3-24.15-73.75-54.65-11.45-30.55-6.75-65.4,6.6-95.1,4.75-10.55,10.45-20.25,16.85-29.45l-.15.3c-13.35,29.7-18.05,64.55-6.6,95.1,11.45,30.5,41.15,55.05,73.75,54.65,36.8-.5,65.9-29.5,92.35-55.05,19.1-18.5,41.55-41.15,69.25-44.1,21.2-2.2,43.2,5.85,57.95,21.2,11.55,12.05,18.45,27.8,28.5,41.1,10.05,13.35,25.55,24.9,42.05,22.4,0,0,5.45-1.65,14.3-4.4Z"/>
      </g>
      <g class="uuid-77deab76-9388-4223-9ef1-4edc678429b5">
        <path class="uuid-57209792-14a2-4e51-9022-3b8ffb7cd238" d="m1433.13,1443.83c-14.05,27.05-31.15,52.7-50.95,75.8-15.7,18.3-32,35.6-45.5,55.15,14.8-32.75,39.15-57.45,62.2-84.3,12.55-14.6,24-30.25,34.25-46.65Z"/>
      </g>
      <path class="uuid-62117d6e-11e4-4b89-89c2-e44a683c6f89" d="m1029.15,1287.28c-22.95,26.85-57.4,41.65-92.25,47.5-34.8,5.8-70.4,3.45-105.6,1.05l-.05-.95c53.65-66.75,124.35-119.2,205.45-150.9l8.85,4.65c15.55,31.7,6.55,71.8-16.4,98.65Z"/>
      <g class="uuid-77deab76-9388-4223-9ef1-4edc678429b5">
        <path class="uuid-641b5de5-e32a-4b7f-8db5-4d856fe67737" d="m1122.05,1439.38c-17.76-10.99-50.55-4.62-67.31,7.83-11.13,8.27-20.77,19.23-24.89,32.47-4.12,13.24-1.91,28.92,7.75,38.86,18.1,18.62,53.9,11.77,68.93,32.95,5.21,7.34,6.69,16.73,11.34,24.44,8.78,14.56,29.05,19.87,44.2,12.75,17.72-8.32,20.7-29.75,18.86-47.29-2.1-19.94-8.49-39.36-18.35-56.8-8.76-15.51-23.55-37.92-40.53-45.21h0Z"/>
      </g>
      <g class="uuid-38e4d454-ea1e-41b4-a89a-b8cfebf67f2d">
        <path class="uuid-dbbbf307-f88a-4608-8edf-d722c29fd91d" d="m1029.13,1287.28c-22.95,26.85-57.4,41.65-92.25,47.5-34.8,5.8-70.4,3.45-105.6,1.05l-.05-.95c.35-.45.7-.85,1.05-1.3,27.45,1.55,55.05,1.95,82.1-2.55,34.85-5.85,69.3-20.65,92.25-47.5,22-25.75,31.2-63.65,18.2-94.7,3.9-1.7,7.85-3.3,11.85-4.85l8.85,4.65c15.55,31.7,6.55,71.8-16.4,98.65Z"/>
      </g>
      <path class="uuid-62117d6e-11e4-4b89-89c2-e44a683c6f89" d="m1134.55,1417.33c-17.76-10.99-50.55-4.62-67.31,7.83-11.13,8.27-20.77,19.23-24.89,32.47-4.12,13.24-1.91,28.92,7.75,38.86,18.1,18.62,53.9,11.77,68.93,32.95,5.21,7.34,6.69,16.73,11.34,24.44,8.78,14.56,29.05,19.87,44.2,12.75,17.72-8.32,20.7-29.75,18.86-47.29-2.1-19.94-8.49-39.36-18.35-56.8-8.76-15.51-23.55-37.92-40.53-45.21h0Z"/>
      <g class="uuid-38e4d454-ea1e-41b4-a89a-b8cfebf67f2d">
        <path class="uuid-dbbbf307-f88a-4608-8edf-d722c29fd91d" d="m1183.38,1565.28c1.6-7.35,1.65-15.2.9-22.35-2.1-19.95-8.5-39.35-18.35-56.8-8.8-15.5-23.55-37.95-40.55-45.2-17.75-11-50.55-4.65-67.3,7.8-6.1,4.55-11.75,9.9-16.3,16,.15-.7.35-1.4.55-2.1,4.15-13.25,13.8-24.2,24.9-32.45,16.75-12.5,49.55-18.85,67.3-7.85,17,7.3,31.8,29.7,40.55,45.2,9.85,17.45,16.25,36.85,18.35,56.8,1.5,14.1-.15,30.7-10.05,40.95Z"/>
      </g>
      <g class="uuid-77deab76-9388-4223-9ef1-4edc678429b5">
        <path class="uuid-641b5de5-e32a-4b7f-8db5-4d856fe67737" d="m1191.48,1546.03c-2.7,8.75-7.9,16.35-16.9,20.6-15.15,7.1-35.45,1.8-44.2-12.75-4.65-7.7-6.15-17.1-11.35-24.45-15.05-21.15-50.85-14.3-68.95-32.95-9.65-9.95-11.85-25.6-7.75-38.85,2.85-9.1,8.3-17.15,15.1-23.9-.85,1.8-1.55,3.65-2.15,5.55-4.1,13.25-1.9,28.95,7.75,38.85,18.1,18.65,53.9,11.8,68.95,32.95,5.2,7.35,6.7,16.75,11.35,24.45,8.75,14.55,29,19.9,44.2,12.75,1.4-.65,2.75-1.4,3.95-2.25Z"/>
      </g>
      <path class="uuid-641b5de5-e32a-4b7f-8db5-4d856fe67737" d="m1160.12,1582.28c-16.14,0-32.07-8.03-40.45-21.95-2.71-4.5-4.48-9.19-6.04-13.32-1.49-3.94-2.89-7.67-4.79-10.34-5.22-7.36-15.87-9.99-28.19-13.04-13.33-3.3-28.44-7.04-39.51-18.42-12.28-12.64-16.49-32.78-10.72-51.29,4.5-14.44,14.66-27.85,29.37-38.78,20.17-14.99,57.92-22.19,80.53-8.92,15.41,6.98,30.76,23.85,45.64,50.18,10.78,19.07,17.66,40.39,19.9,61.64,3.04,28.89-6.43,50.73-25.97,59.91-6.27,2.95-13.04,4.34-19.76,4.34Zm-48.9-158.16c-12.79,0-27.71,4.53-36.52,11.07-7.28,5.41-16.73,14.34-20.41,26.15-3.04,9.74-1.12,20.36,4.78,26.43,6.08,6.26,16.53,8.84,27.59,11.58,14.99,3.71,31.98,7.91,42.57,22.84,3.76,5.3,5.9,10.97,7.79,15.98,1.3,3.44,2.52,6.69,4.06,9.24,5.29,8.77,18.46,12.45,28.18,7.89,13.24-6.22,12.62-26.31,11.74-34.66-1.88-17.87-7.69-35.84-16.8-51.96-12.05-21.31-24.33-35.47-34.58-39.88-.57-.24-1.12-.53-1.65-.86-4.31-2.67-10.26-3.84-16.76-3.84Z"/>
      <g class="uuid-43b0cb2e-af70-40aa-9b9b-79e7f28e3aab">
        <path class="uuid-dbbbf307-f88a-4608-8edf-d722c29fd91d" d="m1289.55,1843.47c-19.88,26.12-83.89,20.22-137.4-20.5s-76.25-100.84-56.37-126.97c19.88-26.12,60.94,9.94,114.44,50.66,53.51,40.72,99.21,70.68,79.33,96.8Z"/>
      </g>
      <g class="uuid-43b0cb2e-af70-40aa-9b9b-79e7f28e3aab">
        <path class="uuid-dbbbf307-f88a-4608-8edf-d722c29fd91d" d="m1424.63,1889.86c-4.97,16.93-30.84,24.25-57.79,16.35-26.95-7.9-44.77-28.04-39.81-44.97,4.97-16.93,28.97-17.89,55.92-9.98,26.95,7.9,46.64,21.67,41.67,38.6Z"/>
      </g>
      <g class="uuid-38e4d454-ea1e-41b4-a89a-b8cfebf67f2d">
        <path class="uuid-dbbbf307-f88a-4608-8edf-d722c29fd91d" d="m1216.88,1150.13c35.5,0,70.15,3.75,103.55,10.9l-29.65,65.05c-42.05-11.65-86.3-17.85-132-17.85-63.6,0-124.35,12-180.2,33.85-51.15,20-98.15,48.25-139.35,83.15,52.55-62.15,120.3-111.1,197.45-141.25,55.85-21.85,116.6-33.85,180.2-33.85Z"/>
      </g>
      <g class="uuid-38e4d454-ea1e-41b4-a89a-b8cfebf67f2d">
        <path class="uuid-dbbbf307-f88a-4608-8edf-d722c29fd91d" d="m1703.98,1733.13c-20.65,115.5-81.4,216.95-167.25,289.6,55.45-65.4,94.1-145.45,109.5-233.5v-.05c3.25-18.35,5.45-37.05,6.6-56.05h51.15Z"/>
      </g>
      <path class="uuid-62117d6e-11e4-4b89-89c2-e44a683c6f89" d="m1432.4,2090.83c-65.15,31.55-138.25,49.25-215.5,49.25-145.05,0-275.55-62.4-366.05-161.8v-.05l.55-13.1c29.9-7.9,47.4-38.25,60.65-66.2,13.25-28,28.1-58.9,56.7-70.7,29.7-12.25,64.55,1.25,88.45,22.7,23.85,21.45,40.1,49.95,59.95,75.2,32.85,41.75,72.25,54.4,123.2,61.2,39.85,5.3,80.95,6.85,118.35,21.65,35.8,14.1,68.55,44.1,73.7,81.85Z"/>
      <g class="uuid-38e4d454-ea1e-41b4-a89a-b8cfebf67f2d">
        <path class="uuid-dbbbf307-f88a-4608-8edf-d722c29fd91d" d="m1432.38,2090.83c-6.75,3.25-13.55,6.4-20.45,9.3-11-29.85-39.15-53.25-69.5-65.2-37.4-14.8-78.5-16.35-118.35-21.65-50.95-6.8-90.35-19.45-123.2-61.2-19.85-25.25-36.1-53.75-59.95-75.2-23.9-21.45-58.75-34.95-88.45-22.7-12.35,5.1-22.15,13.75-30.35,24.25,11.15-21.3,24.9-41.25,46.6-50.2,29.7-12.25,64.55,1.25,88.45,22.7,23.85,21.45,40.1,49.95,59.95,75.2,32.85,41.75,72.25,54.4,123.2,61.2,39.85,5.3,80.95,6.85,118.35,21.65,35.8,14.1,68.55,44.1,73.7,81.85Z"/>
      </g>
      <g class="uuid-38e4d454-ea1e-41b4-a89a-b8cfebf67f2d">
        <path class="uuid-dbbbf307-f88a-4608-8edf-d722c29fd91d" d="m922.13,1878.43c-3.6,6.8-6.9,13.75-10.1,20.5-6.25,13.2-13.4,26.85-22.45,38.45,2.2-4.15,4.25-8.35,6.2-12.5,7.5-15.9,15.55-32.7,26.35-46.45Z"/>
      </g>
      <path class="uuid-641b5de5-e32a-4b7f-8db5-4d856fe67737" d="m1216.9,2152.58c-142.52,0-279.31-60.46-375.29-165.88-2.09-2.3-3.26-5.3-3.26-8.42,0-.18,0-.4.01-.58l.55-13.1c.23-5.48,4-10.16,9.3-11.56,24.53-6.48,40.33-33.7,52.55-59.47,13.31-28.13,29.88-63.14,63.23-76.9,30.71-12.66,70.57-2.86,101.57,24.95,17.27,15.53,30.61,34.29,43.52,52.42,5.78,8.13,11.76,16.53,17.91,24.36,30.15,38.32,66.36,50.04,115.03,56.54,8.73,1.16,17.53,2.14,26.34,3.12,31.61,3.52,64.29,7.16,94.96,19.29,35.22,13.87,75.14,45.28,81.49,91.78.73,5.36-2.07,10.58-6.94,12.94-69.2,33.51-143.53,50.5-220.95,50.5Zm-352.97-178.55c91.05,97.66,219.35,153.55,352.97,153.55,70.35,0,138.02-14.75,201.3-43.87-8.68-31.18-39.03-53.24-64.08-63.1-27.58-10.92-57.19-14.21-88.54-17.7-8.98-1-17.96-2-26.87-3.19-53.36-7.12-96.12-21.05-131.37-65.86-6.52-8.3-12.68-16.95-18.63-25.32-12.67-17.81-24.64-34.63-39.85-48.32-18.13-16.27-48.75-31.4-75.32-20.44-24.42,10.08-38.1,38.99-50.17,64.49-13.3,28.05-30.67,57.67-59.42,69.76Z"/>
      <g class="uuid-38e4d454-ea1e-41b4-a89a-b8cfebf67f2d">
        <path class="uuid-dbbbf307-f88a-4608-8edf-d722c29fd91d" d="m1717.94,1637.63c0,29.35-2.55,58.05-7.5,85.95v.05c-.1.65-.25,1.35-.35,2h-51.15c.6-9.9.9-19.85.9-29.9,0-222.95-147.35-411.45-349.95-473.4-4.3-1.3-8.65-2.6-13-3.75l29.65-65.05c14.05,2.95,27.9,6.55,41.45,10.7,202.6,61.95,349.95,250.45,349.95,473.4Z"/>
      </g>
      <path class="uuid-641b5de5-e32a-4b7f-8db5-4d856fe67737" d="m1216.9,2155.08c-143.22,0-280.69-60.76-377.14-166.7-.23-.25-.45-.51-.66-.78-85.25-93.92-132.19-215.5-132.19-342.47,0-116.07,40.01-229.6,112.68-319.67,55.74-69.35,128.94-123.12,211.66-155.45,59.16-23.14,121.63-34.88,185.66-34.88,50.93,0,101.19,7.49,149.39,22.26,102.19,31.25,194.01,95.76,258.55,181.66,66.74,88.82,102.01,194.66,102.01,306.08,0,29.7-2.57,59.35-7.65,88.13-.02.15-.05.3-.07.45-28.07,160.66-132.81,299.21-280.19,370.62-69.54,33.68-144.24,50.75-222.04,50.75Zm-354.31-186.18c90.75,99.27,219.83,156.18,354.31,156.18,73.23,0,143.54-16.06,208.96-47.75,138.59-67.15,237.12-197.35,263.64-348.36.02-.17.05-.34.08-.51,4.82-27.19,7.27-55.23,7.27-83.33,0-212.51-136.37-396.99-339.34-459.06-45.36-13.9-92.66-20.94-140.61-20.94-60.28,0-119.07,11.04-174.74,32.82-77.85,30.43-146.74,81.03-199.22,146.33-69.38,86-106.04,190.03-106.04,300.85,0,119.81,44.41,234.52,125.04,323,.23.25.45.51.65.77Zm841.76-237.77h.05-.05Z"/>
      <path class="uuid-641b5de5-e32a-4b7f-8db5-4d856fe67737" d="m1386.23,1766.49c-36.05,0-70.77-25.68-84.69-62.76-11.6-30.94-9.08-69.07,6.9-104.62,13.15-29.24,33.4-52.33,52.99-74.66,3.76-4.29,7.54-8.59,11.27-12.95,23.57-27.47,43.42-58.86,59-93.32,12.23-26.93,13.71-46.85,4.4-59.24-7.91-10.55-23.26-14.36-34.76-15.7-5.66-.66-11.4-.96-17.47-1.28-10.75-.56-21.86-1.14-33.05-3.84-36.38-8.68-65.71-39.2-72.94-75.94-6.62-33.86,8.18-87.48,39.99-110.33,1.74-1.25,3.77-2.03,5.89-2.27,2.02-.22,20.08-1.82,43.02,10.56,101.2,31.24,192.09,95.26,256.06,180.39,66.41,88.39,101.51,193.71,101.51,304.58,0,29.65-2.58,59.25-7.66,87.98-.76,4.63-4.06,8.54-8.64,9.96-16.17,5.01-27.29,8.41-27.29,8.41-.59.18-1.18.32-1.79.41-18.76,2.84-38.93-7.34-53.91-27.24-4.39-5.81-8.14-11.9-11.76-17.8-5.04-8.19-9.8-15.93-15.78-22.17-12.05-12.54-30.34-19.23-47.63-17.41-22.41,2.39-42.29,21.67-59.83,38.69l-3.95,3.82c-27.22,26.32-58.08,56.15-98.95,56.71-.31,0-.62,0-.93,0Zm-56.68-592.03c-19.47,16.67-32.49,55.58-27.14,82.93,5.29,26.87,27.59,50.09,54.23,56.44,8.97,2.16,18.48,2.66,28.54,3.18,6.2.32,12.6.66,19.06,1.41,23.47,2.74,41.4,11.56,51.86,25.52,15.21,20.24,14.67,48.69-1.62,84.57-16.56,36.6-37.69,70-62.8,99.27-3.8,4.43-7.63,8.8-11.46,13.16-19.21,21.91-37.36,42.6-48.98,68.43-13.3,29.58-15.59,60.78-6.3,85.59,10.16,27.06,35.86,46.54,61.28,46.54.21,0,.41,0,.61,0,30.94-.42,56.85-25.46,81.9-49.68l3.91-3.79c19.42-18.85,43.6-42.3,74.62-45.61,25.21-2.63,50.74,6.71,68.29,24.97,7.84,8.18,13.53,17.44,19.04,26.39,3.47,5.64,6.75,10.97,10.42,15.84,7.08,9.39,18.45,18.83,29.41,17.68,2.47-.76,9.34-2.87,18.86-5.81,4.02-25,6.05-50.64,6.05-76.34,0-213.62-137.08-399.06-341.11-461.45-.84-.26-1.66-.6-2.43-1.03-11.8-6.57-21.5-7.96-26.26-8.2Zm374.79,556.68h.05-.05Z"/>
      <path class="uuid-641b5de5-e32a-4b7f-8db5-4d856fe67737" d="m888.26,1350.91c-19.5,0-38.83-1.32-57.81-2.61-6.31-.43-11.31-5.51-11.63-11.83l-.05-.95c-.16-3.06.82-6.08,2.74-8.47,55.49-69.04,128.33-122.53,210.64-154.71,3.38-1.31,7.16-1.11,10.37.58l8.85,4.65c2.35,1.23,4.24,3.18,5.41,5.56,16.98,34.61,9.7,79.73-18.12,112.28h0c-28.85,33.75-70.13,46.75-99.68,51.7-16.94,2.82-33.89,3.81-50.71,3.81Zm-32.22-26.03c26.33,1.46,52.97,1.87,78.8-2.44,25.45-4.27,60.84-15.25,84.8-43.29h0c20.11-23.53,26.54-56.42,16.29-81.43-68.88,27.88-130.57,71.53-179.9,127.16Zm173.11-37.61h.05-.05Z"/>
      <g class="uuid-77deab76-9388-4223-9ef1-4edc678429b5">
        <path class="uuid-641b5de5-e32a-4b7f-8db5-4d856fe67737" d="m1620.68,1931.38c-48.1,67.75-112.85,122.9-188.3,159.45-65.15,31.55-138.25,49.25-215.5,49.25-145.05,0-275.55-62.4-366.05-161.8v-.05c-80.15-87.95-128.95-204.75-128.95-333.1,0-117.5,40.9-225.4,109.35-310.25,28.6-35.6,62.05-67.1,99.35-93.55-57.6,80.85-91.35,179.7-91.35,286.45,0,119.05,41.95,228.15,112,313.5l-17.75,26.25c121.9,166.85,315.65,224.35,470.65,176.85l-28.3-23.4c61.9-5.1,120.55-21.65,173.9-47.5,24.9-12.05,48.6-26.1,70.95-42.1Z"/>
      </g>
      <g class="uuid-77deab76-9388-4223-9ef1-4edc678429b5">
        <polygon class="uuid-641b5de5-e32a-4b7f-8db5-4d856fe67737" points="1656.56 1398.66 1682.88 1463.76 1734.98 1429.08 1703.5 1372.51 1656.56 1398.66"/>
      </g>
      <g class="uuid-ec5ba922-a576-47ef-8e70-05ba94527a23">
        <path class="uuid-641b5de5-e32a-4b7f-8db5-4d856fe67737" d="m1193.93,2280.83c-259.85-9.35-489.9-177.25-577-423.75-6.9-19.5,3.35-40.95,22.9-47.85,19.5-6.9,40.95,3.35,47.85,22.9,75.1,212.6,270.75,358.9,493.7,373,0,0-56.45,38.4,12.55,75.7Z"/>
      </g>
    </g>
    <g class="uuid-77deab76-9388-4223-9ef1-4edc678429b5">
      <path class="uuid-57209792-14a2-4e51-9022-3b8ffb7cd238" d="m2013.81,2293.48c5.45,15.55,7.3,31.1,5.4,46.65h-32.8c12.8-15.55,21.95-31.1,27.4-46.65Z"/>
    </g>
    <g class="uuid-77deab76-9388-4223-9ef1-4edc678429b5">
      <path class="uuid-57209792-14a2-4e51-9022-3b8ffb7cd238" d="m2013.81,2293.48c-5.45-15.55-14.6-31.15-27.4-46.7h32.8c1.9,15.55.05,31.15-5.4,46.7Z"/>
    </g>
    <g>
      <path class="uuid-401c3772-4945-42f6-8c6d-676c0eda59a6" d="m2800.14,2084.39h535.03v347.98h-535.03c-70.35,0-127.47-57.12-127.47-127.47v-93.04c0-70.35,57.12-127.47,127.47-127.47Z" transform="translate(6007.83 4516.76) rotate(180)"/>
      <g class="uuid-38e4d454-ea1e-41b4-a89a-b8cfebf67f2d">
        <path class="uuid-dbbbf307-f88a-4608-8edf-d722c29fd91d" d="m3335.16,2211.88v43.75c0-70.4-57.05-127.5-127.45-127.5h-535.05v-43.75h535.05c70.4,0,127.45,57.1,127.45,127.5Z"/>
      </g>
      <g class="uuid-77deab76-9388-4223-9ef1-4edc678429b5">
        <path class="uuid-641b5de5-e32a-4b7f-8db5-4d856fe67737" d="m3335.16,2223.68v81.2c0,70.4-57.05,127.5-127.45,127.5h-535.05v-81.25h535.05c70.4,0,127.45-57.05,127.45-127.45Z"/>
      </g>
      <path class="uuid-641b5de5-e32a-4b7f-8db5-4d856fe67737" d="m3207.7,2447.37h-535.03c-8.28,0-15-6.72-15-15v-347.98c0-8.28,6.72-15,15-15h535.03c78.56,0,142.47,63.91,142.47,142.47v93.04c0,78.56-63.91,142.47-142.47,142.47Zm-520.03-30h520.03c62.02,0,112.47-50.45,112.47-112.47v-93.04c0-62.01-50.45-112.47-112.47-112.47h-520.03v317.98Z"/>
      <path class="uuid-401c3772-4945-42f6-8c6d-676c0eda59a6" d="m1920.1,2385.02c-.77,26.28,20.25,47.85,46.38,47.85h718.61c64.55,0,116.88-52.33,116.88-116.96v-114.56c0-64.55-52.33-116.96-116.88-116.96h-716.67c-25.43,0-47.54,19.64-48.31,44.99-.77,26.28,20.25,47.77,46.38,47.77h706.39c20.02,0,36.33,16.31,36.33,36.41v90.14c0,20.1-16.31,36.41-36.33,36.41h-704.46c-25.43,0-47.54,19.56-48.31,44.91Z"/>
      <g class="uuid-38e4d454-ea1e-41b4-a89a-b8cfebf67f2d">
        <path class="uuid-dbbbf307-f88a-4608-8edf-d722c29fd91d" d="m2709.21,2303.68v28.35c0,20.1-16.3,36.4-36.35,36.4h-704.45c-21.05,0-39.75,13.35-46.05,32.3-1.65-4.95-2.4-10.2-2.25-15.7.75-25.35,22.85-44.9,48.3-44.9h704.45c20.05,0,36.35-16.35,36.35-36.45Z"/>
      </g>
      <g class="uuid-77deab76-9388-4223-9ef1-4edc678429b5">
        <path class="uuid-57209792-14a2-4e51-9022-3b8ffb7cd238" d="m2801.96,2280.98v34.95c0,64.6-52.35,116.95-116.9,116.95h-718.6c-26.1,0-47.15-21.6-46.35-47.85.15-5.65,1.4-11,3.45-15.9,6.95,16.9,23.55,28.8,42.9,28.8h718.6c64.55,0,116.9-52.35,116.9-116.95Z"/>
      </g>
      <g class="uuid-38e4d454-ea1e-41b4-a89a-b8cfebf67f2d">
        <path class="uuid-dbbbf307-f88a-4608-8edf-d722c29fd91d" d="m2801.96,2201.33v37.3c0-64.55-52.35-116.95-116.9-116.95h-716.65c-19.35,0-36.75,11.35-44.3,27.95-2.8-6.15-4.2-13-4-20.25.75-25.35,22.85-45,48.3-45h716.65c64.55,0,116.9,52.4,116.9,116.95Z"/>
      </g>
      <path class="uuid-641b5de5-e32a-4b7f-8db5-4d856fe67737" d="m2685.08,2447.87h-718.61c-16.74,0-32.38-6.61-44.04-18.62-11.67-12.02-17.83-27.89-17.33-44.67h0c1-32.8,29.4-59.47,63.31-59.47h704.46c11.76,0,21.33-9.6,21.33-21.41v-90.13c0-11.8-9.57-21.41-21.33-21.41h-706.39c-16.77,0-32.42-6.61-44.08-18.62-11.65-11.99-17.79-27.83-17.3-44.59,1-32.84,29.4-59.55,63.31-59.55h716.67c72.72,0,131.88,59.2,131.88,131.96v114.56c0,72.76-59.16,131.96-131.88,131.96Zm-750-62.4c-.25,8.6,2.9,16.73,8.87,22.88,5.96,6.14,13.96,9.52,22.52,9.52h718.61c56.18,0,101.88-45.74,101.88-101.96v-114.56c0-56.22-45.7-101.96-101.88-101.96h-716.67c-17.86,0-32.81,13.66-33.32,30.45-.25,8.57,2.89,16.67,8.84,22.8,5.96,6.14,13.97,9.52,22.55,9.52h706.39c28.3,0,51.33,23.06,51.33,51.41v90.13c0,28.35-23.03,51.41-51.33,51.41h-704.46c-17.86,0-32.81,13.62-33.32,30.37h0Z"/>
      <path class="uuid-dbbbf307-f88a-4608-8edf-d722c29fd91d" d="m1986.42,2340.11h686.45c20.02,0,36.33-16.31,36.33-36.41v-90.14c0-20.1-16.31-36.41-36.33-36.41h-686.45c44.68,54.34,44.68,108.61,0,162.95Z"/>
      <g class="uuid-77deab76-9388-4223-9ef1-4edc678429b5">
        <path class="uuid-641b5de5-e32a-4b7f-8db5-4d856fe67737" d="m2709.21,2213.58v69.65c0-20.1-16.3-36.45-36.35-36.45h-653.65c-2.75-23.2-13.7-46.4-32.8-69.65h686.45c20.05,0,36.35,16.35,36.35,36.45Z"/>
      </g>
      <path class="uuid-641b5de5-e32a-4b7f-8db5-4d856fe67737" d="m2672.87,2355.11h-686.45c-5.8,0-11.08-3.35-13.56-8.59s-1.71-11.45,1.98-15.93c40.36-49.09,40.36-94.81,0-143.9-3.68-4.48-4.45-10.69-1.98-15.93s7.76-8.59,13.56-8.59h686.45c28.3,0,51.33,23.06,51.33,51.41v90.13c0,28.35-23.03,51.41-51.33,51.41Zm-657.57-30h657.57c11.76,0,21.33-9.6,21.33-21.41v-90.13c0-11.8-9.57-21.41-21.33-21.41h-657.57c25.89,43.88,25.89,89.07,0,132.95Z"/>
    </g>
    <path class="uuid-48cf2d56-ac47-448c-a555-50a06f1a1491" d="m2615.14,2432.39h535.03v347.98h-535.03c-70.35,0-127.47-57.12-127.47-127.47v-93.04c0-70.35,57.12-127.47,127.47-127.47Z" transform="translate(5637.83 5212.76) rotate(180)"/>
    <g class="uuid-38e4d454-ea1e-41b4-a89a-b8cfebf67f2d">
      <path class="uuid-dbbbf307-f88a-4608-8edf-d722c29fd91d" d="m3150.16,2559.88v43.75c0-70.4-57.05-127.5-127.45-127.5h-535.05v-43.75h535.05c70.4,0,127.45,57.1,127.45,127.5Z"/>
    </g>
    <g class="uuid-77deab76-9388-4223-9ef1-4edc678429b5">
      <path class="uuid-641b5de5-e32a-4b7f-8db5-4d856fe67737" d="m3150.16,2571.68v81.2c0,70.4-57.05,127.5-127.45,127.5h-535.05v-81.25h535.05c70.4,0,127.45-57.05,127.45-127.45Z"/>
    </g>
    <path class="uuid-641b5de5-e32a-4b7f-8db5-4d856fe67737" d="m3022.7,2795.37h-535.03c-8.28,0-15-6.72-15-15v-347.98c0-8.28,6.72-15,15-15h535.03c78.56,0,142.47,63.91,142.47,142.47v93.04c0,78.56-63.91,142.47-142.47,142.47Zm-520.03-30h520.03c62.02,0,112.47-50.45,112.47-112.47v-93.04c0-62.02-50.45-112.47-112.47-112.47h-520.03v317.98Z"/>
    <path class="uuid-48cf2d56-ac47-448c-a555-50a06f1a1491" d="m1735.1,2733.02c-.77,26.28,20.25,47.85,46.38,47.85h718.61c64.55,0,116.88-52.33,116.88-116.96v-114.56c0-64.55-52.33-116.96-116.88-116.96h-716.67c-25.43,0-47.54,19.64-48.31,44.99-.77,26.28,20.25,47.77,46.38,47.77h706.39c20.02,0,36.33,16.31,36.33,36.41v90.14c0,20.1-16.31,36.41-36.33,36.41h-704.46c-25.43,0-47.54,19.56-48.31,44.91Z"/>
    <g class="uuid-38e4d454-ea1e-41b4-a89a-b8cfebf67f2d">
      <path class="uuid-dbbbf307-f88a-4608-8edf-d722c29fd91d" d="m2524.21,2651.68v28.35c0,20.1-16.3,36.4-36.35,36.4h-704.45c-21.05,0-39.75,13.35-46.05,32.3-1.65-4.95-2.4-10.2-2.25-15.7.75-25.35,22.85-44.9,48.3-44.9h704.45c20.05,0,36.35-16.35,36.35-36.45Z"/>
    </g>
    <g class="uuid-77deab76-9388-4223-9ef1-4edc678429b5">
      <path class="uuid-641b5de5-e32a-4b7f-8db5-4d856fe67737" d="m2616.96,2628.98v34.95c0,64.6-52.35,116.95-116.9,116.95h-718.6c-26.1,0-47.15-21.6-46.35-47.85.15-5.65,1.4-11,3.45-15.9,6.95,16.9,23.55,28.8,42.9,28.8h718.6c64.55,0,116.9-52.35,116.9-116.95Z"/>
    </g>
    <g class="uuid-38e4d454-ea1e-41b4-a89a-b8cfebf67f2d">
      <path class="uuid-dbbbf307-f88a-4608-8edf-d722c29fd91d" d="m2616.96,2549.33v37.3c0-64.55-52.35-116.95-116.9-116.95h-716.65c-19.35,0-36.75,11.35-44.3,27.95-2.8-6.15-4.2-13-4-20.25.75-25.35,22.85-45,48.3-45h716.65c64.55,0,116.9,52.4,116.9,116.95Z"/>
    </g>
    <path class="uuid-641b5de5-e32a-4b7f-8db5-4d856fe67737" d="m2500.08,2795.87h-718.61c-16.74,0-32.38-6.61-44.04-18.62-11.67-12.02-17.83-27.89-17.33-44.67h0c1-32.8,29.4-59.47,63.31-59.47h704.46c11.76,0,21.33-9.6,21.33-21.41v-90.13c0-11.81-9.57-21.41-21.33-21.41h-706.39c-16.77,0-32.42-6.61-44.08-18.62-11.65-11.99-17.79-27.83-17.3-44.59,1-32.84,29.4-59.55,63.31-59.55h716.67c72.72,0,131.88,59.2,131.88,131.96v114.56c0,72.76-59.16,131.96-131.88,131.96Zm-750-62.39c-.25,8.6,2.9,16.73,8.87,22.87,5.96,6.14,13.96,9.52,22.52,9.52h718.61c56.18,0,101.88-45.74,101.88-101.96v-114.56c0-56.22-45.7-101.96-101.88-101.96h-716.67c-17.86,0-32.81,13.66-33.32,30.45-.25,8.57,2.89,16.67,8.83,22.8,5.96,6.14,13.97,9.52,22.56,9.52h706.39c28.3,0,51.33,23.06,51.33,51.41v90.13c0,28.35-23.03,51.41-51.33,51.41h-704.46c-17.86,0-32.81,13.63-33.32,30.37h0Z"/>
    <path class="uuid-dbbbf307-f88a-4608-8edf-d722c29fd91d" d="m1801.42,2688.11h686.45c20.02,0,36.33-16.31,36.33-36.41v-90.14c0-20.1-16.31-36.41-36.33-36.41h-686.45c44.68,54.34,44.68,108.61,0,162.95Z"/>
    <g class="uuid-77deab76-9388-4223-9ef1-4edc678429b5">
      <path class="uuid-641b5de5-e32a-4b7f-8db5-4d856fe67737" d="m2524.21,2561.58v69.65c0-20.1-16.3-36.45-36.35-36.45h-653.65c-2.75-23.2-13.7-46.4-32.8-69.65h686.45c20.05,0,36.35,16.35,36.35,36.45Z"/>
    </g>
    <path class="uuid-641b5de5-e32a-4b7f-8db5-4d856fe67737" d="m2487.87,2703.11h-686.45c-5.8,0-11.08-3.35-13.56-8.59-2.48-5.25-1.71-11.45,1.98-15.93,40.36-49.09,40.36-94.81,0-143.9-3.68-4.48-4.45-10.69-1.98-15.93,2.48-5.25,7.76-8.59,13.56-8.59h686.45c28.3,0,51.33,23.06,51.33,51.41v90.13c0,28.35-23.03,51.41-51.33,51.41Zm-657.57-30h657.57c11.76,0,21.33-9.6,21.33-21.41v-90.13c0-11.81-9.57-21.41-21.33-21.41h-657.57c25.89,43.88,25.89,89.07,0,132.95Z"/>
    <g>
      <path class="uuid-62be8d36-13c4-4a4f-97ec-86b4d2ac78e6" d="m2564.29,1604.64h658.45v480h-658.45c-98.88,0-179.17-80.28-179.17-179.17v-121.67c0-98.88,80.28-179.17,179.17-179.17Z" transform="translate(5607.86 3689.28) rotate(180)"/>
      <g class="uuid-38e4d454-ea1e-41b4-a89a-b8cfebf67f2d">
        <path class="uuid-dbbbf307-f88a-4608-8edf-d722c29fd91d" d="m3222.71,1783.83v63.65c0-98.95-80.2-179.15-179.15-179.15h-658.45v-63.7h658.45c98.95,0,179.15,80.25,179.15,179.2Z"/>
      </g>
      <g class="uuid-77deab76-9388-4223-9ef1-4edc678429b5">
        <path class="uuid-641b5de5-e32a-4b7f-8db5-4d856fe67737" d="m3222.16,1920.13c-7.5,92.1-84.6,164.5-178.6,164.5h-658.45v-480h37.5v384.2h658.45c57.25,0,108.25-26.85,141.1-68.7Z"/>
      </g>
      <path class="uuid-641b5de5-e32a-4b7f-8db5-4d856fe67737" d="m3043.57,2099.64h-658.44c-8.28,0-15-6.72-15-15v-480c0-8.28,6.72-15,15-15h658.44c107.07,0,194.17,87.1,194.17,194.17v121.66c0,107.07-87.1,194.17-194.17,194.17Zm-643.44-30h643.44c90.52,0,164.17-73.64,164.17-164.17v-121.66c0-90.52-73.64-164.17-164.17-164.17h-643.44v450Z"/>
      <path class="uuid-dbbbf307-f88a-4608-8edf-d722c29fd91d" d="m1907.74,1994.64h535c49.65,0,90-40.35,90-90v-120c0-49.65-40.35-90-90-90h-535c60,38.35,58.35,263.35,0,300Z"/>
      <g class="uuid-77deab76-9388-4223-9ef1-4edc678429b5">
        <path class="uuid-641b5de5-e32a-4b7f-8db5-4d856fe67737" d="m2532.71,1784.63v98.35c0-49.65-40.35-90-90-90h-493.7c-5.7-45.5-19.4-84.35-41.3-98.35h535c49.65,0,90,40.35,90,90Z"/>
      </g>
      <path class="uuid-641b5de5-e32a-4b7f-8db5-4d856fe67737" d="m2442.74,2009.64h-535c-6.68,0-12.56-4.42-14.41-10.85-1.85-6.42.77-13.3,6.44-16.85,21.39-13.44,37.1-70.79,37.36-136.37.26-67.16-15.14-124.02-37.46-138.29-5.62-3.59-8.19-10.45-6.32-16.85,1.87-6.39,7.73-10.79,14.4-10.79h535c57.9,0,105,47.1,105,105v120c0,57.9-47.1,105-105,105Zm-502.45-30h502.45c41.36,0,75-33.65,75-75v-120c0-41.36-33.64-75-75-75h-502.39c19.59,34.71,26.96,88.99,26.77,136.04-.18,46.42-7.7,99.8-26.83,133.96Z"/>
      <path class="uuid-62be8d36-13c4-4a4f-97ec-86b4d2ac78e6" d="m1846.49,2039.64c0,24.85,20.15,45,45,45h551.25c99.25,0,180-80.75,180-180v-120c0-99.25-80.75-180-180-180h-551.25c-24.85,0-45,20.15-45,45s20.15,45,45,45h551.25c49.65,0,90,40.35,90,90v120c0,49.65-40.35,90-90,90h-551.25c-24.85,0-45,20.15-45,45Z"/>
      <g class="uuid-38e4d454-ea1e-41b4-a89a-b8cfebf67f2d">
        <path class="uuid-dbbbf307-f88a-4608-8edf-d722c29fd91d" d="m2532.71,1904.63v26.25c0,49.65-40.35,90-90,90h-551.25c-20.3,0-37.45,13.45-43.05,31.9-1.25-4.2-1.95-8.6-1.95-13.15,0-24.85,20.15-45,45-45h551.25c49.65,0,90-40.35,90-90Z"/>
      </g>
      <g class="uuid-77deab76-9388-4223-9ef1-4edc678429b5">
        <path class="uuid-57209792-14a2-4e51-9022-3b8ffb7cd238" d="m2622.71,1870.88v33.75c0,99.25-80.75,180-180,180h-551.25c-24.85,0-45-20.15-45-45,0-5.95,1.15-11.65,3.3-16.85,6.7,16.5,22.85,28.1,41.7,28.1h551.25c99.25,0,180-80.75,180-180Z"/>
      </g>
      <g class="uuid-38e4d454-ea1e-41b4-a89a-b8cfebf67f2d">
        <path class="uuid-dbbbf307-f88a-4608-8edf-d722c29fd91d" d="m2622.71,1784.63v38.35c0-99.25-80.75-180-180-180h-551.25c-18,0-33.55,10.55-40.7,25.85-2.75-5.8-4.3-12.35-4.3-19.2,0-24.85,20.15-45,45-45h551.25c99.25,0,180,80.75,180,180Z"/>
      </g>
      <path class="uuid-641b5de5-e32a-4b7f-8db5-4d856fe67737" d="m2442.74,2099.64h-551.25c-33.08,0-60-26.92-60-60s26.92-60,60-60h551.25c41.36,0,75-33.65,75-75v-120c0-41.36-33.64-75-75-75h-551.25c-33.08,0-60-26.92-60-60s26.92-60,60-60h551.25c107.52,0,195,87.48,195,195v120c0,107.52-87.48,195-195,195Zm-551.25-90c-16.54,0-30,13.46-30,30s13.46,30,30,30h551.25c90.98,0,165-74.02,165-165v-120c0-90.98-74.02-165-165-165h-551.25c-16.54,0-30,13.46-30,30s13.46,30,30,30h551.25c57.9,0,105,47.1,105,105v120c0,57.9-47.1,105-105,105h-551.25Z"/>
      <polygon class="uuid-401c3772-4945-42f6-8c6d-676c0eda59a6" points="2201.07 1694.64 2201.07 1844.64 2151.49 1800.89 2101.49 1844.64 2101.49 1694.64 2201.07 1694.64"/>
      <g class="uuid-77deab76-9388-4223-9ef1-4edc678429b5">
        <rect class="uuid-57209792-14a2-4e51-9022-3b8ffb7cd238" x="2101.46" y="1694.63" width="99.6" height="54.2"/>
      </g>
      <path class="uuid-641b5de5-e32a-4b7f-8db5-4d856fe67737" d="m2201.07,1857.14c-2.99,0-5.94-1.07-8.27-3.13l-41.35-36.48-41.73,36.52c-3.69,3.23-8.93,4.01-13.4,1.98-4.47-2.03-7.33-6.48-7.33-11.38v-150c0-6.9,5.6-12.5,12.5-12.5h99.58c6.9,0,12.5,5.6,12.5,12.5v150c0,4.91-2.88,9.37-7.36,11.39-1.65.74-3.4,1.11-5.14,1.11Zm-87.09-150v109.95l29.27-25.61c4.73-4.14,11.79-4.12,16.5.03l28.81,25.42v-109.8h-74.58Z"/>
    </g>
    <g>
      <path class="uuid-1eb299b1-dac0-42eb-9779-8402b3f8e667" d="m2025.55,2594.19c-215.01,185.55-453.33,251.4-737.74,234.62-27.29-1.61-50.38-20.78-57.49-47.22l-32.52-136.17-3.09-12.92-13.15-55.01-17.34-72.67-17.85-74.61,756.71-242.27,30.09,71.69,28.2,67.25,21.79,51.98,7.16,17.13,53.14,126.63c9.8,25.21,2.6,53.87-17.93,71.58Z"/>
      <g class="uuid-38e4d454-ea1e-41b4-a89a-b8cfebf67f2d">
        <path class="uuid-dbbbf307-f88a-4608-8edf-d722c29fd91d" d="m2028.6,2603.72c-215.01,185.55-453.33,251.4-737.74,234.62-5.29-.3-10.44-1.28-15.3-2.87,272.84,11.3,501.57-60.89,709.92-240.68,20.53-17.7,27.73-46.36,17.93-71.58l-51.62-121.86-7.16-17.13-21.79-51.98-28.2-67.25-23.63-56.27,35.14-11.25,30.09,71.69,28.2,67.25,21.79,51.98,7.16,17.13,53.14,126.63c9.8,25.21,2.6,53.87-17.93,71.58Z"/>
      </g>
      <g class="uuid-77deab76-9388-4223-9ef1-4edc678429b5">
        <path class="uuid-641b5de5-e32a-4b7f-8db5-4d856fe67737" d="m1942.94,2282.86l-14.48,4.63-22.51,50.73c-11.02,24.84-28.75,46.11-51.19,61.44l-235.4,160.77c-7.97,5.44-17.4,8.46-27.05,8.66l-60.86,1.25c-41.49.85-71.58,39.8-61.94,80.16l12.1,50.64c7.1,26.44,30.2,45.61,57.49,47.22,96.69,5.69,188.02,1.86,274.93-13-158.7,77.74-331.65,104.92-526.21,93.45-27.29-1.61-50.38-20.78-57.49-47.22l-32.52-136.17-3.09-12.92-13.15-55.01-17.34-72.67-17.85-74.61-27.41-114.81,251.28-80.45,27.41,114.81,505.43-161.82,30.09,71.69,9.75,23.23Z"/>
      </g>
      <path class="uuid-57209792-14a2-4e51-9022-3b8ffb7cd238" d="m1370.94,2846.32c-27.45,0-55.44-.85-84.01-2.54-33.73-1.99-62.29-25.42-71.07-58.3l-111.48-466.59c-1.82-7.63,2.54-15.38,10.02-17.77l738.42-236.41c7.41-2.38,15.4,1.31,18.41,8.48l186.11,443.6c12.21,31.4,3.32,66.92-21.98,88.75-189.2,163.27-402.03,240.78-664.41,240.78Zm-234.15-520.87l108.15,452.67c5.34,19.98,22.97,34.48,43.76,35.72,293.3,17.3,524.34-56.08,727.05-231.01l9.8,11.36-9.8-11.36c15.71-13.55,21.24-35.58,13.76-54.8l-180.64-430.56-712.08,227.98Z"/>
      <polygon class="uuid-1eb299b1-dac0-42eb-9779-8402b3f8e667" points="2075.28 2076.87 2104.27 2167.42 1590.89 2518 969.36 2530.78 940.37 2440.23 2075.28 2076.87"/>
      <g class="uuid-38e4d454-ea1e-41b4-a89a-b8cfebf67f2d">
        <polygon class="uuid-dbbbf307-f88a-4608-8edf-d722c29fd91d" points="2075.27 2076.85 2104.27 2167.42 2070.89 2190.23 2038.37 2088.66 2075.27 2076.85"/>
      </g>
      <g class="uuid-77deab76-9388-4223-9ef1-4edc678429b5">
        <path class="uuid-641b5de5-e32a-4b7f-8db5-4d856fe67737" d="m1561.86,2427.39l26.77,83.62,6.24,4.25-4,2.75-621.5,12.77-29-90.57,720.57-230.7c-142.81,172.14-99.08,217.89-99.08,217.89Z"/>
      </g>
      <path class="uuid-641b5de5-e32a-4b7f-8db5-4d856fe67737" d="m969.36,2545.78c-6.51,0-12.29-4.2-14.28-10.42l-28.99-90.55c-1.21-3.79-.87-7.91.95-11.44,1.82-3.54,4.97-6.21,8.76-7.42l1134.91-363.36c3.79-1.21,7.91-.87,11.44.95,3.54,1.82,6.21,4.97,7.42,8.76l28.99,90.55c2.02,6.32-.35,13.22-5.83,16.96l-513.38,350.57c-2.41,1.64-5.24,2.55-8.15,2.61l-621.53,12.79c-.1,0-.21,0-.31,0Zm-10.13-95.84l21.01,65.62,605.88-12.46,500.46-341.75-21.01-65.62-1106.34,354.21Z"/>
      <polygon class="uuid-1eb299b1-dac0-42eb-9779-8402b3f8e667" points="2075.25 2076.85 1561.87 2427.39 940.36 2440.2 1436.2 2034.87 2075.25 2076.85"/>
      <path class="uuid-1eb299b1-dac0-42eb-9779-8402b3f8e667" d="m1544.38,2427.74l-604.01,12.47,335.61-274.4c-119.59,167.6,7.7,240.35,268.4,261.93Z"/>
      <g class="uuid-38e4d454-ea1e-41b4-a89a-b8cfebf67f2d">
        <path class="uuid-dbbbf307-f88a-4608-8edf-d722c29fd91d" d="m2075.27,2076.85l-513.41,350.54-64.88,1.35,440.37-300.68c14.69-10.03,8.42-32.96-9.32-34.12l-522.13-34.3,30.29-24.77,639.08,41.98Z"/>
      </g>
      <path class="uuid-641b5de5-e32a-4b7f-8db5-4d856fe67737" d="m940.36,2455.2c-6.27,0-11.9-3.91-14.07-9.81-2.21-6-.37-12.75,4.58-16.8l478.63-391.26c14.05-11.48,31.73-17.16,49.86-15.96l616.87,40.52c6.38.42,11.8,4.84,13.49,11.01,1.68,6.17-.73,12.73-6.01,16.34l-499.52,341.07c-11.47,7.83-24.88,12.13-38.78,12.42l-604.73,12.47c-.1,0-.21,0-.31,0Zm514.29-403.99c-9.53,0-18.73,3.27-26.17,9.35l-444.98,363.75,561.28-11.57c8.06-.17,15.83-2.66,22.48-7.2l463.63-316.57-573.5-37.67c-.91-.06-1.83-.09-2.74-.09Z"/>
      <ellipse class="uuid-641b5de5-e32a-4b7f-8db5-4d856fe67737" cx="1492.37" cy="2210.31" rx="74.48" ry="32.7" transform="translate(-602.9 560.31) rotate(-17.75)"/>
      <path class="uuid-641b5de5-e32a-4b7f-8db5-4d856fe67737" d="m1361.62,2905.25c-6.35,0-12.24-4.06-14.28-10.43l-145.9-455.72c-1.89-5.89.04-12.33,4.84-16.23l276.65-224.21c6.43-5.21,15.88-4.23,21.1,2.21,5.22,6.44,4.23,15.88-2.21,21.1l-268.68,217.76,142.77,445.95c2.53,7.89-1.82,16.33-9.71,18.86-1.52.49-3.06.72-4.58.72Z"/>
      <path class="uuid-641b5de5-e32a-4b7f-8db5-4d856fe67737" d="m1428.96,2999.49l-56.35,18.04c-13.83,4.43-28.28-4.82-30.04-19.24l-10.83-88.62c-1.35-11.03,5.33-21.47,15.92-24.86l20.56-6.58c10.21-3.27,21.33.9,26.87,10.07l46.63,77.16c7.73,12.8,1.49,29.46-12.75,34.02Z"/>
      <g class="uuid-77deab76-9388-4223-9ef1-4edc678429b5">
        <path class="uuid-641b5de5-e32a-4b7f-8db5-4d856fe67737" d="m1544.38,2427.74l-604.01,12.47,335.61-274.4c-119.59,167.6,7.7,240.35,268.4,261.93Z"/>
      </g>
    </g>
    <g class="uuid-43b0cb2e-af70-40aa-9b9b-79e7f28e3aab">
      <path class="uuid-dbbbf307-f88a-4608-8edf-d722c29fd91d" d="m3003.91,1720.59c0,19.49-39.78,39.71-88.84,39.71s-88.84-20.22-88.84-39.71,39.78-17.21,88.84-17.21,88.84-2.28,88.84,17.21Z"/>
    </g>
    <g class="uuid-43b0cb2e-af70-40aa-9b9b-79e7f28e3aab">
      <path class="uuid-dbbbf307-f88a-4608-8edf-d722c29fd91d" d="m3207.16,2194.03c0,19.49-39.78,39.71-88.84,39.71s-88.84-20.22-88.84-39.71,39.78-17.21,88.84-17.21,88.84-2.28,88.84,17.21Z"/>
    </g>
    <g class="uuid-43b0cb2e-af70-40aa-9b9b-79e7f28e3aab">
      <path class="uuid-dbbbf307-f88a-4608-8edf-d722c29fd91d" d="m2942.12,2534.57c0,19.49-39.78,39.71-88.84,39.71s-88.84-20.22-88.84-39.71,39.78-17.21,88.84-17.21,88.84-2.28,88.84,17.21Z"/>
    </g>
    <g class="uuid-43b0cb2e-af70-40aa-9b9b-79e7f28e3aab">
      <path class="uuid-dbbbf307-f88a-4608-8edf-d722c29fd91d" d="m2798.7,1727.38c0,13.3-17.16,24.08-38.33,24.08s-38.33-10.78-38.33-24.08,17.16-19.08,38.33-19.08,38.33,5.78,38.33,19.08Z"/>
    </g>
    <g class="uuid-43b0cb2e-af70-40aa-9b9b-79e7f28e3aab">
      <path class="uuid-dbbbf307-f88a-4608-8edf-d722c29fd91d" d="m3047.25,2538.27c0,13.3-17.16,24.08-38.33,24.08s-38.33-10.78-38.33-24.08,17.16-19.08,38.33-19.08,38.33,5.78,38.33,19.08Z"/>
    </g>
    <g class="uuid-43b0cb2e-af70-40aa-9b9b-79e7f28e3aab">
      <path class="uuid-dbbbf307-f88a-4608-8edf-d722c29fd91d" d="m3003.91,2195.82c0,13.3-17.16,24.08-38.33,24.08s-38.33-10.78-38.33-24.08,17.16-19.08,38.33-19.08,38.33,5.78,38.33,19.08Z"/>
    </g>
    <path class="uuid-401c3772-4945-42f6-8c6d-676c0eda59a6" d="m416.82,1408.9c-4.33,0-8.7-.31-13.06-.92-24.39-3.44-45.98-16.17-60.79-35.84-14.81-19.68-21.08-43.94-17.64-68.33h0c7.1-50.34,53.84-85.54,104.17-78.43,24.39,3.44,45.98,16.17,60.79,35.84,14.81,19.68,21.08,43.94,17.64,68.33-3.44,24.39-16.17,45.98-35.84,60.79-16.15,12.16-35.4,18.56-55.27,18.56Zm-46.93-98.81c-1.76,12.49,1.45,24.91,9.03,34.98,7.58,10.07,18.64,16.59,31.12,18.35,12.5,1.76,24.91-1.45,34.98-9.03,10.07-7.58,16.59-18.64,18.35-31.12,1.76-12.49-1.45-24.91-9.03-34.98-7.58-10.07-18.64-16.59-31.12-18.35-25.8-3.65-49.7,14.38-53.33,40.15h0Z"/>
    <path class="uuid-401c3772-4945-42f6-8c6d-676c0eda59a6" d="m765.8,1084.95h-.05c-.86.05-1.56.37-2.02.96-.04.06-.09.07-.12.17l-36.96,19.03c-7.47,3.84-16.55-.42-18.43-8.62-2.96-13.14-7.73-26.44-22.57-38.75-37.3-31.06-61.6-1.84-98.94-32.84-37.3-31.06-13-60.28-50.29-91.29-9.64-8.01-18.4-12-26.75-14.06-10.51-2.59-15.91-14.18-10.85-23.75l16.2-30.66c2.98-5.63,8.93-9.07,15.29-8.76,17.81.87,35-1.2,56.43,16.62,37.3,31.06,13,60.28,50.3,91.34,37.35,31.05,61.64,1.78,98.99,32.83,30.52,25.4,21.95,44.43,35.37,70.62,3.18,6.26.66,13.93-5.59,17.16Z"/>
    <path class="uuid-48cf2d56-ac47-448c-a555-50a06f1a1491" d="m361.84,2694.73l-12.27-33.94c-3.34-9.24.37-19.75,9.06-24.33,3.15-1.66,6.34-3.69,9.59-6.18,38.56-29.45,15.48-59.68,54.04-89.13,38.53-29.51,61.65.72,100.17-28.74,23.41-17.87,24.11-35.99,29.65-54.09,5.99-19.48,31.75-23.63,43.47-6.95l14.44,20.65c6.06,8.57,5.89,20.02-.29,28.47-17.96,24.74-7.27,49.87-39.41,74.43-38.53,29.51-61.65-.72-100.17,28.74-38.62,29.49-15.49,59.73-54.06,89.18-12.51,9.57-22.68,13.37-32.17,14.91-9.52,1.54-18.78-3.96-22.05-13.03Z"/>
    <circle class="uuid-401c3772-4945-42f6-8c6d-676c0eda59a6" cx="574.32" cy="2247.53" r="29.97" transform="translate(-1735.92 2457.42) rotate(-80.86)"/>
    <circle class="uuid-62be8d36-13c4-4a4f-97ec-86b4d2ac78e6" cx="545.24" cy="1559.38" r="21.02"/>
    <circle class="uuid-b0abe038-776f-4153-b645-b86e330a9bd8" cx="738.42" cy="2652.59" r="21.02" transform="translate(-1659.38 1299.07) rotate(-45)"/>
    <path class="uuid-62117d6e-11e4-4b89-89c2-e44a683c6f89" d="m3469.78,1719.91c-.54,0-1.08,0-1.62-.01-50.84-.88-91.47-42.96-90.59-93.79.43-24.62,10.42-47.61,28.13-64.72,17.71-17.11,40.93-26.28,65.66-25.87,24.62.43,47.61,10.42,64.72,28.13,17.11,17.71,26.3,41.04,25.87,65.66-.87,50.29-42.07,90.6-92.17,90.61Zm-.04-139.41c-12.3,0-23.91,4.69-32.77,13.25-9.07,8.76-14.18,20.53-14.4,33.13h0c-.45,26.02,20.35,47.56,46.38,48.02,26,.47,47.57-20.35,48.02-46.38.22-12.61-4.48-24.54-13.24-33.61-8.76-9.07-20.53-14.18-33.13-14.4-.28,0-.56,0-.84,0Z"/>
    <path class="uuid-62117d6e-11e4-4b89-89c2-e44a683c6f89" d="m3225.57,1243.33h.05c.84.15,1.51.55,1.9,1.18.03.06.08.08.1.19l34.57,23.09c6.98,4.66,16.49,1.46,19.29-6.48,4.43-12.72,10.68-25.39,26.82-35.94,40.58-26.63,61.41,5.16,102.03-21.41,40.58-26.63,19.75-58.42,60.32-85,10.49-6.86,19.64-9.84,28.17-10.94,10.73-1.39,17.41-12.28,13.47-22.36l-12.62-32.3c-2.32-5.93-7.84-10.03-14.19-10.44-17.8-1.15-34.64-5.17-57.95,10.12-40.58,26.63-19.75,58.42-60.33,85.05-40.63,26.61-61.45-5.22-102.08,21.39-33.21,21.78-26.85,41.66-43.15,66.16-3.87,5.86-2.24,13.77,3.61,17.68Z"/>
    <path class="uuid-62be8d36-13c4-4a4f-97ec-86b4d2ac78e6" d="m3648.72,2791.31l4.22-35.84c1.15-9.75-4.86-19.14-14.36-21.63-3.44-.9-7.02-2.15-10.75-3.83-44.26-19.9-28.66-54.58-72.92-74.48-44.23-19.97-59.87,14.74-104.08-5.18-26.87-12.07-31.67-29.55-41.19-45.91-10.26-17.61-36.3-15.78-43.91,3.13l-9.36,23.4c-3.95,9.72-1.17,20.83,6.77,27.66,23.12,20,18.43,46.91,55.32,63.5,44.23,19.97,59.87-14.74,104.08,5.18,44.32,19.92,28.69,54.63,72.94,74.53,14.36,6.47,25.13,7.85,34.72,7.19,9.62-.66,17.38-8.13,18.51-17.71Z"/>
    <circle class="uuid-401c3772-4945-42f6-8c6d-676c0eda59a6" cx="3581.82" cy="1384.99" r="29.97" transform="translate(-217.8 1942.24) rotate(-29.48)"/>
    <circle class="uuid-48cf2d56-ac47-448c-a555-50a06f1a1491" cx="3589" cy="2379.75" r="43.09" transform="translate(-44.14 67.95) rotate(-1.08)"/>
    <circle class="uuid-62be8d36-13c4-4a4f-97ec-86b4d2ac78e6" cx="3489.08" cy="2222.24" r="17.8" transform="translate(-353.66 3753.71) rotate(-54.22)"/>
  </g>
</svg>