<svg width="1080" height="1080" viewBox="0 0 1080 1080" fill="none" xmlns="http://www.w3.org/2000/svg">
<path d="M971.662 713.15C970.665 713.15 969.713 712.753 969.008 712.051L954.587 697.63C953.884 696.927 953.488 695.972 953.488 694.975C953.488 693.979 953.884 693.027 954.587 692.321L969.008 677.9C970.473 676.435 972.848 676.435 974.316 677.9L988.737 692.321C990.202 693.786 990.202 696.161 988.737 697.63L974.316 712.051C973.614 712.753 972.659 713.15 971.662 713.15ZM962.546 694.975L971.662 704.091L980.774 694.975L971.662 685.863L962.546 694.975Z" fill="#FFCA28"/>
<path d="M1030.73 633.905C1028.66 633.905 1026.98 632.223 1026.98 630.151V605.624C1026.98 603.552 1028.66 601.871 1030.73 601.871C1032.8 601.871 1034.49 603.552 1034.49 605.624V630.151C1034.49 632.223 1032.8 633.905 1030.73 633.905Z" fill="#FF5722"/>
<path d="M1043 621.642H1018.47C1016.4 621.642 1014.72 619.961 1014.72 617.889C1014.72 615.818 1016.4 614.136 1018.47 614.136H1043C1045.07 614.136 1046.75 615.818 1046.75 617.889C1046.75 619.961 1045.07 621.642 1043 621.642Z" fill="#FF5722"/>
<path d="M72.3861 660.549C70.7287 660.549 69.2094 659.441 68.7621 657.762L62.4358 634.067C61.9013 632.064 63.0903 630.007 65.093 629.473C67.0867 628.935 69.1524 630.127 69.6868 632.13L76.0131 655.826C76.5475 657.828 75.3585 659.885 73.3559 660.42C73.0316 660.507 72.7073 660.549 72.3861 660.549Z" fill="#8BC34A"/>
<path d="M57.3736 651.866C55.7162 651.866 54.1969 650.758 53.7496 649.079C53.2151 647.077 54.4041 645.02 56.4068 644.485L80.1055 638.159C82.0992 637.622 84.1649 638.814 84.6993 640.816C85.2338 642.819 84.0448 644.876 82.0421 645.41L58.3434 651.736C58.0191 651.824 57.6948 651.866 57.3736 651.866Z" fill="#8BC34A"/>
<path d="M991.352 564.307C983.248 564.307 976.652 557.713 976.652 549.606C976.652 541.5 983.245 534.906 991.352 534.906C999.459 534.906 1006.05 541.5 1006.05 549.606C1006.05 557.713 999.459 564.307 991.352 564.307ZM991.352 542.415C987.386 542.415 984.158 545.643 984.158 549.609C984.158 553.576 987.386 556.803 991.352 556.803C995.319 556.803 998.546 553.576 998.546 549.609C998.546 545.643 995.319 542.415 991.352 542.415Z" fill="#102770"/>
<path d="M124.885 737.518C121.774 737.518 118.706 736.701 115.94 735.101C111.797 732.705 108.833 728.838 107.599 724.211C105.047 714.663 110.74 704.821 120.291 702.269C129.851 699.719 139.684 705.412 142.236 714.963C143.473 719.59 142.831 724.421 140.435 728.564C138.036 732.708 134.168 735.671 129.542 736.905C128.001 737.317 126.44 737.521 124.888 737.521L124.885 737.518ZM124.912 709.165C124.026 709.165 123.122 709.279 122.225 709.52C116.673 711.003 113.364 716.726 114.847 722.274C115.565 724.964 117.288 727.213 119.696 728.606C122.104 730 124.912 730.372 127.599 729.654C130.289 728.937 132.538 727.213 133.931 724.805C135.324 722.397 135.697 719.59 134.979 716.903C133.736 712.249 129.512 709.168 124.909 709.168L124.912 709.165Z" fill="#102770"/>
<path d="M103.489 568.216C102.783 568.216 102.081 568.018 101.468 567.624L78.7303 553.086C77.6014 552.363 76.9408 551.093 77.0039 549.754C77.0639 548.414 77.8356 547.207 79.0246 546.592L102.985 534.168C104.174 533.549 105.606 533.615 106.735 534.339C107.864 535.062 108.524 536.332 108.461 537.671L107.239 564.634C107.179 565.973 106.407 567.18 105.218 567.796C104.675 568.078 104.083 568.216 103.492 568.216H103.489ZM88.2483 550.264L100.033 557.8L100.667 543.827L88.2483 550.267V550.264Z" fill="#19B5FE"/>
<path d="M539.5 917.404C748.21 917.404 917.404 748.21 917.404 539.5C917.404 330.79 748.21 161.596 539.5 161.596C330.79 161.596 161.596 330.79 161.596 539.5C161.596 748.21 330.79 917.404 539.5 917.404Z" fill="#7FFFB6"/>
<path d="M513.624 668.98L471.938 680.248L396.776 700.548L307.055 724.796C284.561 730.882 261.381 717.572 255.295 695.063L166.602 366.826C160.53 344.332 173.841 321.152 196.335 315.066L402.904 259.25C425.414 253.179 448.593 266.489 454.664 288.983L473.904 360.164L486.962 408.531L543.358 617.223C549.444 639.732 536.134 662.912 513.624 668.983V668.98Z" fill="#DCDEE0"/>
<g opacity="0.3">
<path d="M274.355 321.498C272.746 321.446 271.293 320.36 270.851 318.723C270.311 316.724 271.494 314.661 273.497 314.12L332.093 298.285C334.093 297.745 336.153 298.928 336.696 300.93C337.237 302.93 336.054 304.993 334.051 305.533L275.454 321.368C275.088 321.467 274.719 321.51 274.355 321.498Z" fill="#5F5A57"/>
</g>
<path d="M490.769 622.141L352.745 659.432L317.207 669.031L303.209 672.814C291.016 676.114 278.46 668.902 275.175 656.709L269.413 635.382V635.367L245.273 546.054L235.743 510.76L218.875 448.335L197.791 370.324C196.014 363.749 199.89 356.993 206.466 355.216L276.235 336.369L332.934 321.047L365.001 312.376L414.383 299.036C420.943 297.258 427.714 301.15 429.491 307.71L432.17 317.645V317.66L454.64 400.775L465.209 439.916L506.878 594.106C510.178 606.285 502.966 618.841 490.772 622.141H490.769Z" fill="#22A7F0"/>
<path d="M390.051 399.77L278.225 429.987C269.086 432.458 259.673 427.05 257.202 417.908L256.235 414.329C253.764 405.189 259.172 395.776 268.314 393.305L380.139 363.088C389.279 360.617 398.692 366.025 401.163 375.167L402.13 378.746C404.601 387.886 399.193 397.299 390.051 399.77Z" fill="#102770"/>
<path d="M407.939 465.972L296.114 496.189C286.975 498.66 277.562 493.252 275.091 484.11L274.124 480.531C271.653 471.391 277.061 461.978 286.203 459.507L398.028 429.29C407.168 426.819 416.581 432.227 419.052 441.369L420.019 444.948C422.49 454.088 417.082 463.501 407.939 465.972Z" fill="#102770"/>
<path d="M425.828 532.171L314.003 562.388C304.864 564.859 295.451 559.452 292.98 550.309L292.013 546.73C289.542 537.59 294.949 528.178 304.092 525.707L415.917 495.489C425.057 493.018 434.47 498.426 436.941 507.568L437.907 511.147C440.378 520.287 434.971 529.7 425.828 532.171Z" fill="#102770"/>
<path d="M316.354 400.748C315.886 399.235 315.327 397.401 314.829 395.554L314.772 395.569C314.817 397.299 314.772 399.253 314.688 400.875L314.481 406.252L312.238 406.859L309.548 402.304C308.731 400.926 307.806 399.232 307.055 397.653L307.016 397.662C307.407 399.4 307.878 401.376 308.211 402.985L309.289 407.876L306.629 408.594L304.005 395.662L307.833 394.626L310.223 398.536C311.019 399.899 311.844 401.376 312.529 402.79L312.586 402.775C312.547 401.208 312.526 399.409 312.559 397.881L312.775 393.29L316.528 392.275L320.66 404.802L317.849 405.561L316.345 400.745L316.354 400.748Z" fill="white"/>
<path d="M324.893 400.16L324.869 403.667L321.891 404.475L322.338 390.711L326.112 389.693L333.489 401.34L330.397 402.178L328.535 399.178L324.893 400.163V400.16ZM327.539 397.139L326.016 394.656C325.587 393.966 325.103 393.08 324.713 392.378L324.674 392.387C324.689 393.194 324.758 394.206 324.749 394.999L324.725 397.899L327.536 397.139H327.539Z" fill="white"/>
<path d="M333.288 390.345L329.874 391.267L329.223 388.853L338.993 386.213L339.645 388.627L336.174 389.567L338.957 399.866L336.072 400.646L333.288 390.348V390.345Z" fill="white"/>
<path d="M343.404 385.018L344.722 389.903L349.457 388.624L348.136 383.739L351.003 382.965L354.438 395.677L351.571 396.452L350.132 391.131L345.397 392.411L346.836 397.731L343.95 398.512L340.515 385.799L343.401 385.018H343.404Z" fill="white"/>
<path d="M313.538 474.586C314.418 474.775 315.715 474.847 316.94 474.517C318.258 474.16 318.81 473.427 318.588 472.595C318.375 471.803 317.648 471.514 315.97 471.379C313.658 471.214 311.965 470.418 311.466 468.569C310.881 466.398 312.244 464.248 315.243 463.438C316.678 463.05 317.813 463.065 318.66 463.203L318.648 465.699C318.072 465.59 317.069 465.476 315.826 465.813C314.58 466.149 314.132 466.879 314.31 467.539C314.529 468.35 315.342 468.515 317.153 468.695C319.621 468.917 320.993 469.803 321.476 471.592C322.053 473.724 320.903 475.979 317.411 476.922C315.958 477.315 314.421 477.324 313.595 477.123L313.538 474.586Z" fill="white"/>
<path d="M333.67 471.944C333.213 472.349 332.102 472.953 330.553 473.373C326.157 474.559 323.155 472.439 322.176 468.815C321.005 464.477 323.443 461.225 327.292 460.183C328.785 459.781 329.998 459.778 330.58 459.904L330.61 462.345C329.962 462.258 329.088 462.249 328.07 462.525C325.785 463.14 324.383 464.999 325.149 467.827C325.836 470.373 327.779 471.571 330.343 470.878C331.211 470.644 332.123 470.193 332.628 469.815L333.67 471.944Z" fill="white"/>
<path d="M335.099 458.297L338.534 471.01L335.648 471.791L332.21 459.078L335.099 458.297Z" fill="white"/>
<path d="M347.133 462.918L342.455 464.182L343.272 467.2L348.496 465.789L349.133 468.146L341.02 470.337L337.585 457.625L345.43 455.505L346.067 457.865L341.11 459.204L341.821 461.843L346.499 460.579L347.133 462.918Z" fill="white"/>
<path d="M351.09 467.62L347.652 454.908L351.009 454.001L354.909 457.946C356.026 459.081 357.209 460.462 358.161 461.744L358.218 461.729C357.576 460.102 357.053 458.399 356.54 456.493L355.534 452.779L358.176 452.067L361.611 464.78L358.593 465.593L354.552 461.423C353.429 460.27 352.156 458.853 351.129 457.532L351.078 457.568C351.607 459.225 352.129 461.009 352.687 463.08L353.723 466.909L351.084 467.623L351.09 467.62Z" fill="white"/>
<path d="M373.342 461.222C372.885 461.63 371.774 462.234 370.225 462.651C365.829 463.84 362.827 461.714 361.848 458.093C360.677 453.755 363.115 450.503 366.964 449.464C368.457 449.062 369.67 449.056 370.252 449.185L370.282 451.626C369.634 451.539 368.76 451.533 367.742 451.806C365.457 452.425 364.055 454.28 364.821 457.108C365.508 459.655 367.451 460.853 370.015 460.159C370.883 459.925 371.795 459.474 372.3 459.096L373.342 461.225V461.222Z" fill="white"/>
<path d="M381.433 453.649L376.755 454.914L377.572 457.934L382.797 456.52L383.433 458.877L375.32 461.069L371.885 448.356L379.731 446.233L380.367 448.593L375.41 449.932L376.122 452.575L380.8 451.311L381.433 453.649Z" fill="white"/>
<path d="M336.513 535.864L331.835 537.128L332.649 540.149L337.873 538.737L338.513 541.094L330.4 543.286L326.965 530.574L334.814 528.454L335.45 530.811L330.49 532.15L331.205 534.792L335.882 533.528L336.513 535.864Z" fill="white"/>
<path d="M340.47 540.563L337.035 527.85L340.395 526.944L344.295 530.889C345.412 532.024 346.595 533.402 347.547 534.684L347.604 534.669C346.962 533.039 346.442 531.339 345.926 529.433L344.923 525.719L347.562 525.004L351 537.717L347.983 538.53L343.941 534.36C342.818 533.204 341.548 531.79 340.521 530.468L340.467 530.502C340.999 532.159 341.521 533.939 342.08 536.017L343.116 539.845L340.473 540.56L340.47 540.563Z" fill="white"/>
<path d="M363.947 533.591C363.142 534.135 361.575 535.002 359.897 535.456C357.576 536.083 355.741 535.951 354.267 535.134C352.802 534.357 351.709 532.87 351.225 531C350.102 526.769 352.525 523.524 356.696 522.398C358.335 521.956 359.686 521.932 360.389 522.067L360.407 524.533C359.626 524.418 358.696 524.409 357.299 524.785C354.903 525.433 353.459 527.28 354.204 530.033C354.912 532.657 356.972 533.759 359.329 533.123C359.99 532.946 360.497 532.726 360.692 532.555L359.975 529.895L358.014 530.423L357.407 528.178L362.142 526.899L363.953 533.594L363.947 533.591Z" fill="white"/>
<path d="M362.908 520.86L365.793 520.08L368.577 530.378L373.633 529.012L374.284 531.426L366.343 533.573L362.905 520.86H362.908Z" fill="white"/>
<path d="M375.431 517.477L378.866 530.189L375.981 530.97L372.543 518.257L375.431 517.477Z" fill="white"/>
<path d="M380.647 526.529C381.527 526.718 382.824 526.79 384.049 526.46C385.37 526.103 385.919 525.367 385.697 524.539C385.484 523.746 384.757 523.458 383.082 523.323C380.767 523.157 379.077 522.362 378.578 520.512C377.993 518.341 379.353 516.195 382.352 515.384C383.787 514.997 384.922 515.012 385.772 515.147L385.757 517.642C385.181 517.534 384.181 517.42 382.935 517.756C381.689 518.092 381.241 518.822 381.418 519.482C381.638 520.293 382.451 520.458 384.259 520.635C386.727 520.861 388.099 521.746 388.582 523.536C389.159 525.667 388.009 527.919 384.517 528.862C383.064 529.255 381.527 529.267 380.704 529.063L380.647 526.526V526.529Z" fill="white"/>
<path d="M390.984 513.273L392.306 518.158L397.04 516.879L395.722 511.994L398.59 511.219L402.025 523.932L399.157 524.707L397.719 519.386L392.987 520.665L394.425 525.986L391.537 526.766L388.102 514.054L390.987 513.273H390.984Z" fill="white"/>
<path d="M538.206 650.929C538.659 646.993 538.383 642.9 537.278 638.823L443.471 291.638C438.799 274.37 421.018 264.156 403.751 268.813L178.23 329.76C176.261 330.286 174.393 330.991 172.622 331.853C178.083 323.899 186.295 317.786 196.335 315.066L402.904 259.25C425.414 253.179 448.593 266.489 454.664 288.983L543.358 617.22C546.589 629.158 544.364 641.267 538.203 650.929H538.206Z" fill="white"/>
<path d="M296.057 731.525C275.142 731.525 255.938 717.572 250.227 696.438L161.533 368.201C158.225 355.963 159.882 343.17 166.199 332.174C172.516 321.182 182.734 313.307 194.972 309.998L401.541 254.181C426.804 247.36 452.914 262.354 459.742 287.62L548.438 615.857C551.747 628.095 550.09 640.888 543.773 651.884C537.455 662.876 527.238 670.751 515 674.057L308.431 729.877C304.302 730.993 300.147 731.525 296.06 731.525H296.057ZM413.911 263.045C410.729 263.045 407.498 263.459 404.279 264.33L197.71 320.146C188.18 322.72 180.224 328.854 175.309 337.411C170.391 345.971 169.103 355.93 171.679 365.46L260.373 693.696C265.69 713.369 286.017 725.045 305.686 719.731L512.255 663.912C521.785 661.338 529.742 655.207 534.657 646.647C539.575 638.087 540.863 628.128 538.287 618.598L449.59 290.362C445.143 273.908 430.191 263.042 413.905 263.042L413.911 263.045Z" fill="#102770"/>
<path opacity="0.3" d="M332.934 321.047L235.746 510.76L218.875 448.335L276.235 336.366L332.934 321.047Z" fill="url(#paint0_linear_14_736)"/>
<path opacity="0.3" d="M465.209 439.916L352.744 659.432L317.207 669.031L454.64 400.775L465.209 439.916Z" fill="url(#paint1_linear_14_736)"/>
<path opacity="0.3" d="M432.173 317.645V317.66L269.416 635.364L245.276 546.051L365.001 312.376L414.383 299.036C420.943 297.258 427.714 301.15 429.491 307.71L432.17 317.645H432.173Z" fill="url(#paint2_linear_14_736)"/>
<g opacity="0.3">
<path d="M507.637 601.769C507.806 599.313 507.583 596.788 506.896 594.275L429.554 308.22C427.777 301.669 421.009 297.781 414.455 299.558L206.667 355.666C206.274 355.774 205.895 355.897 205.529 356.05C207.381 350.574 211.843 346.106 217.854 344.479L414.623 291.34C424.237 288.746 434.13 294.424 436.727 304.032L511.096 579.058C513.261 587.093 511.775 595.25 507.64 601.769H507.637Z" fill="#102770"/>
</g>
<path d="M297.201 678.122C292.478 678.122 287.818 676.888 283.612 674.474C277.274 670.832 272.731 664.941 270.824 657.883L193.438 371.498C192.267 367.16 192.852 362.623 195.092 358.729C197.332 354.834 200.953 352.039 205.292 350.865L413.203 294.685C417.544 293.511 422.078 294.1 425.976 296.34C429.873 298.579 432.665 302.203 433.836 306.542L511.222 592.926C513.129 599.982 512.174 607.36 508.532 613.698C504.89 620.036 498.999 624.576 491.94 626.482L304.38 677.165C302.005 677.804 299.594 678.122 297.198 678.122H297.201ZM417.608 303.104C416.92 303.104 416.232 303.194 415.554 303.377L207.643 359.557C205.628 360.101 203.944 361.398 202.905 363.208C201.863 365.022 201.59 367.126 202.136 369.144L279.523 655.529C280.802 660.264 283.846 664.215 288.101 666.659C292.352 669.1 297.297 669.742 302.035 668.463L489.595 617.781C494.33 616.502 498.282 613.458 500.726 609.206C503.167 604.954 503.809 600.006 502.53 595.268L425.144 308.884C424.6 306.869 423.303 305.185 421.493 304.143C420.292 303.452 418.959 303.101 417.611 303.101L417.608 303.104Z" fill="#102770"/>
<path d="M397.279 672.102C397.412 667.37 393.684 663.425 388.951 663.292C384.219 663.159 380.275 666.888 380.142 671.62C380.009 676.353 383.737 680.297 388.47 680.43C393.202 680.563 397.146 676.834 397.279 672.102Z" fill="#102770"/>
<path d="M275.667 318.6C274.013 318.6 272.5 317.498 272.046 315.826C271.506 313.823 272.689 311.763 274.689 311.223L333.285 295.391C335.288 294.844 337.348 296.033 337.888 298.033C338.429 300.036 337.246 302.095 335.246 302.636L276.649 318.468C276.322 318.558 275.992 318.6 275.667 318.6Z" fill="#102770"/>
<path d="M863.644 369.745L837.585 350.078C836.618 349.337 835.841 348.394 835.345 347.31C835.255 347.175 835.201 347.046 835.144 346.92L799.051 261.673L795.247 252.701C791.584 244.009 795.643 233.993 804.321 230.309L804.822 230.104C813.517 226.426 823.552 230.489 827.215 239.178L830.92 247.918L867.112 333.396C867.181 333.544 867.229 333.688 867.277 333.85L867.301 333.895C867.682 335 867.82 336.183 867.664 337.354L863.644 369.745Z" fill="#F7C714"/>
<path d="M829.271 250.978L832.286 258.877C822.335 261.363 813.517 264.984 805.56 269.47L802.069 261.778C809.353 256.481 818.237 252.707 829.271 250.978Z" fill="#DCDEE0"/>
<path d="M799.051 261.676L795.247 252.704C791.584 244.012 795.643 233.996 804.321 230.312L804.822 230.107C813.517 226.429 823.552 230.492 827.215 239.181L830.92 247.921C819.195 249.897 808.578 254.476 799.051 261.676Z" fill="#FF5722"/>
<path d="M863.644 369.745L837.585 350.078C836.618 349.337 835.841 348.394 835.345 347.31C833.4 339.374 863.016 326.848 867.277 333.85L867.301 333.895C867.682 335 867.82 336.183 867.664 337.354L863.644 369.745Z" fill="#F8BF71"/>
<g opacity="0.3">
<path d="M865.091 358.116L863.638 369.751L837.588 350.075C836.615 349.331 835.835 348.394 835.339 347.313C835.252 347.172 835.198 347.049 835.144 346.923L799.051 261.67L795.244 252.707C791.578 244.012 795.652 233.99 804.33 230.306L804.825 230.11C806.756 229.297 808.74 228.852 810.722 228.765C805.32 233.476 803.303 241.304 806.242 248.282L810.031 257.244L846.124 342.497C846.178 342.62 846.247 342.746 846.337 342.887C846.833 343.968 847.614 344.905 848.568 345.65L865.091 358.116Z" fill="#102770"/>
</g>
<g opacity="0.55">
<path d="M867.658 337.36L863.638 369.751L854.943 363.181L857.864 339.576C858.005 338.408 857.882 337.222 857.492 336.105C857.474 336.087 857.474 336.069 857.474 336.069C857.42 335.909 857.369 335.768 857.297 335.609L821.117 250.143L817.414 241.394C814.829 235.266 809.11 231.441 802.891 231.017C803.351 230.753 803.831 230.522 804.327 230.309L804.822 230.113C813.517 226.429 823.558 230.486 827.206 239.181L830.926 247.93L867.106 333.396C867.178 333.556 867.229 333.697 867.265 333.856C867.265 333.856 867.283 333.874 867.301 333.892C867.673 335.009 867.814 336.195 867.655 337.363L867.658 337.36Z" fill="white"/>
</g>
<path d="M863.644 373.498C862.839 373.498 862.044 373.24 861.383 372.741L835.327 353.072C833.721 351.862 832.46 350.243 831.676 348.388L791.797 254.172C787.317 243.589 792.283 231.332 802.867 226.853L803.366 226.642C808.491 224.475 814.157 224.43 819.318 226.519C824.479 228.609 828.515 232.584 830.685 237.713L870.568 331.931C871.351 333.784 871.634 335.816 871.384 337.81L867.373 370.207C867.208 371.537 866.346 372.678 865.112 373.201C864.641 373.399 864.145 373.498 863.65 373.498H863.644ZM811.484 232.491C809.722 232.491 807.96 232.846 806.287 233.554L805.789 233.764C799.018 236.632 795.841 244.474 798.706 251.245L838.588 345.46C838.858 346.1 839.294 346.658 839.846 347.076L860.713 362.833L863.929 336.882C864.016 336.195 863.917 335.492 863.647 334.853L823.765 240.634C822.378 237.352 819.795 234.809 816.493 233.47C814.874 232.816 813.178 232.488 811.481 232.488L811.484 232.491Z" fill="#102770"/>
<path d="M865.56 354.282L863.644 369.745L851.211 360.356C855.354 357.699 860.768 355.408 865.563 354.282H865.56Z" fill="#102770"/>
<path d="M800.724 268.308C800.099 268.308 799.472 268.089 798.97 267.639L798.958 267.627C798.664 267.365 798.43 267.041 798.277 266.678C795.628 260.421 804.209 254.16 813.121 250.386C822.035 246.612 832.508 244.808 835.156 251.068C835.324 251.464 835.393 251.894 835.357 252.323C835.234 253.785 833.982 254.884 832.487 254.761C831.436 254.674 830.577 253.989 830.226 253.068C829.515 251.909 823.783 251.644 815.193 255.28C806.5 258.961 802.717 263.315 803.156 264.579C803.561 265.504 803.426 266.618 802.714 267.416C802.189 268.008 801.459 268.311 800.724 268.311V268.308Z" fill="#102770"/>
<path d="M805.143 278.748C804.621 278.748 804.089 278.592 803.63 278.267L803.615 278.258C803.207 277.973 802.885 277.577 802.69 277.118C802.033 275.565 801.741 273.061 804.086 269.96C809.17 263.228 825.086 256.481 833.463 257.526C837.321 258.004 838.915 259.955 839.573 261.508C839.711 261.835 839.783 262.186 839.783 262.543C839.783 264.012 838.594 265.21 837.126 265.21C835.997 265.21 835.03 264.51 834.646 263.516C834.442 263.186 833.766 262.919 832.808 262.802C826.266 261.979 812.301 267.897 808.326 273.163C807.725 273.959 807.449 274.646 807.572 275.016C807.936 275.838 807.875 276.826 807.323 277.613C806.807 278.352 805.981 278.748 805.146 278.748H805.143Z" fill="#102770"/>
<path d="M835.502 350.469C834.922 350.469 834.34 350.279 833.853 349.889L833.838 349.877C833.493 349.601 833.223 349.244 833.051 348.838C830.403 342.581 838.987 336.321 847.902 332.547C856.813 328.773 867.286 326.971 869.934 333.228C870.099 333.619 870.168 334.042 870.135 334.468C870.021 335.93 868.718 337.068 867.283 336.921C866.223 336.84 865.355 336.153 865.001 335.225C864.281 334.069 858.558 333.808 849.971 337.441C841.284 341.119 837.495 345.472 837.931 346.736C838.318 347.613 838.219 348.673 837.579 349.472C837.054 350.129 836.279 350.472 835.502 350.472V350.469Z" fill="#102770"/>
<path d="M877.281 452.428V441.919C877.281 441.919 907.306 444.921 905.805 459.934L899.049 465.188L884.697 472.625L878.032 471.193L877.281 452.428Z" fill="#DCDEE0"/>
<path d="M958.448 384.937C957.892 384.937 957.328 384.811 956.797 384.547C954.965 383.634 954.22 381.409 955.136 379.575L968.789 352.213C969.266 351.252 969.344 350.165 969.005 349.148C968.665 348.13 967.948 347.307 966.99 346.827L958.085 342.383C956.253 341.47 955.508 339.245 956.424 337.411C957.337 335.579 959.562 334.835 961.396 335.75L970.302 340.194C975.94 343.007 978.24 349.886 975.424 355.522L961.772 382.884C961.123 384.184 959.814 384.937 958.454 384.937H958.448Z" fill="#102770"/>
<path d="M965.146 328.226L944.21 317.777L949.434 307.308C952.32 301.525 959.346 299.177 965.125 302.062C970.908 304.948 973.256 311.974 970.371 317.753L965.146 328.223V328.226Z" fill="#22A7F0"/>
<g opacity="0.3">
<path d="M966.347 325.824L965.146 328.226L944.204 317.777L949.428 307.314C952.296 301.549 959.292 299.192 965.071 302.029C961.769 302.78 958.841 304.942 957.205 308.199L951.996 318.663L966.347 325.824Z" fill="#102770"/>
</g>
<g opacity="0.55">
<path d="M973.598 313.298C973.598 315.054 973.208 316.826 972.367 318.507L967.143 328.971L946.201 318.522L946.351 318.222L959.892 324.977L965.116 314.514C965.957 312.832 966.347 311.061 966.347 309.304C966.347 306.527 965.342 303.81 963.525 301.693C964.741 301.858 965.957 302.218 967.128 302.804C971.227 304.861 973.598 308.989 973.598 313.298Z" fill="white"/>
</g>
<path d="M965.143 331.979C964.579 331.979 964.009 331.853 963.471 331.583L942.535 321.137C941.643 320.693 940.967 319.912 940.652 318.966C940.337 318.024 940.409 316.991 940.853 316.102L946.078 305.635C947.921 301.942 951.092 299.189 955.007 297.88C958.922 296.571 963.111 296.865 966.807 298.709C974.43 302.516 977.538 311.811 973.734 319.435L968.509 329.901C967.852 331.217 966.525 331.979 965.146 331.979H965.143ZM949.245 316.093L963.465 323.188L967.014 316.078C968.972 312.157 967.374 307.377 963.453 305.419C961.555 304.47 959.397 304.32 957.385 304.993C955.37 305.665 953.74 307.082 952.794 308.983L949.245 316.093Z" fill="#102770"/>
<path d="M966.023 333.541L903.943 457.622C903.43 458.649 902.667 459.513 901.707 460.153L878.578 475.373L876.957 447.741C876.882 446.606 877.122 445.462 877.633 444.432L939.688 320.402C944.564 310.628 970.899 323.77 966.023 333.544V333.541Z" fill="#FF5722"/>
<path d="M877.281 452.428V441.919C877.281 441.919 907.306 444.921 905.805 459.934L899.049 465.188L884.697 472.625L878.032 471.193L877.281 452.428Z" fill="#DCDEE0"/>
<g opacity="0.3">
<path d="M961.063 322.146C955.478 320.254 949.864 320.405 947.867 324.413L885.805 448.446C885.295 449.467 885.055 450.608 885.13 451.749L886.106 468.428L877.458 474.118L875.837 446.495C875.762 445.354 876.002 444.213 876.513 443.192L938.559 319.159C941.772 312.718 954.277 316.216 961.063 322.146Z" fill="#102770"/>
</g>
<g opacity="0.55">
<path d="M967.032 334.168L904.94 458.246C904.43 459.282 903.664 460.138 902.703 460.783L879.584 475.991L879.014 466.203L894.537 455.979C895.498 455.349 896.263 454.478 896.774 453.457L958.85 329.379C960.532 326.001 958.505 322.233 954.917 319.141C962.573 322.053 969.779 328.643 967.032 334.168Z" fill="white"/>
</g>
<path d="M878.578 479.126C878.005 479.126 877.425 478.994 876.894 478.726C875.696 478.126 874.909 476.931 874.828 475.592L873.207 447.96C873.09 446.2 873.456 444.39 874.273 442.756L936.328 318.723C939.466 312.433 948.456 311.43 958.187 316.282C967.918 321.137 972.518 328.923 969.38 335.216L907.3 459.297C906.499 460.901 905.286 462.276 903.79 463.273L880.644 478.504C880.02 478.913 879.302 479.123 878.581 479.123L878.578 479.126ZM946.486 320.702C944.771 320.702 943.507 321.152 943.045 322.08L880.986 446.113C880.767 446.552 880.668 447.029 880.698 447.491L881.941 468.668L899.644 457.021C900.04 456.757 900.365 456.394 900.584 455.949L962.666 331.868C963.741 329.718 960.156 325.659 954.839 323.005C951.809 321.494 948.756 320.705 946.486 320.705V320.702Z" fill="#102770"/>
<path d="M889.616 468.107L878.584 475.37L877.807 462.186C881.8 463.399 886.256 465.632 889.616 468.107Z" fill="#102770"/>
<path d="M903.583 461.033C903.166 461.033 902.742 460.937 902.343 460.738C900.968 460.051 900.413 458.381 901.097 457.009C901.31 456.58 900.908 455.442 899.521 453.947C897.833 452.13 895.086 450.203 891.984 448.656C888.883 447.107 885.688 446.071 883.22 445.813C881.181 445.603 880.035 445.966 879.821 446.392C879.137 447.768 877.467 448.32 876.092 447.639C874.717 446.951 874.162 445.282 874.846 443.909C877.801 437.988 887.265 440.084 894.468 443.681C898.197 445.543 901.436 447.843 903.592 450.161C907.633 454.505 906.883 457.871 906.075 459.492C905.589 460.468 904.607 461.033 903.586 461.033H903.583Z" fill="#102770"/>
<path d="M957.331 353.315C956.914 353.315 956.49 353.219 956.091 353.021C954.716 352.333 954.16 350.664 954.845 349.292C955.094 348.793 954.473 347.787 954.277 347.49C951.257 342.92 940.82 337.732 935.35 338.044C934.992 338.065 933.818 338.173 933.569 338.672C932.885 340.047 931.209 340.602 929.84 339.921C928.465 339.233 927.906 337.567 928.591 336.192C929.366 334.633 931.11 332.73 935.01 332.493C942.493 332.042 954.779 338.167 958.913 344.419C961.069 347.676 960.595 350.216 959.82 351.772C959.334 352.748 958.352 353.312 957.331 353.312V353.315Z" fill="#102770"/>
<path d="M958.22 377.596L958.676 377.824L964.933 365.283L964.477 365.055C961.015 363.325 956.806 364.733 955.076 368.195C953.347 371.657 954.755 375.867 958.217 377.596H958.22Z" fill="#102770"/>
<path d="M728.489 307.986C720.908 295.85 708.697 286.605 693.66 283.135C663.572 276.187 633.541 294.934 626.593 325.025L616.307 369.568L725.268 394.731L735.554 350.189C739.028 335.153 736.077 320.11 728.489 307.989V307.986ZM700.995 366.934L650.325 355.234L655.108 334.522C658.342 320.525 672.294 311.805 686.292 315.039C693.285 316.654 698.963 320.954 702.485 326.59C706.016 332.243 707.397 339.218 705.778 346.223L700.995 366.934Z" fill="#E67E22"/>
<g opacity="0.3">
<path d="M736.701 343.287C728.718 345.094 719.962 345.584 710.907 344.494C709.33 344.313 707.754 344.073 706.217 343.782C706.109 344.59 705.965 345.403 705.775 346.223L700.992 366.934L650.322 355.234L655.105 334.522C656.54 328.307 660.092 323.134 664.809 319.585C659.474 312.067 656.868 303.467 657.922 294.697C658.294 291.548 659.132 288.521 660.378 285.666C643.933 292.223 630.872 306.479 626.591 325.025L616.304 369.568L725.265 394.731L735.551 350.189C736.086 347.877 736.461 345.578 736.698 343.29L736.701 343.287Z" fill="#5F5A57"/>
</g>
<g opacity="0.55">
<path d="M728.489 307.986C720.908 295.85 708.697 286.605 693.66 283.135C683.992 280.901 674.327 281.321 665.434 283.933C669.772 283.888 674.21 284.357 678.627 285.377C693.663 288.851 705.875 298.096 713.456 310.229C721.04 322.35 724.007 337.396 720.536 352.432L711.504 391.546L725.268 394.725L735.554 350.183C739.028 335.147 736.077 320.104 728.489 307.983V307.986Z" fill="white"/>
</g>
<path d="M725.268 399.983C724.874 399.983 724.475 399.938 724.085 399.848L615.124 374.684C612.296 374.032 610.533 371.21 611.185 368.382L621.471 323.842C629.059 290.983 661.975 270.422 694.84 278.015C710.754 281.69 724.286 291.346 732.942 305.203C741.604 319.044 744.349 335.441 740.671 351.369L730.384 395.908C730.069 397.269 729.231 398.446 728.048 399.184C727.207 399.71 726.241 399.983 725.265 399.983H725.268ZM622.612 365.628L721.331 388.426L730.435 349.006C733.483 335.813 731.21 322.236 724.037 310.776C716.864 299.3 705.658 291.301 692.48 288.257C665.266 281.97 638 298.997 631.716 326.208L622.612 365.628ZM700.998 372.192C700.608 372.192 700.209 372.147 699.812 372.057L649.145 360.356C646.317 359.704 644.555 356.882 645.206 354.054L649.989 333.342C653.868 316.549 670.679 306.05 687.475 309.92C695.606 311.796 702.518 316.73 706.94 323.806C711.372 330.895 712.774 339.278 710.898 347.406L706.115 368.117C705.553 370.546 703.391 372.189 700.998 372.189V372.192ZM656.628 351.297L697.056 360.635L700.659 345.04C701.905 339.648 700.971 334.084 698.029 329.373C695.093 324.677 690.508 321.404 685.112 320.158C673.961 317.588 662.801 324.557 660.228 335.705L656.628 351.297Z" fill="#102770"/>
<path d="M819.792 763.027L771.572 731.786C765.988 728.168 764.393 720.71 768.011 715.125L825.791 625.945C829.409 620.36 836.868 618.766 842.452 622.384L890.672 653.625C896.257 657.243 897.851 664.701 894.233 670.286L836.453 759.466C832.835 765.051 825.377 766.645 819.792 763.027Z" fill="#3EDC81"/>
<g opacity="0.72">
<path d="M894.227 670.283L836.453 759.463C832.835 765.054 825.38 766.645 819.792 763.027L817.444 761.514L878.161 667.791C880.242 664.59 879.323 660.294 876.119 658.213L825.953 625.72C829.623 620.312 836.946 618.814 842.455 622.381L890.675 653.625C896.251 657.24 897.851 664.713 894.224 670.283H894.227Z" fill="white"/>
</g>
<path d="M826.314 770.212C823.092 770.212 819.834 769.314 816.934 767.438L768.714 736.197C760.709 731.009 758.415 720.275 763.601 712.27L821.381 623.09C823.894 619.213 827.767 616.544 832.286 615.577C836.807 614.614 841.431 615.466 845.308 617.976L893.528 649.217C901.535 654.409 903.826 665.14 898.641 673.147L840.861 762.325C837.552 767.432 831.985 770.212 826.311 770.212H826.314ZM822.648 758.616C825.797 760.655 830.01 759.751 832.043 756.608L889.823 667.431C891.858 664.287 890.958 660.071 887.817 658.036L839.597 626.795C836.456 624.756 832.238 625.657 830.202 628.8L772.422 717.981C770.386 721.121 771.287 725.337 774.428 727.372L822.648 758.613V758.616Z" fill="#102770"/>
<path d="M729.237 865.508L406.312 790.935C385.742 786.185 372.915 765.657 377.665 745.087L437.622 485.461C462.966 375.717 572.476 307.296 682.221 332.64C791.965 357.984 860.386 467.494 835.042 577.238L775.085 836.865C770.335 857.435 749.807 870.261 729.237 865.512V865.508Z" fill="#FDF5ED"/>
<g opacity="0.3">
<path d="M772.458 844.464C770.599 848.442 768.101 851.994 765.117 855.033C758.358 857.54 750.804 858.167 743.271 856.429L412.614 780.069C396.32 776.307 386.147 760.043 389.912 743.733L451.656 476.372C460.747 437.01 480.657 402.964 507.529 376.677C486.272 401.073 470.539 430.906 462.75 464.636L427.726 616.295C424.907 628.509 423.688 640.723 423.907 652.715C423.994 657.342 429.542 659.672 432.956 656.561L438.319 651.682L470.647 622.246C467.335 625.381 464.546 629.11 462.504 633.355C461.312 635.853 460.354 638.528 459.703 641.351L444.351 707.832C442.976 713.786 443.084 719.728 444.432 725.292C446.762 735.014 452.893 743.562 461.534 748.84C461.534 748.84 461.543 748.873 461.561 748.861C464.96 750.957 468.77 752.545 472.88 753.494L685.815 802.669C691.754 804.041 697.696 803.933 703.256 802.6C703.662 802.51 704.073 802.402 704.466 802.294L682.587 815.775L677.108 819.147C673.769 821.195 674.603 826.257 678.42 827.139L754.365 844.677C760.538 846.103 766.723 845.944 772.458 844.464Z" fill="#102770"/>
</g>
<g opacity="0.3">
<path d="M461.543 748.843C452.902 743.565 446.771 735.017 444.441 725.295C449.35 733.654 455.076 741.556 461.543 748.843Z" fill="#5F5A57"/>
</g>
<g opacity="0.55">
<path d="M835.039 577.235L775.082 836.859C770.656 856.021 752.545 868.463 733.458 866.244C743.733 861.452 751.771 852.138 754.518 840.23L814.475 580.607C818.408 563.58 820.087 546.574 819.699 529.889C788.62 527.427 772.413 464.302 801.153 449.74C797.52 441.784 793.355 434.073 788.719 426.654C761.069 382.397 716.53 348.676 661.663 336.006C638.625 330.685 615.586 329.493 593.341 331.952C621.768 325.806 651.986 325.665 682.221 332.649C737.089 345.319 781.625 379.04 809.278 423.297C836.943 467.557 847.707 522.368 835.036 577.235H835.039Z" fill="white"/>
</g>
<path d="M737.842 871.748C734.611 871.748 731.333 871.384 728.054 870.628L405.132 796.055C393.813 793.442 384.193 786.579 378.041 776.728C371.885 766.876 369.937 755.221 372.549 743.904L432.506 484.281C445.08 429.837 478.102 383.547 525.49 353.936C572.879 324.329 628.962 314.952 683.404 327.52C795.796 353.477 866.118 466.029 840.161 578.418L780.204 838.045C775.566 858.128 757.626 871.748 737.842 871.748ZM635.952 332.592C599.163 332.592 563.028 342.872 531.054 362.848C486.046 390.969 454.679 434.932 442.738 486.641L382.781 746.267C380.8 754.848 382.277 763.688 386.946 771.158C391.612 778.628 398.908 783.831 407.489 785.813L730.414 860.386C748.114 864.479 765.87 853.393 769.96 835.679L829.917 576.055C841.858 524.346 832.949 471.082 804.828 426.072C776.706 381.064 732.744 349.697 681.035 337.756C666.058 334.297 650.947 332.589 635.949 332.589L635.952 332.592Z" fill="#102770"/>
<path d="M806.152 573.569C805.927 573.569 805.702 573.545 805.473 573.491C803.858 573.119 802.849 571.507 803.225 569.891C813.571 525.079 805.711 478.925 781.081 439.928C756.458 400.941 718.155 374.005 673.225 364.088C581.907 343.932 490.265 402.643 468.941 494.976C468.569 496.591 466.954 497.603 465.341 497.225C463.726 496.852 462.717 495.24 463.092 493.625C485.155 398.1 580.004 337.363 674.519 358.224C721.025 368.49 760.673 396.368 786.158 436.721C811.65 477.084 819.786 524.86 809.073 571.242C808.755 572.63 807.518 573.569 806.152 573.569Z" fill="#102770"/>
<path d="M813.283 671.466L869.517 709.736C877.074 714.879 879.167 725.1 874.243 732.798L812.064 829.998C808.158 836.105 801.147 839.498 793.932 838.768L775.091 836.865L813.286 671.466H813.283Z" fill="#E67E22"/>
<g opacity="0.55">
<path d="M874.243 732.798L812.061 829.989C808.155 836.096 801.144 839.501 793.935 838.759L789.614 838.315L856.336 734.005C850.247 730.687 847.962 721.626 851.31 715.603L809.632 687.241L813.277 671.457L869.52 709.73C877.068 714.879 879.164 725.085 874.24 732.792L874.243 732.798Z" fill="white"/>
</g>
<path d="M795.904 844.122C795.076 844.122 794.238 844.08 793.4 843.996L774.56 842.092C773.058 841.939 771.695 841.152 770.816 839.924C769.939 838.696 769.627 837.153 769.969 835.682L808.164 670.286C808.554 668.596 809.752 667.208 811.367 666.575C812.986 665.941 814.805 666.148 816.24 667.124L872.474 705.394C882.452 712.183 885.172 725.466 878.668 735.632L816.49 832.832C811.941 839.942 804.215 844.125 795.907 844.125L795.904 844.122ZM781.55 832.235L794.457 833.541C799.724 834.069 804.78 831.631 807.635 827.167L869.814 729.967C873.231 724.625 871.802 717.644 866.559 714.077L816.676 680.128L781.55 832.232V832.235Z" fill="#102770"/>
<path d="M685.824 802.669L472.884 753.494C452.397 748.762 439.622 728.318 444.354 707.832L459.706 641.348C464.437 620.862 484.882 608.086 505.368 612.818L718.308 661.993C738.794 666.725 751.57 687.169 746.838 707.655L731.486 774.139C726.754 794.625 706.31 807.401 685.824 802.669Z" fill="#E67E22"/>
<g opacity="0.3">
<path d="M725.493 787.519C716.852 799.79 701.353 806.257 685.818 802.669L472.884 753.494C452.391 748.762 439.625 728.309 444.354 707.832L459.706 641.351C463.074 626.768 474.379 616.112 488.007 612.866C485.239 616.787 483.164 621.3 482.017 626.26L474.865 657.234C465.605 697.332 490.604 737.344 530.703 746.603L708.126 787.576C714.035 788.942 719.959 788.846 725.49 787.519H725.493Z" fill="#102770"/>
</g>
<g opacity="0.55">
<path d="M746.835 707.661L731.483 774.142C728.453 787.263 718.971 797.232 707.154 801.435C707.322 800.904 707.463 800.366 707.592 799.811L729.315 705.742C732.287 692.871 724.268 680.032 711.408 677.062L471.355 621.627C480.264 613.608 492.808 609.927 505.374 612.827L718.305 662.002C738.797 666.734 751.567 687.172 746.835 707.664V707.661Z" fill="white"/>
</g>
<path d="M694.474 808.917C691.201 808.917 687.908 808.545 684.644 807.791L471.703 758.617C448.425 753.242 433.86 729.931 439.237 706.652L454.589 640.168C457.192 628.89 464.032 619.304 473.847 613.172C483.662 607.041 495.276 605.096 506.554 607.702L719.491 656.877C730.768 659.48 740.355 666.32 746.486 676.135C752.617 685.95 754.56 697.564 751.957 708.841L736.602 775.325C733.999 786.603 727.159 796.19 717.344 802.321C710.372 806.678 702.491 808.92 694.471 808.92L694.474 808.917ZM687.007 797.55C695.552 799.526 704.346 798.051 711.78 793.406C719.215 788.762 724.397 781.502 726.367 772.959L741.721 706.475C743.694 697.933 742.223 689.136 737.578 681.701C732.933 674.267 725.673 669.085 717.131 667.115L504.191 617.94C495.648 615.965 486.851 617.439 479.417 622.084C471.983 626.729 466.8 633.992 464.831 642.531L449.479 709.015C445.408 726.649 456.439 744.307 474.069 748.378L687.01 797.553L687.007 797.55Z" fill="#102770"/>
<g opacity="0.55">
<path d="M490.92 646.227C526.601 663.17 593.095 677.66 679.35 690.577L490.92 646.227Z" fill="white"/>
</g>
<path d="M881.716 653.082C880.713 653.082 879.698 652.796 878.804 652.196C876.39 650.583 875.738 647.323 877.353 644.909L893.231 621.135C896.963 615.547 903.869 612.812 910.414 614.319L938.112 620.715C940.94 621.366 942.703 624.188 942.051 627.017C941.4 629.845 938.577 631.614 935.749 630.956L908.048 624.561C905.733 624.023 903.289 624.993 901.968 626.972L886.091 650.746C885.079 652.262 883.412 653.082 881.716 653.082Z" fill="#102770"/>
<path d="M687.013 476.042L662.203 436.355C660.621 433.803 657.27 433.028 654.727 434.629L615.028 459.42C612.485 461.021 611.713 464.371 613.298 466.909L638.108 506.596C639.69 509.148 643.041 509.922 645.584 508.322L685.283 483.53C687.824 481.945 688.595 478.594 687.013 476.042ZM640.3 484.299C639.841 486.29 637.841 487.536 635.853 487.076C633.863 486.617 632.617 484.617 633.076 482.63L639.216 456.037C639.678 454.034 641.675 452.8 643.663 453.259C645.653 453.719 646.905 455.703 646.44 457.706L640.3 484.299ZM660.618 488.992C660.158 490.983 658.159 492.229 656.171 491.769C654.181 491.31 652.935 489.31 653.394 487.323L659.534 460.729C659.996 458.727 661.993 457.493 663.981 457.952C665.971 458.411 667.223 460.396 666.758 462.399L660.618 488.992Z" fill="#102770"/>
<path d="M714.309 699.164C714.083 699.164 713.858 699.14 713.63 699.086L490.607 647.584C488.992 647.212 487.983 645.599 488.358 643.984C488.731 642.369 490.349 641.36 491.958 641.735L714.981 693.237C716.596 693.609 717.605 695.222 717.23 696.837C716.912 698.224 715.675 699.164 714.309 699.164Z" fill="#102770"/>
<path d="M702.787 685.844L684.128 681.537C680.969 680.807 677.818 682.777 677.088 685.936L676.324 689.245C675.595 692.403 677.565 695.555 680.723 696.284L699.383 700.592C702.541 701.321 705.693 699.352 706.422 696.193L707.186 692.884C707.916 689.726 705.946 686.574 702.787 685.844Z" fill="#102770"/>
<path d="M693.49 694.869L688.526 693.723C687.714 693.535 686.905 694.041 686.718 694.852L684.999 702.298C684.812 703.109 685.317 703.918 686.128 704.105L691.093 705.251C691.904 705.439 692.714 704.933 692.901 704.122L694.62 696.676C694.807 695.865 694.301 695.056 693.49 694.869Z" fill="#102770"/>
<path d="M696.402 704.163L681.737 700.776C680.924 700.587 680.107 701.086 679.918 701.896L674.706 724.469C674.516 725.283 675.036 726.087 675.85 726.274L690.514 729.66C691.327 729.85 692.144 729.351 692.333 728.54L697.546 705.968C697.735 705.154 697.215 704.349 696.402 704.163ZM690.117 725.367C690 725.871 689.511 726.177 689.006 726.06L679.074 723.766C678.588 723.652 678.264 723.16 678.381 722.656L679.368 718.377C679.486 717.873 679.993 717.569 680.479 717.683L690.412 719.977C690.916 720.094 691.222 720.584 691.105 721.088L690.117 725.367Z" fill="#102770"/>
<g opacity="0.3">
<path d="M694.483 688.229L675.822 683.92C672.664 683.191 669.511 685.16 668.785 688.319L668.019 691.631C667.289 694.789 669.259 697.942 672.418 698.669L677.798 699.912L676.876 703.908L673.496 703.127C672.682 702.938 671.865 703.436 671.676 704.247L666.464 726.82C666.275 727.634 666.794 728.438 667.608 728.624L682.272 732.011C683.086 732.2 683.902 731.702 684.091 730.891L689.304 708.319C689.493 707.505 688.973 706.7 688.16 706.514L684.779 705.733L685.701 701.737L691.081 702.98C694.24 703.71 697.392 701.74 698.119 698.581L698.885 695.27C699.614 692.111 697.645 688.958 694.486 688.232L694.483 688.229ZM682.86 723.436L681.873 727.715C681.755 728.219 681.266 728.525 680.762 728.408L670.829 726.114C670.343 726 670.019 725.508 670.136 725.003L671.124 720.725C671.241 720.22 671.748 719.917 672.235 720.031L682.167 722.325C682.671 722.442 682.977 722.932 682.86 723.436Z" fill="#102770"/>
</g>
<path d="M413.131 591.518L400.058 588.501C391.69 586.567 383.337 591.786 381.403 600.157L355.915 710.522C353.982 718.89 359.2 727.243 367.571 729.177L380.644 732.194L413.131 591.518Z" fill="#E67E22"/>
<g opacity="0.3">
<path d="M413.131 591.518L400.058 588.501C391.69 586.567 383.337 591.786 381.403 600.157L355.915 710.522C353.982 718.89 359.2 727.243 367.571 729.177L380.644 732.194L413.131 591.518Z" fill="#102770"/>
</g>
<path d="M380.65 737.449C380.259 737.449 379.86 737.404 379.464 737.314L366.391 734.296C360.974 733.047 356.371 729.762 353.426 725.048C350.484 720.335 349.55 714.756 350.799 709.342L376.287 598.977C378.866 587.798 390.06 580.802 401.241 583.385L414.314 586.402C415.674 586.714 416.851 587.555 417.586 588.738C418.325 589.921 418.565 591.347 418.25 592.704L385.763 733.38C385.201 735.812 383.04 737.455 380.647 737.455L380.65 737.449ZM396.539 593.35C394.632 593.35 392.759 593.884 391.101 594.917C388.768 596.373 387.144 598.655 386.526 601.333L361.037 711.702C360.419 714.384 360.878 717.146 362.337 719.476C363.794 721.809 366.073 723.433 368.754 724.052L376.707 725.889L406.829 595.455L398.878 593.617C398.1 593.437 397.317 593.35 396.542 593.35H396.539Z" fill="#102770"/>
<path d="M694.471 606.786L652.286 679.504L535.465 652.526L595.349 549.297C600.469 540.473 611.758 537.47 620.579 542.59L687.781 581.562C696.588 586.678 699.587 597.983 694.471 606.789V606.786Z" fill="#DCDEE0"/>
<g opacity="0.3">
<path d="M556.656 615.992C557.509 623.645 559.59 631.043 562.733 637.979L552.708 656.51L535.462 652.529L556.656 615.992Z" fill="#102770"/>
</g>
<path d="M652.283 684.136C651.938 684.136 651.589 684.097 651.241 684.016L534.42 657.039C532.985 656.709 531.796 655.718 531.21 654.367C530.625 653.016 530.715 651.472 531.453 650.199L591.338 546.97C594.434 541.632 599.421 537.822 605.381 536.236C611.341 534.651 617.565 535.486 622.9 538.581L690.099 577.554C695.429 580.652 699.236 585.639 700.818 591.602C702.401 597.568 701.569 603.787 698.473 609.116L656.288 681.831C655.447 683.281 653.907 684.139 652.28 684.139L652.283 684.136ZM542.62 649.422L649.992 674.216L690.463 604.459C692.315 601.27 692.814 597.55 691.865 593.977C690.919 590.407 688.64 587.417 685.449 585.567L618.253 546.598C615.058 544.742 611.332 544.244 607.765 545.193C604.198 546.142 601.21 548.423 599.355 551.621L542.62 649.425V649.422Z" fill="#102770"/>
<path d="M676.705 611.161L666.163 629.326L638.85 676.405L548.919 655.637L549.246 655.081L556.365 642.798L564.865 628.137L584.952 593.533L600.394 566.901C601.58 564.832 604.219 564.147 606.273 565.33L624.468 575.881L649.455 590.371L660.008 596.505L675.135 605.267C677.201 606.468 677.885 609.107 676.702 611.161H676.705Z" fill="#102770"/>
<path d="M659.222 585.432C658.747 585.432 658.27 585.309 657.832 585.057L632.415 570.315C631.088 569.546 630.635 567.844 631.406 566.517C632.175 565.189 633.881 564.733 635.205 565.508L660.621 580.25C661.948 581.019 662.401 582.721 661.63 584.048C661.116 584.937 660.182 585.435 659.222 585.435V585.432Z" fill="#102770"/>
<g opacity="0.3">
<path d="M527.835 722.268C522.082 726.739 511.544 722.797 504.296 713.468C497.048 704.139 495.832 692.952 501.584 688.484C507.337 684.013 512.754 691.934 520.005 701.263C527.253 710.592 533.591 717.798 527.838 722.268H527.835Z" fill="white"/>
</g>
<g opacity="0.3">
<path d="M633.229 390.882C635.631 379.29 652.826 373.05 671.634 376.948C690.442 380.845 703.74 393.404 701.335 405C698.933 416.593 683.878 412.509 665.071 408.612C646.263 404.715 630.827 402.478 633.229 390.885V390.882Z" fill="white"/>
</g>
<g opacity="0.3">
<path d="M596.271 396.119C597.229 400.86 602.015 400.893 607.681 399.749C613.346 398.605 617.745 396.713 616.787 391.972C615.829 387.231 610.461 384.316 604.795 385.463C599.13 386.607 595.313 391.378 596.271 396.119Z" fill="white"/>
</g>
<path opacity="0.3" d="M644.41 592.611L571.861 624.999L591.963 590.368L619.403 578.109L644.41 592.611Z" fill="url(#paint3_linear_14_736)"/>
<path opacity="0.3" d="M672.748 609.056L659.168 632.472L594.163 661.498L555.825 652.643L563.355 639.672L654.973 598.751L657.771 600.385L672.748 609.056Z" fill="url(#paint4_linear_14_736)"/>
<g opacity="0.3">
<path d="M645.752 659.255C645.752 659.255 650.653 666.827 659.756 665.131L650.602 679.113L633.806 673.445L645.749 659.255H645.752Z" fill="#102770"/>
</g>
<defs>
<linearGradient id="paint0_linear_14_736" x1="342.591" y1="266.249" x2="187.598" y2="547.785" gradientUnits="userSpaceOnUse">
<stop stop-color="white"/>
<stop offset="1" stop-color="white"/>
</linearGradient>
<linearGradient id="paint1_linear_14_736" x1="500.951" y1="353.434" x2="345.958" y2="634.974" gradientUnits="userSpaceOnUse">
<stop stop-color="white"/>
<stop offset="1" stop-color="white"/>
</linearGradient>
<linearGradient id="paint2_linear_14_736" x1="410.823" y1="303.813" x2="255.831" y2="585.352" gradientUnits="userSpaceOnUse">
<stop stop-color="white"/>
<stop offset="1" stop-color="white"/>
</linearGradient>
<linearGradient id="paint3_linear_14_736" x1="669.066" y1="567.377" x2="575.601" y2="611.586" gradientUnits="userSpaceOnUse">
<stop stop-color="white"/>
<stop offset="1" stop-color="white"/>
</linearGradient>
<linearGradient id="paint4_linear_14_736" x1="685.031" y1="601.132" x2="591.564" y2="645.337" gradientUnits="userSpaceOnUse">
<stop stop-color="white"/>
<stop offset="1" stop-color="white"/>
</linearGradient>
</defs>
</svg>
