<svg width="1118" height="1729" viewBox="0 0 1118 1729" fill="none" xmlns="http://www.w3.org/2000/svg">
<g clip-path="url(#clip0_9_2)">
<rect width="1728" height="1117" transform="matrix(0 -1 1 0 0.5 1728.5)" fill="white"/>
<mask id="mask0_9_2" style="mask-type:alpha" maskUnits="userSpaceOnUse" x="-2" y="1425" width="1194" height="208">
<path d="M0.5 1523.17C0.5 1523.17 24.1047 1389.17 83.6296 1523.17C143.155 1657.17 235.975 1675.1 353.544 1523.17C483.985 1354.61 636.829 1444.86 682.984 1523.17C714.211 1583.33 837.247 1679.24 951.872 1523.17C1051.6 1387.39 819.481 1421.17 1063.74 1523.17C1308 1625.17 1121.21 1523.17 1121.21 1523.17" stroke="url(#paint0_linear_9_2)" stroke-width="4"/>
</mask>
<g mask="url(#mask0_9_2)">
<rect x="-14.8943" y="1677.17" width="298" height="1375.23" transform="rotate(-90 -14.8943 1677.17)" fill="url(#paint1_linear_9_2)"/>
</g>
<mask id="mask1_9_2" style="mask-type:alpha" maskUnits="userSpaceOnUse" x="2" y="1281" width="1184" height="394">
<path d="M4.35213 1332.96C4.35213 1332.96 60.3381 1208.81 87.5261 1353.67C114.714 1498.52 203.254 1539.04 357.585 1420.89C528.812 1289.81 659.936 1415.46 687.2 1502.94C703.914 1569.09 803.846 1692.81 956.232 1569.91C1088.81 1462.99 848.409 1437.96 1068.16 1597.77C1287.91 1757.59 1125.66 1612.09 1125.66 1612.09" stroke="url(#paint2_linear_9_2)" stroke-width="4"/>
</mask>
<g mask="url(#mask1_9_2)">
<rect x="-48.2502" y="1478.57" width="298" height="1417.96" transform="rotate(-76.0215 -48.2502 1478.57)" fill="url(#paint3_linear_9_2)"/>
</g>
<mask id="mask2_9_2" style="mask-type:alpha" maskUnits="userSpaceOnUse" x="2" y="1084" width="1184" height="394">
<path d="M4.42573 1136.22C4.42573 1136.22 60.4117 1012.06 87.5997 1156.92C114.788 1301.78 203.328 1342.29 357.658 1224.15C528.885 1093.07 660.01 1218.71 687.274 1306.2C703.987 1372.35 803.919 1496.07 956.306 1373.17C1088.88 1266.24 848.483 1241.21 1068.23 1401.03C1287.98 1560.84 1125.73 1415.34 1125.73 1415.34" stroke="url(#paint4_linear_9_2)" stroke-width="4"/>
</mask>
<g mask="url(#mask2_9_2)">
<rect x="-39.5" y="1290.98" width="298" height="1417.96" transform="rotate(-76.0215 -39.5 1290.98)" fill="url(#paint5_linear_9_2)"/>
</g>
<mask id="mask3_9_2" style="mask-type:alpha" maskUnits="userSpaceOnUse" x="-10" y="910" width="1230" height="205">
<path d="M-7.77864 1003.94C-7.77864 1003.94 17.4595 870.102 77.9317 1004.51C138.404 1138.92 233.986 1157.49 356.226 1006.38C491.848 838.731 648.83 930.038 695.892 1008.66C727.685 1069.04 853.895 1165.8 973.128 1010.53C1076.86 875.442 837.312 907.613 1088.47 1011.3C1339.62 1114.99 1147.72 1011.7 1147.72 1011.7" stroke="url(#paint6_linear_9_2)" stroke-width="4"/>
</mask>
<g mask="url(#mask3_9_2)">
<rect x="-14.0993" y="1164.69" width="298" height="1417.96" transform="rotate(-89.6149 -14.0993 1164.69)" fill="url(#paint7_linear_9_2)"/>
</g>
<mask id="mask4_9_2" style="mask-type:alpha" maskUnits="userSpaceOnUse" x="-9" y="723" width="1230" height="205">
<path d="M-6.77864 816.935C-6.77864 816.935 18.4595 683.102 78.9317 817.511C139.404 951.921 234.986 970.49 357.226 819.382C492.848 651.731 649.83 743.038 696.892 821.665C728.685 882.035 854.895 978.801 974.128 823.528C1077.86 688.442 838.312 720.613 1089.47 824.303C1340.62 927.994 1148.72 824.702 1148.72 824.702" stroke="url(#paint8_linear_9_2)" stroke-width="4"/>
</mask>
<g mask="url(#mask4_9_2)">
<rect x="-13.0993" y="977.69" width="298" height="1417.96" transform="rotate(-89.6149 -13.0993 977.69)" fill="url(#paint9_linear_9_2)"/>
</g>
<mask id="mask5_9_2" style="mask-type:alpha" maskUnits="userSpaceOnUse" x="-7" y="577" width="1219" height="240">
<path d="M-4.42985 634.403C-4.42985 634.403 34.5565 503.91 80.7582 643.868C126.96 783.826 220.1 812.211 357.356 674.6C509.64 521.923 656.303 629.023 694.954 712.109C720.312 775.452 835.802 884.789 970.5 742.724C1087.69 619.128 846.094 626.274 1085.14 755.46C1324.18 884.647 1144.03 762.004 1144.03 762.004" stroke="url(#paint10_linear_9_2)" stroke-width="4"/>
</mask>
<g mask="url(#mask5_9_2)">
<rect x="-27.3937" y="793.635" width="298" height="1417.96" transform="rotate(-83.6601 -27.3937 793.635)" fill="url(#paint11_linear_9_2)"/>
</g>
<mask id="mask6_9_2" style="mask-type:alpha" maskUnits="userSpaceOnUse" x="-20" y="419" width="1230" height="201">
<path d="M-17.3589 506.146C-17.3589 506.146 9.7555 372.68 68.3349 507.925C126.914 643.17 222.226 663.079 346.575 513.702C484.538 347.971 640.223 441.473 686.176 520.753C717.118 581.564 841.958 680.092 963.359 526.508C1068.98 392.892 829.001 421.697 1078.68 528.903C1328.35 636.109 1137.92 530.133 1137.92 530.133" stroke="url(#paint12_linear_9_2)" stroke-width="4"/>
</mask>
<g mask="url(#mask6_9_2)">
<rect x="-25.9356" y="666.796" width="298" height="1417.96" transform="rotate(-88.8105 -25.9356 666.796)" fill="url(#paint13_linear_9_2)"/>
</g>
<mask id="mask7_9_2" style="mask-type:alpha" maskUnits="userSpaceOnUse" x="-19" y="266" width="1219" height="241">
<path d="M-16.4877 323.354C-16.4877 323.354 22.5499 192.876 68.6966 332.852C114.843 472.828 207.972 501.25 345.283 363.693C497.626 211.076 644.247 318.234 682.865 401.334C708.198 464.687 823.646 574.07 958.4 432.057C1075.63 308.508 834.039 315.559 1073.03 444.839C1312.02 574.12 1131.92 451.406 1131.92 451.406" stroke="url(#paint14_linear_9_2)" stroke-width="4"/>
</mask>
<g mask="url(#mask7_9_2)">
<rect x="-39.5141" y="482.576" width="298" height="1417.96" transform="rotate(-83.6376 -39.5141 482.576)" fill="url(#paint15_linear_9_2)"/>
</g>
<mask id="mask8_9_2" style="mask-type:alpha" maskUnits="userSpaceOnUse" x="-28" y="82" width="1219" height="241">
<path d="M-25.2823 139.924C-25.2823 139.924 13.7553 9.44661 59.902 149.423C106.049 289.399 199.177 317.82 336.488 180.263C488.832 27.6462 635.452 134.804 674.071 217.905C699.404 281.257 814.851 390.64 949.605 248.628C1066.84 125.078 825.245 132.129 1064.24 261.409C1303.23 390.69 1123.13 267.976 1123.13 267.976" stroke="url(#paint16_linear_9_2)" stroke-width="4"/>
</mask>
<g mask="url(#mask8_9_2)">
<rect x="-48.3087" y="299.147" width="298" height="1417.96" transform="rotate(-83.6376 -48.3087 299.147)" fill="url(#paint17_linear_9_2)"/>
</g>
<mask id="mask9_9_2" style="mask-type:alpha" maskUnits="userSpaceOnUse" x="-36" y="-101" width="1218" height="241">
<path d="M-34.0768 -43.5056C-34.0768 -43.5056 4.96076 -173.983 51.1075 -34.0072C97.2542 105.969 190.383 134.39 327.694 -3.16689C480.037 -155.784 626.658 -48.6258 665.276 34.4748C690.609 97.8275 806.056 207.21 940.811 65.1978C1058.05 -58.3518 816.45 -51.3009 1055.44 77.9796C1294.43 207.26 1114.33 84.5464 1114.33 84.5464" stroke="url(#paint18_linear_9_2)" stroke-width="4"/>
</mask>
<g mask="url(#mask9_9_2)">
<rect x="-57.1032" y="115.717" width="298" height="1417.96" transform="rotate(-83.6376 -57.1032 115.717)" fill="url(#paint19_linear_9_2)"/>
</g>
<mask id="mask10_9_2" style="mask-type:alpha" maskUnits="userSpaceOnUse" x="1" y="1523" width="1218" height="241">
<path d="M3.39368 1580.98C3.39368 1580.98 42.4313 1450.5 88.578 1590.48C134.725 1730.45 227.853 1758.87 365.164 1621.32C517.508 1468.7 664.128 1575.86 702.747 1658.96C728.08 1722.31 843.527 1831.69 978.281 1689.68C1095.52 1566.13 853.921 1573.18 1092.91 1702.46C1331.9 1831.74 1151.8 1709.03 1151.8 1709.03" stroke="url(#paint20_linear_9_2)" stroke-width="4"/>
</mask>
<g mask="url(#mask10_9_2)">
<rect x="-19.6327" y="1740.2" width="298" height="1417.96" transform="rotate(-83.6376 -19.6327 1740.2)" fill="url(#paint21_linear_9_2)"/>
</g>
</g>
<defs>
<linearGradient id="paint0_linear_9_2" x1="0.5" y1="1529.09" x2="1189.5" y2="1529.09" gradientUnits="userSpaceOnUse">
<stop stop-color="#D6A2A2"/>
<stop offset="1" stop-color="#D22C2C"/>
</linearGradient>
<linearGradient id="paint1_linear_9_2" x1="134.106" y1="1677.17" x2="134.106" y2="3052.4" gradientUnits="userSpaceOnUse">
<stop stop-color="#0DE2FF"/>
<stop offset="0.59" stop-color="#FFE5B2"/>
<stop offset="1" stop-color="#0BFFF0"/>
</linearGradient>
<linearGradient id="paint2_linear_9_2" x1="2.92218" y1="1338.71" x2="1192.56" y2="1634.84" gradientUnits="userSpaceOnUse">
<stop stop-color="#D6A2A2"/>
<stop offset="1" stop-color="#D22C2C"/>
</linearGradient>
<linearGradient id="paint3_linear_9_2" x1="100.75" y1="1478.57" x2="100.75" y2="2896.52" gradientUnits="userSpaceOnUse">
<stop stop-color="#0DE2FF"/>
<stop offset="0.59" stop-color="#FFE5B2"/>
<stop offset="1" stop-color="#0BFFF0"/>
</linearGradient>
<linearGradient id="paint4_linear_9_2" x1="2.99578" y1="1141.96" x2="1192.63" y2="1438.1" gradientUnits="userSpaceOnUse">
<stop stop-color="#D6A2A2"/>
<stop offset="1" stop-color="#D22C2C"/>
</linearGradient>
<linearGradient id="paint5_linear_9_2" x1="109.5" y1="1290.98" x2="109.5" y2="2708.94" gradientUnits="userSpaceOnUse">
<stop stop-color="#0DE2FF"/>
<stop offset="0.59" stop-color="#FFE5B2"/>
<stop offset="1" stop-color="#0BFFF0"/>
</linearGradient>
<linearGradient id="paint6_linear_9_2" x1="-7.81843" y1="1009.85" x2="1218.09" y2="1018.09" gradientUnits="userSpaceOnUse">
<stop stop-color="#D6A2A2"/>
<stop offset="1" stop-color="#D22C2C"/>
</linearGradient>
<linearGradient id="paint7_linear_9_2" x1="134.901" y1="1164.69" x2="134.901" y2="2582.65" gradientUnits="userSpaceOnUse">
<stop stop-color="#0DE2FF"/>
<stop offset="0.59" stop-color="#FFE5B2"/>
<stop offset="1" stop-color="#0BFFF0"/>
</linearGradient>
<linearGradient id="paint8_linear_9_2" x1="-6.81843" y1="822.855" x2="1219.09" y2="831.095" gradientUnits="userSpaceOnUse">
<stop stop-color="#D6A2A2"/>
<stop offset="1" stop-color="#D22C2C"/>
</linearGradient>
<linearGradient id="paint9_linear_9_2" x1="135.901" y1="977.69" x2="135.901" y2="2395.65" gradientUnits="userSpaceOnUse">
<stop stop-color="#0DE2FF"/>
<stop offset="0.59" stop-color="#FFE5B2"/>
<stop offset="1" stop-color="#0BFFF0"/>
</linearGradient>
<linearGradient id="paint10_linear_9_2" x1="-5.08354" y1="640.287" x2="1213.36" y2="775.663" gradientUnits="userSpaceOnUse">
<stop stop-color="#D6A2A2"/>
<stop offset="1" stop-color="#D22C2C"/>
</linearGradient>
<linearGradient id="paint11_linear_9_2" x1="121.606" y1="793.635" x2="121.606" y2="2211.59" gradientUnits="userSpaceOnUse">
<stop stop-color="#0DE2FF"/>
<stop offset="0.59" stop-color="#FFE5B2"/>
<stop offset="1" stop-color="#0BFFF0"/>
</linearGradient>
<linearGradient id="paint12_linear_9_2" x1="-17.4818" y1="512.064" x2="1208.19" y2="537.513" gradientUnits="userSpaceOnUse">
<stop stop-color="#D6A2A2"/>
<stop offset="1" stop-color="#D22C2C"/>
</linearGradient>
<linearGradient id="paint13_linear_9_2" x1="123.064" y1="666.796" x2="123.064" y2="2084.75" gradientUnits="userSpaceOnUse">
<stop stop-color="#0DE2FF"/>
<stop offset="0.59" stop-color="#FFE5B2"/>
<stop offset="1" stop-color="#0BFFF0"/>
</linearGradient>
<linearGradient id="paint14_linear_9_2" x1="-17.1437" y1="329.237" x2="1201.24" y2="465.092" gradientUnits="userSpaceOnUse">
<stop stop-color="#D6A2A2"/>
<stop offset="1" stop-color="#D22C2C"/>
</linearGradient>
<linearGradient id="paint15_linear_9_2" x1="109.486" y1="482.576" x2="109.486" y2="1900.53" gradientUnits="userSpaceOnUse">
<stop stop-color="#0DE2FF"/>
<stop offset="0.59" stop-color="#FFE5B2"/>
<stop offset="1" stop-color="#0BFFF0"/>
</linearGradient>
<linearGradient id="paint16_linear_9_2" x1="-25.9383" y1="145.807" x2="1192.45" y2="281.662" gradientUnits="userSpaceOnUse">
<stop stop-color="#D6A2A2"/>
<stop offset="1" stop-color="#D22C2C"/>
</linearGradient>
<linearGradient id="paint17_linear_9_2" x1="100.691" y1="299.147" x2="100.691" y2="1717.1" gradientUnits="userSpaceOnUse">
<stop stop-color="#0DE2FF"/>
<stop offset="0.59" stop-color="#FFE5B2"/>
<stop offset="1" stop-color="#0BFFF0"/>
</linearGradient>
<linearGradient id="paint18_linear_9_2" x1="-34.7328" y1="-37.6223" x2="1183.66" y2="98.2323" gradientUnits="userSpaceOnUse">
<stop stop-color="#D6A2A2"/>
<stop offset="1" stop-color="#D22C2C"/>
</linearGradient>
<linearGradient id="paint19_linear_9_2" x1="91.8968" y1="115.717" x2="91.8968" y2="1533.67" gradientUnits="userSpaceOnUse">
<stop stop-color="#0DE2FF"/>
<stop offset="0.59" stop-color="#FFE5B2"/>
<stop offset="1" stop-color="#0BFFF0"/>
</linearGradient>
<linearGradient id="paint20_linear_9_2" x1="2.73768" y1="1586.86" x2="1221.13" y2="1722.72" gradientUnits="userSpaceOnUse">
<stop stop-color="#D6A2A2"/>
<stop offset="1" stop-color="#D22C2C"/>
</linearGradient>
<linearGradient id="paint21_linear_9_2" x1="129.367" y1="1740.2" x2="129.367" y2="3158.16" gradientUnits="userSpaceOnUse">
<stop stop-color="#0DE2FF"/>
<stop offset="0.59" stop-color="#FFE5B2"/>
<stop offset="1" stop-color="#0BFFF0"/>
</linearGradient>
<clipPath id="clip0_9_2">
<rect width="1728" height="1117" fill="white" transform="matrix(0 -1 1 0 0.5 1728.5)"/>
</clipPath>
</defs>
</svg>
